<svg width="48" height="48" viewBox="0 0 48 48" fill="none" xmlns="http://www.w3.org/2000/svg">
<circle cx="24" cy="24" r="24" fill="url(#paint0_radial_1852_1763)"/>
<path d="M28.3009 34.9373L24.8689 31.7473C24.1209 31.9673 23.3362 32.0773 22.5149 32.0773C21.0922 32.0773 19.8016 31.7473 18.6429 31.0873C17.4842 30.4127 16.5676 29.4813 15.8929 28.2933C15.2329 27.0907 14.9029 25.734 14.9029 24.2233C14.9029 22.7127 15.2329 21.3633 15.8929 20.1753C16.5676 18.9727 17.4842 18.0413 18.6429 17.3813C19.8016 16.7067 21.0922 16.3693 22.5149 16.3693C23.9522 16.3693 25.2502 16.7067 26.4089 17.3813C27.5676 18.0413 28.4769 18.9727 29.1369 20.1753C29.7969 21.3633 30.1269 22.7127 30.1269 24.2233C30.1269 25.778 29.7822 27.164 29.0929 28.3813C28.4036 29.584 27.4576 30.508 26.2549 31.1533L30.3689 34.9373H28.3009ZM16.4869 24.2233C16.4869 25.5287 16.7509 26.68 17.2789 27.6773C17.8069 28.66 18.5256 29.4153 19.4349 29.9433C20.3442 30.4713 21.3709 30.7353 22.5149 30.7353C23.6589 30.7353 24.6856 30.4713 25.5949 29.9433C26.5042 29.4153 27.2229 28.66 27.7509 27.6773C28.2789 26.68 28.5429 25.5287 28.5429 24.2233C28.5429 22.918 28.2789 21.774 27.7509 20.7913C27.2229 19.8087 26.5042 19.0533 25.5949 18.5253C24.6856 17.9973 23.6589 17.7333 22.5149 17.7333C21.3709 17.7333 20.3442 17.9973 19.4349 18.5253C18.5256 19.0533 17.8069 19.8087 17.2789 20.7913C16.7509 21.774 16.4869 22.918 16.4869 24.2233ZM33.2303 32.0333C32.9076 32.0333 32.6363 31.9233 32.4163 31.7033C32.2109 31.4833 32.1083 31.212 32.1083 30.8893C32.1083 30.5667 32.2109 30.3027 32.4163 30.0973C32.6363 29.8773 32.9076 29.7673 33.2303 29.7673C33.5383 29.7673 33.7949 29.8773 34.0003 30.0973C34.2203 30.3027 34.3303 30.5667 34.3303 30.8893C34.3303 31.212 34.2203 31.4833 34.0003 31.7033C33.7949 31.9233 33.5383 32.0333 33.2303 32.0333Z" fill="#DF2238"/>
<defs>
<radialGradient id="paint0_radial_1852_1763" cx="0" cy="0" r="1" gradientUnits="userSpaceOnUse" gradientTransform="translate(24 24) rotate(90) scale(24)">
<stop offset="0.353193" stop-color="white"/>
<stop offset="1" stop-color="#FFF7F8"/>
</radialGradient>
</defs>
</svg>
