<svg width="80" height="80" viewBox="0 0 80 80" fill="none" xmlns="http://www.w3.org/2000/svg">
<rect width="80" height="80" rx="40" fill="#FBFBFB"/>
<path d="M24.231 34.6155L30.3848 54.2309H49.231L55.0002 37.3078L55.7694 34.2309L55.0002 33.8463L49.231 38.8463L46.9233 39.6155L45.7694 38.8463L40.0002 30.3848L34.231 38.8463L33.0771 39.6155L31.5386 39.2309L25.3848 34.2309L24.6156 33.8463L24.231 34.6155Z" fill="#FDCECF"/>
<path d="M23.9563 35.0032L23.9564 35.0032C23.8465 34.6349 23.941 34.2301 24.2173 33.9562L24.2174 33.956C24.4213 33.7551 24.691 33.6385 24.9769 33.6385C25.0855 33.6385 25.1949 33.6534 25.3046 33.6884C25.3576 33.7023 25.3965 33.7299 25.4307 33.7645L25.4308 33.7646L25.4311 33.7648L25.432 33.7658L25.4352 33.769L25.4464 33.78L25.487 33.8198C25.5219 33.8539 25.5723 33.9028 25.6365 33.9648C25.765 34.0887 25.9489 34.2646 26.1758 34.4775C26.6298 34.9034 27.2557 35.4774 27.954 36.0804C28.6525 36.6835 29.4228 37.3151 30.1656 37.8564C30.9094 38.3985 31.6217 38.8471 32.2047 39.0873L32.2048 39.0873C32.3995 39.1678 32.6076 39.2081 32.8159 39.2081C33.3649 39.2081 33.8649 38.931 34.1572 38.4703L23.9563 35.0032ZM23.9563 35.0032L23.9569 35.005M23.9563 35.0032L23.9569 35.005M23.9569 35.005L30.1109 53.9397C30.1109 53.9398 30.111 53.94 30.111 53.9401C30.2435 54.3648 30.6175 54.6588 31.0589 54.6896L23.9569 35.005ZM56.0401 35.003L56.0395 35.005L49.8855 53.9537C49.8854 53.9539 49.8854 53.9541 49.8853 53.9543L56.0401 35.003ZM56.0401 35.003C56.1499 34.6296 56.0502 34.2303 55.7799 33.957L56.0401 35.003ZM30.7037 53.7544L30.7037 53.7544C30.7587 53.9408 30.9319 54.0696 31.1358 54.0696H48.8652C49.0652 54.0696 49.2428 53.9401 49.2975 53.7586L49.2979 53.7571L49.2979 53.7571L55.4519 34.8083C55.452 34.8081 55.452 34.808 55.4521 34.8079C55.4985 34.6589 55.4566 34.5055 55.3454 34.3931C55.2826 34.3297 55.1575 34.2565 55.0148 34.2565H54.9525L54.9062 34.3002C54.906 34.3003 54.9058 34.3005 54.9057 34.3007C54.5308 34.6676 53.3811 35.7726 52.0418 36.9024C50.7046 38.0306 49.1693 39.1916 48.0265 39.6609C47.7569 39.7727 47.4731 39.826 47.1851 39.826C46.4255 39.826 45.728 39.4423 45.3239 38.8011L30.7037 53.7544ZM30.7037 53.7544L30.703 53.7524L24.5492 34.8135C24.5492 34.8133 24.5491 34.8131 24.549 34.8128C24.5023 34.6586 24.5401 34.5094 24.6561 34.388C24.6939 34.3499 24.8029 34.263 24.9593 34.2568L24.9678 34.2612H24.9862H25.0655L25.1032 34.2993L25.1032 34.2993L25.1041 34.3002C25.3345 34.5258 26.4718 35.6266 27.8412 36.7897C29.2076 37.9504 30.8152 39.1821 31.9838 39.6609L31.9846 39.6612C32.2528 39.7677 32.5363 39.826 32.8252 39.826C33.5848 39.826 34.2824 39.4422 34.6864 38.8009L39.6758 30.9179L39.6878 30.9058C39.77 30.8271 39.8848 30.7826 40.0051 30.7826C40.0778 30.7826 40.2081 30.7988 40.3228 30.9061L40.3345 30.9179L45.3239 38.8009L30.7037 53.7544ZM39.1604 30.566L34.1572 38.4702L54.5664 33.7638C54.4764 33.8523 53.3604 34.9468 51.9763 36.1384C50.589 37.3326 48.9434 38.6145 47.7917 39.0873L47.7916 39.0873C47.5968 39.1678 47.3887 39.2081 47.1805 39.2081C46.6362 39.2081 46.1361 38.9311 45.8438 38.4702L40.8173 30.5379L40.818 30.5374L40.8107 30.5289C40.6102 30.296 40.3103 30.1599 40.0005 30.1599C39.6844 30.1599 39.3896 30.2973 39.167 30.5571L39.1664 30.5566L39.1604 30.566Z" fill="#161A1E" stroke="#161A1E" stroke-width="0.153846"/>
<path d="M38.5681 26.7399C38.5681 27.5321 39.2102 28.1764 39.9956 28.1764H40.0003C40.7905 28.1764 41.4278 27.532 41.4278 26.7399C41.4278 25.9476 40.7855 25.3034 39.9956 25.3034C39.2053 25.3034 38.5681 25.9479 38.5681 26.7399ZM39.1907 26.7446C39.1907 26.2949 39.5554 25.9308 40.0049 25.9308C40.4539 25.9308 40.8144 26.2944 40.8144 26.7446C40.8144 27.1943 40.4498 27.5585 40.0003 27.5585C39.5512 27.5585 39.1907 27.1949 39.1907 26.7446Z" fill="#161A1E" stroke="#161A1E" stroke-width="0.153846"/>
<path d="M22.2312 30.4714C22.2312 31.2632 22.8683 31.9079 23.6541 31.9079H23.6587C24.449 31.9079 25.0862 31.2634 25.0862 30.4714C25.0862 29.6788 24.4392 29.0349 23.6541 29.0349C22.8683 29.0349 22.2312 29.6795 22.2312 30.4714ZM23.6633 29.5084V29.5084V29.5084Z" fill="#161A1E" stroke="#161A1E" stroke-width="0.153846"/>
<path d="M54.9143 30.4714C54.9143 31.2632 55.5514 31.9079 56.3372 31.9079H56.3418C57.1321 31.9079 57.7693 31.2634 57.7693 30.4714C57.7693 29.6788 57.1223 29.0349 56.3372 29.0349C55.5514 29.0349 54.9143 29.6795 54.9143 30.4714ZM56.3418 29.5084V29.5084V29.5084Z" fill="#161A1E" stroke="#161A1E" stroke-width="0.153846"/>
</svg>
