<svg width="104" height="104" viewBox="0 0 104 104" fill="none" xmlns="http://www.w3.org/2000/svg">
<rect width="104" height="104" rx="52" fill="#FBFBFB"/>
<g clip-path="url(#clip0_1852_3462)">
<path d="M56.3935 42.8403L49.2993 37.613H58.0396L60.7961 29.0508L63.5514 37.613H72.2916L65.1974 42.8403L67.9608 51.3998L60.7961 46.1174L53.6301 51.3998L56.3935 42.8403Z" fill="#FDCECF"/>
<path d="M53.3644 51.8124C53.3169 51.8124 53.2708 51.8041 53.2247 51.789L53.1474 51.7628C52.9183 51.6855 52.7922 51.4318 52.8681 51.1973L55.5962 42.7467L48.6458 37.6243C48.5319 37.5401 48.4641 37.405 48.4641 37.2615V37.1581C48.4641 36.9112 48.6621 36.7098 48.9048 36.7098H57.504L60.2077 28.3089C60.2674 28.1241 60.4355 28 60.6267 28H60.7284C60.9196 28 61.0877 28.1241 61.1474 28.3089L63.8511 36.7098H72.4503C72.693 36.7098 72.891 36.9112 72.891 37.1581V37.2615C72.891 37.405 72.8232 37.5401 72.7093 37.6243L65.7683 42.7385L68.0042 48.8622C68.0449 48.974 68.0408 49.0967 67.992 49.2057C67.9432 49.3146 67.8551 49.3974 67.7453 49.4388C67.6951 49.4581 67.6436 49.4677 67.592 49.4677C67.409 49.4677 67.2422 49.3505 67.1785 49.1753L64.826 42.7316C64.7568 42.544 64.8205 42.3302 64.9805 42.2116L71.2313 37.6063H63.5324C63.3412 37.6063 63.1731 37.4822 63.1134 37.2974L60.6782 29.7309L58.243 37.2974C58.1833 37.4822 58.0152 37.6063 57.824 37.6063H50.1238L56.3745 42.2116C56.5305 42.3261 56.5942 42.5288 56.5345 42.715L54.0966 50.2691L60.4192 45.6086C60.4952 45.5535 60.5847 45.5231 60.6782 45.5231C60.7718 45.5231 60.8613 45.5521 60.9372 45.6086L67.6815 50.5808C67.8781 50.7256 67.9229 51.007 67.7805 51.2069C67.6978 51.3228 67.5636 51.3918 67.4225 51.3918C67.329 51.3918 67.2395 51.3628 67.1636 51.3062L60.6782 46.5258L53.6234 51.7269C53.5474 51.7835 53.458 51.8124 53.3644 51.8124Z" fill="#161A1E"/>
<path d="M22.0359 76.0001C21.8217 76.0001 21.64 75.8442 21.602 75.6291C21.5817 75.5118 21.6075 75.3918 21.6752 75.2939C21.743 75.196 21.8447 75.1312 21.96 75.1105C26.3355 74.3312 35.0324 72.8968 37.5924 72.4762L37.728 72.4541L35.0514 56.6922L34.9158 56.7198C32.9131 57.1225 26.0277 58.5059 21.5261 59.4217C21.4976 59.4272 21.4678 59.43 21.4393 59.43C21.2305 59.43 21.0488 59.2783 21.0081 59.0686C20.9607 58.8259 21.1153 58.5887 21.3539 58.5404C26.6555 57.4618 35.248 55.7378 35.3253 55.7226C35.3537 55.7171 35.3822 55.7144 35.4107 55.7144C35.5002 55.7144 35.587 55.7419 35.6602 55.793C35.7578 55.8606 35.8242 55.9681 35.8446 56.0867L38.673 72.7479C38.6934 72.8651 38.6649 72.9878 38.5971 73.0844C38.5293 73.1809 38.4235 73.2471 38.3083 73.2665L38.2757 73.272C37.1286 73.4609 26.9321 75.1367 22.1119 75.9946C22.0861 75.9987 22.0603 76.0015 22.0346 76.0015L22.0359 76.0001Z" fill="#161A1E"/>
<path d="M58.6769 69.2046C55.424 69.2046 50.8736 68.5936 48.6987 68.2336C48.0614 68.1274 47.3604 68.075 46.6146 68.075C44.8072 68.075 43.0106 68.3908 41.8228 68.657C41.7916 68.6639 41.7604 68.668 41.7279 68.668C41.6411 68.668 41.5571 68.6418 41.4852 68.5936C41.3862 68.5274 41.3171 68.4212 41.2954 68.3039L39.6696 59.7044C39.6357 59.5224 39.7157 59.3348 39.8717 59.2382C41.5069 58.2121 43.5421 56.9363 44.8289 56.608C46.1943 56.2605 47.675 55.9377 49.26 55.9377C49.6397 55.9377 50.0248 55.957 50.4031 55.9929C51.2912 56.0798 52.258 56.2094 53.1922 56.3336C54.3298 56.4853 55.4037 56.6301 56.2349 56.6853C56.3759 56.6949 56.5711 56.6991 56.8138 56.6991C58.4491 56.6991 61.9772 56.4922 64.0843 56.3681C64.8015 56.3253 65.3615 56.2936 65.5812 56.2839C65.668 56.2812 65.7534 56.2784 65.8361 56.2784C67.4564 56.2784 68.6442 56.8977 69.3696 58.1211L69.3967 58.1652L69.4456 58.1804C69.634 58.2411 69.931 58.2714 70.3269 58.2714C70.8489 58.2714 71.5554 58.219 72.4259 58.1142C73.2828 58.0121 76.0557 57.0701 77.2285 55.5557C78.0448 54.5006 78.9966 53.9199 79.9119 53.9199C80.221 53.9199 80.5234 53.9889 80.7851 54.1172C81.6108 54.5254 82.0312 55.4729 81.8061 56.4205C81.6325 57.1487 76.7485 62.9594 75.3546 63.9069C73.9065 64.8917 64.7473 68.3494 61.0443 69.0391C60.4545 69.1494 59.6586 69.2046 58.6796 69.2046H58.6769ZM46.6187 67.1771C47.4119 67.1771 48.159 67.235 48.841 67.3481C51.7224 67.8253 55.8864 68.3081 58.6904 68.3081C59.607 68.3081 60.3446 68.257 60.8829 68.1563C64.6293 67.4585 73.6326 63.998 74.8624 63.1608C76.2075 62.245 80.5383 57.008 80.9437 56.2039L80.9519 56.1874L80.9559 56.1694C81.0644 55.6426 80.8407 55.1419 80.3987 54.9226C80.2509 54.8495 80.0841 54.8123 79.9051 54.8123C79.539 54.8123 78.7933 54.9806 77.9214 56.1074C76.5546 57.8728 73.5513 58.881 72.5289 59.0024C71.5798 59.1155 70.9154 59.1665 70.3717 59.1665C69.6666 59.1665 69.1717 59.0769 68.8584 58.8907C68.792 58.8507 68.7364 58.7941 68.6971 58.7252C68.2659 57.9569 67.5893 57.1708 65.8497 57.1708C65.7737 57.1708 65.6951 57.1721 65.6151 57.1749C65.4104 57.1832 64.8639 57.2149 64.1738 57.2549H64.1439C61.4063 57.4177 58.3569 57.5887 56.8165 57.5887C56.5494 57.5887 56.3338 57.5832 56.1766 57.5735C55.3183 57.517 54.2308 57.3708 53.0796 57.2177L53.0552 57.2149C52.1332 57.0922 51.1814 56.9639 50.3176 56.8798C49.9705 56.8453 49.6166 56.8287 49.2654 56.8287C47.7672 56.8287 46.3502 57.1377 45.0418 57.4714C43.9882 57.7404 42.2337 58.8052 40.6716 59.783L40.5916 59.8327L42.075 67.6805L42.2093 67.6529C43.7875 67.3343 45.2709 67.173 46.6187 67.173V67.1771Z" fill="#161A1E"/>
<path d="M38.048 73.319C37.8364 73.319 37.6547 73.1646 37.6154 72.9522C37.5707 72.7094 37.7293 72.4749 37.968 72.4294L41.313 71.7936C41.4133 71.7757 41.5015 71.7205 41.5571 71.6391C41.5896 71.5909 41.6398 71.4916 41.614 71.3591L39.1123 58.4771C39.0866 58.3433 39.0012 58.2716 38.9537 58.2399C38.913 58.2137 38.8452 58.1806 38.7585 58.1806C38.7313 58.1806 38.7029 58.1834 38.6757 58.1902L36.0141 58.7116C35.9856 58.7171 35.9585 58.7199 35.93 58.7199C35.7198 58.7199 35.5381 58.5668 35.4975 58.3558C35.4758 58.2385 35.4988 58.1185 35.5653 58.0192C35.6317 57.9199 35.7307 57.8523 35.8473 57.8303L38.4832 57.3144C38.5781 57.2924 38.669 57.2827 38.7612 57.2827C38.9985 57.2827 39.2303 57.3531 39.4323 57.4855C39.7184 57.673 39.911 57.9627 39.9774 58.302L42.4791 71.184C42.5442 71.5219 42.475 71.8639 42.2838 72.1467C42.0913 72.4294 41.8025 72.6184 41.4689 72.6749L38.1307 73.3094C38.1035 73.3149 38.0764 73.3177 38.0493 73.3177L38.048 73.319Z" fill="#161A1E"/>
<path d="M55.5338 62.6396C55.3074 62.6396 55.1189 62.4672 55.0959 62.2369C55.0837 62.1183 55.1176 62.001 55.1921 61.9086C55.2667 61.8162 55.3725 61.7583 55.4891 61.7459C58.7691 61.3997 67.653 60.0687 68.4313 59.8412L68.4449 59.837L68.4571 59.8301C68.9574 59.5612 68.8801 59.1791 68.7798 58.9157C68.6917 58.6854 68.8042 58.4247 69.0306 58.335C69.0822 58.3143 69.1364 58.3047 69.1906 58.3047C69.3737 58.3047 69.535 58.4164 69.6015 58.5916C69.9933 59.6177 69.455 60.328 68.8205 60.6494C68.3012 60.9128 58.4341 62.3389 55.5799 62.6396C55.5637 62.641 55.5488 62.6424 55.5338 62.6424V62.6396Z" fill="#161A1E"/>
</g>
<defs>
<clipPath id="clip0_1852_3462">
<rect width="61" height="48" fill="white" transform="translate(21 28)"/>
</clipPath>
</defs>
</svg>
