<svg width="512" height="23" viewBox="0 0 512 23" fill="none" xmlns="http://www.w3.org/2000/svg">
<mask id="path-1-outside-1_1471_114" maskUnits="userSpaceOnUse" x="-0.0183501" y="-8.03429" width="512.63" height="44.8521" fill="black">
<rect fill="white" x="-0.0183501" y="-8.03429" width="512.63" height="44.8521"/>
<path d="M253.677 4.0754C249.656 3.29221 244.909 3.04835 241.224 2.91965C239.531 2.86054 237.837 2.81943 236.173 2.77933C217.912 2.35191 199.884 3.04995 181.473 3.8668C159.125 4.85852 135.579 6.29501 109.497 8.26168C74.9375 10.8634 34.1361 14.719 1.00005 18.4398C18.1351 15.8723 34.3524 14.0718 47.8043 12.6973C106.083 6.73076 154.726 3.23914 200.89 1.7094L204.438 1.59303C215.288 1.22703 226.517 0.8442 237.457 1.22624C241.375 1.36305 244.979 1.58504 248.465 1.90498C254.45 2.45041 258.461 3.23326 261.255 5.59557C263.523 7.50696 265.311 10.6631 254.782 15.9783L247.299 19.7539L256.991 19.005C272.674 17.7926 288.643 16.9866 302.195 16.3665C352.298 14.0612 397.913 13.2512 441.666 13.9021L444.095 13.9389C452.052 14.0545 460.271 14.1733 468.367 14.456C478.475 14.809 486.805 15.3522 494.582 16.1705C498.973 16.6302 505.443 17.4448 510.875 19.1543C511.172 19.2488 511.459 19.3429 511.736 19.4367C510.445 19.2475 509.181 19.1252 507.936 19.0036C507.434 18.9561 506.932 18.9085 506.43 18.8549C498.768 18.0467 490.982 17.4985 485.058 17.1114C476.912 16.5807 468.327 16.1547 459.534 15.8476C426.356 14.689 392.36 15.286 360.375 16.0013C321.596 16.8638 280.374 18.0435 240.304 22.0507C240.129 22.0686 239.974 22.0752 239.828 22.0701C239.306 22.0519 238.963 21.8837 238.81 21.572C238.737 21.4193 238.572 20.8969 239.486 20.5203C240.35 20.16 241.225 19.8061 242.09 19.4458C245.43 18.0787 248.889 16.6616 252.13 15.0868C252.396 14.9579 252.672 14.8293 252.957 14.6891C255.518 13.469 259.024 11.8013 260.109 9.5864C261.048 7.65482 259.615 5.96482 255.848 4.57174"/>
</mask>
<path d="M253.677 4.0754C249.656 3.29221 244.909 3.04835 241.224 2.91965C239.531 2.86054 237.837 2.81943 236.173 2.77933C217.912 2.35191 199.884 3.04995 181.473 3.8668C159.125 4.85852 135.579 6.29501 109.497 8.26168C74.9375 10.8634 34.1361 14.719 1.00005 18.4398C18.1351 15.8723 34.3524 14.0718 47.8043 12.6973C106.083 6.73076 154.726 3.23914 200.89 1.7094L204.438 1.59303C215.288 1.22703 226.517 0.8442 237.457 1.22624C241.375 1.36305 244.979 1.58504 248.465 1.90498C254.45 2.45041 258.461 3.23326 261.255 5.59557C263.523 7.50696 265.311 10.6631 254.782 15.9783L247.299 19.7539L256.991 19.005C272.674 17.7926 288.643 16.9866 302.195 16.3665C352.298 14.0612 397.913 13.2512 441.666 13.9021L444.095 13.9389C452.052 14.0545 460.271 14.1733 468.367 14.456C478.475 14.809 486.805 15.3522 494.582 16.1705C498.973 16.6302 505.443 17.4448 510.875 19.1543C511.172 19.2488 511.459 19.3429 511.736 19.4367C510.445 19.2475 509.181 19.1252 507.936 19.0036C507.434 18.9561 506.932 18.9085 506.43 18.8549C498.768 18.0467 490.982 17.4985 485.058 17.1114C476.912 16.5807 468.327 16.1547 459.534 15.8476C426.356 14.689 392.36 15.286 360.375 16.0013C321.596 16.8638 280.374 18.0435 240.304 22.0507C240.129 22.0686 239.974 22.0752 239.828 22.0701C239.306 22.0519 238.963 21.8837 238.81 21.572C238.737 21.4193 238.572 20.8969 239.486 20.5203C240.35 20.16 241.225 19.8061 242.09 19.4458C245.43 18.0787 248.889 16.6616 252.13 15.0868C252.396 14.9579 252.672 14.8293 252.957 14.6891C255.518 13.469 259.024 11.8013 260.109 9.5864C261.048 7.65482 259.615 5.96482 255.848 4.57174" fill="#DF2238"/>
<path d="M253.654 4.17289L255.826 4.66922L255.87 4.47425L253.699 3.97791L253.654 4.17289ZM236.173 2.77933L236.178 2.57939L236.178 2.57938L236.173 2.77933ZM181.473 3.8668L181.465 3.667L181.473 3.8668ZM109.497 8.26168L109.512 8.46111L109.512 8.46111L109.497 8.26168ZM1.00005 18.4398L0.970415 18.242L1.02237 18.6385L1.00005 18.4398ZM47.8043 12.6973L47.8246 12.8963L47.8246 12.8962L47.8043 12.6973ZM200.89 1.7094L200.883 1.50951L200.883 1.50951L200.89 1.7094ZM204.438 1.59303L204.445 1.79293L204.445 1.79292L204.438 1.59303ZM248.465 1.90498L248.446 2.10415L248.446 2.10416L248.465 1.90498ZM261.255 5.59557L261.126 5.74829L261.126 5.74848L261.255 5.59557ZM254.782 15.9783L254.872 16.1569L254.872 16.1569L254.782 15.9783ZM247.299 19.7539L247.209 19.5753L247.314 19.9533L247.299 19.7539ZM256.991 19.005L257.006 19.2044L257.006 19.2044L256.991 19.005ZM302.195 16.3665L302.204 16.5663L302.204 16.5663L302.195 16.3665ZM441.666 13.9021L441.669 13.7021L441.669 13.7021L441.666 13.9021ZM444.095 13.9389L444.092 14.1388L444.093 14.1388L444.095 13.9389ZM494.582 16.1705L494.561 16.3694L494.561 16.3694L494.582 16.1705ZM510.875 19.1543L510.935 18.9637L510.935 18.9635L510.875 19.1543ZM511.736 19.4367L511.707 19.6346L511.8 19.2472L511.736 19.4367ZM507.936 19.0036L507.955 18.8046L507.955 18.8045L507.936 19.0036ZM506.43 18.8549L506.451 18.6561L506.451 18.656L506.43 18.8549ZM485.058 17.1114L485.071 16.9118L485.071 16.9118L485.058 17.1114ZM360.375 16.0013L360.38 16.2013L360.38 16.2013L360.375 16.0013ZM240.304 22.0507L240.284 21.8517L240.283 21.8517L240.304 22.0507ZM238.81 21.572L238.629 21.6575L238.63 21.6605L238.81 21.572ZM239.486 20.5203L239.562 20.7052L239.562 20.7049L239.486 20.5203ZM242.09 19.4458L242.014 19.2607L242.013 19.2612L242.09 19.4458ZM252.13 15.0868L252.043 14.9068L252.043 14.9069L252.13 15.0868ZM252.957 14.6891L252.871 14.5086L252.869 14.5096L252.957 14.6891ZM260.109 9.5864L260.288 9.67436L260.289 9.67385L260.109 9.5864ZM253.715 3.87909C249.677 3.09257 244.916 2.84848 241.231 2.71978L241.217 3.11953C244.902 3.24823 249.635 3.49185 253.638 4.27171L253.715 3.87909ZM241.231 2.71978C239.536 2.66062 237.842 2.61948 236.178 2.57939L236.168 2.97927C237.833 3.01937 239.525 3.06046 241.217 3.11953L241.231 2.71978ZM236.178 2.57938C217.91 2.15179 199.875 2.85014 181.465 3.667L181.482 4.06661C199.893 3.24975 217.915 2.55203 236.168 2.97927L236.178 2.57938ZM181.465 3.667C159.114 4.65882 135.566 6.09545 109.482 8.06224L109.512 8.46111C135.592 6.49458 159.136 5.05821 181.482 4.06661L181.465 3.667ZM109.482 8.06224C74.92 10.6642 34.1161 14.52 0.977734 18.241L1.02237 18.6385C34.156 14.918 74.9551 11.0627 109.512 8.46111L109.482 8.06224ZM1.02969 18.6376C18.1602 16.0708 34.374 14.2706 47.8246 12.8963L47.7839 12.4983C34.3308 13.8729 18.11 15.6738 0.970415 18.242L1.02969 18.6376ZM47.8246 12.8962C106.1 6.93007 154.739 3.43885 200.896 1.90929L200.883 1.50951C154.714 3.03944 106.066 6.53145 47.7839 12.4983L47.8246 12.8962ZM200.896 1.90929L204.445 1.79293L204.432 1.39314L200.883 1.50951L200.896 1.90929ZM204.445 1.79292C215.296 1.42687 226.518 1.04436 237.45 1.42612L237.464 1.02636C226.516 0.64404 215.28 1.02719 204.432 1.39315L204.445 1.79292ZM237.45 1.42612C241.364 1.56281 244.965 1.78459 248.446 2.10415L248.483 1.70582C244.994 1.3855 241.385 1.16329 237.464 1.02636L237.45 1.42612ZM248.446 2.10416C254.437 2.65005 258.386 3.43171 261.126 5.74829L261.384 5.44284C258.536 3.03482 254.463 2.25077 248.483 1.70581L248.446 2.10416ZM261.126 5.74848C262.251 6.69639 263.169 7.88125 262.628 9.44511C262.352 10.2441 261.688 11.1685 260.425 12.2293C259.164 13.2891 257.316 14.4749 254.691 15.7998L254.872 16.1569C257.512 14.8241 259.389 13.6223 260.683 12.5356C261.975 11.45 262.697 10.4693 263.006 9.57593C263.636 7.75506 262.527 6.40614 261.384 5.44266L261.126 5.74848ZM254.691 15.7998L247.209 19.5753L247.389 19.9325L254.872 16.1569L254.691 15.7998ZM247.314 19.9533L257.006 19.2044L256.975 18.8056L247.283 19.5545L247.314 19.9533ZM257.006 19.2044C272.686 17.9922 288.653 17.1864 302.204 16.5663L302.186 16.1667C288.634 16.7868 272.662 17.5929 256.975 18.8056L257.006 19.2044ZM302.204 16.5663C352.304 14.2612 397.915 13.4513 441.663 14.102L441.669 13.7021C397.911 13.0512 352.292 13.8613 302.186 16.1667L302.204 16.5663ZM441.663 14.102L444.092 14.1388L444.098 13.7389L441.669 13.7021L441.663 14.102ZM444.093 14.1388C452.05 14.2545 460.266 14.3733 468.36 14.6559L468.374 14.2562C460.275 13.9733 452.055 13.8545 444.098 13.7389L444.093 14.1388ZM468.36 14.6559C478.465 15.0088 486.79 15.5517 494.561 16.3694L494.603 15.9716C486.82 15.1527 478.486 14.6093 468.374 14.2562L468.36 14.6559ZM494.561 16.3694C498.951 16.829 505.404 17.6421 510.815 19.3451L510.935 18.9635C505.482 17.2475 498.994 16.4313 494.603 15.9715L494.561 16.3694ZM510.814 19.3449C511.11 19.439 511.396 19.5328 511.672 19.6262L511.8 19.2472C511.522 19.153 511.233 19.0585 510.935 18.9637L510.814 19.3449ZM511.765 19.2388C510.469 19.0488 509.199 18.9261 507.955 18.8046L507.916 19.2027C509.162 19.3243 510.422 19.4462 511.707 19.6346L511.765 19.2388ZM507.955 18.8045C507.452 18.7569 506.952 18.7095 506.451 18.6561L506.409 19.0538C506.912 19.1075 507.415 19.1552 507.917 19.2027L507.955 18.8045ZM506.451 18.656C498.785 17.8474 490.995 17.2989 485.071 16.9118L485.045 17.311C490.968 17.698 498.752 18.2461 506.409 19.0538L506.451 18.656ZM485.071 16.9118C476.923 16.3809 468.336 15.9549 459.541 15.6478L459.527 16.0475C468.318 16.3545 476.902 16.7804 485.045 17.311L485.071 16.9118ZM459.541 15.6478C426.356 14.4889 392.356 15.0861 360.371 15.8014L360.38 16.2013C392.365 15.486 426.355 14.8891 459.527 16.0475L459.541 15.6478ZM360.371 15.8014C321.591 16.6638 280.363 17.8436 240.284 21.8517L240.324 22.2497C280.386 18.2433 321.6 17.0637 360.38 16.2013L360.371 15.8014ZM240.283 21.8517C240.115 21.8689 239.969 21.8749 239.835 21.8703L239.821 22.27C239.978 22.2755 240.142 22.2683 240.324 22.2497L240.283 21.8517ZM239.835 21.8703C239.346 21.8532 239.095 21.6995 238.989 21.4835L238.63 21.6605C238.831 22.068 239.266 22.2506 239.821 22.27L239.835 21.8703ZM238.99 21.4866C238.965 21.4321 238.927 21.3196 238.968 21.1918C239.008 21.0697 239.138 20.88 239.562 20.7052L239.409 20.3354C238.92 20.5372 238.676 20.797 238.588 21.0685C238.501 21.3342 238.582 21.5592 238.629 21.6574L238.99 21.4866ZM239.562 20.7049C239.994 20.525 240.429 20.3467 240.863 20.1681C241.298 19.9896 241.733 19.8108 242.166 19.6305L242.013 19.2612C241.581 19.4411 241.146 19.6195 240.712 19.7981C240.277 19.9766 239.842 20.1553 239.409 20.3357L239.562 20.7049ZM242.165 19.6309C245.505 18.2642 248.969 16.8448 252.217 15.2667L252.043 14.9069C248.808 16.4785 245.355 17.8932 242.014 19.2607L242.165 19.6309ZM252.217 15.2668C252.478 15.1405 252.761 15.0083 253.046 14.8687L252.869 14.5096C252.582 14.6504 252.314 14.7753 252.043 14.9068L252.217 15.2668ZM253.043 14.8697C254.322 14.2606 255.85 13.5335 257.194 12.6796C258.533 11.8289 259.721 10.8336 260.288 9.67436L259.929 9.49844C259.412 10.5541 258.305 11.5001 256.979 12.342C255.659 13.1806 254.154 13.8976 252.871 14.5086L253.043 14.8697ZM260.289 9.67385C260.538 9.16183 260.634 8.6544 260.567 8.15708C260.5 7.66017 260.271 7.1898 259.896 6.74768C259.15 5.86978 257.811 5.08431 255.918 4.38415L255.779 4.75932C257.653 5.45224 258.913 6.20832 259.591 7.00658C259.927 7.40255 260.116 7.80391 260.171 8.21068C260.226 8.61702 260.149 9.04518 259.929 9.49895L260.289 9.67385Z" fill="#DF2238" mask="url(#path-1-outside-1_1471_114)"/>
</svg>
