<svg width="104" height="104" viewBox="0 0 104 104" fill="none" xmlns="http://www.w3.org/2000/svg">
<rect width="104" height="104" rx="52" fill="#FBFBFB"/>
<path d="M31.5 45L39.5 70.5H64L71.5 48.5L72.5 44.5L71.5 44L64 50.5L61 51.5L59.5 50.5L52 39.5L44.5 50.5L43 51.5L41 51L33 44.5L32 44L31.5 45Z" fill="#FDCECF"/>
<path d="M71.0058 43.9644L70.9356 43.8931C70.8187 44.0082 69.3679 45.4311 67.5685 46.9801C65.765 48.5327 63.6258 50.1991 62.1286 50.8137L62.1284 50.8138C61.8753 50.9184 61.6047 50.9707 61.334 50.9707C60.6264 50.9707 59.9763 50.6107 59.5963 50.0116C59.5963 50.0116 59.5963 50.0116 59.5963 50.0116L53.0619 39.6995L53.058 39.6933L53.0532 39.6878C52.7926 39.385 52.4028 39.2081 52 39.2081C51.5891 39.2081 51.2059 39.3867 50.9165 39.7245L50.9118 39.73L50.9079 39.7361L44.4038 50.0116C44.0238 50.6105 43.3738 50.9707 42.66 50.9707C42.3893 50.9707 42.1187 50.9184 41.8656 50.8138L41.8655 50.8137C41.1075 50.5015 40.1816 49.9183 39.2146 49.2136C38.249 48.5099 37.2476 47.6888 36.3396 46.9048C35.4317 46.1209 34.6181 45.3747 34.0279 44.821C33.7329 44.5442 33.4938 44.3156 33.3268 44.1545C33.2433 44.0739 33.1779 44.0103 33.1325 43.9659L33.0797 43.9142L33.0652 43.8999L33.061 43.8958L33.0597 43.8945L33.0594 43.8942L33.0593 43.894C33.0148 43.8492 32.9642 43.8133 32.8953 43.7952C32.7527 43.7497 32.6105 43.7303 32.4693 43.7303C32.0977 43.7303 31.7471 43.8819 31.482 44.1431L31.4818 44.1433C31.1227 44.4994 30.9998 45.0257 31.1426 45.5045L31.1426 45.5045L31.1434 45.5068L39.1435 70.1218C39.1436 70.122 39.1436 70.1222 39.1437 70.1224C39.3159 70.6745 39.8021 71.0567 40.3759 71.0967V71.1124H40.4759H63.5241C64.1408 71.1124 64.6682 70.7247 64.8504 70.1404C64.8504 70.1403 64.8504 70.1402 64.8505 70.1401L72.8506 45.5068L72.8507 45.5068L72.8514 45.5041C72.9943 45.0188 72.8647 44.4998 72.5134 44.1445C72.2526 43.8746 71.9006 43.7303 71.5247 43.7303C71.3778 43.7303 71.2346 43.7496 71.0965 43.7958C71.0382 43.8131 70.982 43.8463 70.9347 43.894L71.0058 43.9644ZM71.0058 43.9644C71.042 43.9278 71.0842 43.9035 71.1264 43.8913L59.5118 50.0651C59.91 50.6929 60.5918 51.0707 61.334 51.0707C61.6175 51.0707 61.9011 51.0159 62.1666 50.9062C65.1954 49.6629 70.7705 44.196 71.0058 43.9644ZM39.9142 69.8809L39.9141 69.8809C39.9856 70.1233 40.2109 70.2907 40.4759 70.2907H63.5241C63.7841 70.2907 64.015 70.1224 64.0861 69.8865L64.0867 69.8844L72.0869 45.251C72.0869 45.2509 72.087 45.2507 72.087 45.2506C72.1474 45.0569 72.093 44.8574 71.9484 44.7113L72.0194 44.6409L71.9484 44.7113C71.8667 44.6288 71.7041 44.5337 71.5186 44.5337H71.4377L71.3774 44.5905C71.3772 44.5907 71.3769 44.5909 71.3767 44.5912C70.8894 45.0681 69.3947 46.5046 67.6538 47.9734C65.9155 49.4399 63.9197 50.9491 62.4342 51.5593M39.9142 69.8809L62.4339 51.5594C62.434 51.5593 62.4341 51.5593 62.4342 51.5593M39.9142 69.8809L39.9133 69.8783M39.9142 69.8809L39.9133 69.8783M62.4342 51.5593C62.0836 51.7047 61.7145 51.7741 61.34 51.7741C60.3525 51.7741 59.4457 51.2752 58.9205 50.4416L62.4342 51.5593ZM52.4342 40.1935L58.9204 50.4414L52.4418 40.2012L52.4342 40.1935ZM52.4342 40.1935L52.419 40.1782M52.4342 40.1935L52.419 40.1782M52.419 40.1782C52.2699 40.0387 52.1005 40.0176 52.006 40.0176C51.8496 40.0176 51.7003 40.0755 51.5935 40.1778L51.5779 40.1935L45.0917 50.4414C45.0917 50.4415 45.0917 50.4415 45.0916 50.4416L45.0916 50.4416L52.419 40.1782ZM39.9133 69.8783L31.9133 45.2578C31.9133 45.2575 31.9132 45.2572 31.9131 45.2569C31.8523 45.0564 31.9015 44.8625 32.0522 44.7046C32.1014 44.6552 32.2432 44.5422 32.4464 44.5341L32.4576 44.5398M39.9133 69.8783L32.4576 44.5398M32.4576 44.5398H32.4814M32.4576 44.5398H32.4814M32.4814 44.5398H32.5845H32.4814Z" fill="#161A1E" stroke="#161A1E" stroke-width="0.2"/>
<path d="M50.1382 34.7616C50.1382 35.7914 50.9729 36.629 51.994 36.629H52C53.0274 36.629 53.8558 35.7912 53.8558 34.7616C53.8558 33.7315 53.0209 32.8941 51.994 32.8941C50.9666 32.8941 50.1382 33.7319 50.1382 34.7616ZM50.9476 34.7677C50.9476 34.183 51.4216 33.7097 52.006 33.7097C52.5898 33.7097 53.0584 34.1824 53.0584 34.7677C53.0584 35.3523 52.5844 35.8257 52 35.8257C51.4163 35.8257 50.9476 35.353 50.9476 34.7677Z" fill="#161A1E" stroke="#161A1E" stroke-width="0.2"/>
<path d="M28.9 39.6127C28.9 40.6421 29.7282 41.4801 30.7497 41.4801H30.7558C31.7831 41.4801 32.6115 40.6423 32.6115 39.6127C32.6115 38.5823 31.7704 37.7452 30.7497 37.7452C29.7282 37.7452 28.9 38.5832 28.9 39.6127ZM30.7588 38.5608C31.3354 38.5624 31.8082 39.0348 31.8082 39.6188C31.8082 40.203 31.3284 40.6767 30.7497 40.6767C30.1724 40.6767 29.7034 40.2044 29.7034 39.6188C29.7034 39.0351 30.1758 38.5624 30.7588 38.5608Z" fill="#161A1E" stroke="#161A1E" stroke-width="0.2"/>
<path d="M71.3885 39.6127C71.3885 40.6421 72.2167 41.4801 73.2382 41.4801H73.2442C74.2716 41.4801 75.1 40.6423 75.1 39.6127C75.1 38.5823 74.2589 37.7452 73.2382 37.7452C72.2167 37.7452 71.3885 38.5832 71.3885 39.6127ZM73.2412 38.5608C73.8179 38.5624 74.2906 39.0348 74.2906 39.6188C74.2906 40.203 73.8109 40.6767 73.2322 40.6767C72.6548 40.6767 72.1858 40.2044 72.1858 39.6188C72.1858 39.0351 72.6582 38.5624 73.2412 38.5608Z" fill="#161A1E" stroke="#161A1E" stroke-width="0.2"/>
</svg>
