<svg width="104" height="104" viewBox="0 0 104 104" fill="none" xmlns="http://www.w3.org/2000/svg">
<rect width="104" height="104" rx="52" fill="#FBFBFB"/>
<path d="M24.519 54.512C24.519 50.8213 25.0523 47.984 26.119 46C27.1857 43.9947 29.1483 42.992 32.007 42.992C34.8443 42.992 36.7963 43.9947 37.863 46C38.9297 47.984 39.463 50.8213 39.463 54.512C39.463 58.2453 38.9297 61.1253 37.863 63.152C36.7963 65.1573 34.8443 66.16 32.007 66.16C29.1483 66.16 27.1857 65.1573 26.119 63.152C25.0523 61.1253 24.519 58.2453 24.519 54.512ZM38.055 54.512C38.055 52.3787 37.895 50.576 37.575 49.104C37.2763 47.632 36.679 46.4693 35.783 45.616C34.9083 44.7413 33.6497 44.304 32.007 44.304C30.3643 44.304 29.095 44.7413 28.199 45.616C27.3243 46.4693 26.727 47.632 26.407 49.104C26.1083 50.576 25.959 52.3787 25.959 54.512C25.959 56.688 26.1083 58.5227 26.407 60.016C26.727 61.488 27.3243 62.6613 28.199 63.536C29.095 64.4107 30.3643 64.848 32.007 64.848C33.6497 64.848 34.9083 64.4107 35.783 63.536C36.679 62.6613 37.2763 61.488 37.575 60.016C37.895 58.5227 38.055 56.688 38.055 54.512Z" fill="#161A1E"/>
<path d="M55.2857 49L61 55L55.2857 61V49Z" fill="#FDCECF"/>
<path d="M46 55H55.2308M61 55L55.2857 49V61L61 55Z" stroke="#161A1E"/>
<path d="M70.0954 44.56V43.248H74.8314V66H73.3914V44.56H70.0954Z" fill="#161A1E"/>
</svg>
