<svg width="48" height="48" viewBox="0 0 48 48" fill="none" xmlns="http://www.w3.org/2000/svg">
<circle cx="24" cy="24" r="24" fill="url(#paint0_radial_1852_1805)"/>
<path d="M27.2872 28.2713H20.2912L18.9492 31.9233H17.3212L22.9312 16.7433H24.6692L30.2572 31.9233H28.6292L27.2872 28.2713ZM26.8252 26.9953L23.7892 18.6793L20.7532 26.9953H26.8252ZM32.9928 32.0333C32.6701 32.0333 32.3988 31.9233 32.1788 31.7033C31.9734 31.4833 31.8708 31.212 31.8708 30.8893C31.8708 30.5667 31.9734 30.3027 32.1788 30.0973C32.3988 29.8773 32.6701 29.7673 32.9928 29.7673C33.3008 29.7673 33.5574 29.8773 33.7628 30.0973C33.9828 30.3027 34.0928 30.5667 34.0928 30.8893C34.0928 31.212 33.9828 31.4833 33.7628 31.7033C33.5574 31.9233 33.3008 32.0333 32.9928 32.0333Z" fill="#161A1E"/>
<defs>
<radialGradient id="paint0_radial_1852_1805" cx="0" cy="0" r="1" gradientUnits="userSpaceOnUse" gradientTransform="translate(24 24) rotate(90) scale(24)">
<stop offset="0.353193" stop-color="white"/>
<stop offset="1" stop-color="#F8F8F8"/>
</radialGradient>
</defs>
</svg>
