<svg width="725" height="220" viewBox="0 0 725 220" fill="none" xmlns="http://www.w3.org/2000/svg">
<path d="M101.667 116.431C101.522 117.944 100.99 119.297 100.071 120.489C99.1519 121.681 98.0617 122.666 96.8003 123.443L96.7068 123.45C95.2715 124.427 93.805 125.407 92.3074 126.389C90.872 127.366 89.3678 128.255 87.7948 129.054C86.039 129.929 84.4123 130.857 82.9146 131.839C81.417 132.821 79.8947 133.898 78.3478 135.071L78.0803 135.278L79.0678 135.961C78.7286 136.486 78.1646 136.932 77.3759 137.301C76.5828 137.607 75.7941 137.975 75.0097 138.406C74.2834 138.77 73.6904 139.25 73.2309 139.846C72.8337 140.438 72.8258 141.222 73.2073 142.197C70.0106 144.864 66.4055 146.62 62.3921 147.465C58.4411 148.305 54.4197 148.586 50.3279 148.308C48.5647 148.181 46.6369 147.94 44.5446 147.585C42.5145 147.226 40.4468 146.775 38.3414 146.233C36.2403 145.753 34.1951 145.176 32.2056 144.501C30.2161 143.825 28.4115 143.106 26.7918 142.342C26.467 142.176 26.14 141.98 25.8108 141.752C25.4773 141.462 25.1481 141.235 24.8233 141.07L19.2244 137.608L19.0439 137.715C17.9609 138.354 17.1404 139.163 16.5823 140.142C16.0198 141.059 15.5864 142.029 15.2821 143.053C14.9154 144.081 14.5799 145.107 14.2756 146.13C13.9713 147.154 13.5937 148.026 13.1429 148.747C12.6297 149.472 11.9454 149.99 11.09 150.3C10.2389 150.673 9.08111 150.691 7.61659 150.355C7.33363 148.996 7.23772 147.625 7.32884 146.24C7.41561 144.793 7.50456 143.377 7.59569 141.992C7.68682 140.608 7.75113 139.287 7.78863 138.032C7.82613 136.776 7.68313 135.627 7.35962 134.585C8.50935 134.003 9.18057 133.298 9.37328 132.47C9.49929 131.584 9.56295 130.703 9.56426 129.825C9.50322 128.953 9.60241 128.131 9.86184 127.361C10.1213 126.591 10.9237 125.971 12.2692 125.501C12.1733 124.13 12.3043 122.867 12.6623 121.715C13.0202 120.562 13.4115 119.438 13.8362 118.343C14.2565 117.186 14.6145 116.033 14.9101 114.885C15.268 113.732 15.3657 112.441 15.2031 111.011C16.9977 108.004 18.5653 104.887 19.906 101.66C21.2424 98.3717 22.5164 95.0873 23.728 91.8073C24.9889 88.3359 26.3144 84.8913 27.7043 81.4735C29.09 77.9934 30.7112 74.7474 32.5681 71.7355C34.4831 68.6569 36.7003 65.8705 39.22 63.3761C41.7976 60.8151 44.8755 58.689 48.4538 56.9977C48.8192 56.8469 49.307 56.6561 49.9174 56.4255C50.5858 56.1281 51.2876 55.8598 52.0227 55.6204C52.7578 55.3811 53.4327 55.1772 54.0474 55.0089C54.7202 54.7739 55.2124 54.6455 55.5242 54.6237C55.8359 54.6019 56.2143 54.6381 56.6595 54.7323C57.1626 54.7598 57.5723 54.7938 57.8884 54.8343C58.899 54.9516 59.9096 55.0689 60.9203 55.1862C61.9266 55.2411 62.8792 55.4251 63.7783 55.7382C64.7353 55.9845 65.5785 56.3955 66.3079 56.971C67.0997 57.5421 67.7508 58.3424 68.2614 59.3718L68.2679 59.4653C68.4275 59.9554 68.6226 60.5056 68.8533 61.116C69.1419 61.6597 69.3972 62.1744 69.6191 62.6601C70.1558 64.0636 70.7099 65.7165 71.2815 67.6187C71.9155 69.5166 72.2869 71.2449 72.3959 72.8036C72.6793 76.8562 72.3327 80.8589 71.356 84.8117C70.3794 88.7644 69.1113 92.5809 67.5517 96.2612L67.6518 96.3482C71.1585 100.802 74.1237 105.575 76.5474 110.669C79.0291 115.695 80.4683 121.046 80.865 126.719C82.6513 126.281 84.3266 125.6 85.891 124.676C87.4554 123.752 89.0175 122.797 90.5775 121.811C92.3202 120.749 94.0985 119.748 95.9122 118.807C97.784 117.798 99.7021 117.007 101.667 116.431ZM56.7169 101.248C56.495 100.762 56.1636 100.503 55.7228 100.472C55.34 100.373 54.9014 100.372 54.407 100.47C54.162 100.549 53.9459 100.596 53.7589 100.609C53.6298 100.555 53.4406 100.537 53.1912 100.555C52.1269 100.566 51.236 100.817 50.5183 101.305C49.7963 101.732 49.1787 102.308 48.6655 103.033C48.1524 103.758 47.7081 104.572 47.3327 105.475C46.9529 106.316 46.571 107.126 46.1869 107.905L46.5937 108.346C47.8232 108.01 48.9816 107.553 50.069 106.976C51.1564 106.398 52.2394 105.759 53.3181 105.057C53.8574 104.706 54.4301 104.384 55.0361 104.091C55.6422 103.798 56.246 103.474 56.8477 103.118L56.7169 101.248ZM75.5081 126.718C74.9278 124.691 74.341 122.57 73.7476 120.356C73.1498 118.08 72.4318 115.875 71.5933 113.741C70.8173 111.602 69.8295 109.572 68.6301 107.651C67.493 105.726 66.0906 104.038 64.4229 102.589C64.0519 103.554 63.4605 104.504 62.6486 105.438C61.8368 106.372 60.8981 107.283 59.8325 108.172C58.8249 108.995 57.784 109.788 56.7097 110.552C55.6934 111.25 54.764 111.847 53.9217 112.345C52.9198 112.352 51.8084 112.587 50.5876 113.048C49.3624 113.447 48.1351 113.815 46.9056 114.151C45.6717 114.425 44.4893 114.539 43.3583 114.493C42.2853 114.38 41.3978 113.785 40.6959 112.706L40.6894 112.612C40.2978 112.389 39.8795 112.23 39.4343 112.136C39.0515 112.038 38.7202 111.779 38.4403 111.36C38.2227 110.937 38.219 110.436 38.4291 109.857C38.7016 109.274 38.9698 108.629 39.2336 107.921C39.5597 107.209 39.7901 106.473 39.9249 105.711C40.0596 104.95 39.8804 104.179 39.3873 103.399C39.6349 101.565 40.2959 100.266 41.3702 99.5016C42.4401 98.675 43.6834 98.0868 45.1 97.7372C46.5745 97.3208 48.0556 96.998 49.5432 96.7686C51.0932 96.5349 52.4387 96.0649 53.5797 95.3586C54.7992 95.7746 56.1905 95.9592 57.7535 95.9126C59.3122 95.8036 60.6621 95.3959 61.8031 94.6896L63.3053 90.6374C64.1054 88.6393 64.7916 86.8057 65.3641 85.1367C65.9946 83.401 66.4402 81.7095 66.7009 80.0623C67.024 78.4108 67.1557 76.7099 67.0959 74.9598C67.0942 73.143 66.859 71.1233 66.3903 68.9005L66.3772 68.7135L66.2837 68.72C65.3803 68.3446 64.8713 67.785 64.7566 67.0412C64.6419 66.2974 64.5541 65.4891 64.493 64.6162C63.9376 63.8406 63.2531 63.0113 62.4395 62.1284C61.6259 61.2455 60.7696 60.6475 59.8706 60.3345C59.1006 60.075 58.2125 59.9179 57.2062 59.8629C56.1999 59.808 55.169 59.8487 54.1135 59.9852C53.1159 60.055 52.1271 60.2494 51.1469 60.5686C50.2292 60.8834 49.4114 61.2851 48.6938 61.7739L48.5198 61.974C48.0777 62.8194 47.5914 63.4799 47.0608 63.9556C46.5258 64.3689 45.8683 64.8221 45.0883 65.3153C44.549 65.6662 43.9495 66.0527 43.2898 66.4748C42.6881 66.8301 42.122 67.2456 41.5914 67.7213C41.1187 68.1303 40.715 68.6284 40.3802 69.2157C40.0453 69.803 39.9062 70.5019 39.9629 71.3124L40.2049 74.7727C40.2092 74.835 40.131 75.0598 39.9701 75.447C39.8715 75.8298 39.7128 76.2481 39.494 76.702C39.3374 77.1515 39.1809 77.601 39.0244 78.0505C38.8635 78.4377 38.7562 78.6958 38.7026 78.8249C37.9605 80.7563 37.1851 82.6588 36.3763 84.5323C35.5676 86.4058 34.5652 88.1988 33.3692 89.9114L33.3758 90.0049C32.7715 92.1147 32.136 94.2267 31.4694 96.3408C30.8651 98.4506 30.2941 100.589 29.7565 102.757C28.5204 107.48 27.2198 112.176 25.8547 116.845C24.4896 121.514 22.5793 126.002 20.1237 130.309C22.2104 131.479 24.3326 132.709 26.4903 133.999C28.6437 135.226 30.871 136.167 33.1722 136.821C34.1916 137.063 35.211 137.305 36.2303 137.547C37.2497 137.789 38.2132 138.128 39.121 138.566L39.221 138.653C40.2186 138.583 41.2894 138.665 42.4335 138.898C43.5732 139.069 44.7129 139.24 45.8526 139.411C46.9879 139.52 48.0877 139.568 49.152 139.556C50.2743 139.478 51.2522 139.128 52.0858 138.505C52.5977 138.658 53.0341 138.627 53.3951 138.414C53.8185 138.196 54.2128 138.012 54.5782 137.861C54.9392 137.648 55.2778 137.562 55.5939 137.602C55.968 137.576 56.3305 137.833 56.6815 138.372C57.747 137.483 58.8634 136.872 60.0306 136.54C61.2601 136.204 62.5208 135.865 63.8127 135.524C64.4898 135.351 65.1357 135.181 65.7505 135.012C66.4232 134.777 67.0981 134.574 67.7752 134.401L67.8688 134.394L67.9557 134.294C68.4066 133.574 68.9038 133.069 69.4475 132.78C69.9912 132.492 70.5951 132.168 71.2591 131.808C71.7448 131.586 72.2283 131.333 72.7097 131.049C73.2533 130.76 73.7013 130.447 74.0536 130.109C74.4016 129.709 74.5603 129.29 74.5297 128.854C74.5572 128.351 74.3287 127.771 73.8444 127.116L74.1184 127.003C74.4083 126.669 74.6178 126.53 74.7469 126.583C74.9339 126.57 75.1877 126.615 75.5081 126.718ZM146.43 135.667C146.822 135.891 146.993 136.098 146.944 136.289C146.894 136.481 146.752 136.679 146.515 136.883C146.341 137.083 146.103 137.257 145.8 137.403C145.492 137.487 145.247 137.567 145.065 137.642L142.298 138.4C139.964 139.064 137.767 139.907 135.709 140.928C133.654 142.012 131.566 143.066 129.445 144.091C129.174 143.797 128.816 143.603 128.371 143.509C127.988 143.41 127.654 143.559 127.368 143.955C127.444 144.137 127.494 144.416 127.52 144.79C127.573 145.538 127.583 146.133 127.551 146.573C127.524 147.077 127.43 147.522 127.269 147.909C127.17 148.292 126.976 148.65 126.686 148.983C126.4 149.379 126.026 149.844 125.562 150.378C124.982 151.045 125.097 151.35 125.908 151.293C125.51 151.885 125.065 152.229 124.57 152.327C124.45 152.398 124.265 152.442 124.016 152.459C123.891 152.468 123.768 152.508 123.648 152.579C123.594 152.708 123.674 152.953 123.887 153.314C124.105 153.737 124.249 154.009 124.32 154.13C124.325 154.192 124.242 154.354 124.073 154.617C123.903 154.879 123.733 155.142 123.564 155.404C123.399 155.729 123.262 156.021 123.155 156.279C123.052 156.599 123.07 156.849 123.207 157.027L123.26 157.775C123.58 157.878 123.587 157.971 123.279 158.056C123.039 158.198 122.887 158.271 122.825 158.275C122.762 158.28 122.584 158.417 122.29 158.689C122 159.022 121.857 159.22 121.861 159.282C121.745 159.416 121.594 159.489 121.407 159.502C121.287 159.573 121.137 159.678 120.959 159.815C120.897 159.82 120.81 159.92 120.698 160.116C120.653 160.369 120.608 160.623 120.563 160.877C120.518 161.131 120.473 161.384 120.428 161.638C120.384 161.892 120.394 162.048 120.461 162.106C120.518 162.916 120.472 163.609 120.324 164.183C120.239 164.753 120.131 165.449 120.001 166.273C119.821 167.288 119.495 168 119.022 168.409C118.616 168.876 118.175 169.283 117.698 169.629C117.225 170.038 116.755 170.478 116.287 170.95C115.881 171.417 115.588 172.158 115.408 173.173C115.363 173.426 115.316 173.649 115.267 173.84C115.213 173.97 115.193 174.128 115.206 174.315L115.219 174.502C115 174.956 114.806 175.314 114.637 175.576C114.534 175.897 114.429 176.186 114.321 176.444C114.214 176.702 114.14 176.989 114.1 177.305C114.059 177.621 114.054 177.998 114.085 178.434C114.222 178.612 114.242 178.893 114.143 179.276C114.107 179.654 114.009 180.037 113.848 180.424C113.687 180.811 113.495 181.201 113.272 181.592C113.111 181.979 112.975 182.271 112.863 182.467C112.698 182.791 112.501 183.118 112.274 183.448C112.046 183.777 111.819 184.106 111.591 184.435C110.408 186.335 109.441 188.188 108.69 189.995C107.564 192.705 106.149 195.31 104.444 197.81C104.1 198.273 103.697 198.771 103.233 199.304C102.831 199.834 102.523 200.357 102.309 200.873L102.354 201.527C102.442 202.774 102.164 203.734 101.522 204.405C100.88 205.076 100.079 205.728 99.1211 206.358C98.8268 206.63 98.5013 206.903 98.1447 207.179C97.788 207.454 97.4981 207.788 97.2749 208.179C96.9356 208.704 96.4805 209.362 95.9093 210.154C95.2758 210.95 94.6894 211.524 94.15 211.875C94.0253 211.884 93.6179 211.881 92.9277 211.866C92.2375 211.852 91.8301 211.849 91.7054 211.858C91.5851 211.929 91.4067 212.067 91.1704 212.271C90.8718 212.48 90.5731 212.689 90.2744 212.898C89.9758 213.107 89.6749 213.284 89.3719 213.431C89.0689 213.577 88.884 213.621 88.8173 213.564C88.4302 213.403 88.1119 213.331 87.8625 213.348C87.7378 213.357 87.6175 213.428 87.5015 213.562C87.3275 213.762 87.1826 213.928 87.0666 214.062C86.5591 213.972 86.1806 213.936 85.9312 213.953C85.8066 213.962 85.6108 213.85 85.344 213.618C85.0148 213.391 84.7124 213.099 84.4369 212.742C84.1033 212.452 83.8321 212.158 83.6233 211.859C83.3521 211.565 83.181 211.358 83.1099 211.237C82.6255 210.582 82.3195 209.789 82.1917 208.858C82.064 207.927 82.0254 206.927 82.076 205.859C82.0686 204.857 82.1235 203.851 82.2408 202.84C82.3581 201.829 82.4841 200.943 82.6188 200.182C82.8433 198.913 83.0345 197.616 83.1924 196.289C83.3546 195.024 83.3921 193.769 83.3049 192.522C83.2831 192.21 83.328 191.956 83.4396 191.761C83.5512 191.565 83.6628 191.369 83.7744 191.173C83.8904 191.04 83.9107 190.882 83.8353 190.699C83.7642 190.579 83.6931 190.458 83.6221 190.338C83.5466 190.155 83.5828 189.777 83.7306 189.203C83.8784 188.629 84.0842 187.988 84.348 187.28C84.5538 186.639 84.7908 185.996 85.0589 185.351C85.2691 184.772 85.4299 184.385 85.5416 184.189C86.6316 181.857 87.6193 179.408 88.5048 176.84C89.328 174.276 90.4804 171.94 91.9619 169.831C92.8186 168.644 93.6754 167.456 94.5321 166.268C95.3889 165.081 96.2101 163.833 96.9957 162.525C97.335 162 97.6205 161.604 97.8525 161.337C98.1917 160.812 98.7245 160.368 99.4509 160.004C100.177 159.64 100.888 159.496 101.582 159.573C101.645 159.568 101.912 159.362 102.385 158.953C102.92 158.539 103.216 158.299 103.274 158.233C103.467 157.405 103.811 156.504 104.307 155.529C104.807 154.617 105.314 153.798 105.827 153.073C106.17 152.611 106.647 152.264 107.258 152.034C107.868 151.803 108.51 151.57 109.182 151.335C109.917 151.096 110.617 150.796 111.281 150.436C111.949 150.139 112.54 149.628 113.053 148.903C113.455 148.374 113.975 147.742 114.613 147.008C115.313 146.27 115.997 145.752 116.665 145.455C117.298 145.536 118.133 145.384 119.171 144.998C120.271 144.608 120.989 144.119 121.324 143.532C121.605 143.073 121.711 142.345 121.641 141.348C121.606 140.849 121.75 140.213 122.071 139.438C122.455 138.66 122.759 138.074 122.982 137.683C123.259 137.162 123.474 136.646 123.626 136.134C123.778 135.622 123.93 135.111 124.082 134.599C124.185 134.278 124.259 133.991 124.304 133.737C124.345 133.421 124.385 133.105 124.426 132.789C124.484 132.722 124.593 132.495 124.754 132.108C124.915 131.721 125.076 131.334 125.237 130.947C125.46 130.555 125.623 130.199 125.726 129.879C125.887 129.492 125.934 129.269 125.867 129.211C125.863 129.149 125.671 129.099 125.293 129.063C124.915 129.027 124.507 129.024 124.071 129.055C123.692 129.019 123.316 129.014 122.942 129.04C122.563 129.004 122.343 128.988 122.281 128.992C122.031 129.009 121.664 129.129 121.178 129.351C120.755 129.569 120.271 129.822 119.727 130.11C119.246 130.395 118.829 130.706 118.477 131.044C118.12 131.319 117.915 131.521 117.862 131.65C115.914 132.476 113.945 132.989 111.955 133.191C109.964 133.393 107.997 133.938 106.054 134.826C104.9 135.345 103.615 135.779 102.198 136.129C100.84 136.412 99.5037 136.568 98.19 136.597C98.1277 136.602 97.9385 136.583 97.6224 136.543C97.3019 136.44 96.9503 136.339 96.5675 136.241C96.1803 136.08 95.8265 135.948 95.506 135.845C95.1856 135.742 94.9942 135.693 94.9318 135.697C94.6114 135.594 94.2844 135.398 93.9508 135.108C93.6753 134.751 93.3997 134.395 93.1242 134.038C92.9066 133.615 92.6912 133.223 92.478 132.862C92.2605 132.438 92.0806 132.106 91.9385 131.866C91.5788 131.201 91.2814 130.533 91.0464 129.86C90.7491 129.192 90.5141 128.519 90.3414 127.842C90.2791 127.846 90.2305 127.599 90.1956 127.1C90.1782 126.851 90.1317 126.635 90.0563 126.452C89.6892 124.786 89.4025 122.927 89.1963 120.874C88.9277 118.825 89.2087 117.02 90.0393 115.458C90.2582 115.004 90.5061 114.517 90.7829 113.996C91.0554 113.413 91.3345 112.924 91.62 112.528C91.8476 112.199 92.0484 111.934 92.2224 111.734C92.3963 111.534 92.5971 111.269 92.8247 110.94C92.8783 110.811 92.9943 110.678 93.1726 110.54C93.3466 110.34 93.4314 110.209 93.427 110.146C94.0649 109.412 94.6383 108.652 95.1471 107.864C95.6559 107.077 96.1335 106.292 96.58 105.509C96.6916 105.313 96.8634 105.082 97.0953 104.815C97.3229 104.486 97.5527 104.188 97.7847 103.921C98.0746 103.587 98.3711 103.347 98.6741 103.201C98.9728 102.992 99.2511 102.941 99.5092 103.048C99.821 103.027 100.102 103.007 100.351 102.99C100.663 102.968 100.977 102.977 101.293 103.018C101.639 103.495 101.886 103.885 102.032 104.188C102.241 104.486 102.359 104.823 102.385 105.197C102.469 105.504 102.495 105.878 102.463 106.319C102.489 106.693 102.522 107.161 102.561 107.722C102.267 107.993 101.942 108.266 101.585 108.542C101.228 108.818 100.872 109.093 100.515 109.369C100.399 109.502 100.209 109.923 99.9454 110.63C99.744 111.334 99.5179 112.132 99.2672 113.027C99.0745 113.855 98.8818 114.683 98.6891 115.511C98.5544 116.272 98.4624 116.749 98.4131 116.94C98.1524 118.587 97.6111 120.254 96.7892 121.94C96.0297 123.623 95.1302 125.095 94.0908 126.358L94.0169 126.645C94.4839 127.051 94.8885 127.462 95.2307 127.876C95.631 128.224 96.0312 128.572 96.4315 128.92C97.1796 128.868 97.8901 128.724 98.5628 128.489C98.892 128.717 99.2212 128.944 99.5504 129.172C99.9419 129.395 100.273 129.654 100.544 129.948C101.355 129.891 102.072 129.841 102.695 129.798C103.381 129.75 104.003 129.675 104.559 129.573C105.178 129.467 105.793 129.299 106.404 129.068C107.014 128.838 107.647 128.48 108.302 127.996C108.543 127.854 108.902 127.609 109.379 127.263C109.851 126.854 110.243 126.638 110.555 126.617L113.883 125.82C114.426 125.531 114.937 125.214 115.414 124.867C115.949 124.454 116.455 124.074 116.932 123.727C117.23 123.518 117.562 123.339 117.928 123.188C118.351 122.97 118.714 122.788 119.017 122.642C120.889 121.634 122.461 120.365 123.732 118.835C125.066 117.3 126.431 115.764 127.827 114.225C128.933 113.02 129.966 111.664 130.925 110.156C131.943 108.581 132.745 107.052 133.33 105.57C133.692 104.48 134.117 103.385 134.604 102.286C135.087 101.125 135.64 100.083 136.265 99.1625C136.725 98.5665 137.409 98.0488 138.318 97.6093C139.227 97.1698 140.051 96.8616 140.791 96.6846C141.281 96.525 141.762 96.6793 142.233 97.1476C142.7 97.5535 142.949 97.9747 142.979 98.4111C143.124 99.5914 143.163 100.591 143.095 101.41C143.027 102.23 142.861 102.993 142.597 103.701C142.329 104.346 141.97 105.029 141.519 105.75C141.064 106.408 140.495 107.231 139.812 108.218L137.857 111.175C137.803 111.304 137.81 111.397 137.877 111.455C138.006 111.509 138.106 111.596 138.177 111.716C138.248 111.836 138.263 112.055 138.223 112.371C138.178 112.624 138.106 112.943 138.007 113.326C137.909 113.708 137.808 114.06 137.705 114.38C137.602 114.701 137.522 114.894 137.464 114.961C137.402 114.966 137.346 115.063 137.297 115.255C137.243 115.384 137.158 115.515 137.042 115.648L136.707 116.236C135.98 117.477 135.377 118.71 134.898 119.933C134.478 121.091 134.38 122.382 134.605 123.807C134.645 124.368 134.524 124.878 134.242 125.336C134.023 125.79 133.744 126.279 133.405 126.804C133.062 127.267 132.725 127.823 132.394 128.473C132.064 129.122 131.873 129.981 131.823 131.05C131.778 131.304 131.762 131.524 131.775 131.711C131.783 131.836 131.759 131.932 131.701 131.998C131.705 132.061 131.71 132.123 131.714 132.185L131.727 132.372C131.502 133.641 131.236 134.756 130.927 135.718C130.614 136.617 130.252 137.707 129.84 138.989C129.903 138.985 130.079 138.816 130.369 138.482C130.721 138.144 131.104 137.804 131.519 137.462C131.996 137.115 132.475 136.8 132.957 136.516C133.5 136.227 134.028 136.159 134.54 136.311C134.923 136.409 135.363 136.441 135.862 136.406C136.357 136.309 136.818 136.183 137.245 136.028C137.735 135.868 138.134 135.746 138.442 135.662C138.745 135.516 138.927 135.44 138.99 135.436C139.551 135.397 140.081 135.36 140.58 135.325C141.078 135.29 141.579 135.286 142.082 135.314C142.149 135.372 142.338 135.39 142.65 135.368C143.024 135.342 143.432 135.345 143.872 135.376C144.376 135.404 144.848 135.433 145.288 135.465C145.791 135.493 146.172 135.56 146.43 135.667ZM119.076 150.361C118.902 150.561 118.583 150.928 118.119 151.462C117.66 152.058 117.136 152.627 116.547 153.17C116.025 153.77 115.495 154.246 114.955 154.597C114.42 155.01 114.024 155.163 113.766 155.056L113.044 155.482C112.442 155.837 112.067 156.302 111.919 156.876C111.772 157.451 111.626 158.056 111.482 158.693C111.401 159.325 111.256 159.93 111.046 160.509C110.898 161.083 110.492 161.55 109.828 161.91C108.991 161.592 108.379 161.353 107.992 161.192C107.667 161.027 107.382 160.984 107.137 161.064C106.892 161.144 106.627 161.382 106.341 161.777C106.06 162.236 105.574 162.896 104.882 163.759C103.276 165.876 101.636 167.964 99.9636 170.024C98.3573 172.141 96.7199 174.26 95.0514 176.382C94.7021 177.659 94.2615 178.974 93.7296 180.327C93.1354 181.685 92.5389 183.011 91.9403 184.306C91.2837 185.667 90.7336 187.209 90.2902 188.932C89.8468 190.655 89.4991 192.402 89.2471 194.174C88.9371 196.012 88.7206 197.844 88.5976 199.67C88.4123 201.5 88.2807 203.201 88.2026 204.772C88.2737 204.893 88.4941 204.909 88.8638 204.82C89.2379 204.794 89.6388 204.703 90.0665 204.548C90.4362 204.46 90.8038 204.34 91.1691 204.189C91.5389 204.101 91.7839 204.021 91.9042 203.95C91.9666 203.945 92.1137 203.81 92.3457 203.543C92.5776 203.276 92.8386 202.976 93.1285 202.642C93.3561 202.313 93.5837 201.984 93.8113 201.655C93.9809 201.392 94.0635 201.23 94.0592 201.168C94.2998 201.026 94.7232 200.808 95.3292 200.515C95.9353 200.222 96.363 200.067 96.6124 200.049C96.7371 200.041 96.8132 199.785 96.8406 199.282C96.8057 198.783 96.7839 198.471 96.7752 198.346L96.6641 196.756C96.5306 196.64 96.4755 196.3 96.4986 195.734C96.4594 195.173 96.4354 194.83 96.4267 194.706C97.0907 194.346 97.7235 193.988 98.3252 193.633C98.9892 193.273 99.6511 192.882 100.311 192.46C100.459 191.886 100.635 191.279 100.841 190.638C101.051 190.059 101.293 189.478 101.565 188.895C102.646 186.439 103.665 183.987 104.622 181.539C105.583 179.154 106.698 176.727 107.966 174.257C108.904 172.437 109.777 170.591 110.586 168.717C111.461 166.902 112.366 165.053 113.299 163.17C113.353 163.041 113.46 162.783 113.621 162.396C113.844 162.005 114.067 161.613 114.291 161.222C114.576 160.826 114.833 160.463 115.06 160.134C115.355 159.863 115.595 159.721 115.782 159.708C116.094 159.686 116.264 159.423 116.291 158.92C116.323 158.479 116.332 158.165 116.319 157.978C116.302 157.729 116.421 157.188 116.676 156.356C116.998 155.582 117.315 154.745 117.628 153.846C118.008 153.005 118.33 152.23 118.593 151.523C118.92 150.811 119.08 150.424 119.076 150.361ZM254.425 107.628C254.369 109.512 253.827 111.179 252.801 112.629C251.833 114.012 250.635 115.255 249.209 116.357C247.778 117.397 246.213 118.321 244.515 119.129C242.818 119.937 241.242 120.705 239.79 121.433C239.855 122.368 239.678 122.976 239.259 123.255C238.903 123.531 238.446 123.72 237.889 123.821C237.328 123.86 236.705 123.904 236.019 123.952C235.395 123.996 234.847 124.222 234.375 124.631L233.387 123.948C233.217 124.211 233.014 124.444 232.778 124.648C232.6 124.786 232.426 124.986 232.256 125.249C232.029 125.578 231.801 125.907 231.573 126.236C231.404 126.499 231.101 126.645 230.664 126.676C229.832 126.421 229.017 126.415 228.22 126.659C227.422 126.903 226.6 127.242 225.754 127.677C224.969 128.108 224.154 128.541 223.307 128.976C222.456 129.349 221.594 129.566 220.721 129.627L220.634 129.727C219.983 130.273 219.517 130.776 219.236 131.234C218.95 131.63 218.613 132.186 218.225 132.903C217.774 133.623 217.317 134.25 216.853 134.784C216.455 135.376 215.754 135.644 214.747 135.589C214.547 135.415 214.285 135.246 213.96 135.08C213.635 134.915 213.344 134.779 213.086 134.672C212.378 134.408 211.986 134.185 211.911 134.002C211.902 133.877 211.669 133.674 211.211 133.393C210.734 133.74 209.914 134.11 208.751 134.505C207.592 134.962 206.336 135.363 204.982 135.708C203.694 136.111 202.405 136.484 201.113 136.824C199.883 137.161 198.959 137.382 198.34 137.488C198.006 137.198 197.706 136.937 197.439 136.705C197.177 136.536 196.879 136.306 196.545 136.016L196.452 136.023C194.915 136.443 193.4 136.737 191.908 136.904C190.483 137.129 189.054 137.292 187.62 137.392C186.186 137.492 184.752 137.593 183.318 137.693C181.884 137.793 180.421 137.927 178.929 138.094C177.884 136.601 176.892 135.855 175.953 135.858C175.018 135.924 174.1 136.239 173.2 136.803C172.299 137.367 171.432 137.96 170.599 138.582C169.703 139.209 168.77 139.305 167.8 138.872L167.713 138.972C166.202 139.767 164.853 140.644 163.668 141.604C162.486 142.627 161.333 143.616 160.21 144.572C159.028 145.594 157.809 146.525 156.552 147.365C155.237 148.271 153.718 148.941 151.994 149.375C150.944 148.697 149.993 148.544 149.142 148.917C148.291 149.289 147.478 149.754 146.702 150.309C145.864 150.869 145.08 151.3 144.349 151.601C143.618 151.903 142.882 151.673 142.139 150.91L142.046 150.917L142.039 150.823C141.648 150.6 141.298 150.53 140.991 150.614C140.683 150.699 140.409 150.812 140.169 150.954C139.87 151.163 139.634 151.367 139.46 151.567C139.286 151.767 139.103 151.843 138.912 151.794C138.662 151.811 138.464 151.668 138.318 151.365C138.582 150.658 139.075 150.091 139.797 149.664C140.519 149.238 141.303 148.807 142.15 148.372C143.001 147.999 143.845 147.533 144.683 146.973C145.526 146.476 146.197 145.771 146.697 144.859C148.079 144.01 149.496 143.222 150.949 142.494C152.339 141.77 153.589 140.837 154.7 139.694C155.773 139.807 157.04 139.562 158.502 138.958C159.905 138.422 161.126 137.96 162.164 137.574L162.432 137.368C162.588 136.918 162.845 136.556 163.201 136.28C163.496 136.009 163.854 135.765 164.278 135.547C164.634 135.272 165.02 134.963 165.435 134.62C165.845 134.216 166.218 133.72 166.552 133.133L166.639 133.032L166.539 132.946C166.082 131.787 165.541 130.76 164.914 129.864C164.225 128.972 163.57 128.11 162.948 127.276C162.259 126.384 161.661 125.455 161.155 124.488C160.649 123.521 160.35 122.383 160.258 121.073C160.544 120.678 160.825 120.219 161.102 119.699C161.379 119.178 161.689 118.687 162.033 118.224C162.372 117.699 162.749 117.265 163.163 116.923C163.574 116.519 164.059 116.297 164.621 116.257L165.715 117.121C166.29 116.391 167.077 115.992 168.074 115.922C169.009 115.857 170.047 115.909 171.187 116.08C172.26 116.193 173.366 116.335 174.506 116.506C175.579 116.619 176.543 116.52 177.398 116.21C178.431 116.639 179.376 117.168 180.235 117.797C181.093 118.426 181.976 118.96 182.884 119.397C183.729 119.839 184.657 120.119 185.668 120.236C186.612 120.296 187.686 119.97 188.889 119.259L189.163 119.146L189.15 118.959C189.209 118.015 189.533 117.272 190.122 116.73C190.768 116.121 191.451 115.572 192.168 115.083C192.886 114.594 193.541 114.11 194.134 113.63C194.723 113.087 195.051 112.407 195.119 111.587C196.702 110.036 198.076 108.624 199.24 107.352C200.466 106.076 201.568 104.808 202.545 103.55C203.58 102.224 204.549 100.841 205.45 99.3995C206.414 97.9537 207.454 96.252 208.571 94.2944L208.657 94.1943C208.502 93.7666 208.621 93.2258 209.014 92.5718C209.465 91.8511 209.88 91.0702 210.26 90.2292C210.64 89.3881 210.859 88.4956 210.918 87.5517C210.978 86.6078 210.596 85.632 209.774 84.6244C210.149 83.721 210.369 82.8285 210.432 81.9469C210.558 81.061 210.874 80.1931 211.378 79.3434L211.539 78.9562C210.96 78.7461 210.62 78.3626 210.519 77.8058C210.475 77.1824 210.458 76.4944 210.468 75.7418C210.541 74.9849 210.551 74.2324 210.499 73.4842C210.504 72.6693 210.238 71.9988 209.7 71.4725C210.882 70.4501 211.585 69.3045 211.809 68.0358C212.096 66.7627 212.254 65.4359 212.283 64.0555C212.325 62.8622 212.417 61.9473 212.561 61.3107C212.762 60.6075 213.073 59.6773 213.493 58.5201L213.393 58.4331C212.523 56.7397 212.358 55.2789 212.899 54.0507C213.439 52.8225 214.236 51.6704 215.289 50.5943C216.337 49.4559 217.418 48.3466 218.533 47.2662C219.71 46.1814 220.467 44.9068 220.803 43.4422C221.811 42.6199 222.978 42.2877 224.305 42.4456C225.444 42.6165 226.512 43.1057 227.508 43.9131C228.5 44.6583 229.372 45.4745 230.123 46.3617C230.257 46.4777 230.426 46.6538 230.63 46.8901C230.834 47.1265 230.939 47.2758 230.943 47.3381C231.249 48.1312 231.402 48.9664 231.4 49.8436C231.395 50.6585 231.327 51.4777 231.196 52.3013C231.066 53.1249 230.967 53.9463 230.899 54.7656C230.893 55.5805 231.043 56.3844 231.349 57.1775C230.688 58.4768 230.219 59.8253 229.941 61.2231C229.725 62.6166 229.509 64.01 229.293 65.4035C229.14 66.7926 228.891 68.157 228.546 69.4969C228.196 70.7743 227.527 71.9489 226.537 73.0206L226.543 73.1141C225.775 74.6715 225 76.1354 224.219 77.5057C223.495 78.8093 222.743 80.1463 221.962 81.5167C221.176 82.8246 220.426 84.1928 219.711 85.6211C218.997 87.0495 218.32 88.5691 217.681 90.1801L217.594 90.2802C218.158 91.1805 218.281 92.0491 217.964 92.8857C217.646 93.7224 217.3 94.5924 216.925 95.4958C216.549 96.3992 216.365 97.3519 216.373 98.3538C216.376 99.2934 216.978 100.285 218.178 101.329C217.893 101.725 217.772 102.234 217.815 102.858C217.859 103.481 217.903 104.105 217.946 104.728C218.048 105.285 218.087 105.846 218.064 106.412C218.036 106.915 217.813 107.306 217.394 107.586C217.59 107.698 217.757 107.843 217.895 108.021C218.095 108.195 218.293 108.338 218.488 108.45C218.519 108.886 218.518 109.325 218.486 109.765C218.517 110.202 218.518 110.672 218.491 111.175C218.477 111.865 218.493 112.553 218.541 113.239C218.589 113.925 218.606 114.613 218.592 115.303C218.6 115.427 218.58 115.586 218.531 115.777C218.477 115.906 218.457 116.064 218.47 116.251C218.505 116.75 218.631 117.211 218.849 117.634C219.129 118.053 219.377 118.474 219.595 118.898C219.808 119.259 219.899 119.66 219.867 120.101C219.897 120.537 219.71 120.989 219.304 121.456L219.41 121.636C220.099 122.528 220.726 122.985 221.292 123.008C221.92 123.027 222.51 122.954 223.062 122.79C223.673 122.56 224.288 122.391 224.907 122.286C225.521 122.117 226.196 122.352 226.929 122.99C228.552 121.999 230.214 121.131 231.916 120.386C233.618 119.64 235.325 118.957 237.036 118.336C239.299 117.551 241.464 116.711 243.532 115.814C245.657 114.851 247.601 113.525 249.362 111.835C250.067 111.16 250.856 110.353 251.73 109.414C252.667 108.472 253.565 107.876 254.425 107.628ZM226.111 49.4616C225.795 49.4211 225.519 49.5031 225.282 49.7075C225.042 49.8497 224.803 50.023 224.567 50.2275C224.326 50.3696 224.081 50.4494 223.832 50.4668C223.64 50.4176 223.438 50.2124 223.225 49.8514L222.583 50.0842C222.813 51.5719 222.755 52.9856 222.41 54.3254C222.065 55.6652 221.593 56.9826 220.995 58.2775C220.454 59.5057 219.853 60.7695 219.192 62.0687C218.527 63.3057 217.991 64.5962 217.583 65.9404C217.176 67.2846 216.962 68.7092 216.942 70.2143C216.918 71.657 217.245 73.2004 217.924 74.8446L218.031 75.0251C219.091 74.9509 219.79 74.6514 220.129 74.1265C220.464 73.5392 220.641 72.9316 220.66 72.3038C220.741 71.6716 220.828 71.1329 220.923 70.6878C221.012 70.1803 221.371 69.9359 221.999 69.9546C221.938 69.0818 222.104 68.3183 222.497 67.6643C222.948 66.9436 223.369 66.2563 223.762 65.6023C224.155 64.9483 224.421 64.2718 224.56 63.5729C224.762 62.8697 224.545 62.0077 223.909 60.987C224.289 60.146 224.444 59.2267 224.374 58.2291C224.367 57.2272 224.328 56.2275 224.259 55.2299C224.251 54.228 224.342 53.2819 224.53 52.3915C224.781 51.4969 225.356 50.7675 226.257 50.2033L226.111 49.4616ZM214.311 123.966C214.219 122.657 213.853 121.461 213.214 120.378C212.632 119.228 212.296 117.999 212.204 116.689C212.178 116.315 212.189 116.032 212.239 115.841C212.53 114.63 212.639 113.495 212.564 112.435C212.49 111.375 212.356 110.351 212.162 109.362C211.963 108.311 211.826 107.255 211.752 106.195C211.552 106.021 211.597 105.767 211.887 105.434C212.239 105.096 212.473 104.86 212.589 104.727C212.394 104.615 212.031 104.359 211.502 103.957C211.035 103.551 210.701 103.261 210.501 103.087L209.96 103.407C209.99 103.844 209.829 104.231 209.477 104.569C209.12 104.844 208.735 105.153 208.32 105.495C207.901 105.775 207.58 106.111 207.357 106.503C207.133 106.894 207.141 107.457 207.381 108.193C206.021 109.353 204.792 110.598 203.695 111.927C202.597 113.257 201.502 114.618 200.409 116.01C199.374 117.336 198.306 118.632 197.204 119.9C196.098 121.105 194.892 122.223 193.585 123.254L196.587 125.863L196.861 125.75C197.53 125.453 198.122 125.412 198.638 125.626C199.217 125.836 199.735 126.082 200.193 126.363C200.71 126.578 201.19 126.732 201.635 126.826C202.081 126.92 202.537 126.732 203.006 126.26C203.397 126.484 203.662 126.684 203.799 126.863C204.739 126.86 205.652 126.921 206.538 127.047C207.486 127.169 208.399 127.23 209.276 127.232C210.216 127.229 211.084 127.105 211.882 126.862C212.737 126.551 213.513 125.996 214.209 125.195L214.302 125.189C214.289 125.002 214.276 124.815 214.263 124.627C214.308 124.374 214.324 124.153 214.311 123.966ZM189.51 128.144L189.417 128.15C188.986 127.366 188.374 127.127 187.581 127.433C187.461 127.504 187.216 127.584 186.846 127.672C186.476 127.761 186.109 127.881 185.743 128.031C185.311 128.124 184.977 128.273 184.741 128.477C184.438 128.624 184.324 128.789 184.399 128.971L181.792 130.657L193.628 130.581L189.51 128.144ZM180.679 124.156C180.043 124.013 179.362 123.685 178.637 123.172C177.845 122.6 177.216 122.112 176.749 121.706C176.027 122.132 175.35 122.305 174.718 122.224C174.081 122.08 173.473 121.904 172.895 121.694C172.312 121.421 171.765 121.209 171.253 121.057C170.678 120.909 170.124 121.041 169.589 121.455C169.331 121.348 169.135 121.236 169.002 121.12C168.802 120.946 168.635 120.801 168.501 120.685C167.827 121.797 167.737 122.743 168.23 123.523C168.719 124.241 169.33 124.919 170.064 125.557C170.731 126.137 171.336 126.721 171.878 127.309C172.354 127.84 172.306 128.501 171.735 129.293L172.054 129.834L174.767 129.645C174.883 129.511 175.148 129.274 175.563 128.931C175.91 128.531 176.109 128.235 176.158 128.044C176.395 127.839 176.687 127.537 177.035 127.137C177.378 126.674 177.755 126.241 178.165 125.836C178.571 125.369 178.982 124.964 179.396 124.622C179.811 124.28 180.239 124.125 180.679 124.156ZM309.156 58.4093C308.349 59.4055 307.417 59.9719 306.362 60.1083C305.302 60.1824 304.235 60.163 303.162 60.0501C302.152 59.9328 301.15 59.9402 300.156 60.0723C299.221 60.1377 298.446 60.6932 297.829 61.7387C296.814 61.5591 295.784 61.5998 294.737 61.861C293.686 62.0598 292.61 62.3543 291.509 62.7445C290.404 63.0724 289.3 63.4003 288.195 63.7281C287.09 64.056 285.974 64.228 284.848 64.2441L283.147 62.7654C282.758 63.4818 282.165 63.9618 281.368 64.2055C280.628 64.3826 279.867 64.2478 279.084 63.8014C277.836 64.7658 276.555 65.2626 275.241 65.2918C273.927 65.321 272.647 65.3792 271.4 65.4664C270.149 65.4913 268.982 65.8235 267.899 66.4631C266.874 67.036 266.059 68.3773 265.455 70.4871C264.994 71.9604 264.566 73.4626 264.172 74.9938C263.774 76.4627 263.375 77.9316 262.977 79.4005C261.867 83.2372 260.723 87.045 259.546 90.8238C258.428 94.5359 257.12 98.2299 255.622 101.906C255.694 104.72 255.955 107.553 256.404 110.403C256.854 113.254 257.333 116.071 257.841 118.855C257.644 119.62 257.605 120.406 257.724 121.212C257.906 122.014 258.18 122.81 258.549 123.598C258.917 124.387 259.346 125.14 259.835 125.858C260.319 126.513 260.83 127.104 261.368 127.63L262.94 125.923L265.507 129.032C266.074 128.178 266.732 127.286 267.482 126.357C268.289 125.361 269.134 124.456 270.017 123.642C270.896 122.766 271.817 122.044 272.779 121.475C273.8 120.84 274.834 120.392 275.88 120.131C276.286 119.664 276.659 119.168 276.998 118.643C277.337 118.118 277.714 117.684 278.129 117.342C278.539 116.938 278.989 116.655 279.479 116.496C280.027 116.27 280.684 116.255 281.45 116.452C283.367 115.19 285.045 113.663 286.486 111.871C287.923 110.016 289.362 108.193 290.803 106.4C292.239 104.545 293.749 102.842 295.332 101.29C296.978 99.7344 298.934 98.5952 301.202 97.8727C299.959 101.594 298.303 105.249 296.236 108.84C294.165 112.368 291.789 115.572 289.108 118.454C288.421 119.379 287.54 120.224 286.466 120.988C285.989 121.335 285.483 121.715 284.948 122.128C284.409 122.479 283.901 122.828 283.424 123.175C281.819 124.414 280.283 125.744 278.816 127.162C277.344 128.518 275.946 130.025 274.621 131.684C274.408 131.323 274.141 131.091 273.82 130.988C273.5 130.886 273.121 130.849 272.685 130.88C272.311 130.906 271.908 130.966 271.476 131.058C271.106 131.147 270.763 131.171 270.447 131.13C269.323 132.086 267.813 132.881 265.915 133.515C264.084 134.207 262.409 134.449 260.891 134.242C260.446 134.148 259.836 133.94 259.062 133.618C258.292 133.359 257.711 133.117 257.319 132.894C254.774 131.443 252.796 129.577 251.383 127.295C250.028 124.946 249.188 122.342 248.863 119.483L248.063 118.787C248.821 117.982 249.267 117.199 249.402 116.438C249.599 115.672 249.609 114.919 249.432 114.18C249.313 113.374 249.101 112.574 248.795 111.781C248.546 110.921 248.361 110.057 248.237 109.189C248.136 108.632 248.103 108.164 248.139 107.786C248.238 107.403 248.332 106.958 248.422 106.45C248.781 104.42 249.114 102.455 249.419 100.554C249.72 98.5907 250.053 96.6252 250.417 94.6575C251.332 89.8319 252.439 85.0555 253.738 80.3284C255.094 75.5346 256.517 70.7988 258.007 66.121C256.983 65.8167 255.97 65.6682 254.968 65.6756C253.962 65.6207 252.929 65.6303 251.869 65.7044C250.872 65.7742 249.841 65.8149 248.776 65.8267C247.774 65.8341 246.762 65.6856 245.738 65.3813C245.288 65.2248 245.064 65.1465 245.064 65.1465C245.059 65.0842 244.808 65.0704 244.309 65.1053C243.997 65.1271 243.565 65.22 243.013 65.3839C242.456 65.4855 241.897 65.5559 241.336 65.5952C240.775 65.6344 240.272 65.6069 239.826 65.5127C239.319 65.4229 239.019 65.162 238.926 64.7299L238.86 63.7947C238.853 62.7928 239.026 62.1229 239.378 61.785C239.726 61.3847 240.178 61.1338 240.735 61.0322C241.287 60.8683 241.906 60.7623 242.592 60.7144C243.274 60.6041 243.913 60.3401 244.51 59.9224C246.282 60.1744 247.954 60.3394 249.526 60.4175C251.093 60.4332 252.587 60.2974 254.008 60.0101C255.492 59.7184 256.897 59.2128 258.225 58.4935C259.616 57.7697 260.953 56.7364 262.238 55.3935C263.1 53.391 263.704 51.2812 264.051 49.0641C264.392 46.7847 264.801 44.5633 265.276 42.3999C265.809 40.1698 266.543 38.1136 267.476 36.2314C268.405 34.2869 269.917 32.6148 272.012 31.2153C273.001 31.0208 273.883 31.0845 274.657 31.4062C275.431 31.728 276.208 32.081 276.987 32.4651C276.736 33.3597 276.55 34.2812 276.428 35.2295C276.307 36.1778 276.154 37.1283 275.97 38.0809C275.848 39.0292 275.662 39.9507 275.411 40.8454C275.16 41.7401 274.75 42.5833 274.178 43.375C275.011 43.6301 275.504 43.9715 275.66 44.3992C275.815 44.8269 275.785 45.2989 275.571 45.8151C275.356 46.3313 275.082 46.8831 274.747 47.4704C274.412 48.0577 274.229 48.5717 274.197 49.0125C273.515 49.1228 272.953 49.6007 272.511 50.4461C272.132 51.2871 271.708 51.9433 271.239 52.4146C270.815 53.5094 270.971 54.4069 271.71 55.1071C272.448 55.8073 273.121 56.4807 273.73 57.1273C274.305 57.2751 274.868 57.267 275.42 57.1031C275.968 56.8768 276.454 56.6549 276.877 56.4373C277.363 56.2154 277.824 56.0892 278.261 56.0587C278.697 56.0282 279.12 56.2492 279.529 56.7218C280.104 55.9924 280.708 55.6683 281.34 55.7494C281.968 55.7681 282.602 55.8804 283.243 56.0862C283.88 56.2296 284.51 56.2795 285.133 56.2359C285.753 56.13 286.31 55.5898 286.806 54.6153C287.528 54.1889 288.207 54.0475 288.844 54.1909C289.542 54.33 290.183 54.5358 290.766 54.8083C291.345 55.0184 291.89 55.1996 292.402 55.3518C292.972 55.4372 293.524 55.2733 294.059 54.86C295.003 54.9193 296.034 54.8785 297.152 54.7377C298.332 54.5925 299.477 54.3871 300.586 54.1216C301.758 53.8517 302.896 53.5529 304.001 53.225C305.163 52.8304 306.206 52.5069 307.128 52.2545C308.102 52.7502 308.699 53.2098 308.916 53.6331C309.134 54.0565 309.195 54.4907 309.101 54.9359C309.069 55.3767 308.979 55.8842 308.832 56.4584C308.742 56.9659 308.85 57.6162 309.156 58.4093ZM359.392 94.0856C358.87 94.686 358.464 95.1529 358.174 95.4865C357.947 95.8157 357.719 96.1448 357.492 96.474C357.322 96.7365 357.092 97.0345 356.802 97.368C356.575 97.6972 356.202 98.1931 355.685 98.8559C355.221 99.3895 354.79 99.9522 354.393 100.544C353.996 101.135 353.532 101.669 353.001 102.145C352.24 102.01 351.654 102.145 351.244 102.55C350.896 102.95 350.552 103.412 350.213 103.937C349.932 104.396 349.651 104.854 349.37 105.312C349.146 105.704 348.814 105.883 348.374 105.852C346.934 106.767 345.488 107.588 344.035 108.317C342.578 108.982 341.203 109.924 339.909 111.142L339.109 110.447L329.71 115.803C329.407 115.949 329.108 116.158 328.814 116.429C328.519 116.701 328.223 116.941 327.924 117.149C326.605 117.993 325.219 118.78 323.766 119.508C322.371 120.169 320.974 120.799 319.575 121.398L318.386 121.857C318.972 123.07 319.033 123.942 318.569 124.476C318.105 125.01 317.414 125.434 316.496 125.749C315.574 126.001 314.554 126.198 313.436 126.339C312.318 126.479 311.461 126.759 310.863 127.176C310.107 127.104 309.323 127.096 308.512 127.153C307.768 127.268 306.996 127.416 306.194 127.597C305.33 127.783 304.524 127.902 303.775 127.954C303.027 128.006 302.21 127.969 301.324 127.843L301.137 127.857C300.112 128.429 299.183 128.588 298.351 128.333C297.586 128.136 296.869 127.748 296.202 127.168C295.531 126.526 294.884 125.788 294.262 124.954C293.698 124.054 293.109 123.249 292.495 122.54C292.086 122.068 291.569 121.383 290.942 120.487C290.316 119.591 289.778 118.626 289.33 117.593C288.819 116.563 288.496 115.521 288.359 114.465C288.156 113.352 288.307 112.37 288.811 111.52C289.316 110.671 289.722 109.765 290.031 108.804C290.277 107.847 290.357 106.745 290.27 105.498C290.239 105.061 290.211 104.656 290.185 104.282C290.096 103.912 290.037 103.509 290.006 103.073C290.318 103.051 290.663 103.058 291.042 103.094C291.416 103.068 291.759 103.044 292.07 103.022C292.44 102.934 292.712 102.789 292.886 102.589C293.118 102.323 293.214 101.909 293.175 101.347C293.153 101.036 293.011 100.795 292.748 100.625C292.548 100.451 292.411 100.273 292.335 100.09C292.67 99.5031 292.982 99.0427 293.272 98.7092C293.62 98.3089 293.908 97.9442 294.136 97.615C294.359 97.2235 294.518 96.8052 294.612 96.36C294.702 95.8525 294.625 95.2 294.381 94.4026C295.037 93.041 295.83 91.8265 296.757 90.7592C297.743 89.6252 298.767 88.5825 299.828 87.6311C300.885 86.6174 301.975 85.6327 303.099 84.677C304.222 83.7213 305.279 82.7076 306.269 81.636C307.489 82.0519 308.424 81.9865 309.075 81.4398C309.788 80.8887 310.406 80.3129 310.928 79.7126C311.445 79.0498 311.971 78.5118 312.506 78.0985C313.041 77.6852 313.8 77.7887 314.784 78.4092L314.984 78.5831C316.549 76.782 318.181 75.9161 319.877 75.9855C321.636 76.0504 323.14 76.5091 324.39 77.3615C325.703 78.2095 326.589 79.2439 327.051 80.4647C327.508 81.6232 327.221 82.4577 326.192 82.9682C326.926 83.6061 327.325 84.3926 327.391 85.3278C327.456 86.2631 327.263 87.091 326.813 87.8117C326.304 88.5991 325.859 89.4134 325.48 90.2544C325.158 91.0287 324.809 91.8676 324.434 92.771C323.911 94.2486 323.321 95.6682 322.664 97.0298C322.003 98.3291 321.017 99.4631 319.707 100.432C318.563 100.199 317.792 100.378 317.395 100.969C317.06 101.557 316.823 102.2 316.684 102.899C316.541 103.535 316.357 104.049 316.134 104.441C315.911 104.832 315.372 104.745 314.518 104.178L314.318 104.004L314.144 104.204C313.68 104.738 313.314 105.327 313.046 105.973C312.84 106.613 312.499 107.107 312.022 107.454C311.448 107.306 310.844 107.192 310.212 107.11C309.58 107.029 308.979 106.946 308.409 106.861C308.501 108.17 308.323 109.216 307.877 109.999C307.43 110.782 306.819 111.451 306.044 112.007C305.326 112.496 304.479 112.931 303.503 113.312C302.523 113.631 301.55 114.044 300.583 114.55C299.674 114.99 298.804 115.552 297.975 116.236C297.204 116.854 296.606 117.71 296.181 118.805C296.853 119.447 297.66 119.798 298.604 119.857C299.544 119.854 300.51 119.787 301.503 119.655C302.492 119.46 303.454 119.33 304.39 119.265C305.387 119.195 306.277 119.384 307.06 119.83L307.161 119.917L307.248 119.817C308.731 119.525 310.141 119.082 311.478 118.487C312.872 117.826 314.205 117.169 315.475 116.516C316.803 115.797 318.135 115.14 319.472 114.545C320.867 113.884 322.304 113.376 323.783 113.022C324.129 113.499 324.554 113.751 325.057 113.779C325.623 113.802 326.15 113.734 326.641 113.574L326.721 113.38C326.815 112.935 326.914 112.552 327.017 112.232C327.115 111.849 327.274 111.431 327.493 110.977C327.881 110.261 328.374 109.694 328.971 109.276C329.569 108.858 330.204 108.532 330.876 108.297C331.612 108.058 332.382 107.878 333.188 107.759C333.995 107.64 334.798 107.49 335.6 107.309L335.787 107.296L335.861 107.009C336.058 106.243 336.335 105.722 336.692 105.447C337.106 105.105 337.528 104.856 337.955 104.701C338.445 104.541 338.938 104.413 339.432 104.315C339.989 104.214 340.506 103.99 340.983 103.643C342.131 103.939 343.058 103.749 343.762 103.073C344.467 102.397 345.138 101.692 345.776 100.958L346.589 101.841L346.844 101.448C347.718 100.509 348.358 99.8068 348.764 99.3398C349.232 98.8685 349.674 98.4617 350.088 98.1194C350.499 97.7148 350.973 97.337 351.513 96.9861C352.11 96.5684 352.915 95.9796 353.927 95.2196C354.76 94.5975 355.563 93.9775 356.334 93.3597C357.168 92.7375 357.966 92.0552 358.728 91.3127C359.049 91.4156 359.222 91.6541 359.248 92.0281C359.27 92.3399 359.292 92.6516 359.314 92.9634C359.26 93.0924 359.211 93.2838 359.166 93.5376C359.183 93.787 359.259 93.9696 359.392 94.0856ZM319.857 85.1028C319.79 85.0449 319.725 85.018 319.663 85.0224C319.663 85.0224 319.63 84.9934 319.563 84.9354C318.206 84.3411 317.093 84.1057 316.224 84.2291C315.352 84.2901 314.558 84.5962 313.845 85.1473C313.19 85.6317 312.577 86.2698 312.005 87.0615C311.492 87.7866 310.915 88.4848 310.272 89.1563C309.688 89.761 308.97 90.2498 308.119 90.6225C307.268 90.9953 306.206 91.0383 304.933 90.7514C304.816 91.762 304.699 92.7727 304.581 93.7833C304.522 94.7272 304.496 95.7002 304.503 96.7021C303.47 97.1503 302.665 97.7391 302.089 98.4685C301.576 99.1936 301.13 99.9766 300.75 100.818C300.433 101.654 300.12 102.553 299.811 103.515C299.56 104.409 299.183 105.282 298.678 106.131L299.085 106.573C299.326 106.431 299.613 106.505 299.946 106.795C300.28 107.084 300.513 107.287 300.647 107.403C301.263 106.358 302.108 105.453 303.182 104.689C304.319 103.92 305.46 103.214 306.605 102.57C307.809 101.859 308.948 101.122 310.022 100.357C311.096 99.593 311.875 98.6301 312.357 97.4686C314.313 96.768 315.731 95.5411 316.611 93.7879C317.491 92.0348 318.21 90.2302 318.77 88.3741C318.868 87.9913 319.049 87.4461 319.313 86.7385C319.635 85.9642 319.816 85.4189 319.857 85.1028ZM416.398 82.769C416.24 84.0958 415.795 85.3486 415.063 86.5276C414.393 87.7021 413.528 88.7651 412.467 89.7164C411.468 90.6634 410.367 91.4922 409.163 92.2029C407.956 92.8512 406.737 93.3437 405.507 93.6803C403.694 94.6216 401.992 95.3672 400.401 95.9169C398.868 96.4 397.296 96.7606 395.684 96.9986C394.071 97.2367 392.39 97.3856 390.64 97.4453C388.89 97.505 386.919 97.5488 384.729 97.5767C384.181 97.803 383.797 98.1431 383.578 98.597C383.422 99.0465 383.33 99.5228 383.302 100.026C383.337 100.525 383.405 101.053 383.507 101.609C383.604 102.104 383.637 102.571 383.605 103.012C383.04 102.989 382.585 103.209 382.241 103.671C381.96 104.13 381.675 104.525 381.385 104.859C381.539 106.164 381.421 107.175 381.033 107.891C380.64 108.545 380.149 109.143 379.561 109.685C379.03 110.161 378.41 110.706 377.701 111.319C377.05 111.866 376.51 112.655 376.081 113.688C375.858 114.079 375.728 114.464 375.692 114.843C375.652 115.159 375.587 115.571 375.497 116.078C375.371 116.964 374.971 117.525 374.299 117.76C373.688 117.99 373.044 118.192 372.367 118.365C371.686 118.475 371.075 118.706 370.536 119.057C369.992 119.345 369.726 120.022 369.738 121.086C368.393 121.556 367.094 122.242 365.841 123.144C364.593 124.108 363.342 125.042 362.09 125.944C360.837 126.846 359.538 127.532 358.193 128.002C356.914 128.53 355.509 128.597 353.978 128.203C353.657 128.1 353.208 127.943 352.629 127.733C352.113 127.519 351.721 127.295 351.454 127.063C351.321 126.947 351.117 126.711 350.841 126.354C350.632 126.056 350.461 125.848 350.328 125.733C349.634 124.779 349.09 123.72 348.696 122.557C348.301 121.395 348 120.225 347.793 119.049C347.581 117.811 347.462 116.566 347.438 115.315C347.35 114.068 347.268 112.883 347.189 111.761C347.51 111.864 347.819 111.811 348.118 111.602C348.35 111.335 348.553 111.102 348.727 110.902L347.721 108.623C348.104 108.721 348.414 108.668 348.65 108.464C348.886 108.259 349.089 108.026 349.259 107.763C348.289 107.33 347.786 106.864 347.752 106.365C347.65 105.808 347.735 105.238 348.008 104.655C348.276 104.01 348.607 103.361 348.999 102.707C349.455 102.048 349.658 101.376 349.61 100.69C349.568 99.1896 349.626 97.7759 349.784 96.4491C349.999 95.0557 350.249 93.6912 350.531 92.3558C350.814 91.0203 351.127 89.6827 351.472 88.3428C351.817 87.003 352.095 85.6052 352.307 84.1494C353.358 83.9506 354.292 83.4154 355.108 82.5439C355.92 81.61 356.736 80.7384 357.556 79.9292C358.377 79.12 359.248 78.5892 360.17 78.3367C361.155 78.0799 362.31 78.469 363.635 79.5041C363.989 80.983 363.961 82.3634 363.549 83.6452C363.2 84.9227 362.755 86.1755 362.214 87.4037C361.673 88.6319 361.197 89.887 360.786 91.1688C360.437 92.4463 360.47 93.8223 360.886 95.2968C358.591 96.5224 357.14 98.1589 356.531 100.206C355.985 102.249 355.667 104.433 355.579 106.757C355.565 107.448 355.524 108.202 355.456 109.022C355.383 109.778 355.215 110.511 354.951 111.218C355.387 112.065 355.51 112.934 355.322 113.824C355.129 114.652 354.936 115.48 354.743 116.308C354.613 117.131 354.603 117.884 354.713 118.565C354.824 119.247 355.368 119.867 356.347 120.425C360.379 118.952 363.78 116.96 366.549 114.449C369.318 111.937 371.798 108.881 373.99 105.282C375.226 103.253 376.34 101.265 377.332 99.3157C378.381 97.3001 379.21 95.2685 379.819 93.2211C380.428 91.1737 380.78 89.0501 380.877 86.8505C380.974 84.6509 380.688 82.3528 380.019 79.9561C380.638 79.8501 381.178 79.4992 381.637 78.9031C382.097 78.3071 382.563 77.8047 383.035 77.3957C383.504 76.9244 383.987 76.6713 384.486 76.6364C384.985 76.6015 385.547 77.0321 386.174 77.928C387.14 78.2991 387.644 78.7963 387.688 79.4198C387.79 79.9766 387.737 80.5754 387.532 81.2164C387.388 81.8529 387.276 82.4873 387.195 83.1195C387.114 83.7517 387.436 84.3244 388.161 84.8375C387.982 84.9753 387.784 85.2711 387.565 85.725C387.342 86.1165 387.156 86.5994 387.008 87.1736C386.856 87.6855 386.735 88.1952 386.645 88.7027C386.551 89.1478 386.542 89.4617 386.617 89.6444C387.248 90.6027 387.909 91.0891 388.599 91.1035C389.285 91.0555 389.993 90.8807 390.724 90.579C391.455 90.2773 392.192 90.0691 392.936 89.9544C393.737 89.7731 394.505 90.0013 395.239 90.6392C396.785 90.3431 398.174 90.058 399.408 89.7838C400.638 89.4472 401.805 89.1149 402.91 88.7871C404.077 88.4548 405.242 88.0914 406.405 87.6969C407.626 87.2356 409.002 86.7634 410.535 86.2803C411.275 85.2261 412.132 84.477 413.103 84.0332C414.137 83.585 415.235 83.1636 416.398 82.769ZM471.899 86.2184C471.377 86.8188 470.971 87.2857 470.681 87.6193C470.453 87.9484 470.226 88.2776 469.998 88.6068C469.828 88.8693 469.599 89.1673 469.309 89.5008C469.081 89.83 468.709 90.3259 468.191 90.9886C467.727 91.5223 467.297 92.085 466.899 92.6766C466.502 93.2683 466.038 93.8019 465.508 94.2776C464.746 94.1429 464.161 94.2778 463.75 94.6824C463.403 95.0826 463.059 95.5452 462.72 96.0702C462.439 96.5284 462.157 96.9866 461.876 97.4449C461.653 97.8364 461.321 98.0163 460.88 97.9844C459.44 98.8996 457.994 99.7212 456.541 100.449C455.084 101.115 453.709 102.057 452.416 103.275L451.615 102.579L442.216 107.936C441.913 108.082 441.615 108.291 441.32 108.562C441.026 108.833 440.729 109.073 440.431 109.282C439.111 110.126 437.725 110.912 436.273 111.64C434.878 112.302 433.481 112.932 432.082 113.531L430.892 113.99C431.478 115.202 431.539 116.075 431.075 116.609C430.611 117.143 429.921 117.567 429.003 117.882C428.081 118.134 427.061 118.331 425.943 118.471C424.825 118.612 423.967 118.892 423.37 119.309C422.613 119.237 421.829 119.229 421.019 119.286C420.275 119.4 419.502 119.548 418.7 119.73C417.836 119.915 417.03 120.034 416.282 120.087C415.534 120.139 414.717 120.102 413.831 119.976L413.644 119.989C412.619 120.562 411.69 120.721 410.858 120.466C410.092 120.269 409.376 119.881 408.709 119.301C408.037 118.658 407.39 117.92 406.768 117.087C406.204 116.187 405.615 115.382 405.002 114.673C404.593 114.2 404.075 113.516 403.449 112.62C402.822 111.724 402.285 110.759 401.836 109.725C401.326 108.696 401.002 107.654 400.866 106.598C400.663 105.484 400.813 104.503 401.318 103.653C401.822 102.803 402.229 101.898 402.538 100.936C402.784 99.9794 402.864 98.8774 402.776 97.6304C402.746 97.194 402.717 96.7887 402.691 96.4146C402.603 96.0449 402.543 95.6418 402.513 95.2054C402.824 95.1836 403.17 95.1908 403.548 95.227C403.922 95.2008 404.265 95.1769 404.577 95.1551C404.946 95.0665 405.218 94.9222 405.392 94.7221C405.624 94.4553 405.721 94.0413 405.681 93.4802C405.66 93.1684 405.517 92.9278 405.255 92.7582C405.055 92.5842 404.917 92.4059 404.842 92.2232C405.176 91.6359 405.489 91.1755 405.779 90.8419C406.127 90.4417 406.415 90.077 406.642 89.7478C406.865 89.3563 407.024 88.9379 407.118 88.4928C407.208 87.9853 407.131 87.3328 406.887 86.5354C407.544 85.1738 408.336 83.9593 409.264 82.892C410.25 81.7579 411.273 80.7152 412.335 79.7639C413.391 78.7502 414.482 77.7655 415.605 76.8098C416.729 75.8541 417.786 74.8404 418.776 73.7687C419.995 74.1847 420.93 74.1193 421.581 73.5725C422.295 73.0214 422.912 72.4457 423.434 71.8453C423.952 71.1826 424.478 70.6446 425.013 70.2313C425.548 69.818 426.307 69.9215 427.29 70.5419L427.49 70.7159C429.056 68.9148 430.687 68.0489 432.384 68.1182C434.142 68.1832 435.647 68.6419 436.897 69.4943C438.209 70.3423 439.096 71.3767 439.557 72.5975C440.014 73.7559 439.728 74.5904 438.698 75.101C439.432 75.7389 439.832 76.5254 439.897 77.4606C439.963 78.3958 439.77 79.2238 439.319 79.9445C438.81 80.7319 438.366 81.5461 437.986 82.3872C437.664 83.1615 437.316 84.0004 436.941 84.9037C436.417 86.3813 435.827 87.801 435.171 89.1626C434.51 90.4618 433.524 91.5959 432.213 92.5647C431.069 92.3314 430.299 92.5106 429.902 93.1022C429.567 93.6895 429.33 94.3326 429.191 95.0315C429.047 95.6681 428.864 96.1821 428.641 96.5736C428.417 96.9652 427.879 96.8775 427.025 96.3107L426.824 96.1368L426.65 96.3369C426.187 96.8706 425.821 97.46 425.552 98.1053C425.347 98.7462 425.005 99.24 424.528 99.5866C423.954 99.4388 423.351 99.3243 422.719 99.2432C422.086 99.1621 421.485 99.0789 420.916 98.9934C421.007 100.303 420.83 101.349 420.383 102.132C419.937 102.915 419.326 103.584 418.55 104.14C417.832 104.628 416.986 105.064 416.01 105.445C415.03 105.764 414.056 106.177 413.089 106.683C412.18 107.123 411.311 107.685 410.482 108.369C409.71 108.987 409.112 109.843 408.688 110.938C409.359 111.58 410.167 111.931 411.111 111.99C412.05 111.987 413.017 111.92 414.01 111.788C414.999 111.593 415.961 111.463 416.896 111.398C417.894 111.328 418.784 111.516 419.567 111.963L419.667 112.05L419.754 111.95C421.237 111.658 422.647 111.215 423.984 110.62C425.379 109.959 426.711 109.302 427.981 108.649C429.309 107.93 430.642 107.273 431.979 106.678C433.373 106.017 434.81 105.509 436.289 105.155C436.636 105.632 437.061 105.884 437.564 105.911C438.129 105.935 438.657 105.866 439.147 105.707L439.227 105.513C439.322 105.068 439.42 104.685 439.523 104.365C439.622 103.982 439.78 103.564 439.999 103.11C440.388 102.393 440.881 101.826 441.478 101.409C442.075 100.991 442.71 100.665 443.383 100.43C444.118 100.19 444.889 100.011 445.695 99.8921C446.501 99.7731 447.305 99.6229 448.107 99.4415L448.294 99.4284L448.368 99.1413C448.565 98.3757 448.842 97.8551 449.198 97.5796C449.613 97.2373 450.034 96.9886 450.462 96.8334C450.952 96.6738 451.444 96.5454 451.939 96.4482C452.495 96.3466 453.012 96.1225 453.489 95.7759C454.638 96.0715 455.564 95.8814 456.269 95.2056C456.973 94.5298 457.645 93.825 458.282 93.0912L459.096 93.9741L459.35 93.5804C460.225 92.6421 460.865 91.9395 461.27 91.4726C461.739 91.0013 462.18 90.5945 462.595 90.2522C463.005 89.8476 463.48 89.4698 464.019 89.1188C464.617 88.7012 465.421 88.1124 466.433 87.3524C467.267 86.7302 468.069 86.1103 468.841 85.4924C469.674 84.8703 470.472 84.1879 471.235 83.4454C471.555 83.5483 471.729 83.7868 471.755 84.1609C471.777 84.4727 471.798 84.7844 471.82 85.0961C471.767 85.2252 471.717 85.4166 471.672 85.6703C471.69 85.9197 471.765 86.1024 471.899 86.2184ZM432.363 77.2356C432.297 77.1776 432.232 77.1508 432.17 77.1552C432.17 77.1552 432.136 77.1262 432.07 77.0682C430.712 76.4739 429.599 76.2385 428.731 76.3619C427.858 76.4229 427.065 76.729 426.352 77.2801C425.696 77.7645 425.083 78.4025 424.512 79.1943C423.999 79.9194 423.421 80.6176 422.779 81.2891C422.195 81.8938 421.477 82.3825 420.626 82.7553C419.775 83.1281 418.713 83.171 417.44 82.8841C417.322 83.8948 417.205 84.9054 417.088 85.9161C417.028 86.86 417.003 87.8329 417.01 88.8349C415.976 89.2831 415.172 89.8719 414.596 90.6013C414.083 91.3264 413.636 92.1094 413.257 92.9505C412.939 93.7871 412.626 94.6862 412.317 95.6475C412.067 96.5422 411.689 97.4144 411.185 98.2642L411.592 98.7056C411.832 98.5635 412.119 98.6374 412.453 98.9273C412.786 99.2173 413.02 99.4202 413.153 99.5362C413.769 98.4907 414.615 97.5858 415.689 96.8215C416.825 96.0528 417.966 95.3465 419.112 94.7025C420.315 93.9919 421.454 93.2544 422.528 92.4901C423.603 91.7258 424.381 90.7629 424.864 89.6014C426.82 88.9007 428.238 87.6738 429.117 85.9207C429.997 84.1675 430.717 82.3629 431.276 80.5069C431.375 80.1241 431.556 79.5789 431.82 78.8713C432.141 78.0969 432.323 77.5517 432.363 77.2356ZM541.052 90.0288C540.533 91.5688 539.819 92.5585 538.91 92.9979C537.996 93.3751 537.041 93.5985 536.043 93.6683C535.166 93.667 534.224 93.6389 533.218 93.5839C532.27 93.4623 531.364 93.4943 530.499 93.68C528.778 95.0534 527.545 96.6747 526.798 98.5438C526.048 100.351 525.464 102.302 525.046 104.399C524.625 106.433 524.236 108.497 523.882 110.589C523.585 112.615 522.998 114.535 522.123 116.351C521.524 117.646 521.055 118.994 520.714 120.396C520.378 121.861 520.009 123.296 519.606 124.703C519.269 126.168 518.802 127.547 518.203 128.842C517.672 130.195 516.846 131.381 515.727 132.399C516.073 132.876 516.168 133.339 516.012 133.788C515.855 134.238 515.632 134.629 515.342 134.963L515.001 135.457L514.479 136.057C514.762 137.416 514.537 138.684 513.805 139.863C513.14 141.1 512.47 142.275 511.796 143.387C511.506 143.721 511.25 144.083 511.026 144.475C510.866 144.862 510.678 145.313 510.463 145.83C509.061 145.489 508.07 145.652 507.49 146.32L507.045 149.358L506.318 148.375C505.902 149.595 505.28 150.547 504.45 151.231C503.684 151.911 502.812 152.442 501.836 152.824C500.923 153.201 499.912 153.522 498.803 153.788C497.76 154.111 496.753 154.495 495.782 154.939C495.18 155.294 494.674 155.674 494.264 156.078C493.796 156.55 493.336 157.146 492.885 157.866C490.77 158.077 489.047 157.634 487.717 156.536C486.387 155.439 485.232 154.141 484.25 152.644C484.577 151.054 484.809 149.441 484.945 147.802C485.019 146.168 485.155 144.529 485.353 142.887C485.494 141.311 485.759 139.726 486.148 138.132C486.48 136.605 487.032 135.094 487.805 133.599C487.574 132.989 487.502 132.399 487.587 131.829C487.61 131.263 487.729 130.723 487.944 130.206C488.158 129.69 488.435 129.17 488.774 128.645C489.055 128.186 489.272 127.701 489.424 127.189C489.697 126.606 489.716 125.979 489.481 125.306C490.373 123.74 491.206 122.209 491.979 120.714C492.756 119.282 493.564 117.847 494.403 116.41C495.243 114.973 496.149 113.593 497.121 112.272C498.152 110.885 499.345 109.579 500.701 108.357L500.877 106.841C502.187 105.872 503.331 104.758 504.308 103.5C505.347 102.237 506.454 101.032 507.626 99.8844C509.798 97.7903 511.961 96.0102 514.113 94.5439C516.262 93.0153 518.815 91.897 521.773 91.1889C522.312 90.838 522.533 90.4153 522.436 89.9208C522.397 89.3597 522.327 88.8008 522.225 88.244C522.119 87.6249 522.109 87.0304 522.194 86.4605C522.28 85.8907 522.748 85.4194 523.599 85.0466C523.635 84.6682 523.725 84.1607 523.869 83.5241C524.012 82.8875 524.093 82.2553 524.112 81.6275C524.193 80.9953 524.154 80.4342 523.994 79.9441C523.897 79.4497 523.566 79.1909 523 79.1678C522.497 79.1403 522.056 79.1085 521.678 79.0723C521.299 79.0361 520.999 78.7752 520.777 78.2895C518.952 78.1665 517.086 77.9211 515.181 77.5531C513.271 77.1227 511.312 76.8838 509.304 76.8363C508.998 76.0432 508.487 75.4524 507.77 75.0639C507.112 74.6088 506.367 74.2536 505.534 73.9986C504.698 73.6812 503.863 73.3949 503.031 73.1399C502.199 72.8848 501.482 72.4963 500.882 71.9744C499.886 71.167 498.885 70.2971 497.88 69.365C496.875 68.4328 495.959 67.4317 495.133 66.3618C494.306 65.2919 493.6 64.1509 493.014 62.9388C492.423 61.6644 492.047 60.3123 491.884 58.8827L490.024 56.4753L490.653 56.0554C490.31 55.6408 490.066 55.282 489.92 54.979C489.769 54.6136 489.769 54.175 489.922 53.6631L490.463 53.3433C490.232 52.7329 490.193 52.1718 490.345 51.6599C490.435 51.1524 490.556 50.6427 490.708 50.1309C490.923 49.6147 491.046 49.1362 491.078 48.6954C491.168 48.1879 491.037 47.6644 490.686 47.1251C490.737 46.0565 490.983 45.0995 491.425 44.2541C491.863 43.3463 492.327 42.374 492.819 41.3372C493.261 40.4918 493.612 39.6842 493.871 38.9142C494.126 38.0819 494.159 37.2025 493.969 36.276C495.418 34.6083 496.973 32.6513 498.633 30.405C500.351 28.0921 502.184 26.0843 504.132 24.3818C506.077 22.6168 508.185 21.4043 510.457 20.7442C512.787 20.0174 515.349 20.3708 518.143 21.8044C518.91 21.1242 519.433 20.9937 519.713 21.4127C520.055 21.8273 520.309 22.3108 520.473 22.8632C520.552 23.1083 520.628 23.2909 520.699 23.4113C520.832 23.5272 521.053 23.5432 521.36 23.459C522.859 24.294 523.931 25.2841 524.575 26.4295C525.277 27.5081 525.827 28.6601 526.226 29.8852C526.683 31.0437 527.14 32.2021 527.597 33.3606C528.054 34.519 528.814 35.531 529.877 36.3964C530.211 39.3804 530.509 42.3042 530.772 45.1678C531.035 48.0315 531.55 50.9088 532.316 53.7999C532.003 57.393 531.717 60.9215 531.458 64.3855C531.199 67.8495 531.069 71.3672 531.068 74.9384C531.744 75.643 532.308 76.5434 532.761 77.6395C533.214 78.7356 533.477 79.8136 533.551 80.8735L532.814 82.4287C532.969 82.8564 532.833 83.1479 532.405 83.3031C532.04 83.4539 531.806 83.251 531.705 82.6942L531.598 82.5137C531.581 82.2643 531.416 82.1505 531.104 82.1723C530.61 82.2695 530.249 82.4827 530.021 82.8119C529.794 83.1411 529.635 83.5594 529.545 84.0669C529.451 84.5121 529.359 84.9884 529.269 85.4959C529.237 85.9367 529.17 86.3173 529.067 86.6378C528.803 87.3454 528.78 87.9109 528.998 88.3343C529.215 88.7576 529.442 89.3057 529.677 89.9784C530.915 89.7665 532.229 89.7373 533.618 89.8908C535.069 90.0399 536.347 90.3891 537.45 90.9385L539.196 89.0308C539.267 89.1511 539.374 89.3316 539.516 89.5723C539.716 89.7463 539.883 89.8912 540.016 90.0072C540.087 90.1276 540.154 90.1855 540.216 90.1812C540.341 90.1725 540.62 90.1217 541.052 90.0288ZM525.179 47.1566C524.749 45.495 524.257 43.8378 523.703 42.1849C523.145 40.4697 522.736 38.6501 522.476 36.726L516.839 27.3464C515.801 27.7322 514.716 27.902 513.585 27.8558C512.512 27.7429 511.55 27.8728 510.699 28.2456C510.351 28.6458 509.99 28.859 509.616 28.8852C509.238 28.849 508.83 28.8462 508.394 28.8767C508.015 28.8405 507.614 28.9312 507.191 29.1487C506.83 29.3619 506.493 29.9181 506.18 30.8171C505.912 31.4624 505.708 32.1345 505.569 32.8334C505.488 33.4656 505.251 34.1087 504.858 34.7627C504.016 35.2601 503.365 35.8069 502.905 36.4029C502.446 36.9989 502.115 37.6485 501.914 38.3518C501.775 39.0507 501.705 39.8388 501.703 40.716C501.764 41.5888 501.832 42.5552 501.906 43.6151C501.145 43.4804 500.644 43.4841 500.403 43.6263C500.225 43.764 500.002 44.1556 499.734 44.8008C499.577 45.2504 499.325 45.6752 498.977 46.0755C498.691 46.4714 498.197 46.5686 497.494 46.3672C497.23 47.0748 496.968 47.8136 496.709 48.5835C496.445 49.2912 496.275 49.9923 496.198 50.6868C496.13 51.506 496.245 52.2499 496.542 52.9182C496.835 53.5243 497.533 54.102 498.637 54.6513C498.248 55.3677 498.067 55.9129 498.093 56.287C498.182 56.6567 498.312 57.1801 498.485 57.8572C498.578 58.2893 498.611 58.7569 498.583 59.2601C498.618 59.7588 498.401 60.2439 497.933 60.7152C498.2 60.9472 498.71 61.0681 499.462 61.0782C500.567 63.4443 502.041 65.2522 503.882 66.5018C505.782 67.6847 507.824 68.6696 510.01 69.4566C512.191 70.1812 514.429 70.8391 516.726 71.4304C519.081 71.9549 521.264 72.7107 523.275 73.6978C523.49 73.1816 523.707 72.6965 523.925 72.2426C524.207 71.7844 524.426 71.3305 524.582 70.881C524.801 70.4271 524.893 69.9508 524.858 69.452C524.823 68.9533 524.628 68.403 524.273 67.8013C524.986 67.2502 525.45 66.7166 525.664 66.2004C525.937 65.6174 526.051 65.0142 526.008 64.3908C525.964 63.7673 525.827 63.1503 525.596 62.5399C525.361 61.8672 525.189 61.1901 525.078 60.5086C524.83 59.6488 524.825 58.6781 525.063 57.5964C525.738 55.6069 526.017 53.7705 525.899 52.0871C525.844 50.3994 525.604 48.7559 525.179 47.1566ZM519.451 98.3057C518.628 98.1754 517.822 98.2944 517.033 98.6628C516.302 98.9645 515.678 99.4467 515.16 100.109C515.294 100.225 515.461 100.37 515.661 100.544C515.861 100.718 516.134 101.044 516.481 101.521C515.862 101.627 515.212 101.735 514.53 101.845C513.844 101.893 513.229 102.061 512.686 102.35C512.2 102.572 511.812 102.85 511.522 103.183C511.295 103.512 511.147 104.087 511.079 104.906C509.899 105.051 509.019 105.457 508.439 106.124C507.859 106.791 507.377 107.514 506.993 108.293C506.609 109.072 506.191 109.821 505.74 110.542C505.347 111.196 504.688 111.618 503.761 111.808C503.474 113.081 502.99 114.212 502.307 115.199C501.628 116.249 500.914 117.239 500.165 118.168C499.42 119.16 498.77 120.177 498.217 121.218C497.73 122.317 497.536 123.584 497.637 125.018C497.521 125.151 497.621 125.238 497.937 125.278C498.515 125.489 498.826 125.905 498.87 126.529C498.215 127.013 497.649 127.429 497.172 127.775C496.699 128.184 496.224 128.562 495.747 128.909C495.391 129.184 495.217 129.384 495.225 129.509C495.238 129.696 495.349 129.939 495.558 130.238C495.692 130.354 496 130.739 496.485 131.395L494.251 133.054L496.383 136.665C496.143 136.807 495.933 136.947 495.755 137.084C495.581 137.285 495.374 137.456 495.133 137.598C495.017 137.731 494.745 137.876 494.317 138.031C494.56 139.705 494.52 141.369 494.196 143.02C493.811 144.676 493.771 146.339 494.075 148.009C496.436 147.719 498.501 146.791 500.271 145.227C502.104 143.658 503.77 141.943 505.269 140.084C505.283 139.394 505.395 138.76 505.605 138.181C505.882 137.661 506.353 137.22 507.017 136.861C507.273 135.151 507.812 133.453 508.634 131.767C509.46 130.143 510.687 128.867 512.314 127.938C512.1 127.577 512.043 127.205 512.142 126.823C512.24 126.44 512.401 126.053 512.624 125.661C512.785 125.274 512.857 124.956 512.839 124.706C512.884 124.453 512.704 124.121 512.3 123.71C512.514 123.194 512.738 122.802 512.97 122.536C513.206 122.331 513.494 121.966 513.833 121.442C514.002 121.179 514.079 120.923 514.061 120.674C514.048 120.487 513.777 120.192 513.247 119.791C513.903 119.306 514.249 118.875 514.285 118.497C514.383 118.114 514.469 117.544 514.541 116.787C514.631 116.28 514.75 115.739 514.898 115.164C515.112 114.648 515.556 114.273 516.228 114.038C516.31 113.405 516.355 112.713 516.365 111.961C516.38 111.27 516.427 110.609 516.508 109.977C516.647 109.278 516.853 108.637 517.126 108.054C517.398 107.471 517.833 106.971 518.43 106.553C518.467 106.175 518.509 105.89 518.559 105.699C518.608 105.507 518.628 105.349 518.619 105.224C518.606 105.037 518.502 104.888 518.306 104.776C518.168 104.598 517.873 104.399 517.419 104.181C518.756 103.586 519.467 103.004 519.552 102.434C519.633 101.802 519.599 100.864 519.449 99.6216C519.436 99.4345 519.423 99.2475 519.41 99.0604C519.393 98.8111 519.406 98.5595 519.451 98.3057ZM606.237 76.0727C606.552 76.9905 606.515 77.8076 606.126 78.5239C605.734 79.1779 605.18 79.7804 604.467 80.3315C603.816 80.8783 603.07 81.4004 602.227 81.8979C601.443 82.3286 600.788 82.813 600.261 83.351C597.499 84.1707 594.976 84.8171 592.691 85.2901C590.464 85.6965 587.994 86.2138 585.281 86.842C584.479 87.0234 583.7 87.0779 582.943 87.0055C582.244 86.8664 581.523 86.8542 580.779 86.9689C580.342 86.9994 579.937 87.0277 579.563 87.0539C579.184 87.0177 578.81 87.0439 578.441 87.1324C577.015 87.3573 576.115 87.9215 575.74 88.8249C575.36 89.666 575.053 90.6585 574.82 91.8026C574.645 92.8799 574.374 93.9326 574.007 94.9607C573.698 95.9221 572.903 96.6356 571.619 97.1012C571.517 97.4217 571.567 97.7001 571.772 97.9364C572.039 98.1683 572.241 98.3735 572.379 98.5518C571.341 98.9377 570.663 99.5489 570.345 100.386C570.09 101.218 569.866 102.048 569.674 102.876C569.481 103.704 569.155 104.416 568.695 105.012C568.298 105.604 567.438 105.852 566.116 105.756C564.327 107.949 562.167 109.76 559.636 111.19C557.108 112.683 554.455 113.714 551.676 114.284C551.16 114.07 550.639 113.793 550.114 113.454C549.651 113.11 549.16 112.8 548.639 112.523C548.181 112.242 547.665 112.027 547.091 111.88C546.583 111.79 545.991 111.831 545.314 112.004C545.16 110.699 544.825 109.501 544.31 108.409C543.733 107.321 543.036 106.305 542.218 105.36C542.014 104.246 542.098 103.207 542.469 102.241C542.774 101.217 543.111 100.222 543.483 99.2567C543.854 98.291 544.162 97.3296 544.409 96.3726C544.588 95.3576 544.447 94.2397 543.986 93.0189C544.583 92.6012 544.958 92.1364 545.11 91.6246C545.325 91.1084 545.446 90.5987 545.473 90.0955C545.559 89.5257 545.68 89.016 545.836 88.5665C545.988 88.0546 546.397 87.6188 547.061 87.2591C546.457 85.7977 546.443 84.7022 547.019 83.9728C547.652 83.1767 548.417 82.4654 549.313 81.8388C550.209 81.2123 551.038 80.5278 551.801 79.7853C552.563 79.0428 552.803 77.9922 552.52 76.6337C552.868 76.2334 553.283 75.8912 553.764 75.6069C554.245 75.3226 554.698 75.0717 555.121 74.8542C555.602 74.5699 556.053 74.2878 556.472 74.0079C556.891 73.728 557.272 73.3567 557.615 72.8941C557.157 72.6129 556.917 72.3164 556.895 72.0047C556.936 71.6886 557.008 71.3703 557.111 71.0499C557.209 70.6671 557.308 70.2842 557.406 69.9014C557.567 69.5143 557.541 69.1402 557.328 68.7792C559.029 68.9109 560.478 68.5902 561.677 67.8172C562.934 66.9774 564.098 66.1442 565.168 65.3176C566.3 64.4866 567.448 63.8738 568.611 63.4792C569.773 63.0846 571.171 63.3628 572.804 64.3137C572.959 64.7415 573.192 65.383 573.502 66.2385C573.871 67.0272 574.21 67.8493 574.521 68.7047C574.893 69.5558 575.233 70.3778 575.539 71.1709C575.845 71.964 576.042 72.5454 576.131 72.9151C576.153 73.2269 576.187 73.7256 576.235 74.4115C576.283 75.0973 576.336 75.8455 576.392 76.656C576.445 77.4042 576.495 78.1212 576.543 78.807C576.591 79.4928 576.628 80.0228 576.654 80.3969C578.536 81.3303 580.39 81.8585 582.216 81.9815C584.037 82.0421 585.814 81.4792 587.548 80.2929C588.278 80.8684 588.945 81.0097 589.551 80.7167C590.153 80.3614 590.721 79.977 591.256 79.5637C591.854 79.146 592.464 78.9154 593.088 78.8718C593.707 78.7658 594.365 79.221 595.063 80.2373C595.879 79.3658 596.748 78.8038 597.67 78.5513C598.588 78.2366 599.546 78.0443 600.543 77.9745C601.536 77.8424 602.496 77.6813 603.423 77.4912C604.412 77.2968 605.35 76.8239 606.237 76.0727ZM570.436 80.1738C570.37 79.2386 570.456 78.2301 570.694 77.1484C570.932 76.0667 571.109 75.0205 571.226 74.0099C571.339 72.9369 571.238 71.9415 570.924 71.0237C570.671 70.1016 570.02 69.3013 568.97 68.6229C568.311 69.045 567.786 69.6142 567.398 70.3305C567.005 70.9845 566.614 71.6697 566.226 72.386C565.833 73.04 565.34 73.607 564.747 74.087C564.217 74.5627 563.477 74.7397 562.529 74.6181C562.27 75.3881 562.313 76.0115 562.66 76.4885C563.002 76.9032 563.407 77.3134 563.874 77.7193C564.336 78.0629 564.77 78.4398 565.174 78.8501C565.641 79.256 565.836 79.8063 565.76 80.5008C566.022 80.6704 566.378 80.8335 566.828 80.99C567.273 81.0842 567.716 81.1472 568.157 81.179C568.655 81.1441 569.119 81.0491 569.546 80.8939C569.974 80.7387 570.271 80.4986 570.436 80.1738ZM570.304 87.7013C569.057 87.7885 567.947 87.5843 566.972 87.0885C566.056 86.5261 565.104 85.9035 564.116 85.2207C563.191 84.5336 562.208 83.9131 561.167 83.3594C560.183 82.739 559.002 82.4144 557.621 82.3856C557.113 83.173 556.508 83.9358 555.808 84.6739C555.103 85.3497 554.497 86.0813 553.988 86.8687C553.479 87.6561 553.13 88.495 552.942 89.3853C552.816 90.2713 553.042 91.2579 553.619 92.3453C552.233 93.1314 551.336 94.1965 550.929 95.5407C550.517 96.8226 550.27 98.2182 550.188 99.7276C550.168 101.233 550.148 102.738 550.128 104.243C550.108 105.748 549.796 107.117 549.193 108.349L551.153 106.803C551.411 106.91 551.611 107.084 551.753 107.324C551.957 107.561 552.008 107.839 551.905 108.16C552.369 107.626 552.904 107.213 553.51 106.92C554.112 106.564 554.72 106.302 555.335 106.134C556.008 105.899 556.651 105.698 557.266 105.529C557.943 105.357 558.585 105.124 559.191 104.831C560.811 105.595 561.946 105.703 562.597 105.156C563.248 104.61 563.757 103.822 564.123 102.794C564.49 101.766 564.886 100.705 565.31 99.6099C565.731 98.4528 566.493 97.7103 567.598 97.3824L566.898 96.7736C567.866 95.3901 568.707 93.9843 569.422 92.5559C570.195 91.0609 570.489 89.4427 570.304 87.7013ZM661.422 76.3489C661.07 79.3808 660.242 81.8821 658.939 83.8528C657.694 85.7568 655.952 87.7269 653.714 89.763C654.163 89.9195 654.428 90.1203 654.508 90.3653C654.646 90.5437 654.727 90.8199 654.754 91.1939L654.599 91.6746C654.008 91.2774 653.462 91.0963 652.964 91.1312C652.46 91.1037 651.999 91.2299 651.58 91.5098C651.157 91.7274 650.74 92.0385 650.33 92.4431C649.915 92.7853 649.503 93.1588 649.093 93.5634C647.721 93.6593 646.302 93.9778 644.836 94.5188C643.366 94.9976 641.921 95.3806 640.5 95.6679C639.141 95.9509 637.857 95.9467 636.646 95.6555C635.431 95.3019 634.392 94.3407 633.531 92.772C633.019 92.6198 632.478 92.501 631.908 92.4155C631.396 92.2634 630.887 92.1424 630.379 92.0526C629.459 94.1218 628.285 96.1461 626.857 98.1256C625.487 100.038 623.923 101.871 622.166 103.622C620.405 105.312 618.508 106.854 616.475 108.249C614.505 109.64 612.515 110.751 610.505 111.58L610.231 111.693C609.956 111.337 609.72 111.103 609.524 110.991C609.329 110.879 609.108 110.863 608.863 110.943C608.681 111.019 608.436 111.098 608.128 111.183C607.887 111.325 607.549 111.411 607.112 111.442L606.536 112.61C605.62 112.047 605.04 111.367 604.796 110.57C604.557 109.835 604.052 109.337 603.282 109.078L602.512 110.166L602.212 109.905C601.011 108.861 599.943 107.463 599.006 105.712C598.069 103.96 597.281 102.105 596.643 100.144C596 98.1218 595.547 96.1173 595.282 94.1309C594.956 92.1488 594.834 90.4031 594.916 88.8936C594.382 88.4297 593.76 88.0347 593.048 87.7086C592.336 87.3825 591.891 86.8497 591.714 86.1102L591.801 86.0102C591.874 85.2533 592.213 84.7283 592.819 84.4353C593.362 84.1467 593.975 83.9472 594.657 83.8369C595.338 83.7266 595.99 83.6497 596.614 83.6061C597.237 83.5625 597.634 83.4094 597.804 83.147C597.777 82.7729 597.595 82.4097 597.257 82.0574C596.982 81.7008 596.709 81.3753 596.437 81.081C596.394 80.4575 596.517 79.979 596.807 79.6455C597.097 79.3119 597.42 79.0074 597.777 78.7318C598.133 78.4563 598.461 78.2141 598.76 78.0053C599.058 77.7964 599.197 77.5361 599.175 77.2244C599.158 76.975 599.08 76.7611 598.942 76.5828C598.804 76.4045 598.662 76.1638 598.516 75.8608C599.442 75.6707 599.982 75.3197 600.134 74.8079C600.286 74.296 600.654 73.7377 601.238 73.133C600.829 72.6604 600.73 72.1348 600.94 71.5562C601.146 70.9153 601.385 70.3034 601.658 69.7204C601.926 69.0752 602.105 68.4988 602.195 67.9913C602.342 67.4171 602.152 66.9292 601.622 66.5276C601.56 66.532 601.529 66.5342 601.529 66.5342C601.524 66.4718 601.491 66.4428 601.429 66.4472C602.468 62.4901 603.476 58.5351 604.452 54.5824C605.487 50.5629 606.588 46.6014 607.756 42.6979C608.987 38.7901 610.315 34.938 611.741 31.1418C613.23 27.3412 614.943 23.6189 616.881 19.9748C616.887 19.1599 617.061 18.5212 617.405 18.0586C617.811 17.5917 618.288 17.245 618.836 17.0188C619.379 16.7301 619.988 16.4683 620.66 16.2333C621.333 15.9983 621.939 15.7053 622.478 15.3544C623.013 14.941 623.448 14.4407 623.783 13.8534C624.118 13.2661 624.248 12.4425 624.174 11.3826C625.189 11.5623 626.133 11.6216 627.006 11.5605C627.879 11.4995 628.723 11.4718 629.538 11.4775C630.415 11.4788 631.239 11.6092 632.009 11.8686C632.841 12.1236 633.664 12.6926 634.477 13.5755L634.577 13.6625C634.657 13.9075 634.652 14.2838 634.562 14.7913C634.531 15.2321 634.526 15.6084 634.547 15.9201C634.635 17.1671 634.817 18.4386 635.096 19.7349C635.437 21.0267 635.622 22.3295 635.651 23.6432C635.676 24.8945 635.478 26.0987 635.058 27.2558C634.633 28.3506 633.764 29.3512 632.449 30.2577C633.185 31.8351 633.288 33.3003 632.756 34.6532C632.282 35.9394 631.588 37.2097 630.673 38.464C629.758 39.7184 628.877 41.0018 628.029 42.3141C627.243 43.6221 626.905 45.0554 627.014 46.6141C626.051 47.1827 625.322 47.9542 624.826 48.9286C624.326 49.8407 623.83 50.8152 623.339 51.852C622.91 52.8844 622.383 53.8611 621.758 54.7819C621.191 55.636 620.298 56.2937 619.077 56.755C618.673 59.0387 617.783 61.1058 616.409 62.9562C615.035 64.8066 613.627 66.6279 612.186 68.4203C610.745 70.2127 609.465 72.0565 608.344 73.9518C607.286 75.8427 606.84 77.9728 607.005 80.342C605.377 82.1475 604.359 84.1609 603.95 86.3823C603.604 88.5994 603.512 90.8613 603.673 93.1682C603.721 93.854 603.8 94.5377 603.911 95.2191C604.021 95.9006 604.1 96.5842 604.148 97.2701C603.627 96.9932 603.2 97.1484 602.865 97.7357L602.784 97.9293C603.375 99.2037 604.025 100.443 604.736 101.646C605.505 102.783 606.425 103.846 607.496 104.836C609.083 104.224 610.635 103.583 612.155 102.913C613.732 102.176 615.347 101.53 617 100.976C617.27 99.4538 617.884 98.3771 618.842 97.7462C619.858 97.0486 620.85 96.4467 621.817 95.9406C622.846 95.43 623.745 94.8346 624.511 94.1545C625.278 93.4743 625.605 92.3237 625.492 90.7027L625.679 90.6896C626.601 90.4372 627.29 89.9818 627.745 89.3234C628.196 88.6027 628.517 87.8284 628.71 87.0004C628.961 86.1058 629.085 85.1886 629.082 84.2491C629.141 83.3051 629.176 82.4569 629.186 81.7044C628.977 81.4057 628.884 80.9736 628.907 80.4081C628.988 79.7759 629.038 79.1459 629.057 78.5181C629.134 77.8235 629.117 77.1355 629.006 76.4541C628.959 75.7682 628.759 75.1557 628.408 74.6163L628.395 74.4293L628.475 74.2357C628.744 73.5904 629.016 73.0075 629.293 72.4869C629.565 71.904 629.805 71.2921 630.01 70.6512C630.516 68.9242 631.142 67.5647 631.887 66.5728C632.632 65.5809 634.002 65.0152 635.997 64.8757C637.296 65.5367 638.07 66.2971 638.318 67.1569C638.629 68.0123 638.694 68.9475 638.514 69.9625C638.335 70.9775 638.128 72.0571 637.895 73.2011C637.657 74.2828 637.669 75.3471 637.93 76.3939L638.137 76.6614C637.767 76.7499 637.437 76.9609 637.147 77.2945C636.857 77.628 636.57 77.9927 636.284 78.3886C635.999 78.7845 635.713 79.1804 635.427 79.5763C635.204 79.9678 635.008 80.2948 634.838 80.5573C635.323 81.2126 635.622 81.9121 635.737 82.656C635.847 83.3374 635.955 83.9877 636.061 84.6068C636.225 85.1592 636.511 85.6718 636.92 86.1444C637.387 86.5503 638.153 86.7474 639.217 86.7356C640.348 86.7818 641.513 86.857 642.71 86.9612C643.908 87.0654 645.07 87.1095 646.197 87.0934C647.381 87.0105 648.495 86.8073 649.537 86.4838C650.642 86.156 651.634 85.5541 652.512 84.6782C652.456 83.8676 652.575 83.3268 652.869 83.0556C653.225 82.78 653.62 82.5958 654.052 82.503C654.546 82.4057 655.043 82.3397 655.542 82.3048C656.036 82.2076 656.424 81.9299 656.705 81.4716C656.322 81.3731 656.064 81.2658 655.931 81.1499C655.855 80.9672 655.613 81.0781 655.202 81.4827L654.83 80.1931L655.365 79.7797C655.828 80.1233 656.273 80.2175 656.701 80.0623C657.124 79.8447 657.512 79.567 657.864 79.2291C658.274 78.8245 658.653 78.422 659.001 78.0218C659.407 77.5548 659.791 77.2148 660.152 77.0016L660.654 76.1206L661.422 76.3489ZM629.019 18.8441C628.836 18.9195 628.625 19.0283 628.384 19.1704C627.542 19.6679 626.641 20.2321 625.683 20.863C624.725 21.4939 623.835 22.2139 623.015 23.0231C622.252 23.7656 621.623 24.6241 621.127 25.5986C620.627 26.5107 620.416 27.5279 620.495 28.6501C620.508 28.8372 620.53 29.1489 620.56 29.5853C620.586 29.9594 620.666 30.2044 620.8 30.3204C620.559 30.4626 620.329 30.7606 620.11 31.2144C619.949 31.6016 619.731 32.0555 619.454 32.5761C619.235 33.0299 618.922 33.4903 618.516 33.9573C618.169 34.3575 617.687 34.6418 617.072 34.8101C617.69 35.5814 618.03 36.4035 618.091 37.2763C618.147 38.0869 618.048 38.9083 617.793 39.7406C617.538 40.5729 617.158 41.4139 616.654 42.2637C616.207 43.0468 615.759 43.7986 615.308 44.5193L614.914 44.2649C615.313 45.4901 615.427 46.6725 615.256 47.8122C615.143 48.8852 614.906 49.9669 614.543 51.0573C614.239 52.0811 613.872 53.1092 613.443 54.1416C613.014 55.174 612.683 56.2623 612.45 57.4063C612.909 56.8103 613.304 56.1875 613.635 55.5379C614.028 54.8839 614.421 54.2299 614.813 53.5759C614.947 53.6919 615.178 53.8637 615.507 54.0912C615.895 54.2521 616.15 54.3282 616.275 54.3195C616.066 54.0208 615.855 53.691 615.642 53.33C615.429 52.969 615.218 52.6392 615.009 52.3405L614.996 52.1534C615.711 50.7251 616.625 49.4708 617.74 48.3904C618.851 47.2476 619.899 46.1092 620.885 44.9752C620.762 43.2295 621.007 41.8027 621.619 40.6948C622.289 39.5202 623.029 38.466 623.841 37.5321C624.711 36.5314 625.458 35.5707 626.083 34.6499C626.766 33.6624 627.059 32.4828 626.964 31.1111C626.942 30.7994 626.882 30.3963 626.785 29.9019C626.683 29.3451 626.559 28.9152 626.413 28.6122L626.687 28.4991C627.845 28.0421 628.588 27.4577 628.914 26.7457C629.236 25.9714 629.368 25.1789 629.311 24.3684C629.313 23.4912 629.218 22.5893 629.028 21.6628C628.896 20.6696 628.893 19.7301 629.019 18.8441ZM717.853 74.2824C717.676 76.237 717.407 77.7595 717.044 78.8499C716.678 79.878 716.175 80.759 715.537 81.4927C714.958 82.1598 714.191 82.84 713.237 83.5332C712.278 84.1641 711.153 85.0886 709.859 86.3068C709.387 86.7158 708.943 87.0914 708.529 87.4336C708.114 87.7759 707.704 88.1805 707.298 88.6475C706.077 89.1087 704.593 89.839 702.846 90.8383C701.095 91.7753 699.283 92.7478 697.411 93.7558C695.597 94.6971 693.84 95.5405 692.137 96.2861C690.498 97.0273 689.143 97.3726 688.075 97.322C687.736 97.8469 687.103 98.2045 686.176 98.3946C685.25 98.5847 684.537 98.6971 684.038 98.732C683.228 98.7887 682.39 98.9099 681.526 99.0956C680.724 99.277 680.034 99.7012 679.454 100.368C679.338 100.502 679.249 100.571 679.186 100.575C679.191 100.637 679.193 100.668 679.193 100.668C679.255 100.664 679.255 100.664 679.193 100.668C679.197 100.731 679.144 100.86 679.032 101.056C678.403 101.914 677.716 102.401 676.972 102.515C676.291 102.626 675.596 102.549 674.889 102.285C674.186 102.084 673.445 101.791 672.666 101.407C671.95 101.018 671.211 100.757 670.45 100.622C669.746 100.421 669.027 100.44 668.292 100.679C667.553 100.856 666.839 101.407 666.152 102.332C665.637 101.24 664.906 100.634 663.957 100.512C663.009 100.39 662.036 100.365 661.039 100.434C660.099 100.437 659.188 100.407 658.307 100.343C657.421 100.217 656.787 99.6665 656.406 98.6907L656.399 98.5972L654.317 97.0511L654.056 97.3513C653.767 97.6849 653.541 98.0452 653.38 98.4324C653.219 98.8195 653.025 99.1777 652.797 99.5069C652.351 100.29 651.873 101.075 651.365 101.863C650.851 102.588 650.269 103.224 649.618 103.77C648.909 104.384 648.158 104.844 647.365 105.15C646.577 105.518 645.71 105.673 644.766 105.613C644.662 104.117 645.002 102.715 645.788 101.407C646.511 100.103 647.237 98.8306 647.964 97.5894C648.625 96.2901 649.037 95.0083 649.199 93.7439C649.295 92.4215 648.669 91.0869 647.322 89.7401C647.198 88.8716 646.765 88.056 646.023 87.2935C645.214 86.4729 644.469 85.6792 643.789 84.9123C643.104 84.083 642.702 83.2653 642.583 82.4591C642.402 81.6573 642.875 80.8097 644.003 79.9164C643.433 79.8309 643.044 79.6389 642.835 79.3402C642.813 79.0285 642.885 78.7102 643.05 78.3854C643.149 78.0026 643.25 77.6509 643.353 77.3305C643.727 77.3043 644.128 77.2136 644.555 77.0584C644.916 76.8452 645.282 76.6944 645.651 76.6059C645.954 76.4594 646.266 76.4376 646.587 76.5405C646.84 76.5854 647.109 76.8485 647.394 77.3298C647.607 77.6908 647.791 78.0852 647.946 78.5129C648.101 78.9406 648.288 79.3662 648.505 79.7895C649.091 81.0016 649.798 82.1426 650.624 83.2126C651.447 84.2201 652.358 85.1589 653.359 86.0287L653.659 86.2896C653.654 86.2273 653.768 86.0627 654 85.7959C654.232 85.529 654.495 85.26 654.79 84.9888C655.08 84.6553 655.341 84.3551 655.572 84.0883C655.804 83.8214 655.978 83.6213 656.094 83.4879C656.795 82.7498 657.466 82.045 658.108 81.3735C658.75 80.7021 659.299 80.0372 659.754 79.3788C660.267 78.6538 660.62 77.8773 660.813 77.0493C661.064 76.1546 661.15 75.1462 661.071 74.0239C662.913 72.5795 664.714 71.0125 666.475 69.323C668.232 67.5712 670.025 65.8795 671.853 64.248C673.681 62.6165 675.583 61.1365 677.557 59.808C679.594 58.4752 681.813 57.5055 684.214 56.8991C684.845 57.8574 685.554 58.591 686.342 59.0998C687.129 59.6086 687.885 60.1196 688.611 60.6328C689.398 61.1416 690.101 61.7816 690.718 62.5529C691.398 63.3198 691.913 64.4116 692.263 65.8281C692.949 68.4742 693.126 70.9993 692.793 73.4034C692.522 75.8031 692.04 78.3116 691.345 80.9289C690.951 82.4601 690.591 84.0204 690.263 85.6096C689.998 87.1944 689.922 88.7974 690.035 90.4184L690.703 90.5597C691.212 89.7723 691.803 89.2611 692.476 89.0261C693.211 88.7867 693.95 88.6097 694.694 88.495C695.438 88.3804 696.148 88.2367 696.825 88.0641C697.56 87.8247 698.151 87.3135 698.598 86.5304C699.43 86.7855 700.18 86.7644 700.849 86.467C701.575 86.1029 702.264 85.6475 702.915 85.1008C703.566 84.5541 704.214 83.9762 704.861 83.3671C705.508 82.758 706.198 82.3338 706.933 82.0944L706.788 81.3528C707.858 80.5261 708.787 79.9286 709.576 79.5602C710.364 79.1918 711.091 78.8277 711.755 78.468C712.419 78.1083 713.074 77.6239 713.721 77.0148C714.367 76.4057 715.081 75.416 715.863 74.0457C716.166 73.8992 716.506 73.844 716.885 73.8802C717.321 73.8497 717.644 73.9838 717.853 74.2824ZM684.566 67.3061C684.246 67.2032 683.896 67.1337 683.518 67.0975C683.197 66.9946 682.875 66.8605 682.55 66.6953C681.963 66.3604 681.413 66.1169 680.901 65.9648C680.389 65.8126 679.801 65.9164 679.137 66.2761L679.15 66.4631L679.057 66.4697C676.047 69.1236 673.273 72.0116 670.735 75.1338C668.254 78.1893 665.614 81.1933 662.813 84.1458L661.912 83.363C661.515 83.9547 661.307 84.5644 661.288 85.1922C661.332 85.8157 661.373 86.408 661.413 86.9691C661.452 87.5303 661.427 88.0646 661.337 88.5721C661.247 89.0796 660.906 89.5734 660.313 90.0534L660.045 90.2601C660.356 91.1155 660.738 91.6526 661.192 91.8715C661.703 92.0237 662.209 92.0823 662.708 92.0474C663.264 91.9459 663.79 91.8464 664.284 91.7492C664.779 91.652 665.191 91.7172 665.52 91.9448C665.715 92.0564 665.853 92.2347 665.933 92.4797C666.013 92.7248 666.059 92.9408 666.072 93.1279C666.384 93.1061 666.696 93.0843 667.008 93.0625C667.382 93.0363 667.754 92.979 668.123 92.8905C668.8 92.7178 669.517 92.6677 670.274 92.74C671.089 92.7457 671.589 93.1806 671.775 94.0448C672.987 93.4588 674.228 92.8395 675.498 92.1868C676.768 91.5341 677.765 90.5559 678.489 89.2523L679.189 89.8612C679.251 89.8568 679.282 89.8546 679.282 89.8546C679.34 89.7879 679.401 89.7524 679.463 89.748C680.956 88.7038 682.076 87.2472 682.823 85.378C683.631 83.5046 684.18 81.4926 684.468 79.3423C684.756 77.192 684.857 75.0547 684.772 72.9305C684.748 70.802 684.68 68.9272 684.566 67.3061Z" fill="#EFEFEF"/>
</svg>
