<svg width="88" height="88" viewBox="0 0 88 88" fill="none" xmlns="http://www.w3.org/2000/svg">
<g clip-path="url(#clip0_1939_18534)">
<ellipse cx="40" cy="28.5" rx="2" ry="2.5" fill="#FDCECF"/>
<ellipse cx="58" cy="17.5" rx="2" ry="2.5" fill="#FDCECF"/>
<path d="M50 58H39L32 65H57L50 58Z" fill="#FDCECF"/>
<g clip-path="url(#clip1_1939_18534)">
<path d="M31.146 46.1036H31.121C29.7252 46.1036 28.5874 44.9916 28.5874 43.625C28.5874 42.2585 29.7252 41.1465 31.121 41.1465C31.2675 41.1465 31.4194 41.1602 31.5698 41.1864L31.5699 41.1864L32.1339 41.2856L38.4752 30.4005L38.0997 29.9765L38.0997 29.9765C37.7014 29.5263 37.4817 28.9506 37.4817 28.3569C37.4817 26.989 38.6194 25.8784 40.0152 25.8784C41.411 25.8784 42.5488 26.989 42.5488 28.3569C42.5488 28.7288 42.4657 29.0869 42.3024 29.4216L42.3023 29.4216L42.0552 29.9274L49.5779 37.2689L50.0959 37.0255C50.0959 37.0255 50.0959 37.0255 50.096 37.0254C50.4 36.8823 50.7265 36.8011 51.0657 36.7859M31.146 46.1036L51.0668 36.8109M31.146 46.1036V46.1021V46.1036ZM51.0657 36.7859L51.0668 36.8109M51.0657 36.7859L51.0657 36.7859L51.0668 36.8109M51.0657 36.7859L51.639 36.7595M51.0668 36.8109L51.6577 36.7836M51.639 36.7595L51.6338 36.7763L51.6577 36.7836M51.639 36.7595L51.6566 36.7587L51.6577 36.7836M51.639 36.7595L51.6577 36.7836M49.8492 37.9113L49.8487 37.9119L49.8343 37.9246L49.8241 37.9359L49.8225 37.9376L49.8224 37.9376L49.8025 37.9557L49.7951 37.9642L49.7941 37.9653L49.7941 37.9652C49.4531 38.3123 49.2619 38.7763 49.2619 39.2631C49.2619 40.3011 50.1254 41.1465 51.1881 41.1465C52.2507 41.1465 53.1141 40.3011 53.1141 39.2631C53.1141 38.4308 52.5672 37.7084 51.7539 37.4633C51.7538 37.4633 51.7537 37.4633 51.7536 37.4632L51.7055 37.4498C51.5361 37.404 51.3613 37.3798 51.1881 37.3798V37.3548L49.8492 37.9113ZM49.8492 37.9113C50.2111 37.5682 50.6871 37.3798 51.1894 37.3798V37.3548M49.8492 37.9113L51.1894 37.3548M51.1894 37.3548C51.3646 37.3549 51.5411 37.3794 51.7121 37.4257M51.1894 37.3548L51.7121 37.4257M51.7121 37.4257L51.7608 37.4393C52.5845 37.6874 53.1391 38.4194 53.1391 39.2631C53.1391 40.3154 52.2639 41.1715 51.1881 41.1715C50.1122 41.1715 49.2369 40.3154 49.2369 39.2631L51.7121 37.4257ZM31.121 46.0786C31.1126 46.0786 31.1043 46.0786 31.096 46.0785V46.0786H31.121ZM56.8463 19.7833L56.8609 19.7938L56.8755 19.7735L56.8516 19.7662L56.8463 19.7833ZM56.3843 19.4517L56.3843 19.4517L56.3989 19.4313L56.3843 19.4517ZM57.4266 19.9544L57.4318 19.9376L57.4079 19.9302L57.409 19.9552L57.4266 19.9544ZM52.2192 36.9306L52.2047 36.9201L52.1901 36.9404L52.214 36.9477L52.2192 36.9306ZM52.6813 37.2622L52.6667 37.2825L52.6813 37.2622C52.6813 37.2622 52.6813 37.2622 52.6813 37.2622ZM32.6519 41.5957L32.661 41.5801L32.649 41.5665L32.6303 41.5831L32.6519 41.5957ZM38.9852 30.6934L39.0023 30.6964L39.0111 30.6813L38.9895 30.6688L38.9852 30.6934ZM41.0967 30.5706L41.1073 30.5932L41.1073 30.5932L41.0967 30.5706ZM49.148 37.6913L49.161 37.7039L49.1784 37.686L49.156 37.675L49.148 37.6913ZM31.121 41.7417H31.146V41.7405C31.4567 41.7445 31.7641 41.8236 32.0375 41.9678L32.0492 41.9457L32.0375 41.9678L32.0549 41.977L32.0877 41.997L32.0883 41.9974C32.68 42.3352 33.0471 42.9582 33.0471 43.625C33.0471 44.663 32.1836 45.5084 31.121 45.5084C30.0584 45.5084 29.1949 44.663 29.1949 43.625C29.1949 42.5871 30.0584 41.7417 31.121 41.7417ZM57.348 19.2628L57.3478 19.2628L57.3051 19.2507C57.305 19.2506 57.3049 19.2506 57.3048 19.2506C56.4957 19.0042 55.9528 18.2818 55.9528 17.4535C55.9528 16.4155 56.8163 15.5701 57.8789 15.5701C58.9415 15.5701 59.805 16.4155 59.805 17.4535C59.805 18.4915 58.9415 19.3368 57.8789 19.3368C57.6986 19.3368 57.5142 19.3112 57.348 19.2628ZM41.6304 30.3198L41.613 30.3377L41.6254 30.3498L41.6411 30.3424L41.6304 30.3198ZM38.0905 28.3583C38.0905 27.3203 38.954 26.475 40.0166 26.475C41.0792 26.475 41.9427 27.3203 41.9427 28.3583C41.9427 29.3963 41.0792 30.2416 40.0166 30.2416C39.6974 30.2416 39.381 30.1636 39.1018 30.0157C39.1017 30.0156 39.1016 30.0156 39.1015 30.0156L39.0826 30.005L39.0825 30.0049L39.0465 29.9846C39.0465 29.9846 39.0465 29.9846 39.0465 29.9846C38.4576 29.6467 38.0905 29.0238 38.0905 28.3583Z" fill="#161A1E" stroke="#161A1E" stroke-width="0.05"/>
<path d="M15.975 52.2808C15.975 52.445 16.1121 52.5784 16.2787 52.5784H72.7213C72.8879 52.5784 73.025 52.445 73.025 52.2808V19.1574C73.025 18.9931 72.8879 18.8598 72.7213 18.8598H65.4033C65.2367 18.8598 65.0995 18.9931 65.0995 19.1574C65.0995 19.3217 65.2367 19.455 65.4033 19.455H72.4175V51.9831H16.5825V19.455H50.3547C50.5213 19.455 50.6584 19.3217 50.6584 19.1574C50.6584 18.9931 50.5213 18.8598 50.3547 18.8598H16.2787C16.1121 18.8598 15.975 18.9931 15.975 19.1574V52.2808Z" fill="#161A1E" stroke="#161A1E" stroke-width="0.05"/>
<path d="M65.1956 73.0249H65.2569L65.2504 73.0185C65.3105 73.0076 65.3654 72.9792 65.4096 72.936C65.5283 72.8199 65.5283 72.6306 65.4096 72.5145L57.9438 65.2123L57.9442 65.212L57.9398 65.2092L57.8716 65.1656L57.8271 65.1003L57.8276 65.1L57.824 65.0965L50.8787 58.3034H68.9584C69.125 58.3034 69.2621 58.17 69.2621 58.0058C69.2621 57.8415 69.125 57.7082 68.9584 57.7082H20.0415C19.875 57.7082 19.7378 57.8415 19.7378 58.0058C19.7378 58.17 19.875 58.3034 20.0415 58.3034H38.1227L23.5906 72.517C23.5906 72.517 23.5905 72.5171 23.5905 72.5171C23.5327 72.5723 23.5007 72.6469 23.5007 72.7273C23.5007 72.8079 23.5342 72.8838 23.5904 72.9387C23.6467 72.9938 23.7227 73.0249 23.8044 73.0249C23.8862 73.0249 23.9621 72.9937 24.0198 72.9373L31.4559 65.6641H57.544L64.9816 72.9387C65.0379 72.9938 65.1153 73.0249 65.1956 73.0249ZM56.9355 65.0689H32.0645L38.9816 58.3034H50.0184L56.9355 65.0689Z" fill="#161A1E" stroke="#161A1E" stroke-width="0.05"/>
</g>
</g>
<defs>
<clipPath id="clip0_1939_18534">
<rect width="57" height="58" fill="white" transform="translate(16 15)"/>
</clipPath>
<clipPath id="clip1_1939_18534">
<rect width="57" height="58" fill="white" transform="translate(16 15)"/>
</clipPath>
</defs>
</svg>
