<svg width="88" height="88" viewBox="0 0 88 88" fill="none" xmlns="http://www.w3.org/2000/svg">
<path d="M48.2331 35.2221L41.3716 30.2126H49.8253L52.4915 22.0071L55.1563 30.2126H63.61L56.7485 35.2221L59.4212 43.4249L52.4915 38.3626L45.5604 43.4249L48.2331 35.2221Z" fill="#FDCECF"/>
<path d="M41.3716 29.9628H40.6052L41.2242 30.4147L47.9393 35.3173L45.3227 43.3477L45.083 44.0835L45.7078 43.6271L52.4914 38.6724L59.2737 43.627L59.8987 44.0836L59.6589 43.3477L57.0423 35.3173L63.7574 30.4147L64.3764 29.9628H63.61H55.338L52.7292 21.9301L52.4915 21.1981L52.2537 21.9301L49.6436 29.9628H41.3716Z" stroke="#161A1E" stroke-width="0.5"/>
<g clip-path="url(#clip0_2014_11414)">
<path d="M14.8765 66.0001C14.7326 66.0001 14.6099 65.8965 14.5848 65.753C14.557 65.5909 14.6653 65.4355 14.8264 65.4063C19.079 64.6571 27.5511 63.2743 30.0464 62.8691L30.3104 62.8266L27.6594 47.3792L27.394 47.4323C25.4426 47.8202 18.7344 49.1539 14.3564 50.0346C14.3366 50.0385 14.3168 50.0399 14.2983 50.0399C14.157 50.0399 14.0342 49.9389 14.0065 49.7994C13.9906 49.7211 14.0065 49.6414 14.0501 49.5749C14.0936 49.5085 14.161 49.4634 14.2389 49.4474C19.4143 48.406 27.7597 46.7495 27.8415 46.7336C27.86 46.7296 27.8798 46.7283 27.8996 46.7283C27.9604 46.7283 28.0185 46.7469 28.0673 46.7814C28.1333 46.8266 28.1782 46.8983 28.1914 46.9767L30.9455 63.0246C30.9587 63.1029 30.9402 63.1853 30.894 63.2491C30.8478 63.3128 30.7778 63.358 30.6999 63.3699L30.6669 63.3752C29.55 63.5572 19.6189 65.1712 14.9267 65.9974C14.9096 66.0001 14.8911 66.0014 14.8752 66.0014L14.8765 66.0001Z" fill="#161A1E"/>
<path d="M50.554 59.4553C47.3946 59.4553 42.973 58.8682 40.8592 58.5215C40.2321 58.4178 39.5416 58.366 38.8089 58.366C37.0371 58.366 35.2785 58.6729 34.114 58.9306C34.0929 58.9346 34.0718 58.9372 34.0506 58.9372C33.9925 58.9372 33.9358 58.92 33.8869 58.8881C33.8209 58.8442 33.7734 58.7738 33.7589 58.6941L32.1759 50.4118C32.1521 50.291 32.2076 50.1661 32.3119 50.101C33.8962 49.118 35.8686 47.8946 37.1018 47.5824C38.4234 47.249 39.8558 46.9408 41.3847 46.9408C41.7504 46.9408 42.1214 46.9581 42.4858 46.994C43.3466 47.0777 44.288 47.2012 45.1976 47.3221C46.308 47.4695 47.3563 47.6077 48.1696 47.6608C48.3095 47.6701 48.5023 47.6741 48.7425 47.6741C50.3374 47.6741 53.7728 47.4748 55.8244 47.3553C56.5268 47.3141 57.0721 47.2822 57.2847 47.2743C57.3678 47.2716 57.4497 47.2689 57.5289 47.2689C59.0551 47.2689 60.1747 47.8441 60.8547 48.9785L60.9061 49.0649L61.0012 49.0954C61.2006 49.1592 61.4937 49.1897 61.899 49.1897C62.4126 49.1897 63.1057 49.1379 63.9586 49.0383C64.8353 48.9347 67.5405 48.0341 68.7221 46.5237C69.4905 45.5407 70.3817 44.9988 71.2306 44.9988C71.5118 44.9988 71.7865 45.0599 72.0228 45.1755C72.7714 45.5407 73.1503 46.3909 72.9456 47.2424C72.8044 47.8308 68.1967 53.3794 66.7193 54.3743C65.3158 55.3188 56.4305 58.6344 52.8354 59.2959C52.269 59.3995 51.5019 59.4526 50.5566 59.4526L50.554 59.4553ZM38.8128 57.7696C39.5786 57.7696 40.2995 57.8241 40.9556 57.9317C43.7665 58.3926 47.8289 58.8589 50.5672 58.8589C51.4676 58.8589 52.1937 58.8097 52.7258 58.7114C56.3842 58.0366 65.1838 54.6891 66.3866 53.8802C67.7068 52.9915 71.9541 47.9105 72.3515 47.1295L72.3674 47.0976L72.3753 47.063C72.4941 46.4945 72.2472 45.9539 71.7614 45.7161C71.599 45.6364 71.4181 45.5965 71.2227 45.5965C70.5652 45.5965 69.8417 46.0575 69.1869 46.8957C67.8811 48.5654 65.0042 49.5179 64.0246 49.6347C63.1057 49.7437 62.4627 49.7915 61.9399 49.7915C61.2771 49.7915 60.8177 49.7105 60.5338 49.5431C60.4889 49.5165 60.452 49.4793 60.4256 49.4328C60.0123 48.7049 59.3099 47.8694 57.5368 47.8694C57.4616 47.8694 57.3837 47.8707 57.3045 47.8733C57.0985 47.8813 56.5546 47.9132 55.868 47.953C53.2024 48.1085 50.2345 48.2732 48.7412 48.2732C48.4851 48.2732 48.2778 48.2679 48.1286 48.2586C47.2942 48.2041 46.238 48.0633 45.1184 47.9159C44.214 47.7963 43.2793 47.6728 42.4277 47.5904C42.0858 47.5572 41.7372 47.5413 41.3913 47.5413C39.9192 47.5413 38.529 47.8401 37.2457 48.1643C36.2027 48.4273 34.4837 49.4594 32.9535 50.4065L32.7977 50.5022L34.2843 58.281L34.5444 58.2292C36.072 57.9237 37.5084 57.7696 38.8115 57.7696H38.8128Z" fill="#161A1E"/>
<path d="M30.4662 63.419C30.3236 63.419 30.2008 63.3167 30.1744 63.1746C30.1599 63.0962 30.177 63.0165 30.2219 62.9501C30.2668 62.8837 30.3341 62.8398 30.412 62.8252L33.6691 62.2128C33.8012 62.1903 33.916 62.1172 33.9913 62.0083C34.0665 61.8994 34.0929 61.7678 34.0679 61.6377L31.632 49.2308C31.6069 49.1006 31.5316 48.989 31.4207 48.9173C31.3653 48.8815 31.2755 48.8389 31.158 48.8389C31.121 48.8389 31.0854 48.8429 31.0484 48.8509L28.4607 49.3517C28.4422 49.3557 28.4224 49.357 28.4039 49.357C28.2626 49.357 28.1399 49.2547 28.1121 49.1139C28.0818 48.9519 28.1874 48.7951 28.3485 48.7632L30.9151 48.2664C31.0009 48.2478 31.0814 48.2385 31.1606 48.2385C31.3653 48.2385 31.5673 48.2983 31.7429 48.4125C31.9898 48.5733 32.1587 48.8217 32.2155 49.1139L34.6514 61.5208C34.7082 61.8104 34.6474 62.1039 34.4811 62.347C34.3147 62.5901 34.0639 62.7508 33.7748 62.8013L30.5216 63.4137C30.5031 63.4177 30.4847 63.419 30.4662 63.419Z" fill="#161A1E"/>
<path d="M47.4936 53.1334C47.3418 53.1334 47.2137 53.0179 47.1978 52.8651C47.1899 52.7854 47.2124 52.707 47.2625 52.6459C47.3127 52.5835 47.384 52.545 47.4632 52.537C50.6596 52.2036 59.3271 50.9191 60.0876 50.6972L60.114 50.6893L60.1378 50.676C60.5668 50.4475 60.6936 50.0955 60.514 49.6292C60.4546 49.4752 60.5312 49.3011 60.683 49.2414C60.7174 49.2281 60.7543 49.2214 60.79 49.2214C60.9114 49.2214 61.0237 49.2985 61.0672 49.4127C61.5069 50.5524 60.6461 51.0904 60.3715 51.2273C59.8051 51.4836 50.2503 52.8465 47.524 53.1308C47.5134 53.1308 47.5028 53.1321 47.4923 53.1321L47.4936 53.1334Z" fill="#161A1E"/>
</g>
<defs>
<clipPath id="clip0_2014_11414">
<rect width="59" height="21" fill="white" transform="translate(14 45)"/>
</clipPath>
</defs>
</svg>
