<svg width="88" height="88" viewBox="0 0 88 88" fill="none" xmlns="http://www.w3.org/2000/svg">
<g clip-path="url(#clip0_2014_6208)">
<path d="M55.3531 38.6605L55.3476 38.6816L54.1012 43.4478L54.0957 43.4688L54.0741 43.4663L49.319 42.9103C49.2317 42.9108 49.1535 42.959 49.1141 43.0378C48.1 45.158 46.691 47.0242 44.9309 48.5728L44.9304 48.5734C44.8568 48.6341 44.8342 48.7392 44.8694 48.8275C44.8694 48.8276 44.8695 48.8277 44.8695 48.8277L46.6805 53.2376L46.6887 53.2577L46.67 53.2687L42.4246 55.7567L42.4058 55.7677L42.3924 55.7506L39.4424 52.0093C39.4424 52.0092 39.4423 52.0092 39.4422 52.0091C39.3982 51.9563 39.3323 51.9257 39.2669 51.9257C39.2402 51.9257 39.2143 51.9302 39.1935 51.9385L39.1924 51.9389C37.3446 52.5886 35.4139 52.9209 33.4587 52.9209C33.0835 52.9209 32.7035 52.9062 32.309 52.8818C32.2174 52.8821 32.1392 52.9344 32.1042 53.0222L32.104 53.0226L30.2686 57.4229L30.2602 57.443L30.2392 57.4375L25.4826 56.1935L25.4616 56.188L25.4641 56.1664L26.0142 51.4246L26.0143 51.4241C26.0274 51.3277 25.9749 51.2357 25.892 51.1964L25.8919 51.1963C23.7711 50.1753 21.9135 48.7683 20.3679 46.9997C20.3242 46.9516 20.2629 46.9253 20.1968 46.9253C20.1653 46.9253 20.1403 46.9297 20.1155 46.9421L20.1138 46.943L20.1138 46.9429L15.7078 48.7528L15.6877 48.7611L15.6767 48.7423L13.1937 44.4932L13.1828 44.4745L13.1998 44.461L16.934 41.4998L16.9343 41.4995C17.0083 41.4428 17.0393 41.3419 17.0086 41.2494C16.2286 39.0363 15.9117 36.7206 16.0628 34.3708L16.0628 34.3702C16.0715 34.2746 16.0153 34.1866 15.9269 34.1466C15.9268 34.1465 15.9267 34.1465 15.9266 34.1464L11.5309 32.3075L11.5108 32.2992L11.5163 32.2781L12.7627 27.5119L12.7682 27.4909L12.7898 27.4934L17.54 28.0494C17.6324 28.0489 17.7105 28.0005 17.7498 27.9219C18.7639 25.8018 20.1729 23.9356 21.9329 22.3869C22.0076 22.3208 22.0295 22.2199 21.9945 22.132C21.9945 22.132 21.9944 22.132 21.9944 22.132L20.1834 17.7221L20.1752 17.702L20.1939 17.691L24.4393 15.203L24.4581 15.192L24.4715 15.2091L27.4219 18.946L27.4221 18.9462C27.4659 19.0033 27.5314 19.034 27.6019 19.034C27.6234 19.034 27.6494 19.0296 27.6705 19.0212L27.6715 19.0208L27.6715 19.0208C29.5242 18.371 31.45 18.0388 33.4003 18.0388C33.7756 18.0388 34.1604 18.0535 34.5452 18.0778C34.6428 18.0775 34.7295 18.0196 34.7595 17.9381L34.7599 17.9371L34.7599 17.9371L36.6002 13.5367L36.6086 13.5167L36.6296 13.5222L41.3813 14.7662L41.4023 14.7717L41.3998 14.7933L40.8497 19.5351L40.8496 19.5356C40.8365 19.632 40.8891 19.724 40.9719 19.7633L40.972 19.7634C43.0928 20.7844 44.9505 22.1915 46.5009 23.96L46.5015 23.9607C46.54 24.0078 46.6006 24.0344 46.6671 24.0344C46.6982 24.0344 46.724 24.0301 46.7546 24.0169L46.755 24.0168L51.1561 22.2069L51.1763 22.1986L51.1872 22.2174L53.6702 26.4665L53.6811 26.4852L53.6641 26.4987L49.93 29.4599L49.9296 29.4602C49.8556 29.5169 49.8246 29.6178 49.8553 29.7103C49.8553 29.7104 49.8554 29.7105 49.8554 29.7105L49.8317 29.7184C50.6106 31.9283 50.9271 34.2407 50.7762 36.5873L55.3531 38.6605ZM55.3531 38.6605L55.333 38.6522L50.9374 36.8133L55.3531 38.6605ZM13.2153 44.4806L15.6983 48.7297L20.1043 46.9198C20.1335 46.9051 20.1627 46.9003 20.1968 46.9003C20.2698 46.9003 20.338 46.9295 20.3867 46.9832C21.93 48.7492 23.7849 50.1542 25.9027 51.1738L13.2153 44.4806ZM13.2153 44.4806L16.9495 41.5194L13.2153 44.4806ZM25.4889 56.1693L30.2455 57.4133L32.0809 53.013C32.1199 52.9154 32.2075 52.8568 32.3098 52.8568C32.7041 52.8812 33.0839 52.8959 33.4587 52.8959C35.411 52.8959 37.339 52.5641 39.1841 51.9153L25.4889 56.1693ZM25.4889 56.1693L26.0391 51.4275L25.4889 56.1693ZM35.838 26.2643L35.838 26.2643C40.9122 27.5926 43.9569 32.8086 42.6312 37.8932C41.5338 42.0826 37.7511 45.0068 33.4295 45.0068C32.6235 45.0068 31.8126 44.8998 31.0259 44.6954C25.9565 43.3671 22.9071 38.1511 24.2375 33.0665L24.2376 33.0664C24.8785 30.6044 26.4372 28.5414 28.632 27.2569L28.6194 27.2353L28.632 27.2569C30.0937 26.4005 31.7447 25.948 33.4149 25.948C34.2258 25.948 35.0416 26.055 35.838 26.2643Z" fill="#FDCECF" stroke="#161A1E" stroke-width="0.05"/>
<path d="M61.1073 64.9303C57.8836 64.9303 55.2657 62.3023 55.2657 59.0768C55.2657 55.8513 57.8885 53.2233 61.1073 53.2233C64.3262 53.2233 66.9441 55.8513 66.9441 59.0768C66.9441 62.3024 64.331 64.9303 61.1073 64.9303ZM61.1073 52.6757C57.5833 52.6757 54.7143 55.5457 54.7143 59.0768C54.7143 62.608 57.5881 65.4779 61.1073 65.4779C64.6265 65.4779 67.4955 62.6079 67.4955 59.0768C67.4955 55.5457 64.6314 52.6757 61.1073 52.6757Z" fill="#161A1E" stroke="#161A1E" stroke-width="0.05"/>
<mask id="path-3-outside-1_2014_6208" maskUnits="userSpaceOnUse" x="45.2095" y="43.1489" width="31" height="31" fill="black">
<rect fill="white" x="45.2095" y="43.1489" width="31" height="31"/>
<path d="M49.7392 57.1012L46.7061 57.5305V60.6234L49.744 61.0527C49.8463 61.0674 49.9339 61.1454 49.9534 61.2527C50.2455 62.7602 50.8249 64.17 51.6817 65.4433C51.7401 65.5311 51.7401 65.6482 51.6769 65.7311L49.8317 68.185L52.0177 70.3705L54.4617 68.5265C54.5201 68.4826 54.5736 68.4777 54.6126 68.4777C54.6613 68.4777 54.71 68.4923 54.7538 68.5167C56.0196 69.3753 57.4266 69.9607 58.9359 70.2535C59.0381 70.273 59.1209 70.3559 59.1355 70.4632L59.559 73.5025H62.6506L63.079 70.4632C63.0936 70.3559 63.1715 70.273 63.2737 70.2535C64.783 69.9607 66.19 69.3753 67.4607 68.5167C67.4996 68.4923 67.5483 68.4777 67.597 68.4777C67.636 68.4777 67.6944 68.4826 67.7479 68.5265L70.1919 70.3705L72.3779 68.185L70.5376 65.7311C70.4695 65.6482 70.4695 65.5311 70.5279 65.4433C71.3847 64.17 71.969 62.7602 72.2611 61.2527C72.2806 61.1454 72.3633 61.0674 72.4704 61.0527L75.5035 60.6234V57.5305L72.4704 57.1012C72.3633 57.0865 72.2806 57.0036 72.2611 56.9012C71.969 55.3937 71.3847 53.9839 70.5279 52.7106C70.4695 52.6228 70.4695 52.5057 70.5376 52.4228L72.3779 49.9689L70.1919 47.7785L67.7479 49.6274C67.6944 49.6713 67.636 49.6762 67.597 49.6762C67.5483 49.6762 67.4996 49.6616 67.4607 49.6372C66.19 48.7786 64.783 48.1932 63.2786 47.9004C63.1715 47.8809 63.0936 47.798 63.079 47.6907L62.6506 44.6514H59.559L59.1355 47.6907C59.1209 47.798 59.0381 47.8809 58.9359 47.9004C57.4266 48.1932 56.0196 48.7786 54.7538 49.6323C54.71 49.6616 54.6613 49.6762 54.6126 49.6762C54.5736 49.6762 54.5201 49.6762 54.4617 49.6274L52.0177 47.7785L49.8317 49.9689L51.6769 52.4228C51.7401 52.5057 51.7401 52.6228 51.6817 52.7106C50.8249 53.9839 50.2455 55.3937 49.9534 56.9012C49.9339 57.0036 49.8463 57.0865 49.7392 57.1012ZM50.9709 65.2579C50.3331 64.2139 49.8658 63.0773 49.5785 61.8869L49.4909 61.521L46.4237 61.0869C46.302 61.0722 46.2095 60.9649 46.2095 60.8429V57.311C46.2095 57.189 46.302 57.0817 46.4237 57.0622L49.4909 56.6329L49.5785 56.267C49.8658 55.0766 50.338 53.94 50.9709 52.896L51.1657 52.574L49.3059 50.0957C49.228 49.9982 49.2377 49.8567 49.3253 49.7689L51.818 47.276C51.8667 47.2272 51.93 47.2028 51.9933 47.2028C52.0323 47.2028 52.0907 47.2126 52.1442 47.2516L54.6175 49.1201L54.9388 48.92C55.9807 48.2858 57.1102 47.8175 58.303 47.5297L58.6632 47.437L59.0965 44.3636C59.116 44.2416 59.2182 44.1489 59.3448 44.1489H62.8648C62.9914 44.1489 63.0985 44.2416 63.1131 44.3636L63.5464 47.437L63.9115 47.5297C65.0994 47.8175 66.2338 48.2858 67.2757 48.92L67.5921 49.1201L70.0654 47.2516C70.1189 47.2126 70.1773 47.2028 70.2163 47.2028C70.2844 47.2028 70.3477 47.2272 70.3916 47.276L72.8843 49.7689C72.9719 49.8567 72.9816 49.9982 72.9037 50.0957L71.0439 52.574L71.2387 52.896C71.8765 53.94 72.3438 55.0766 72.6311 56.267L72.7187 56.6329L75.7859 57.0622C75.9076 57.0817 76.0001 57.189 76.0001 57.311V60.8429C76.0001 60.9649 75.9076 61.0722 75.7859 61.0869L72.7187 61.521L72.6311 61.8869C72.3438 63.0773 71.8765 64.2139 71.2387 65.2579L71.0439 65.5799L72.9037 68.0533C72.9816 68.1557 72.9719 68.2972 72.8843 68.385L70.3916 70.8779C70.3477 70.9267 70.2844 70.9511 70.2163 70.9511C70.1773 70.9511 70.1189 70.9413 70.0654 70.9023L67.5921 69.0338L67.2757 69.229C66.2338 69.8681 65.0994 70.3364 63.9115 70.6242L63.5464 70.712L63.1131 73.7854C63.0985 73.9074 62.9914 74.0001 62.8648 74.0001H59.3448C59.2182 74.0001 59.116 73.9074 59.0965 73.7854L58.6632 70.712L58.303 70.6242C57.1102 70.3364 55.9807 69.8681 54.9388 69.229L54.6175 69.0338L52.1442 70.9023C52.0907 70.9413 52.0323 70.9511 51.9933 70.9511C51.93 70.9511 51.8667 70.9267 51.818 70.8779L49.3253 68.385C49.2377 68.2972 49.228 68.1557 49.3059 68.0582L51.1657 65.5799L50.9709 65.2579Z"/>
</mask>
<path d="M49.7392 57.1012L46.7061 57.5305V60.6234L49.744 61.0527C49.8463 61.0674 49.9339 61.1454 49.9534 61.2527C50.2455 62.7602 50.8249 64.17 51.6817 65.4433C51.7401 65.5311 51.7401 65.6482 51.6769 65.7311L49.8317 68.185L52.0177 70.3705L54.4617 68.5265C54.5201 68.4826 54.5736 68.4777 54.6126 68.4777C54.6613 68.4777 54.71 68.4923 54.7538 68.5167C56.0196 69.3753 57.4266 69.9607 58.9359 70.2535C59.0381 70.273 59.1209 70.3559 59.1355 70.4632L59.559 73.5025H62.6506L63.079 70.4632C63.0936 70.3559 63.1715 70.273 63.2737 70.2535C64.783 69.9607 66.19 69.3753 67.4607 68.5167C67.4996 68.4923 67.5483 68.4777 67.597 68.4777C67.636 68.4777 67.6944 68.4826 67.7479 68.5265L70.1919 70.3705L72.3779 68.185L70.5376 65.7311C70.4695 65.6482 70.4695 65.5311 70.5279 65.4433C71.3847 64.17 71.969 62.7602 72.2611 61.2527C72.2806 61.1454 72.3633 61.0674 72.4704 61.0527L75.5035 60.6234V57.5305L72.4704 57.1012C72.3633 57.0865 72.2806 57.0036 72.2611 56.9012C71.969 55.3937 71.3847 53.9839 70.5279 52.7106C70.4695 52.6228 70.4695 52.5057 70.5376 52.4228L72.3779 49.9689L70.1919 47.7785L67.7479 49.6274C67.6944 49.6713 67.636 49.6762 67.597 49.6762C67.5483 49.6762 67.4996 49.6616 67.4607 49.6372C66.19 48.7786 64.783 48.1932 63.2786 47.9004C63.1715 47.8809 63.0936 47.798 63.079 47.6907L62.6506 44.6514H59.559L59.1355 47.6907C59.1209 47.798 59.0381 47.8809 58.9359 47.9004C57.4266 48.1932 56.0196 48.7786 54.7538 49.6323C54.71 49.6616 54.6613 49.6762 54.6126 49.6762C54.5736 49.6762 54.5201 49.6762 54.4617 49.6274L52.0177 47.7785L49.8317 49.9689L51.6769 52.4228C51.7401 52.5057 51.7401 52.6228 51.6817 52.7106C50.8249 53.9839 50.2455 55.3937 49.9534 56.9012C49.9339 57.0036 49.8463 57.0865 49.7392 57.1012ZM50.9709 65.2579C50.3331 64.2139 49.8658 63.0773 49.5785 61.8869L49.4909 61.521L46.4237 61.0869C46.302 61.0722 46.2095 60.9649 46.2095 60.8429V57.311C46.2095 57.189 46.302 57.0817 46.4237 57.0622L49.4909 56.6329L49.5785 56.267C49.8658 55.0766 50.338 53.94 50.9709 52.896L51.1657 52.574L49.3059 50.0957C49.228 49.9982 49.2377 49.8567 49.3253 49.7689L51.818 47.276C51.8667 47.2272 51.93 47.2028 51.9933 47.2028C52.0323 47.2028 52.0907 47.2126 52.1442 47.2516L54.6175 49.1201L54.9388 48.92C55.9807 48.2858 57.1102 47.8175 58.303 47.5297L58.6632 47.437L59.0965 44.3636C59.116 44.2416 59.2182 44.1489 59.3448 44.1489H62.8648C62.9914 44.1489 63.0985 44.2416 63.1131 44.3636L63.5464 47.437L63.9115 47.5297C65.0994 47.8175 66.2338 48.2858 67.2757 48.92L67.5921 49.1201L70.0654 47.2516C70.1189 47.2126 70.1773 47.2028 70.2163 47.2028C70.2844 47.2028 70.3477 47.2272 70.3916 47.276L72.8843 49.7689C72.9719 49.8567 72.9816 49.9982 72.9037 50.0957L71.0439 52.574L71.2387 52.896C71.8765 53.94 72.3438 55.0766 72.6311 56.267L72.7187 56.6329L75.7859 57.0622C75.9076 57.0817 76.0001 57.189 76.0001 57.311V60.8429C76.0001 60.9649 75.9076 61.0722 75.7859 61.0869L72.7187 61.521L72.6311 61.8869C72.3438 63.0773 71.8765 64.2139 71.2387 65.2579L71.0439 65.5799L72.9037 68.0533C72.9816 68.1557 72.9719 68.2972 72.8843 68.385L70.3916 70.8779C70.3477 70.9267 70.2844 70.9511 70.2163 70.9511C70.1773 70.9511 70.1189 70.9413 70.0654 70.9023L67.5921 69.0338L67.2757 69.229C66.2338 69.8681 65.0994 70.3364 63.9115 70.6242L63.5464 70.712L63.1131 73.7854C63.0985 73.9074 62.9914 74.0001 62.8648 74.0001H59.3448C59.2182 74.0001 59.116 73.9074 59.0965 73.7854L58.6632 70.712L58.303 70.6242C57.1102 70.3364 55.9807 69.8681 54.9388 69.229L54.6175 69.0338L52.1442 70.9023C52.0907 70.9413 52.0323 70.9511 51.9933 70.9511C51.93 70.9511 51.8667 70.9267 51.818 70.8779L49.3253 68.385C49.2377 68.2972 49.228 68.1557 49.3059 68.0582L51.1657 65.5799L50.9709 65.2579Z" fill="#161A1E"/>
<path d="M49.7392 57.1012L46.7061 57.5305V60.6234L49.744 61.0527C49.8463 61.0674 49.9339 61.1454 49.9534 61.2527C50.2455 62.7602 50.8249 64.17 51.6817 65.4433C51.7401 65.5311 51.7401 65.6482 51.6769 65.7311L49.8317 68.185L52.0177 70.3705L54.4617 68.5265C54.5201 68.4826 54.5736 68.4777 54.6126 68.4777C54.6613 68.4777 54.71 68.4923 54.7538 68.5167C56.0196 69.3753 57.4266 69.9607 58.9359 70.2535C59.0381 70.273 59.1209 70.3559 59.1355 70.4632L59.559 73.5025H62.6506L63.079 70.4632C63.0936 70.3559 63.1715 70.273 63.2737 70.2535C64.783 69.9607 66.19 69.3753 67.4607 68.5167C67.4996 68.4923 67.5483 68.4777 67.597 68.4777C67.636 68.4777 67.6944 68.4826 67.7479 68.5265L70.1919 70.3705L72.3779 68.185L70.5376 65.7311C70.4695 65.6482 70.4695 65.5311 70.5279 65.4433C71.3847 64.17 71.969 62.7602 72.2611 61.2527C72.2806 61.1454 72.3633 61.0674 72.4704 61.0527L75.5035 60.6234V57.5305L72.4704 57.1012C72.3633 57.0865 72.2806 57.0036 72.2611 56.9012C71.969 55.3937 71.3847 53.9839 70.5279 52.7106C70.4695 52.6228 70.4695 52.5057 70.5376 52.4228L72.3779 49.9689L70.1919 47.7785L67.7479 49.6274C67.6944 49.6713 67.636 49.6762 67.597 49.6762C67.5483 49.6762 67.4996 49.6616 67.4607 49.6372C66.19 48.7786 64.783 48.1932 63.2786 47.9004C63.1715 47.8809 63.0936 47.798 63.079 47.6907L62.6506 44.6514H59.559L59.1355 47.6907C59.1209 47.798 59.0381 47.8809 58.9359 47.9004C57.4266 48.1932 56.0196 48.7786 54.7538 49.6323C54.71 49.6616 54.6613 49.6762 54.6126 49.6762C54.5736 49.6762 54.5201 49.6762 54.4617 49.6274L52.0177 47.7785L49.8317 49.9689L51.6769 52.4228C51.7401 52.5057 51.7401 52.6228 51.6817 52.7106C50.8249 53.9839 50.2455 55.3937 49.9534 56.9012C49.9339 57.0036 49.8463 57.0865 49.7392 57.1012ZM50.9709 65.2579C50.3331 64.2139 49.8658 63.0773 49.5785 61.8869L49.4909 61.521L46.4237 61.0869C46.302 61.0722 46.2095 60.9649 46.2095 60.8429V57.311C46.2095 57.189 46.302 57.0817 46.4237 57.0622L49.4909 56.6329L49.5785 56.267C49.8658 55.0766 50.338 53.94 50.9709 52.896L51.1657 52.574L49.3059 50.0957C49.228 49.9982 49.2377 49.8567 49.3253 49.7689L51.818 47.276C51.8667 47.2272 51.93 47.2028 51.9933 47.2028C52.0323 47.2028 52.0907 47.2126 52.1442 47.2516L54.6175 49.1201L54.9388 48.92C55.9807 48.2858 57.1102 47.8175 58.303 47.5297L58.6632 47.437L59.0965 44.3636C59.116 44.2416 59.2182 44.1489 59.3448 44.1489H62.8648C62.9914 44.1489 63.0985 44.2416 63.1131 44.3636L63.5464 47.437L63.9115 47.5297C65.0994 47.8175 66.2338 48.2858 67.2757 48.92L67.5921 49.1201L70.0654 47.2516C70.1189 47.2126 70.1773 47.2028 70.2163 47.2028C70.2844 47.2028 70.3477 47.2272 70.3916 47.276L72.8843 49.7689C72.9719 49.8567 72.9816 49.9982 72.9037 50.0957L71.0439 52.574L71.2387 52.896C71.8765 53.94 72.3438 55.0766 72.6311 56.267L72.7187 56.6329L75.7859 57.0622C75.9076 57.0817 76.0001 57.189 76.0001 57.311V60.8429C76.0001 60.9649 75.9076 61.0722 75.7859 61.0869L72.7187 61.521L72.6311 61.8869C72.3438 63.0773 71.8765 64.2139 71.2387 65.2579L71.0439 65.5799L72.9037 68.0533C72.9816 68.1557 72.9719 68.2972 72.8843 68.385L70.3916 70.8779C70.3477 70.9267 70.2844 70.9511 70.2163 70.9511C70.1773 70.9511 70.1189 70.9413 70.0654 70.9023L67.5921 69.0338L67.2757 69.229C66.2338 69.8681 65.0994 70.3364 63.9115 70.6242L63.5464 70.712L63.1131 73.7854C63.0985 73.9074 62.9914 74.0001 62.8648 74.0001H59.3448C59.2182 74.0001 59.116 73.9074 59.0965 73.7854L58.6632 70.712L58.303 70.6242C57.1102 70.3364 55.9807 69.8681 54.9388 69.229L54.6175 69.0338L52.1442 70.9023C52.0907 70.9413 52.0323 70.9511 51.9933 70.9511C51.93 70.9511 51.8667 70.9267 51.818 70.8779L49.3253 68.385C49.2377 68.2972 49.228 68.1557 49.3059 68.0582L51.1657 65.5799L50.9709 65.2579Z" stroke="#161A1E" stroke-width="0.1" mask="url(#path-3-outside-1_2014_6208)"/>
<path d="M31.0131 44.7439L31.013 44.7439C25.9169 43.4086 22.8515 38.1652 24.189 33.054L31.0131 44.7439ZM31.0131 44.7439C31.8038 44.9493 32.6189 45.0569 33.4293 45.0569C37.7737 45.0569 41.5762 42.1173 42.6794 37.906L42.6794 37.906M31.0131 44.7439L42.6794 37.906M42.6794 37.906C44.012 32.7947 40.9515 27.5513 35.8504 26.216C35.05 26.0057 34.2299 25.8981 33.4147 25.8981C31.7354 25.8981 30.0758 26.353 28.6066 27.2138M42.6794 37.906L28.6066 27.2138M28.6066 27.2138C26.4002 28.5051 24.8333 30.579 24.189 33.0539L28.6066 27.2138ZM31.1524 44.2126L31.1523 44.2126C28.8218 43.5996 26.8701 42.1207 25.6564 40.0385C24.4426 37.9562 24.1076 35.5287 24.7193 33.1934L24.7193 33.1934C25.3262 30.863 26.807 28.9074 28.885 27.6912L28.885 27.6911C30.2639 26.8787 31.8321 26.4506 33.4196 26.4506C34.1867 26.4506 34.9586 26.5479 35.7111 26.7473L35.7112 26.7473C38.0417 27.3603 39.9934 28.8392 41.2071 30.9214C42.4209 33.0037 42.7559 35.4312 42.1491 37.7665C41.5373 40.0969 40.0565 42.0525 37.9834 43.2688L37.996 43.2903L37.9834 43.2688C36.5996 44.0812 35.0314 44.5093 33.4488 44.5093C32.6768 44.5093 31.9049 44.412 31.1524 44.2126Z" fill="#161A1E" stroke="#161A1E" stroke-width="0.05"/>
<mask id="path-5-outside-2_2014_6208" maskUnits="userSpaceOnUse" x="9.99805" y="12" width="46" height="47" fill="black">
<rect fill="white" x="9.99805" y="12" width="46" height="47"/>
<path d="M16.5017 41.2413L16.3849 40.8754C15.7715 38.9435 15.494 36.9287 15.567 34.8993L15.5767 34.5139L11.1512 32.6601C11.0392 32.6162 10.9759 32.4894 11.0051 32.3674L12.3586 27.1816C12.3878 27.0743 12.4901 26.9962 12.6069 26.9962L17.3976 27.5573L17.5728 27.2158C18.5027 25.4107 19.7296 23.7911 21.2096 22.4056L21.4871 22.1471L19.6663 17.6979C19.6176 17.5857 19.6663 17.4491 19.7685 17.3906L24.3888 14.6831C24.4229 14.6587 24.4667 14.6489 24.5105 14.6489C24.5884 14.6489 24.6614 14.6831 24.7052 14.7416L27.6848 18.5126L28.0451 18.3956C29.7831 17.8443 31.5748 17.5662 33.3713 17.5662C33.5855 17.5662 33.7997 17.5662 34.0139 17.576L34.3937 17.5906L36.2437 13.1512C36.2827 13.0585 36.3752 13 36.4725 13C36.492 13 36.5163 13 36.5358 13L41.7111 14.3611C41.8328 14.3904 41.9107 14.5074 41.8961 14.6294L41.3411 19.4054L41.677 19.581C43.4832 20.5177 45.0996 21.7422 46.4823 23.2252L46.7403 23.5033L51.1755 21.6787C51.2048 21.669 51.2388 21.6641 51.2681 21.6641C51.3606 21.6641 51.4433 21.708 51.4871 21.7861L54.1892 26.4108C54.2476 26.5182 54.2233 26.6548 54.1259 26.7328L50.3674 29.7135L50.4793 30.0794C51.0928 32.0113 51.3703 34.0261 51.3021 36.0604L51.2875 36.4409L55.713 38.2947C55.8299 38.3386 55.8883 38.4655 55.8591 38.5874L54.5056 43.7683C54.4764 43.8805 54.3742 43.9537 54.2573 43.9537L49.4716 43.3976L49.2963 43.739C48.3615 45.5441 47.1347 47.1637 45.6546 48.5492L45.3771 48.8077L47.1979 53.2569C47.2466 53.3691 47.2028 53.5008 47.0957 53.5642L42.4803 56.2718C42.4414 56.2961 42.3976 56.3059 42.3537 56.3059C42.2758 56.3059 42.2077 56.2718 42.159 56.2083L39.1843 52.4422L38.8192 52.5593C37.086 53.1105 35.2797 53.3886 33.4589 53.3886C33.2593 53.3886 33.0548 53.3837 32.8503 53.3788L32.4706 53.3642L30.6205 57.8036C30.5816 57.8963 30.4891 57.9548 30.3917 57.9548C30.3674 57.9548 30.3479 57.9548 30.3284 57.9451L25.1532 56.5889C25.0363 56.5596 24.9535 56.4425 24.9681 56.3205L25.5232 51.5445L25.1872 51.3689C23.3859 50.4323 21.7695 49.2078 20.3868 47.7247L20.1239 47.4418L15.6887 49.2712C15.6595 49.2809 15.6254 49.2858 15.5962 49.2858C15.5037 49.2858 15.4209 49.2419 15.3771 49.1639L12.6799 44.5391C12.6166 44.4318 12.641 44.2952 12.7384 44.2171L16.5017 41.2364V41.2413ZM17.0324 41.2413C17.0665 41.3437 17.0324 41.4559 16.9496 41.5194L13.2155 44.4806L15.6984 48.7297L20.1045 46.9198C20.1337 46.9052 20.1629 46.9003 20.197 46.9003C20.27 46.9003 20.3382 46.9295 20.3868 46.9832C21.9302 48.7492 23.7851 50.1542 25.9029 51.1738C25.9954 51.2177 26.0538 51.3201 26.0392 51.4275L25.4891 56.1693L30.2457 57.4133L32.0811 53.013C32.12 52.9154 32.2077 52.8568 32.3099 52.8568C32.7043 52.8812 33.084 52.8959 33.4589 52.8959C35.4112 52.8959 37.3391 52.5641 39.1843 51.9153C39.2087 51.9055 39.2379 51.9007 39.2671 51.9007C39.3401 51.9007 39.4131 51.9348 39.4618 51.9934L42.4122 55.7351L46.6575 53.2471L44.8464 48.837C44.8075 48.7394 44.8318 48.6224 44.9146 48.5541C46.6721 47.0076 48.0792 45.144 49.0918 43.0268C49.1356 42.939 49.2233 42.8853 49.3206 42.8853L54.0772 43.4415L55.3236 38.6752L50.9273 36.8361C50.8299 36.7921 50.7666 36.6946 50.7763 36.5873C50.9273 34.2407 50.6108 31.9283 49.8318 29.7184C49.7978 29.616 49.8318 29.5038 49.9146 29.4403L53.6488 26.4791L51.1658 22.23L46.7646 24.0399C46.7306 24.0545 46.7014 24.0594 46.6673 24.0594C46.5942 24.0594 46.5261 24.0302 46.4823 23.9765C44.9341 22.2105 43.0792 20.8055 40.9613 19.7859C40.8688 19.742 40.8104 19.6396 40.825 19.5322L41.3752 14.7904L36.6235 13.5464L34.7831 17.9467C34.7491 18.0394 34.6517 18.1028 34.5446 18.1028C34.16 18.0785 33.7754 18.0638 33.4005 18.0638C31.4531 18.0638 29.53 18.3956 27.6799 19.0444C27.6556 19.0541 27.6264 19.059 27.602 19.059C27.5241 19.059 27.4511 19.0249 27.4024 18.9615L24.4521 15.2246L20.2067 17.7126L22.0178 22.1227C22.0568 22.2203 22.0324 22.3325 21.9496 22.4056C20.1921 23.9521 18.7851 25.8157 17.7724 27.9329C17.7286 28.0207 17.641 28.0744 17.5387 28.0744L12.787 27.5182L11.5407 32.2845L15.937 34.1236C16.0344 34.1675 16.0977 34.2651 16.0879 34.3724C15.937 36.719 16.2534 39.0314 17.0324 41.2413Z"/>
</mask>
<path d="M16.5017 41.2413L16.3849 40.8754C15.7715 38.9435 15.494 36.9287 15.567 34.8993L15.5767 34.5139L11.1512 32.6601C11.0392 32.6162 10.9759 32.4894 11.0051 32.3674L12.3586 27.1816C12.3878 27.0743 12.4901 26.9962 12.6069 26.9962L17.3976 27.5573L17.5728 27.2158C18.5027 25.4107 19.7296 23.7911 21.2096 22.4056L21.4871 22.1471L19.6663 17.6979C19.6176 17.5857 19.6663 17.4491 19.7685 17.3906L24.3888 14.6831C24.4229 14.6587 24.4667 14.6489 24.5105 14.6489C24.5884 14.6489 24.6614 14.6831 24.7052 14.7416L27.6848 18.5126L28.0451 18.3956C29.7831 17.8443 31.5748 17.5662 33.3713 17.5662C33.5855 17.5662 33.7997 17.5662 34.0139 17.576L34.3937 17.5906L36.2437 13.1512C36.2827 13.0585 36.3752 13 36.4725 13C36.492 13 36.5163 13 36.5358 13L41.7111 14.3611C41.8328 14.3904 41.9107 14.5074 41.8961 14.6294L41.3411 19.4054L41.677 19.581C43.4832 20.5177 45.0996 21.7422 46.4823 23.2252L46.7403 23.5033L51.1755 21.6787C51.2048 21.669 51.2388 21.6641 51.2681 21.6641C51.3606 21.6641 51.4433 21.708 51.4871 21.7861L54.1892 26.4108C54.2476 26.5182 54.2233 26.6548 54.1259 26.7328L50.3674 29.7135L50.4793 30.0794C51.0928 32.0113 51.3703 34.0261 51.3021 36.0604L51.2875 36.4409L55.713 38.2947C55.8299 38.3386 55.8883 38.4655 55.8591 38.5874L54.5056 43.7683C54.4764 43.8805 54.3742 43.9537 54.2573 43.9537L49.4716 43.3976L49.2963 43.739C48.3615 45.5441 47.1347 47.1637 45.6546 48.5492L45.3771 48.8077L47.1979 53.2569C47.2466 53.3691 47.2028 53.5008 47.0957 53.5642L42.4803 56.2718C42.4414 56.2961 42.3976 56.3059 42.3537 56.3059C42.2758 56.3059 42.2077 56.2718 42.159 56.2083L39.1843 52.4422L38.8192 52.5593C37.086 53.1105 35.2797 53.3886 33.4589 53.3886C33.2593 53.3886 33.0548 53.3837 32.8503 53.3788L32.4706 53.3642L30.6205 57.8036C30.5816 57.8963 30.4891 57.9548 30.3917 57.9548C30.3674 57.9548 30.3479 57.9548 30.3284 57.9451L25.1532 56.5889C25.0363 56.5596 24.9535 56.4425 24.9681 56.3205L25.5232 51.5445L25.1872 51.3689C23.3859 50.4323 21.7695 49.2078 20.3868 47.7247L20.1239 47.4418L15.6887 49.2712C15.6595 49.2809 15.6254 49.2858 15.5962 49.2858C15.5037 49.2858 15.4209 49.2419 15.3771 49.1639L12.6799 44.5391C12.6166 44.4318 12.641 44.2952 12.7384 44.2171L16.5017 41.2364V41.2413ZM17.0324 41.2413C17.0665 41.3437 17.0324 41.4559 16.9496 41.5194L13.2155 44.4806L15.6984 48.7297L20.1045 46.9198C20.1337 46.9052 20.1629 46.9003 20.197 46.9003C20.27 46.9003 20.3382 46.9295 20.3868 46.9832C21.9302 48.7492 23.7851 50.1542 25.9029 51.1738C25.9954 51.2177 26.0538 51.3201 26.0392 51.4275L25.4891 56.1693L30.2457 57.4133L32.0811 53.013C32.12 52.9154 32.2077 52.8568 32.3099 52.8568C32.7043 52.8812 33.084 52.8959 33.4589 52.8959C35.4112 52.8959 37.3391 52.5641 39.1843 51.9153C39.2087 51.9055 39.2379 51.9007 39.2671 51.9007C39.3401 51.9007 39.4131 51.9348 39.4618 51.9934L42.4122 55.7351L46.6575 53.2471L44.8464 48.837C44.8075 48.7394 44.8318 48.6224 44.9146 48.5541C46.6721 47.0076 48.0792 45.144 49.0918 43.0268C49.1356 42.939 49.2233 42.8853 49.3206 42.8853L54.0772 43.4415L55.3236 38.6752L50.9273 36.8361C50.8299 36.7921 50.7666 36.6946 50.7763 36.5873C50.9273 34.2407 50.6108 31.9283 49.8318 29.7184C49.7978 29.616 49.8318 29.5038 49.9146 29.4403L53.6488 26.4791L51.1658 22.23L46.7646 24.0399C46.7306 24.0545 46.7014 24.0594 46.6673 24.0594C46.5942 24.0594 46.5261 24.0302 46.4823 23.9765C44.9341 22.2105 43.0792 20.8055 40.9613 19.7859C40.8688 19.742 40.8104 19.6396 40.825 19.5322L41.3752 14.7904L36.6235 13.5464L34.7831 17.9467C34.7491 18.0394 34.6517 18.1028 34.5446 18.1028C34.16 18.0785 33.7754 18.0638 33.4005 18.0638C31.4531 18.0638 29.53 18.3956 27.6799 19.0444C27.6556 19.0541 27.6264 19.059 27.602 19.059C27.5241 19.059 27.4511 19.0249 27.4024 18.9615L24.4521 15.2246L20.2067 17.7126L22.0178 22.1227C22.0568 22.2203 22.0324 22.3325 21.9496 22.4056C20.1921 23.9521 18.7851 25.8157 17.7724 27.9329C17.7286 28.0207 17.641 28.0744 17.5387 28.0744L12.787 27.5182L11.5407 32.2845L15.937 34.1236C16.0344 34.1675 16.0977 34.2651 16.0879 34.3724C15.937 36.719 16.2534 39.0314 17.0324 41.2413Z" fill="#161A1E"/>
<path d="M16.5017 41.2413L16.3849 40.8754C15.7715 38.9435 15.494 36.9287 15.567 34.8993L15.5767 34.5139L11.1512 32.6601C11.0392 32.6162 10.9759 32.4894 11.0051 32.3674L12.3586 27.1816C12.3878 27.0743 12.4901 26.9962 12.6069 26.9962L17.3976 27.5573L17.5728 27.2158C18.5027 25.4107 19.7296 23.7911 21.2096 22.4056L21.4871 22.1471L19.6663 17.6979C19.6176 17.5857 19.6663 17.4491 19.7685 17.3906L24.3888 14.6831C24.4229 14.6587 24.4667 14.6489 24.5105 14.6489C24.5884 14.6489 24.6614 14.6831 24.7052 14.7416L27.6848 18.5126L28.0451 18.3956C29.7831 17.8443 31.5748 17.5662 33.3713 17.5662C33.5855 17.5662 33.7997 17.5662 34.0139 17.576L34.3937 17.5906L36.2437 13.1512C36.2827 13.0585 36.3752 13 36.4725 13C36.492 13 36.5163 13 36.5358 13L41.7111 14.3611C41.8328 14.3904 41.9107 14.5074 41.8961 14.6294L41.3411 19.4054L41.677 19.581C43.4832 20.5177 45.0996 21.7422 46.4823 23.2252L46.7403 23.5033L51.1755 21.6787C51.2048 21.669 51.2388 21.6641 51.2681 21.6641C51.3606 21.6641 51.4433 21.708 51.4871 21.7861L54.1892 26.4108C54.2476 26.5182 54.2233 26.6548 54.1259 26.7328L50.3674 29.7135L50.4793 30.0794C51.0928 32.0113 51.3703 34.0261 51.3021 36.0604L51.2875 36.4409L55.713 38.2947C55.8299 38.3386 55.8883 38.4655 55.8591 38.5874L54.5056 43.7683C54.4764 43.8805 54.3742 43.9537 54.2573 43.9537L49.4716 43.3976L49.2963 43.739C48.3615 45.5441 47.1347 47.1637 45.6546 48.5492L45.3771 48.8077L47.1979 53.2569C47.2466 53.3691 47.2028 53.5008 47.0957 53.5642L42.4803 56.2718C42.4414 56.2961 42.3976 56.3059 42.3537 56.3059C42.2758 56.3059 42.2077 56.2718 42.159 56.2083L39.1843 52.4422L38.8192 52.5593C37.086 53.1105 35.2797 53.3886 33.4589 53.3886C33.2593 53.3886 33.0548 53.3837 32.8503 53.3788L32.4706 53.3642L30.6205 57.8036C30.5816 57.8963 30.4891 57.9548 30.3917 57.9548C30.3674 57.9548 30.3479 57.9548 30.3284 57.9451L25.1532 56.5889C25.0363 56.5596 24.9535 56.4425 24.9681 56.3205L25.5232 51.5445L25.1872 51.3689C23.3859 50.4323 21.7695 49.2078 20.3868 47.7247L20.1239 47.4418L15.6887 49.2712C15.6595 49.2809 15.6254 49.2858 15.5962 49.2858C15.5037 49.2858 15.4209 49.2419 15.3771 49.1639L12.6799 44.5391C12.6166 44.4318 12.641 44.2952 12.7384 44.2171L16.5017 41.2364V41.2413ZM17.0324 41.2413C17.0665 41.3437 17.0324 41.4559 16.9496 41.5194L13.2155 44.4806L15.6984 48.7297L20.1045 46.9198C20.1337 46.9052 20.1629 46.9003 20.197 46.9003C20.27 46.9003 20.3382 46.9295 20.3868 46.9832C21.9302 48.7492 23.7851 50.1542 25.9029 51.1738C25.9954 51.2177 26.0538 51.3201 26.0392 51.4275L25.4891 56.1693L30.2457 57.4133L32.0811 53.013C32.12 52.9154 32.2077 52.8568 32.3099 52.8568C32.7043 52.8812 33.084 52.8959 33.4589 52.8959C35.4112 52.8959 37.3391 52.5641 39.1843 51.9153C39.2087 51.9055 39.2379 51.9007 39.2671 51.9007C39.3401 51.9007 39.4131 51.9348 39.4618 51.9934L42.4122 55.7351L46.6575 53.2471L44.8464 48.837C44.8075 48.7394 44.8318 48.6224 44.9146 48.5541C46.6721 47.0076 48.0792 45.144 49.0918 43.0268C49.1356 42.939 49.2233 42.8853 49.3206 42.8853L54.0772 43.4415L55.3236 38.6752L50.9273 36.8361C50.8299 36.7921 50.7666 36.6946 50.7763 36.5873C50.9273 34.2407 50.6108 31.9283 49.8318 29.7184C49.7978 29.616 49.8318 29.5038 49.9146 29.4403L53.6488 26.4791L51.1658 22.23L46.7646 24.0399C46.7306 24.0545 46.7014 24.0594 46.6673 24.0594C46.5942 24.0594 46.5261 24.0302 46.4823 23.9765C44.9341 22.2105 43.0792 20.8055 40.9613 19.7859C40.8688 19.742 40.8104 19.6396 40.825 19.5322L41.3752 14.7904L36.6235 13.5464L34.7831 17.9467C34.7491 18.0394 34.6517 18.1028 34.5446 18.1028C34.16 18.0785 33.7754 18.0638 33.4005 18.0638C31.4531 18.0638 29.53 18.3956 27.6799 19.0444C27.6556 19.0541 27.6264 19.059 27.602 19.059C27.5241 19.059 27.4511 19.0249 27.4024 18.9615L24.4521 15.2246L20.2067 17.7126L22.0178 22.1227C22.0568 22.2203 22.0324 22.3325 21.9496 22.4056C20.1921 23.9521 18.7851 25.8157 17.7724 27.9329C17.7286 28.0207 17.641 28.0744 17.5387 28.0744L12.787 27.5182L11.5407 32.2845L15.937 34.1236C16.0344 34.1675 16.0977 34.2651 16.0879 34.3724C15.937 36.719 16.2534 39.0314 17.0324 41.2413Z" stroke="#161A1E" stroke-width="0.1" mask="url(#path-5-outside-2_2014_6208)"/>
</g>
<defs>
<clipPath id="clip0_2014_6208">
<rect width="65" height="61" fill="white" transform="translate(11 13)"/>
</clipPath>
</defs>
</svg>
