<svg width="88" height="88" viewBox="0 0 88 88" fill="none" xmlns="http://www.w3.org/2000/svg">
<path d="M24.2861 50.7444L41.1514 24.9813C41.7302 24.0966 42.6633 23.5676 43.6453 23.5676C44.1409 23.5676 44.6167 23.7102 45.0211 23.9793C46.2555 24.8001 46.5277 26.5855 45.629 27.9592L30.5136 51.0495L24.2875 50.7444H24.2861Z" fill="#FDCECF"/>
<path d="M45.9249 28.1583L45.9249 28.1582C46.4154 27.4094 46.6091 26.5305 46.4734 25.6829C46.3378 24.8373 45.8905 24.1277 45.2164 23.6788C44.7534 23.3706 44.2108 23.208 43.6472 23.208C43.3988 23.208 43.1472 23.2397 42.8975 23.3023L42.8975 23.3024C42.0717 23.5092 41.3473 24.0333 40.8568 24.7834L40.8568 24.7835L23.4801 51.3273L23.478 51.3305L23.4779 51.3305C23.4318 51.3969 23.365 51.4053 23.3352 51.4053C23.3055 51.4053 23.2684 51.398 23.2335 51.3717L23.2256 51.3657L23.2226 51.3626C23.2186 51.3592 23.2127 51.3537 23.2063 51.3466C23.19 51.3284 23.1732 51.3017 23.1661 51.2659L23.3035 51.2387L23.1661 51.2659C23.1526 51.1976 23.1829 51.1499 23.1918 51.1364C23.1918 51.1363 23.1919 51.1362 23.192 51.1361L40.5657 24.5928C41.102 23.7734 41.8989 23.1943 42.8123 22.9655L42.8124 22.9654C43.0898 22.8962 43.3721 22.86 43.6499 22.86C44.2785 22.86 44.8871 23.0425 45.4074 23.3899C46.1645 23.8937 46.6634 24.691 46.8146 25.6278L46.8146 25.628C46.9644 26.5631 46.7511 27.5295 46.2146 28.3489L30.934 51.6924L30.9319 51.6956L30.9319 51.6956C30.8858 51.762 30.8189 51.7704 30.7891 51.7704H30.7878C30.7686 51.7704 30.7499 51.7672 30.7326 51.7614C30.7196 51.7571 30.6981 51.7481 30.6776 51.7297L30.6772 51.7294C30.6735 51.7262 30.6665 51.7202 30.6589 51.7116C30.6427 51.6934 30.6259 51.6668 30.6188 51.631C30.6053 51.563 30.6352 51.5155 30.6443 51.5017L30.6442 51.5018L30.7002 51.5384M45.9249 28.1583L30.7878 51.4904M45.9249 28.1583L30.6446 51.5012L45.9249 28.1583ZM30.7002 51.5384L30.6998 51.5391L30.7609 51.5791C30.7611 51.5789 30.7612 51.5787 30.7614 51.5784M30.7002 51.5384L30.7004 51.5381L30.7614 51.5784M30.7002 51.5384L30.7614 51.5784M30.7614 51.5784L30.7619 51.5776L30.7019 51.5359C30.7132 51.5197 30.7298 51.5062 30.7497 51.4982C30.7666 51.4914 30.781 51.4905 30.7878 51.4904M30.7878 51.4904C30.788 51.4904 30.7883 51.4904 30.7885 51.4904L30.7891 51.4904H30.7878ZM42.8294 23.0308C42.8295 23.0308 42.8295 23.0307 42.8295 23.0307L42.8471 23.1011C43.1129 23.0348 43.3827 23.0002 43.6472 23C43.6481 23 43.649 23 43.6499 23C44.2512 23 44.8327 23.1745 45.3296 23.5063L42.8294 23.0308ZM42.8294 23.0308C42.8292 23.0308 42.829 23.0309 42.8288 23.0309C42.8287 23.0309 42.8287 23.0309 42.8287 23.0309C41.9315 23.2559 41.1495 23.8242 40.6226 24.63C40.6225 24.6301 40.6225 24.6301 40.6225 24.6302L40.6225 24.6301L40.6828 24.6696L40.6828 24.6695C41.2009 23.878 41.9688 23.3211 42.8463 23.1013L42.8294 23.0308ZM46.5382 25.6723C46.5382 25.6723 46.5381 25.6723 46.5381 25.6723L46.6116 25.6605C46.4701 24.7786 46.0023 24.0339 45.294 23.5623C45.2936 23.562 45.2932 23.5618 45.2929 23.5616C45.2929 23.5615 45.2928 23.5615 45.2928 23.5615C44.8074 23.2387 44.2392 23.0685 43.6499 23.068C43.649 23.068 43.6481 23.068 43.6472 23.068C43.3869 23.068 43.1239 23.1013 42.8635 23.1665C42.8632 23.1666 42.863 23.1667 42.8627 23.1667L42.8803 23.2371C42.8806 23.237 42.8809 23.2369 42.8811 23.2369C42.8811 23.2369 42.8811 23.2369 42.8811 23.2369C43.1365 23.1732 43.3948 23.1402 43.6472 23.14C43.6481 23.14 43.649 23.14 43.6499 23.14C44.2239 23.14 44.7783 23.3065 45.2519 23.6227L45.2521 23.6229C45.2524 23.6231 45.2528 23.6233 45.2531 23.6236C45.9411 24.0817 46.3987 24.8083 46.5382 25.6723ZM46.5382 25.6723C46.5382 25.6724 46.5382 25.6725 46.5382 25.6725L46.5382 25.6724C46.5382 25.6724 46.5382 25.6723 46.5382 25.6723ZM30.8785 51.6551L30.8789 51.6545C30.8783 51.6555 30.878 51.6559 30.8781 51.6557L30.8785 51.6551ZM42.8627 23.1668L42.8802 23.2371L40.7396 24.7068C40.7397 24.7068 40.7397 24.7067 40.7397 24.7067C41.2484 23.9289 42.0013 23.3827 42.8627 23.1668ZM23.4259 51.29L23.4263 51.2893L23.4255 51.2906L23.4259 51.29ZM30.6796 51.7314L30.6793 51.7311L30.6796 51.7314Z" fill="#161A1E" stroke="#161A1E" stroke-width="0.28"/>
<path d="M17.5216 66.1394L17.5252 66.1034L17.5252 66.1034L17.5216 66.1394L17.5215 66.1394L17.5215 66.1394L17.5213 66.1394L17.521 66.1393L17.5203 66.1393L17.5185 66.1391L17.5138 66.1384C17.5104 66.138 17.5054 66.1372 17.4996 66.1359C17.4995 66.1359 17.4993 66.1359 17.4991 66.1358C17.4971 66.1354 17.4916 66.1344 17.4839 66.132L17.3806 66.2037L17.4051 66.0812C17.3699 66.0411 17.3546 65.9867 17.3653 65.9329L17.3653 65.9327L18.5733 59.8878C18.5733 59.8878 18.5733 59.8878 18.5733 59.8878L18.5733 59.8876L18.7106 59.9151C18.7145 59.8951 18.7317 59.8884 18.7423 59.8884L17.5216 66.1394ZM17.5216 66.1394L17.5881 66.1461L17.6128 66.1212M17.5216 66.1394L17.6128 66.1212M17.6128 66.1212L17.6246 66.1159L17.6353 66.1085L24.341 61.4551C24.3764 61.4321 24.4049 61.3928 24.4146 61.344C24.425 61.2917 24.4108 61.2421 24.3837 61.207C24.3424 61.1505 24.2834 61.1368 24.2442 61.1368C24.2152 61.1368 24.1923 61.1445 24.1813 61.1488C24.1748 61.1512 24.1694 61.1537 24.1653 61.1558L24.1598 61.1586L24.1576 61.1598L24.1567 61.1603L24.1562 61.1606L24.156 61.1607L24.1559 61.1607L24.1559 61.1608L24.1896 61.2193L24.1896 61.2194L24.1556 61.1604L24.1459 61.1671L17.7911 65.578L18.914 59.9558L18.9167 59.9422V59.9335L17.6128 66.1212ZM24.1897 61.2195L24.2257 61.2821L24.1897 61.2195C24.1897 61.2195 24.1897 61.2195 24.1897 61.2195Z" fill="#161A1E" stroke="#161A1E" stroke-width="0.28"/>
<path d="M38.4791 28.1L38.4556 28.135L38.5331 28.0184L38.5333 28.0185C38.5142 28.0058 38.4822 27.9896 38.4384 27.9896C38.411 27.9896 38.3457 27.996 38.2988 28.0583C38.2709 28.0935 38.2562 28.1439 38.2667 28.1969C38.2747 28.2371 38.2953 28.2646 38.3083 28.279C38.3154 28.2868 38.3221 28.2929 38.3274 28.2973L38.3348 28.3031L38.3378 28.3053L38.3392 28.3063L38.3399 28.3067L38.3402 28.3069L38.3403 28.307L38.3404 28.3071L38.3779 28.2514L38.3779 28.2514L38.3405 28.3071L38.341 28.3075L42.1387 30.8346C42.1556 30.8472 42.1721 30.8539 42.1829 30.8575C42.2001 30.8633 42.2188 30.8665 42.2381 30.8665H42.2394C42.2682 30.8665 42.3318 30.8586 42.3777 30.7979C42.4055 30.7626 42.4203 30.7123 42.4098 30.6593C42.4018 30.6191 42.3812 30.5915 42.3681 30.5771C42.3611 30.5693 42.3544 30.5632 42.3491 30.5588L42.3417 30.553L42.3386 30.5508L42.3373 30.5498L42.3366 30.5494L42.3363 30.5492L42.3361 30.5491L42.3361 30.549L42.2986 30.6047L38.5337 28.0188L38.4963 28.0745M38.4791 28.1L38.4557 28.1351L38.456 28.1353L38.4967 28.0748L38.4963 28.0745M38.4791 28.1L38.4963 28.0745M38.4791 28.1L38.4961 28.0744L38.4963 28.0745M42.1738 30.6092L38.5395 28.1908C38.5437 28.1755 38.5446 28.1589 38.5414 28.1424C38.536 28.1155 38.5227 28.0986 38.5163 28.0915C38.5125 28.0874 38.509 28.0841 38.506 28.0816L38.5014 28.078L38.4991 28.0764L38.4979 28.0755L38.4973 28.0751L38.497 28.0749L42.2983 30.6045L42.2985 30.6046L42.2986 30.6047L42.1738 30.6092ZM42.1738 30.6092C42.1817 30.6032 42.1904 30.5981 42.1999 30.5943C42.2168 30.5875 42.2313 30.5866 42.2381 30.5865C42.2383 30.5865 42.2385 30.5865 42.2387 30.5865M42.1738 30.6092L42.2387 30.5865M42.2387 30.5865C42.2385 30.5865 42.2383 30.5865 42.2381 30.5865H42.2394C42.2392 30.5865 42.239 30.5865 42.2387 30.5865ZM42.2985 30.6049L42.2785 30.6345L42.2579 30.6652L42.2814 30.6301L42.2985 30.6048C42.2985 30.6048 42.2985 30.6049 42.2985 30.6049ZM38.3951 28.2259L38.3779 28.2514C38.3779 28.2514 38.3779 28.2514 38.3779 28.2514L38.398 28.2215L38.4186 28.1909L38.3951 28.2259Z" fill="#161A1E" stroke="#161A1E" stroke-width="0.28"/>
<path d="M36.6355 39.257L36.673 39.2014L36.6731 39.2014L36.6732 39.2015L36.6735 39.2017L36.6742 39.2022L36.6756 39.2031L36.6786 39.2054L36.686 39.2111C36.6913 39.2155 36.698 39.2216 36.7051 39.2294C36.7181 39.2439 36.7387 39.2714 36.7467 39.3116L36.6093 39.3388L36.7467 39.3116C36.7572 39.3646 36.7424 39.415 36.7146 39.4502C36.6687 39.511 36.6051 39.5188 36.5763 39.5188H36.575C36.5557 39.5188 36.5371 39.5156 36.5198 39.5098C36.509 39.5062 36.4926 39.4995 36.4756 39.4869L32.6779 36.9598L32.6774 36.9595L32.7148 36.9038L32.7148 36.9038L32.6773 36.9594L32.6772 36.9594L32.6771 36.9593L32.6768 36.959L32.6761 36.9586L32.6747 36.9576L32.6717 36.9554L32.6643 36.9496C32.659 36.9452 32.6523 36.9392 32.6452 36.9314C32.6322 36.9169 32.6116 36.8894 32.6036 36.8492M36.6355 39.257L32.6036 36.8492M36.6355 39.257L36.6355 39.257L36.6729 39.2013L36.6724 39.201L32.8722 36.6722C32.8387 36.6486 32.8037 36.642 32.7753 36.642C32.7479 36.642 32.6827 36.6484 32.6357 36.7106C32.6078 36.7459 32.5931 36.7962 32.6036 36.8492M36.6355 39.257L32.6036 36.8492M36.6354 39.2572L36.6155 39.2868L36.5948 39.3175L36.6185 39.2823L36.6354 39.2572C36.6354 39.2572 36.6354 39.2572 36.6354 39.2572ZM32.735 36.8737L32.7555 36.8433L32.7321 36.878L32.7321 36.878L32.7149 36.9037C32.7148 36.9037 32.7148 36.9037 32.7148 36.9037L32.735 36.8737L32.735 36.8737Z" fill="#161A1E" stroke="#161A1E" stroke-width="0.28"/>
<mask id="path-6-outside-1_2014_15370" maskUnits="userSpaceOnUse" x="39.1494" y="29.6201" width="9" height="13" fill="black">
<rect fill="white" x="39.1494" y="29.6201" width="9" height="13"/>
<path d="M40.1819 41.7882C40.1739 41.7882 40.1673 41.7855 40.1647 41.7829C40.162 41.7802 40.1528 41.7749 40.1501 41.7616C40.1475 41.7482 40.1528 41.7402 40.1554 41.7362L47.423 30.6348C47.431 30.6214 47.4442 30.6201 47.4508 30.6201C47.4574 30.6201 47.4627 30.6214 47.468 30.6254C47.4706 30.6281 47.4799 30.6334 47.4825 30.6468C47.4851 30.6601 47.4799 30.6681 47.4772 30.6721L40.2096 41.7736C40.2004 41.7869 40.1885 41.7882 40.1819 41.7882Z"/>
</mask>
<path d="M40.1819 41.7882C40.1739 41.7882 40.1673 41.7855 40.1647 41.7829C40.162 41.7802 40.1528 41.7749 40.1501 41.7616C40.1475 41.7482 40.1528 41.7402 40.1554 41.7362L47.423 30.6348C47.431 30.6214 47.4442 30.6201 47.4508 30.6201C47.4574 30.6201 47.4627 30.6214 47.468 30.6254C47.4706 30.6281 47.4799 30.6334 47.4825 30.6468C47.4851 30.6601 47.4799 30.6681 47.4772 30.6721L40.2096 41.7736C40.2004 41.7869 40.1885 41.7882 40.1819 41.7882Z" fill="#161A1E"/>
<path d="M40.1554 41.7362L40.389 41.8907L40.3897 41.8896L40.1554 41.7362ZM47.423 30.6348L47.6575 30.7883L47.6636 30.778L47.423 30.6348ZM47.468 30.6254L47.6668 30.4283L47.6527 30.4141L47.6368 30.4021L47.468 30.6254ZM47.4772 30.6721L47.2437 30.5176L47.243 30.5187L47.4772 30.6721ZM40.2096 41.7736L40.4397 41.9333L40.4439 41.9269L40.2096 41.7736ZM40.1819 41.5082C40.2084 41.5082 40.2349 41.5125 40.2605 41.5211C40.2734 41.5255 40.2883 41.5316 40.3042 41.5405C40.319 41.5488 40.341 41.563 40.3635 41.5857L39.9659 41.9801C40.0092 42.0237 40.0562 42.0433 40.0821 42.052C40.1136 42.0626 40.1474 42.0682 40.1819 42.0682V41.5082ZM40.3635 41.5857C40.353 41.5751 40.3435 41.5674 40.3429 41.5668C40.3422 41.5663 40.3417 41.5659 40.3415 41.5657C40.3413 41.5656 40.3412 41.5654 40.3411 41.5654C40.3411 41.5653 40.341 41.5653 40.341 41.5653C40.341 41.5653 40.3416 41.5658 40.3424 41.5665C40.3461 41.5696 40.3555 41.5777 40.3663 41.5898C40.3898 41.6161 40.4146 41.6555 40.4248 41.7071L39.8755 41.816C39.8884 41.8809 39.919 41.9296 39.9485 41.9627C39.9622 41.9781 39.9747 41.9889 39.9809 41.9941C39.9814 41.9945 39.988 42.0001 39.9839 41.9967C39.9834 41.9962 39.9813 41.9945 39.9787 41.9922C39.9762 41.99 39.9715 41.9858 39.9659 41.9801L40.3635 41.5857ZM40.4248 41.7071C40.4331 41.7488 40.43 41.7914 40.4177 41.8301C40.4119 41.8482 40.405 41.8628 40.3991 41.8737C40.3936 41.884 40.3883 41.8917 40.389 41.8907L39.9219 41.5818C39.9071 41.6041 39.8508 41.6919 39.8755 41.816L40.4248 41.7071ZM40.3897 41.8896L47.6573 30.7881L47.1888 30.4814L39.9212 41.5829L40.3897 41.8896ZM47.6636 30.778C47.6318 30.8315 47.5845 30.8656 47.5392 30.8833C47.4988 30.8991 47.4647 30.9001 47.4508 30.9001V30.3401C47.4154 30.3401 47.2685 30.3469 47.1824 30.4916L47.6636 30.778ZM47.4508 30.9001C47.4354 30.9001 47.4102 30.8986 47.3803 30.8897C47.349 30.8805 47.3217 30.8658 47.2991 30.8488L47.6368 30.4021C47.5724 30.3534 47.5037 30.3401 47.4508 30.3401V30.9001ZM47.2692 30.8226C47.2797 30.8332 47.2891 30.841 47.2898 30.8415C47.2904 30.842 47.2909 30.8424 47.2912 30.8427C47.2913 30.8428 47.2914 30.8429 47.2915 30.8429C47.2916 30.843 47.2916 30.843 47.2916 30.843C47.2916 30.8431 47.291 30.8425 47.2902 30.8418C47.2865 30.8388 47.2771 30.8306 47.2663 30.8186C47.2428 30.7922 47.2181 30.7528 47.2079 30.7013L47.7572 30.5923C47.7443 30.5274 47.7136 30.4787 47.6841 30.4457C47.6704 30.4303 47.658 30.4195 47.6518 30.4142C47.6513 30.4138 47.6446 30.4083 47.6487 30.4117C47.6493 30.4121 47.6513 30.4138 47.6539 30.4161C47.6564 30.4183 47.6611 30.4226 47.6668 30.4283L47.2692 30.8226ZM47.2079 30.7013C47.1996 30.6595 47.2027 30.617 47.215 30.5783C47.2207 30.5602 47.2276 30.5455 47.2335 30.5346C47.2391 30.5244 47.2443 30.5166 47.2437 30.5176L47.7108 30.8265C47.7255 30.8042 47.7818 30.7164 47.7572 30.5923L47.2079 30.7013ZM47.243 30.5187L39.9753 41.6202L40.4439 41.9269L47.7115 30.8254L47.243 30.5187ZM39.9796 41.6139C40.0068 41.5748 40.0454 41.5442 40.09 41.5262C40.1312 41.5096 40.1663 41.5082 40.1819 41.5082V42.0682C40.2348 42.0682 40.3566 42.0528 40.4396 41.9332L39.9796 41.6139Z" fill="#161A1E" mask="url(#path-6-outside-1_2014_15370)"/>
<path d="M43.835 31.6694L43.814 31.7006L43.8915 31.5841L43.8917 31.5842C43.8726 31.5714 43.8406 31.5553 43.7968 31.5553C43.7694 31.5553 43.7041 31.5617 43.6572 31.624C43.6293 31.6592 43.6146 31.7095 43.6251 31.7625C43.6331 31.8027 43.6537 31.8303 43.6667 31.8447C43.6738 31.8525 43.6805 31.8586 43.6858 31.863L43.6932 31.8687L43.6962 31.871L43.6976 31.8719L43.6983 31.8724L43.6986 31.8726L43.6987 31.8727L43.6988 31.8727L43.7363 31.8171L43.7363 31.8171L43.6989 31.8728L43.6994 31.8732L45.7499 33.2371C45.7669 33.2497 45.7834 33.2564 45.7941 33.26C45.8114 33.2658 45.8301 33.269 45.8493 33.269H45.8506C45.8794 33.269 45.943 33.2611 45.9889 33.2004C46.0168 33.1651 46.0315 33.1148 46.021 33.0618L46.021 33.0617C46.013 33.0216 45.9924 32.994 45.9794 32.9796C45.9723 32.9718 45.9656 32.9657 45.9603 32.9613L45.9529 32.9555L45.9499 32.9533L45.9485 32.9523L45.9478 32.9519L45.9475 32.9517L45.9474 32.9516L45.9473 32.9515L45.9098 33.0072L43.8921 31.5844L43.8547 31.6401M43.835 31.6694L43.8141 31.7007L43.8144 31.7009L43.8552 31.6405L43.8547 31.6401M43.835 31.6694L43.8547 31.6401M43.835 31.6694L43.8545 31.64L43.8547 31.6401M45.785 33.0118L43.8979 31.7565C43.9021 31.7412 43.903 31.7246 43.8998 31.708C43.8944 31.6812 43.8811 31.6643 43.8747 31.6572C43.8709 31.653 43.8674 31.6498 43.8644 31.6473L43.8598 31.6437L43.8575 31.642L43.8563 31.6412L43.8557 31.6408L43.8554 31.6406L43.8552 31.6405L45.9095 33.007L45.9096 33.0071L45.9098 33.0072L45.785 33.0118ZM45.785 33.0118C45.7929 33.0057 45.8016 33.0006 45.8111 32.9968C45.828 32.99 45.8425 32.9891 45.8493 32.989C45.8495 32.989 45.8497 32.989 45.8499 32.989M45.785 33.0118L45.8499 32.989M45.8499 32.989C45.8497 32.989 45.8495 32.989 45.8493 32.989H45.8506C45.8504 32.989 45.8502 32.989 45.8499 32.989ZM45.9097 33.0074L45.8877 33.04L45.8877 33.04L45.8691 33.0677L45.8902 33.0363L45.8902 33.0363L45.9097 33.0073C45.9097 33.0073 45.9097 33.0073 45.9097 33.0074ZM43.7561 31.7877L43.7363 31.8171C43.7363 31.8171 43.7363 31.8171 43.7363 31.8171L43.7586 31.784L43.777 31.7566L43.7561 31.7877Z" fill="#161A1E" stroke="#161A1E" stroke-width="0.28"/>
<path d="M68.1063 58.8774H68.2463V58.8761H74.0866C74.1835 58.8761 74.2597 58.7977 74.2597 58.7028C74.2597 58.6079 74.1835 58.5295 74.0866 58.5295H68.2793V39.3458C68.2793 39.2509 68.2032 39.1725 68.1063 39.1725C68.0094 39.1725 67.9332 39.2509 67.9332 39.3458V58.7041C67.9332 58.799 68.0094 58.8774 68.1063 58.8774Z" fill="#161A1E" stroke="#161A1E" stroke-width="0.28"/>
<path d="M63.5887 56.864H63.6471L63.6485 56.8627H67.4967C67.5936 56.8627 67.6698 56.7843 67.6698 56.6894C67.6698 56.5945 67.5936 56.5161 67.4967 56.5161H63.7631V39.5003H73.715C73.8119 39.5003 73.888 39.4219 73.888 39.327C73.888 39.2321 73.8119 39.1537 73.715 39.1537H63.5887C63.4918 39.1537 63.4157 39.2321 63.4157 39.327V56.6907C63.4157 56.7856 63.4918 56.864 63.5887 56.864Z" fill="#161A1E" stroke="#161A1E" stroke-width="0.28"/>
<path d="M13.9902 58.8824C14.2901 59.0563 14.625 59.1618 14.9684 59.1935L14.962 59.2064H15.1878C16.0542 59.2064 16.8617 58.743 17.2953 57.9961L17.2954 57.996C17.3406 57.9178 17.3189 57.8139 17.2399 57.7627C17.2094 57.7418 17.1763 57.7339 17.1464 57.7339C17.1099 57.7339 17.0417 57.7487 16.999 57.8165L16.9989 57.8164L16.9963 57.8209C16.6249 58.4599 15.9323 58.8584 15.1917 58.8584C14.8306 58.8584 14.4753 58.7624 14.1618 58.5825C13.1748 58.0142 12.8235 56.8965 13.3097 55.8546L19.5778 42.5048L27.7415 34.5856C28.7078 33.6491 30.0368 33.1115 31.3883 33.1115C31.8373 33.1115 32.2839 33.1699 32.7231 33.2854L32.7407 33.2901H32.7588C32.7868 33.2901 32.8181 33.2825 32.8465 33.266C32.8786 33.2474 32.9132 33.2134 32.9272 33.1605L32.9318 33.1429V33.1303C32.9322 33.1255 32.9325 33.1183 32.9322 33.1097C32.9313 33.0869 32.9258 33.0597 32.9105 33.0319C32.8949 33.0036 32.8738 32.9834 32.8534 32.97C32.8433 32.9633 32.8325 32.9578 32.8214 32.9535C32.8176 32.952 32.8097 32.9491 32.7991 32.9468C32.3406 32.8246 31.8677 32.7636 31.3909 32.7636C29.9473 32.7636 28.5298 33.3358 27.5003 34.3353C27.5003 34.3354 27.5003 34.3354 27.5003 34.3354L19.3063 42.287L19.2879 42.3049L19.277 42.328L12.9967 55.7052L12.9965 55.7057C12.4271 56.9297 12.8259 58.2114 13.9902 58.8824Z" fill="#161A1E" stroke="#161A1E" stroke-width="0.28"/>
<path d="M62.1349 39.5738L62.1341 39.5738L62.1329 39.5737L62.132 39.5737L62.1315 39.5737L62.1313 39.5737L57.2582 39.4675L45.664 36.3794L45.6463 36.3746H45.6279C45.6037 36.3746 45.5726 36.3804 45.5424 36.3976C45.5076 36.4174 45.4735 36.4531 45.4603 36.5063L45.4562 36.5229V36.5344C45.4559 36.5392 45.4555 36.5464 45.4558 36.555C45.4567 36.5778 45.4622 36.605 45.4776 36.6328C45.4966 36.6674 45.5232 36.6873 45.5401 36.6976C45.5491 36.703 45.5573 36.7069 45.5638 36.7096L45.5726 36.713L45.5763 36.7143L45.578 36.7148L45.5787 36.715L45.5791 36.7152L45.5793 36.7152L45.5794 36.7152L45.5987 36.6517L45.5987 36.6517L45.5795 36.7153L45.584 36.7166L57.0931 39.7813V39.8121L57.2301 39.815L62.128 39.9216V39.9217H62.1311C62.228 39.9217 62.3041 39.8433 62.3041 39.7484C62.3041 39.7298 62.3019 39.6802 62.2606 39.6326L62.2608 39.6324L62.2543 39.6258C62.228 39.5994 62.199 39.5866 62.1777 39.5805C62.167 39.5774 62.1574 39.5758 62.1498 39.5749C62.1479 39.5746 62.1461 39.5745 62.1444 39.5743C62.1426 39.5741 62.1409 39.574 62.1393 39.5739L62.1349 39.5738Z" fill="#161A1E" stroke="#161A1E" stroke-width="0.28"/>
<path d="M39.9302 61.1053H40.0171L40.0184 61.1026H51.0847C52.4499 61.1026 53.7629 60.6846 54.8795 59.8923L59.2494 56.7924H61.741C61.8379 56.7924 61.914 56.7139 61.914 56.619C61.914 56.5242 61.8379 56.4457 61.741 56.4457H59.1942C59.1597 56.4457 59.1313 56.4586 59.1268 56.4606L59.1263 56.4608C59.1211 56.4631 59.1168 56.4652 59.1138 56.4668L59.1099 56.4689L59.1084 56.4696L59.1078 56.47L59.1076 56.4701L59.1074 56.4702L59.1074 56.4702L59.1073 56.4702L59.1392 56.5272L59.1073 56.4702L59.1008 56.4739L59.0947 56.4782L54.6792 59.6093C53.6204 60.36 52.3786 60.756 51.0847 60.756H39.9315C39.2725 60.756 38.6199 60.6505 37.9928 60.4446C37.9928 60.4446 37.9928 60.4446 37.9928 60.4446L34.2579 59.2174L34.2366 59.2104H34.2142H21.5398C19.9279 59.2104 18.615 57.8885 18.615 56.2606C18.615 54.6328 19.9279 53.3108 21.5398 53.3108H34.4098C34.4401 53.3108 34.4649 53.3012 34.4706 53.299L34.4711 53.2988C34.4761 53.2969 34.4804 53.295 34.4834 53.2937L34.4874 53.2918L34.4888 53.2911L34.4895 53.2908L34.4897 53.2906L34.4899 53.2906L34.4899 53.2905L34.49 53.2905L34.4601 53.2312L34.4601 53.2311L34.4902 53.291L34.5004 53.2847L41.5513 48.9411L41.5655 48.9323L41.5732 48.9245C41.5772 48.9211 41.5831 48.9157 41.5896 48.9085C41.6058 48.8903 41.6226 48.8636 41.6297 48.8278C41.6359 48.7967 41.6328 48.7691 41.6271 48.7478C41.6217 48.7274 41.6131 48.7115 41.6138 48.713L41.6106 48.7066L41.6068 48.7005C41.5602 48.6267 41.4869 48.6193 41.4593 48.6193C41.429 48.6193 41.4042 48.6289 41.3986 48.6311L41.3981 48.6312C41.393 48.6332 41.3888 48.6351 41.3858 48.6364L41.3818 48.6383L41.3803 48.639L41.3797 48.6393L41.3794 48.6395L41.3793 48.6395L41.3792 48.6396L41.3792 48.6396L41.4404 48.7611L41.4404 48.7611L41.3789 48.6391L41.3687 48.6454L34.3596 52.9642H21.5385C19.7327 52.9642 18.2662 54.4443 18.2662 56.262C18.2662 58.0796 19.7327 59.5597 21.5385 59.5597H34.1851L37.8829 60.7772L37.9048 60.7104L37.8829 60.7772C38.5446 60.995 39.2334 61.1053 39.9302 61.1053Z" fill="#161A1E" stroke="#161A1E" stroke-width="0.28"/>
<path d="M20.252 51.7838L20.2345 51.9227L20.392 51.9425V51.8508C20.3946 51.8473 20.3971 51.8437 20.3995 51.8399L20.3996 51.8399L20.4021 51.8356L23.7528 46.0844L26.0948 44.1778L26.1005 44.1731L26.1058 44.1678C26.1013 44.1724 26.1169 44.1579 26.1288 44.1403C26.1415 44.1216 26.1529 44.0967 26.1569 44.0662C26.1669 44.0008 26.1387 43.9535 26.1169 43.9289C26.0814 43.888 26.0324 43.8693 25.9852 43.8693C25.948 43.8693 25.9196 43.8823 25.9077 43.8883C25.9003 43.892 25.8942 43.8957 25.8898 43.8985L25.8838 43.9026L25.8815 43.9042L25.8805 43.9049L25.8801 43.9053L25.8799 43.9055L25.8797 43.9055L25.8797 43.9056L25.9641 44.0173L25.8796 43.9055L25.8756 43.9088L23.502 45.8447L23.4823 45.8608L23.4695 45.8828L20.1159 51.6411H20.112V51.6477L20.1041 51.6613C20.0543 51.7438 20.0841 51.8476 20.1601 51.896C20.1833 51.9112 20.2055 51.9168 20.2116 51.9183L20.2119 51.9184C20.2177 51.9198 20.2226 51.9208 20.2262 51.9214L20.2311 51.9222L20.233 51.9225L20.2338 51.9226L20.2342 51.9226L20.2344 51.9227L20.2345 51.9227L20.2345 51.9227L20.252 51.7838Z" fill="#161A1E" stroke="#161A1E" stroke-width="0.28"/>
</svg>
