<svg width="88" height="88" viewBox="0 0 88 88" fill="none" xmlns="http://www.w3.org/2000/svg">
<path d="M44.3356 26.495C46.556 26.495 48.3559 24.695 48.3559 22.4747C48.3559 20.2543 46.556 18.4543 44.3356 18.4543C42.1153 18.4543 40.3153 20.2543 40.3153 22.4747C40.3153 24.695 42.1153 26.495 44.3356 26.495Z" fill="#FDCECF" stroke="black" stroke-width="0.7" stroke-linecap="round" stroke-linejoin="round"/>
<path d="M38.771 33.6789C38.2261 33.6789 37.8055 33.1929 37.8905 32.6534C38.4931 28.8336 40.9692 26.4949 44.3356 26.4949C47.702 26.4949 50.1781 28.8336 50.7808 32.6534C50.8658 33.1918 50.4451 33.6789 49.9002 33.6789H38.7721H38.771Z" fill="#FDCECF" stroke="black" stroke-width="0.7" stroke-linecap="round" stroke-linejoin="round"/>
<path d="M48.3043 58.1171C48.66 55.9254 47.1717 53.8603 44.9801 53.5045C42.7884 53.1488 40.7233 54.6371 40.3675 56.8287C40.0118 59.0204 41.5001 61.0855 43.6918 61.4413C45.8834 61.797 47.9485 60.3087 48.3043 58.1171Z" stroke="black" stroke-width="0.7" stroke-linecap="round" stroke-linejoin="round"/>
<path d="M38.771 68.676C38.2261 68.676 37.8055 68.1899 37.8905 67.6505C38.4931 63.8307 40.9692 61.4919 44.3356 61.4919C47.702 61.4919 50.1781 63.8307 50.7808 67.6505C50.8658 68.1888 50.4451 68.676 49.9002 68.676H38.7721H38.771Z" stroke="black" stroke-width="0.7" stroke-linecap="round" stroke-linejoin="round"/>
<path d="M65.0826 58.1168C65.4384 55.9251 63.9501 53.86 61.7584 53.5043C59.5667 53.1485 57.5016 54.6368 57.1459 56.8285C56.7901 59.0202 58.2784 61.0853 60.4701 61.441C62.6618 61.7968 64.7269 60.3085 65.0826 58.1168Z" stroke="black" stroke-width="0.7" stroke-linecap="round" stroke-linejoin="round"/>
<path d="M55.5486 68.676C55.0037 68.676 54.5831 68.1899 54.6681 67.6505C55.2707 63.8307 57.7468 61.4919 61.1132 61.4919C64.4796 61.4919 66.9557 63.8307 67.5583 67.6505C67.6433 68.1888 67.2227 68.676 66.6778 68.676H55.5497H55.5486Z" stroke="black" stroke-width="0.7" stroke-linecap="round" stroke-linejoin="round"/>
<path d="M31.5271 58.1173C31.8828 55.9256 30.3945 53.8605 28.2029 53.5048C26.0112 53.149 23.9461 54.6373 23.5903 56.829C23.2346 59.0207 24.7229 61.0858 26.9145 61.4415C29.1062 61.7973 31.1713 60.309 31.5271 58.1173Z" stroke="black" stroke-width="0.7" stroke-linecap="round" stroke-linejoin="round"/>
<path d="M21.9935 68.676C21.4485 68.676 21.0279 68.1899 21.1129 67.6505C21.7155 63.8307 24.1916 61.4919 27.558 61.4919C30.9245 61.4919 33.4005 63.8307 34.0032 67.6505C34.0882 68.1888 33.6675 68.676 33.1226 68.676H21.9935Z" stroke="black" stroke-width="0.7" stroke-linecap="round" stroke-linejoin="round"/>
<path d="M27.558 48.799V43.1919H61.1133V48.799" stroke="black" stroke-width="0.7" stroke-linecap="round" stroke-linejoin="round"/>
<path d="M44.3356 38.0261V48.7989" stroke="black" stroke-width="0.7" stroke-linecap="round" stroke-linejoin="round"/>
</svg>
