<svg width="88" height="88" viewBox="0 0 88 88" fill="none" xmlns="http://www.w3.org/2000/svg">
<path d="M51.225 56.2516V55.7391C51.225 52.6158 49.2544 49.9605 46.4916 48.9436C48.7034 47.9751 50.2517 45.7678 50.2517 43.1892C50.2517 39.7229 47.4527 36.9143 43.9982 36.9143C40.5437 36.9143 37.7447 39.7229 37.7447 43.1892C37.7447 45.7638 39.293 47.9751 41.5049 48.9436C38.7461 49.9646 36.7715 52.6158 36.7715 55.7391V56.2516" fill="#FDCECF"/>
<path d="M51.225 56.2516V55.7391C51.225 52.6158 49.2544 49.9605 46.4916 48.9436C48.7034 47.9751 50.2517 45.7678 50.2517 43.1892C50.2517 39.7229 47.4527 36.9143 43.9982 36.9143C40.5437 36.9143 37.7447 39.7229 37.7447 43.1892C37.7447 45.7638 39.293 47.9751 41.5049 48.9436C38.7461 49.9646 36.7715 52.6158 36.7715 55.7391V56.2516" stroke="#161A1E" stroke-width="0.65" stroke-linecap="round" stroke-linejoin="round"/>
<path d="M43.998 24.1667V32.0276" stroke="#161A1E" stroke-width="0.65" stroke-linecap="round" stroke-linejoin="round"/>
<path d="M43.998 61.7317V69.5965" stroke="#161A1E" stroke-width="0.65" stroke-linecap="round" stroke-linejoin="round"/>
<path d="M66.6353 46.8816H58.8013" stroke="#161A1E" stroke-width="0.65" stroke-linecap="round" stroke-linejoin="round"/>
<path d="M29.1987 46.8816H21.3647" stroke="#161A1E" stroke-width="0.65" stroke-linecap="round" stroke-linejoin="round"/>
<path d="M68.5983 32.8306V32.419C68.5983 29.9292 67.0258 27.8107 64.822 26.9955C66.5875 26.2248 67.8221 24.4614 67.8221 22.4074C67.8221 19.6432 65.5901 17.4036 62.8354 17.4036C60.0806 17.4036 57.8486 19.6432 57.8486 22.4074C57.8486 24.4614 59.0833 26.2248 60.8487 26.9955C60.1248 27.2619 59.4733 27.6735 58.9184 28.186" stroke="#161A1E" stroke-width="0.65" stroke-linecap="round" stroke-linejoin="round"/>
<path d="M29.0822 28.1899C28.5273 27.6733 27.8758 27.2658 27.1519 26.9994C28.9173 26.2287 30.152 24.4653 30.152 22.4113C30.152 19.6471 27.92 17.4075 25.1612 17.4075C22.4024 17.4075 20.1785 19.643 20.1785 22.4072C20.1785 24.4612 21.4131 26.2247 23.1786 26.9954C20.9788 27.8105 19.4023 29.9251 19.4023 32.4189V32.8305" stroke="#161A1E" stroke-width="0.65" stroke-linecap="round" stroke-linejoin="round"/>
<path d="M63.4903 42.8786C61.9058 35.0662 55.7729 28.9163 47.9912 27.3264" stroke="#161A1E" stroke-width="0.65" stroke-linecap="round" stroke-linejoin="round"/>
<path d="M47.9912 66.4369C55.7769 64.847 61.9058 58.6931 63.4903 50.8848" stroke="#161A1E" stroke-width="0.65" stroke-linecap="round" stroke-linejoin="round"/>
<path d="M24.5098 50.8848C26.0943 58.6931 32.2271 64.847 40.0088 66.4369" stroke="#161A1E" stroke-width="0.65" stroke-linecap="round" stroke-linejoin="round"/>
<path d="M40.0088 27.3264C32.2231 28.9163 26.0943 35.0702 24.5098 42.8786" stroke="#161A1E" stroke-width="0.65" stroke-linecap="round" stroke-linejoin="round"/>
<path d="M47.9912 62.5549C53.6857 61.0982 58.1698 56.5988 59.6216 50.8848" stroke="#161A1E" stroke-width="0.65" stroke-linecap="round" stroke-linejoin="round"/>
<path d="M28.3784 50.8848C29.8302 56.5988 34.3142 61.0982 40.0088 62.5549" stroke="#161A1E" stroke-width="0.65" stroke-linecap="round" stroke-linejoin="round"/>
<path d="M40.0088 31.2085C34.3142 32.6652 29.8302 37.1646 28.3784 42.8787" stroke="#161A1E" stroke-width="0.65" stroke-linecap="round" stroke-linejoin="round"/>
<path d="M59.6176 42.8787C58.1659 37.1646 53.6818 32.6652 47.9873 31.2085" stroke="#161A1E" stroke-width="0.65" stroke-linecap="round" stroke-linejoin="round"/>
</svg>
