<svg width="88" height="88" viewBox="0 0 88 88" fill="none" xmlns="http://www.w3.org/2000/svg">
<g clip-path="url(#clip0_2014_16170)">
<circle cx="42" cy="47" r="5" fill="#FDCECF"/>
<circle cx="26" cy="51" r="5" fill="#FDCECF"/>
<circle cx="60" cy="51" r="5" fill="#FDCECF"/>
<path d="M50 61H35C35.6667 59 38.2 55 43 55C47.8 55 49.6667 59 50 61Z" fill="#FDCECF"/>
<path d="M34 71H17C17.7556 66.6667 17.5193 57.4251 26.0667 58C33.5 58.5 33.6222 66.6667 34 71Z" fill="#FDCECF"/>
<path d="M68 71H51C51.7556 66.6667 51.5193 57.4251 60.0667 58C67.5 58.5 67.6222 66.6667 68 71Z" fill="#FDCECF"/>
<path d="M37.2107 47.1669C37.2107 49.9949 39.5277 52.2961 42.3749 52.2961C45.2221 52.2961 47.5391 49.9949 47.5391 47.1669C47.5391 44.3388 45.2221 42.0376 42.3749 42.0376C39.5277 42.0376 37.2107 44.3388 37.2107 47.1669ZM37.8023 47.1657C37.8023 44.6611 39.853 42.6241 42.3749 42.6241C44.8968 42.6241 46.9476 44.6611 46.9476 47.1657C46.9476 49.6704 44.8968 51.7073 42.3749 51.7073C39.853 51.7073 37.8023 49.6704 37.8023 47.1657Z" fill="#161A1E" stroke="#161A1E" stroke-width="0.02"/>
<path d="M50.3144 60.817C50.335 60.9169 50.2961 60.9941 50.2721 61.0305C50.2481 61.0668 50.1909 61.1315 50.0904 61.1508C50.0709 61.1542 50.0526 61.1565 50.0332 61.1565H50.0321C49.8972 61.1565 49.7794 61.06 49.7531 60.9283M50.3144 60.817L50.3242 60.815M50.3144 60.817L50.3242 60.815C50.3242 60.815 50.3242 60.815 50.3242 60.815M50.3144 60.817C49.5657 57.0999 46.253 54.4023 42.4362 54.4023C40.605 54.4023 38.8114 55.0313 37.3871 56.1746C35.9628 57.3179 34.9661 58.9267 34.5808 60.7046L34.5711 60.7025C34.5711 60.7025 34.5711 60.7025 34.5711 60.7025M50.3242 60.815C50.3455 60.9186 50.3052 60.9985 50.2805 61.036C50.2556 61.0736 50.1964 61.1406 50.0922 61.1606L50.0921 61.1607C50.0723 61.1641 50.0534 61.1665 50.0332 61.1665H50.0321C49.8924 61.1665 49.7706 61.0666 49.7433 60.9303M50.3242 60.815C49.5745 57.0932 46.2577 54.3923 42.4362 54.3923C40.6027 54.3923 38.807 55.0221 37.3809 56.1668C35.9548 57.3115 34.9568 58.9223 34.5711 60.7025M49.7433 60.9303L49.7531 60.9283M49.7433 60.9303C49.7433 60.9303 49.7433 60.9302 49.7433 60.9302L49.7531 60.9283M49.7433 60.9303C49.0493 57.4824 45.9751 54.98 42.435 54.98C38.895 54.98 35.8825 57.4382 35.1484 60.826L35.1484 60.826C35.1189 60.9611 34.9982 61.0586 34.8598 61.0586L49.7531 60.9283M34.5711 60.7025C34.5486 60.806 34.5865 60.8848 34.6113 60.9235C34.6361 60.9622 34.6929 61.0292 34.797 61.0516L34.5711 60.7025Z" fill="#161A1E" stroke="#161A1E" stroke-width="0.02"/>
<path d="M54.1472 50.85C54.1472 53.678 56.4643 55.9792 59.3114 55.9792C62.1586 55.9792 64.4757 53.678 64.4757 50.85C64.4757 48.0219 62.1586 45.7207 59.3114 45.7207C56.4643 45.7207 54.1472 48.0219 54.1472 50.85ZM54.7388 50.85C54.7388 48.3453 56.7895 46.3084 59.3114 46.3084C61.8334 46.3084 63.8841 48.3453 63.8841 50.85C63.8841 53.3546 61.8334 55.3915 59.3114 55.3915C56.7895 55.3915 54.7388 53.3546 54.7388 50.85Z" fill="#161A1E" stroke="#161A1E" stroke-width="0.02"/>
<path d="M51.5078 64.3856L51.5078 64.3856C51.8935 62.6054 52.8915 60.9935 54.3176 59.8499C55.7437 58.7052 57.5394 58.0754 59.3729 58.0754C63.1944 58.0754 66.5124 60.7763 67.2609 64.4982L67.2609 64.4982L68.4851 70.6585L68.4852 70.6585L51.5078 64.3856ZM51.5078 64.3856L50.1646 70.6538M51.5078 64.3856L50.1646 70.6538M50.1646 70.6538C50.1303 70.8126 50.2321 70.9689 50.3918 71.0029L50.1646 70.6538ZM50.7432 70.7772L52.0863 64.5091L50.7432 70.7773L50.7432 70.7772C50.7432 70.7772 50.7432 70.7772 50.7432 70.7772Z" fill="#161A1E" stroke="#161A1E" stroke-width="0.02"/>
<path d="M20.5115 50.85C20.5115 53.678 22.8285 55.9792 25.6757 55.9792C28.5229 55.9792 30.8399 53.678 30.8399 50.85C30.8399 48.0219 28.5229 45.7207 25.6757 45.7207C22.8285 45.7207 20.5115 48.0219 20.5115 50.85ZM21.103 50.85C21.103 48.3453 23.1538 46.3084 25.6757 46.3084C28.1976 46.3084 30.2484 48.3453 30.2484 50.85C30.2484 53.3546 28.1976 55.3915 25.6757 55.3915C23.1538 55.3915 21.103 53.3546 21.103 50.85Z" fill="#161A1E" stroke="#161A1E" stroke-width="0.02"/>
<path d="M17.871 64.3856L17.871 64.3856C18.2568 62.6054 19.2548 60.9935 20.6809 59.8499C22.1069 58.7052 23.9027 58.0754 25.7362 58.0754C29.5577 58.0754 32.8756 60.7763 33.6242 64.4982L33.6242 64.4982L34.8484 70.6585L34.8484 70.6585L17.871 64.3856ZM17.871 64.3856L16.5279 70.6538M17.871 64.3856L16.5279 70.6538M16.5279 70.6538C16.4936 70.8126 16.5954 70.9689 16.7551 71.0029L16.5279 70.6538ZM17.1064 70.7772L18.4496 64.5091L17.1064 70.7773L17.1064 70.7772C17.1064 70.7772 17.1064 70.7772 17.1064 70.7772Z" fill="#161A1E" stroke="#161A1E" stroke-width="0.02"/>
<path d="M16.5815 50.5162V18.5777H70.4185V50.5162C70.4185 50.6784 70.551 50.81 70.7142 50.81C70.8774 50.81 71.01 50.6784 71.01 50.5162V18.2838C71.01 18.1216 70.8774 17.99 70.7142 17.99H16.2858C16.1226 17.99 15.99 18.1216 15.99 18.2838V50.5162C15.99 50.6784 16.1226 50.81 16.2858 50.81C16.449 50.81 16.5815 50.6784 16.5815 50.5162Z" fill="#161A1E" stroke="#161A1E" stroke-width="0.02"/>
<path d="M21.0515 23.4054C21.0515 23.5677 21.1841 23.6993 21.3473 23.6993H25.8134C25.9766 23.6993 26.1091 23.5677 26.1091 23.4054C26.1091 23.2432 25.9766 23.1116 25.8134 23.1116H21.3473C21.1841 23.1116 21.0515 23.2432 21.0515 23.4054Z" fill="#161A1E" stroke="#161A1E" stroke-width="0.02"/>
<path d="M21.0515 27.286C21.0515 27.4483 21.1841 27.5799 21.3473 27.5799H31.7677C31.931 27.5799 32.0635 27.4483 32.0635 27.286C32.0635 27.1238 31.931 26.9922 31.7677 26.9922H21.3473C21.1841 26.9922 21.0515 27.1238 21.0515 27.286Z" fill="#161A1E" stroke="#161A1E" stroke-width="0.02"/>
<path d="M21.0515 31.1676C21.0515 31.3299 21.1841 31.4615 21.3473 31.4615H28.2322C28.3954 31.4615 28.5279 31.3299 28.5279 31.1676C28.5279 31.0054 28.3954 30.8738 28.2322 30.8738H21.3473C21.1841 30.8738 21.0515 31.0054 21.0515 31.1676Z" fill="#161A1E" stroke="#161A1E" stroke-width="0.02"/>
<path d="M26.3494 42.336L26.3494 42.3359C26.2405 42.2149 26.2511 42.0291 26.373 41.921M26.3494 42.336L50.8705 30.1879C50.8076 30.1414 50.7436 30.1323 50.7013 30.1323C50.6338 30.1323 50.5687 30.1561 50.5173 30.1993L50.5108 30.1916L50.5108 30.1916L43.1382 36.3572L37.5697 32.2927C37.5046 32.2446 37.4382 32.2352 37.3945 32.2352C37.3212 32.2352 37.2514 32.2622 37.197 32.3103L37.197 32.3103L26.373 41.921M26.3494 42.336C26.4198 42.4134 26.505 42.4308 26.557 42.4332L26.5518 42.4358H26.5717C26.6225 42.4358 26.6983 42.4228 26.7681 42.3606L37.4134 32.9085L42.976 36.9683L26.3494 42.336ZM26.373 41.921L26.3797 41.9285L26.373 41.921L26.373 41.921ZM55.4796 33.5422L50.8764 30.1799L43.3416 36.9565L43.3416 36.9565L50.7143 30.791L55.334 34.1651C55.3991 34.2133 55.4654 34.2227 55.5091 34.2227C55.5883 34.2227 55.6629 34.1922 55.7185 34.1369L55.7115 34.1298L55.7185 34.1369L65.0713 24.8339C65.1873 24.7187 65.1861 24.5318 65.0713 24.4178C64.9956 24.3426 64.908 24.332 64.8619 24.332C64.8159 24.332 64.7283 24.3426 64.6526 24.4178L64.6526 24.4178L55.4796 33.5422Z" fill="#161A1E" stroke="#161A1E" stroke-width="0.02"/>
</g>
<defs>
<clipPath id="clip0_2014_16170">
<rect width="55" height="53" fill="white" transform="translate(16 18)"/>
</clipPath>
</defs>
</svg>
