<svg width="32" height="32" viewBox="0 0 32 32" fill="none" xmlns="http://www.w3.org/2000/svg">
<g clip-path="url(#clip0_2014_17254)">
<path d="M16 26.1993C12.4431 25.0129 8.63969 24.89 5.03041 25.8292C4.39721 25.9945 3.78052 25.5114 3.78052 24.8406V8.55214C3.78052 8.09595 4.07372 7.69344 4.50045 7.56915C8.26527 6.47459 12.2669 6.54945 16 7.79371V26.1993Z" fill="white" stroke="#DF2238" stroke-linecap="round" stroke-linejoin="round"/>
<path d="M26.9696 25.8292C23.3617 24.89 19.5583 25.0143 16 26.1993V7.79371C19.7318 6.54945 23.7348 6.47459 27.4996 7.56915C27.9263 7.69344 28.2195 8.09737 28.2195 8.55214V24.8406C28.2195 25.5114 27.6028 25.9931 26.9696 25.8292Z" fill="white"/>
<path d="M26.9696 25.8292C23.3617 24.89 19.5583 25.0143 16 26.1993V7.79371C19.7318 6.54945 23.7348 6.47459 27.4996 7.56915C27.9263 7.69344 28.2195 8.09737 28.2195 8.55214V24.8406C28.2195 25.5114 27.6028 25.9931 26.9696 25.8292Z" fill="white"/>
<path d="M26.9696 25.8292C23.3617 24.89 19.5583 25.0143 16 26.1993V7.79371C19.7318 6.54945 23.7348 6.47459 27.4996 7.56915C27.9263 7.69344 28.2195 8.09737 28.2195 8.55214V24.8406C28.2195 25.5114 27.6028 25.9931 26.9696 25.8292Z" stroke="#DF2238" stroke-linecap="round" stroke-linejoin="round"/>
<path d="M7.04565 12.8809C8.89434 12.2651 10.8862 12.2651 12.7349 12.8809" stroke="#DF2238" stroke-linecap="round" stroke-linejoin="round"/>
<path d="M7.04565 16.8538C8.89434 16.238 10.8862 16.238 12.7349 16.8538" stroke="#DF2238" stroke-linecap="round" stroke-linejoin="round"/>
<path d="M19.2651 12.8809C21.1138 12.2651 23.1057 12.2651 24.9544 12.8809" stroke="#DF2238" stroke-linecap="round" stroke-linejoin="round"/>
<path d="M19.2651 16.8538C21.1138 16.238 23.1057 16.238 24.9544 16.8538" stroke="#DF2238" stroke-linecap="round" stroke-linejoin="round"/>
</g>
<defs>
<clipPath id="clip0_2014_17254">
<rect width="26" height="21" fill="white" transform="translate(3 6)"/>
</clipPath>
</defs>
</svg>
