<svg width="88" height="88" viewBox="0 0 88 88" fill="none" xmlns="http://www.w3.org/2000/svg">
<g clip-path="url(#clip0_2014_6972)">
<path d="M69.3983 22.5613L79.4247 37.466L72.5217 41.8832L71.5927 40.5018L71.5662 40.3571C71.5602 40.3194 71.5409 40.2641 71.4854 40.2194C71.4781 40.2123 71.4685 40.2065 71.46 40.2018L71.3358 40.1206L62.4941 26.9796L69.3983 22.5613Z" fill="#FDCECF"/>
<path d="M24.5062 26.9796L14.4787 41.8832L7.57568 37.466L17.602 22.5613L24.5062 26.9796Z" fill="#FDCECF"/>
<mask id="path-3-outside-1_2014_6972" maskUnits="userSpaceOnUse" x="6" y="21" width="75" height="46" fill="black">
<rect fill="white" x="6" y="21" width="75" height="46"/>
<path d="M79.9603 37.4036C79.9952 37.4554 80.0085 37.5201 79.9952 37.5813C79.982 37.6425 79.9446 37.6955 79.8915 37.7296L72.5844 42.4068C72.5446 42.4315 72.4999 42.4445 72.4529 42.4445C72.3708 42.4445 72.2948 42.4056 72.2502 42.3386L71.2501 40.8513L63.2879 49.9421L63.9056 50.6469C64.5281 51.3706 64.8261 52.2896 64.7416 53.2297C64.6572 54.171 64.2024 55.0241 63.4604 55.6313C62.8126 56.1608 61.9862 56.4526 61.1333 56.4526C60.8172 56.4526 60.4999 56.4126 60.1911 56.3326L59.378 56.1208L59.2851 56.9362C59.1777 57.8763 58.7133 58.7259 57.9762 59.3283C57.3114 59.8731 56.4597 60.1732 55.5779 60.1732C55.1773 60.1732 54.778 60.1108 54.3944 59.9873L53.5945 59.7319L53.4546 60.5415C53.3195 61.3345 52.9033 62.0488 52.2856 62.5547C51.674 63.0548 50.891 63.3313 50.0815 63.3313C49.9187 63.3313 49.7474 63.3184 49.5712 63.2925L48.9017 63.1948L48.7569 63.8385C48.6218 64.4374 48.2973 64.961 47.8171 65.3528C47.3008 65.7764 46.6735 66 46.0027 66C45.9195 66 45.835 65.9965 45.7506 65.9894C45.0943 65.9329 44.4996 65.6682 44.0303 65.2246L43.5212 64.7421L43.0169 65.2293C42.5597 65.6717 41.977 65.9341 41.3316 65.9894C41.2507 65.9965 41.1675 66 41.0867 66C40.4388 66 39.8332 65.7835 39.3326 65.3752C38.8404 64.9716 38.5086 64.408 38.3976 63.7879L38.2625 63.0266L37.4964 63.2278C37.2238 63.2996 36.9427 63.3349 36.6616 63.3349C35.9173 63.3349 35.1934 63.0784 34.624 62.6124C34.0064 62.1076 33.6131 61.3969 33.5154 60.6133L33.4116 59.7743L32.584 60.0226C32.3355 60.0979 32.0809 60.1461 31.8252 60.1685C31.7178 60.1779 31.6093 60.1814 31.5019 60.1814C30.6441 60.1814 29.8407 59.8955 29.1784 59.3542C28.4364 58.7471 27.9816 57.894 27.8972 56.9538L27.8948 56.9138L27.826 56.029L26.9574 56.2937C26.6015 56.402 26.2348 56.4573 25.8668 56.4573C25.0163 56.4573 24.1899 56.1631 23.5397 55.6313C22.0076 54.3781 21.8073 52.1425 23.0921 50.6493L23.7544 49.8798L15.7922 40.7889L14.7499 42.3386C14.7053 42.4056 14.6293 42.4445 14.5472 42.4445C14.5002 42.4445 14.4556 42.4315 14.4157 42.4068L7.10863 37.7296C6.99764 37.659 6.96628 37.5131 7.03987 37.4036L17.3316 22.1071C17.3666 22.0541 17.4209 22.0176 17.4836 22.0059C17.4993 22.0024 17.5162 22 17.5331 22C17.5801 22 17.626 22.0141 17.6646 22.0388L24.9717 26.7149C25.026 26.7502 25.0622 26.8031 25.0754 26.8643C25.0887 26.9255 25.0766 26.989 25.0417 27.0408L24.2599 28.2045L43.0543 27.7527L43.222 27.6515C44.0266 27.1632 44.8977 26.9549 46.1318 26.9549C46.5673 26.9549 47.0185 26.9796 47.454 27.0043L47.5312 27.0079L62.5387 28.1433L61.9452 27.0185C61.8897 26.9126 61.9247 26.7819 62.0284 26.7149L69.3355 22.0388C69.3742 22.0141 69.42 22 69.467 22C69.4839 22 69.5008 22.0024 69.5165 22.0059C69.5792 22.0176 69.6335 22.0541 69.6685 22.1071L79.9603 37.4036ZM79.4246 37.466L69.3983 22.5613L62.4941 26.9796L71.3357 40.1206L71.46 40.2017C71.4685 40.2064 71.4781 40.2123 71.4853 40.2194C71.5408 40.2641 71.5601 40.3194 71.5662 40.3571L71.5927 40.5018L72.5216 41.8832L79.4246 37.466ZM70.9738 40.4406L63.043 28.654L47.495 27.4773L47.4275 27.4738C46.9751 27.4491 46.5492 27.4256 46.1366 27.4256C44.8747 27.4256 43.5308 27.6303 42.2484 29.1211L35.1971 37.3177C34.4901 38.1391 34.1535 39.1804 34.2488 40.2488C34.3453 41.316 34.8617 42.2844 35.7037 42.974C36.4433 43.5788 37.3818 43.9117 38.347 43.9117C39.569 43.9117 40.7187 43.3893 41.5029 42.4786L48.7822 34.0137L48.8233 33.929L48.8353 33.909L48.8486 33.8901L48.8582 33.8796L48.886 33.8631L48.9101 33.836L48.921 33.829L48.9427 33.8184L48.9644 33.8101L48.9861 33.8042L49.0103 33.8007H49.0344H49.0585L49.0826 33.8042L49.1044 33.809L49.1273 33.816L49.1478 33.8254L49.1671 33.836L49.1864 33.849L49.2045 33.8643L49.2322 33.8925L49.2588 33.9231L49.2636 33.929L62.9706 49.5809L70.9738 40.4406ZM64.2615 53.1897C64.3339 52.3731 64.0781 51.5789 63.5376 50.9517L49.0621 34.422L41.872 42.781C40.9974 43.7976 39.7114 44.3812 38.3457 44.3812C37.2672 44.3812 36.2189 44.0094 35.3937 43.334C33.4514 41.7443 33.1969 38.9098 34.8267 37.0153L42.3763 28.2398L23.9366 28.6822L16.0673 40.3794L24.0681 49.515L27.2988 45.7591C27.9213 45.0355 28.7959 44.5919 29.7611 44.5095C29.8684 44.5001 29.977 44.4954 30.0832 44.4954C30.9421 44.4954 31.7456 44.7825 32.4079 45.3237C33.2801 46.038 33.7506 47.0887 33.6963 48.2054L33.6529 49.0808L34.5396 48.9349C34.7398 48.902 34.9461 48.8855 35.15 48.8855C36.0005 48.8855 36.8257 49.1785 37.4759 49.7103C38.2179 50.3175 38.6727 51.1694 38.7571 52.1107L38.7595 52.1437L38.8271 52.9979L39.674 52.7696C39.9527 52.6943 40.241 52.6555 40.5305 52.6555C41.2749 52.6555 41.9987 52.9132 42.5681 53.378C43.2787 53.9604 43.6913 54.8158 43.6997 55.7254L43.707 56.4926L44.5008 56.4208H44.5176C44.5961 56.4126 44.6757 56.409 44.7541 56.409C45.4019 56.409 46.0075 56.6256 46.5082 57.035C47.068 57.4928 47.4118 58.1376 47.4757 58.8483C47.5397 59.559 47.3153 60.2508 46.846 60.7968L43.8276 64.3044L44.2438 64.7598C44.689 65.2481 45.3295 65.5282 46.0003 65.5282C46.5504 65.527 47.0861 65.3375 47.5071 64.9928C48.1706 64.4503 48.4698 63.5996 48.29 62.7701C48.29 62.763 48.284 62.7324 48.284 62.7324L48.2816 62.7171V62.6912V62.6759L48.2852 62.6559L48.2912 62.6312L48.3009 62.6065L48.3105 62.5865L48.3238 62.5665L48.3311 62.5571L48.3443 62.5406L48.3612 62.5253L48.3781 62.5112L48.3986 62.4983L48.4167 62.4888L48.4396 62.4794L48.4722 62.47L48.5048 62.4653H48.5277H48.5446L48.5687 62.4688L48.5904 62.4747L48.6158 62.483C48.6158 62.483 48.6507 62.5006 48.658 62.5041C49.0959 62.7395 49.5869 62.8618 50.0839 62.8618C50.7776 62.8618 51.4496 62.6253 51.9756 62.1947C52.9069 61.431 53.2628 60.1649 52.8586 59.0424C52.8502 59.0177 52.8454 58.9906 52.8466 58.9612V58.9365C52.8454 58.8977 52.8538 58.8259 52.9165 58.7647C52.9757 58.7082 53.0408 58.6965 53.0867 58.6965C53.1241 58.6965 53.1964 58.7059 53.258 58.7659C53.8708 59.3719 54.6948 59.7061 55.5766 59.7061C56.3427 59.7061 57.0846 59.4437 57.6661 58.9671C58.7036 58.1187 59.0933 56.7162 58.6385 55.4701L58.6361 55.4607L58.6288 55.4418L58.6216 55.4183L58.6168 55.3912C58.6143 55.3689 58.6143 55.3453 58.6204 55.3195C58.6252 55.2936 58.6336 55.27 58.6445 55.25L58.6614 55.2253L58.6759 55.2077L58.6928 55.19L58.7121 55.1747L58.7326 55.1618L58.7555 55.15L58.7796 55.1406L58.8001 55.1347L58.8267 55.13C58.8339 55.1288 58.8436 55.1277 58.8544 55.1277C58.8701 55.1277 58.8858 55.13 58.9015 55.1324C58.9292 55.1383 58.9533 55.1465 58.9751 55.1583L58.998 55.1736L59.0197 55.19L59.0402 55.2077C59.6084 55.7066 60.354 55.9843 61.1333 55.9843C61.8716 55.9843 62.5882 55.7313 63.1504 55.2712C63.7934 54.7441 64.1879 54.0051 64.2615 53.1897ZM46.4756 60.4944C46.8629 60.0449 47.0462 59.4742 46.9944 58.8894C46.9413 58.3035 46.659 57.7728 46.1982 57.3951C45.7928 57.0633 45.2777 56.8809 44.7493 56.8809C44.0858 56.8809 43.4584 57.1633 43.0302 57.6563L42.9904 57.7034C42.9807 57.7163 42.9711 57.7293 42.9602 57.741L39.3133 61.9794L39.3036 61.9923C38.9598 62.43 38.7969 62.9725 38.8464 63.5208C38.8983 64.1056 39.1818 64.6362 39.6426 65.014C40.0492 65.3458 40.5631 65.5293 41.0903 65.5293C41.1566 65.5293 41.2242 65.5258 41.2905 65.5199C41.8901 65.4693 42.4342 65.1928 42.8215 64.7433L43.2413 64.255L43.2811 64.1679C43.2968 64.135 43.3185 64.1068 43.345 64.0856C43.3523 64.0797 43.3583 64.075 43.3655 64.0703L43.4464 64.0162L46.4756 60.4944ZM42.6453 57.3692C43.5453 56.249 43.3752 54.6535 42.2581 53.7392C41.7743 53.3438 41.1603 53.125 40.5281 53.125C39.7295 53.125 38.9767 53.4674 38.464 54.0628L34.6023 58.5517C33.6481 59.6613 33.7964 61.3204 34.9341 62.2523C35.4178 62.6477 36.0319 62.8654 36.664 62.8654C37.4627 62.8654 38.2155 62.5241 38.7282 61.9276L38.9236 61.7017L38.9308 61.6911C38.955 61.6617 38.9743 61.6369 38.996 61.6122L42.6453 57.3692ZM37.5531 54.3899C38.6666 53.0944 38.4929 51.1564 37.1659 50.0704C36.6013 49.6091 35.8847 49.3538 35.1476 49.3538C34.2139 49.3538 33.3356 49.7527 32.7372 50.4481L29.1012 54.6747C28.5619 55.3018 28.3049 56.0961 28.3785 56.9127C28.4509 57.7281 28.8454 58.467 29.4884 58.9942C30.0542 59.4566 30.7708 59.7108 31.5055 59.7108C31.5972 59.7108 31.6913 59.7072 31.783 59.699C32.6202 59.6284 33.3778 59.2436 33.9171 58.6153L37.5531 54.3899ZM32.4839 50.0033C33.5986 48.709 33.4249 46.771 32.0966 45.6838C31.532 45.2214 30.8154 44.9672 30.0808 44.9672C29.9879 44.9672 29.895 44.9707 29.8021 44.979C28.966 45.0496 28.2084 45.4343 27.668 46.0627L23.4625 50.9517C22.349 52.246 22.5227 54.184 23.8497 55.27C24.4143 55.7325 25.1309 55.9866 25.868 55.9866C26.8018 55.9866 27.68 55.5877 28.2784 54.8923L32.4839 50.0033ZM14.4785 41.8832L24.506 26.9796L17.6018 22.5613L7.5755 37.466L14.4785 41.8832Z"/>
</mask>
<path d="M79.9603 37.4036C79.9952 37.4554 80.0085 37.5201 79.9952 37.5813C79.982 37.6425 79.9446 37.6955 79.8915 37.7296L72.5844 42.4068C72.5446 42.4315 72.4999 42.4445 72.4529 42.4445C72.3708 42.4445 72.2948 42.4056 72.2502 42.3386L71.2501 40.8513L63.2879 49.9421L63.9056 50.6469C64.5281 51.3706 64.8261 52.2896 64.7416 53.2297C64.6572 54.171 64.2024 55.0241 63.4604 55.6313C62.8126 56.1608 61.9862 56.4526 61.1333 56.4526C60.8172 56.4526 60.4999 56.4126 60.1911 56.3326L59.378 56.1208L59.2851 56.9362C59.1777 57.8763 58.7133 58.7259 57.9762 59.3283C57.3114 59.8731 56.4597 60.1732 55.5779 60.1732C55.1773 60.1732 54.778 60.1108 54.3944 59.9873L53.5945 59.7319L53.4546 60.5415C53.3195 61.3345 52.9033 62.0488 52.2856 62.5547C51.674 63.0548 50.891 63.3313 50.0815 63.3313C49.9187 63.3313 49.7474 63.3184 49.5712 63.2925L48.9017 63.1948L48.7569 63.8385C48.6218 64.4374 48.2973 64.961 47.8171 65.3528C47.3008 65.7764 46.6735 66 46.0027 66C45.9195 66 45.835 65.9965 45.7506 65.9894C45.0943 65.9329 44.4996 65.6682 44.0303 65.2246L43.5212 64.7421L43.0169 65.2293C42.5597 65.6717 41.977 65.9341 41.3316 65.9894C41.2507 65.9965 41.1675 66 41.0867 66C40.4388 66 39.8332 65.7835 39.3326 65.3752C38.8404 64.9716 38.5086 64.408 38.3976 63.7879L38.2625 63.0266L37.4964 63.2278C37.2238 63.2996 36.9427 63.3349 36.6616 63.3349C35.9173 63.3349 35.1934 63.0784 34.624 62.6124C34.0064 62.1076 33.6131 61.3969 33.5154 60.6133L33.4116 59.7743L32.584 60.0226C32.3355 60.0979 32.0809 60.1461 31.8252 60.1685C31.7178 60.1779 31.6093 60.1814 31.5019 60.1814C30.6441 60.1814 29.8407 59.8955 29.1784 59.3542C28.4364 58.7471 27.9816 57.894 27.8972 56.9538L27.8948 56.9138L27.826 56.029L26.9574 56.2937C26.6015 56.402 26.2348 56.4573 25.8668 56.4573C25.0163 56.4573 24.1899 56.1631 23.5397 55.6313C22.0076 54.3781 21.8073 52.1425 23.0921 50.6493L23.7544 49.8798L15.7922 40.7889L14.7499 42.3386C14.7053 42.4056 14.6293 42.4445 14.5472 42.4445C14.5002 42.4445 14.4556 42.4315 14.4157 42.4068L7.10863 37.7296C6.99764 37.659 6.96628 37.5131 7.03987 37.4036L17.3316 22.1071C17.3666 22.0541 17.4209 22.0176 17.4836 22.0059C17.4993 22.0024 17.5162 22 17.5331 22C17.5801 22 17.626 22.0141 17.6646 22.0388L24.9717 26.7149C25.026 26.7502 25.0622 26.8031 25.0754 26.8643C25.0887 26.9255 25.0766 26.989 25.0417 27.0408L24.2599 28.2045L43.0543 27.7527L43.222 27.6515C44.0266 27.1632 44.8977 26.9549 46.1318 26.9549C46.5673 26.9549 47.0185 26.9796 47.454 27.0043L47.5312 27.0079L62.5387 28.1433L61.9452 27.0185C61.8897 26.9126 61.9247 26.7819 62.0284 26.7149L69.3355 22.0388C69.3742 22.0141 69.42 22 69.467 22C69.4839 22 69.5008 22.0024 69.5165 22.0059C69.5792 22.0176 69.6335 22.0541 69.6685 22.1071L79.9603 37.4036ZM79.4246 37.466L69.3983 22.5613L62.4941 26.9796L71.3357 40.1206L71.46 40.2017C71.4685 40.2064 71.4781 40.2123 71.4853 40.2194C71.5408 40.2641 71.5601 40.3194 71.5662 40.3571L71.5927 40.5018L72.5216 41.8832L79.4246 37.466ZM70.9738 40.4406L63.043 28.654L47.495 27.4773L47.4275 27.4738C46.9751 27.4491 46.5492 27.4256 46.1366 27.4256C44.8747 27.4256 43.5308 27.6303 42.2484 29.1211L35.1971 37.3177C34.4901 38.1391 34.1535 39.1804 34.2488 40.2488C34.3453 41.316 34.8617 42.2844 35.7037 42.974C36.4433 43.5788 37.3818 43.9117 38.347 43.9117C39.569 43.9117 40.7187 43.3893 41.5029 42.4786L48.7822 34.0137L48.8233 33.929L48.8353 33.909L48.8486 33.8901L48.8582 33.8796L48.886 33.8631L48.9101 33.836L48.921 33.829L48.9427 33.8184L48.9644 33.8101L48.9861 33.8042L49.0103 33.8007H49.0344H49.0585L49.0826 33.8042L49.1044 33.809L49.1273 33.816L49.1478 33.8254L49.1671 33.836L49.1864 33.849L49.2045 33.8643L49.2322 33.8925L49.2588 33.9231L49.2636 33.929L62.9706 49.5809L70.9738 40.4406ZM64.2615 53.1897C64.3339 52.3731 64.0781 51.5789 63.5376 50.9517L49.0621 34.422L41.872 42.781C40.9974 43.7976 39.7114 44.3812 38.3457 44.3812C37.2672 44.3812 36.2189 44.0094 35.3937 43.334C33.4514 41.7443 33.1969 38.9098 34.8267 37.0153L42.3763 28.2398L23.9366 28.6822L16.0673 40.3794L24.0681 49.515L27.2988 45.7591C27.9213 45.0355 28.7959 44.5919 29.7611 44.5095C29.8684 44.5001 29.977 44.4954 30.0832 44.4954C30.9421 44.4954 31.7456 44.7825 32.4079 45.3237C33.2801 46.038 33.7506 47.0887 33.6963 48.2054L33.6529 49.0808L34.5396 48.9349C34.7398 48.902 34.9461 48.8855 35.15 48.8855C36.0005 48.8855 36.8257 49.1785 37.4759 49.7103C38.2179 50.3175 38.6727 51.1694 38.7571 52.1107L38.7595 52.1437L38.8271 52.9979L39.674 52.7696C39.9527 52.6943 40.241 52.6555 40.5305 52.6555C41.2749 52.6555 41.9987 52.9132 42.5681 53.378C43.2787 53.9604 43.6913 54.8158 43.6997 55.7254L43.707 56.4926L44.5008 56.4208H44.5176C44.5961 56.4126 44.6757 56.409 44.7541 56.409C45.4019 56.409 46.0075 56.6256 46.5082 57.035C47.068 57.4928 47.4118 58.1376 47.4757 58.8483C47.5397 59.559 47.3153 60.2508 46.846 60.7968L43.8276 64.3044L44.2438 64.7598C44.689 65.2481 45.3295 65.5282 46.0003 65.5282C46.5504 65.527 47.0861 65.3375 47.5071 64.9928C48.1706 64.4503 48.4698 63.5996 48.29 62.7701C48.29 62.763 48.284 62.7324 48.284 62.7324L48.2816 62.7171V62.6912V62.6759L48.2852 62.6559L48.2912 62.6312L48.3009 62.6065L48.3105 62.5865L48.3238 62.5665L48.3311 62.5571L48.3443 62.5406L48.3612 62.5253L48.3781 62.5112L48.3986 62.4983L48.4167 62.4888L48.4396 62.4794L48.4722 62.47L48.5048 62.4653H48.5277H48.5446L48.5687 62.4688L48.5904 62.4747L48.6158 62.483C48.6158 62.483 48.6507 62.5006 48.658 62.5041C49.0959 62.7395 49.5869 62.8618 50.0839 62.8618C50.7776 62.8618 51.4496 62.6253 51.9756 62.1947C52.9069 61.431 53.2628 60.1649 52.8586 59.0424C52.8502 59.0177 52.8454 58.9906 52.8466 58.9612V58.9365C52.8454 58.8977 52.8538 58.8259 52.9165 58.7647C52.9757 58.7082 53.0408 58.6965 53.0867 58.6965C53.1241 58.6965 53.1964 58.7059 53.258 58.7659C53.8708 59.3719 54.6948 59.7061 55.5766 59.7061C56.3427 59.7061 57.0846 59.4437 57.6661 58.9671C58.7036 58.1187 59.0933 56.7162 58.6385 55.4701L58.6361 55.4607L58.6288 55.4418L58.6216 55.4183L58.6168 55.3912C58.6143 55.3689 58.6143 55.3453 58.6204 55.3195C58.6252 55.2936 58.6336 55.27 58.6445 55.25L58.6614 55.2253L58.6759 55.2077L58.6928 55.19L58.7121 55.1747L58.7326 55.1618L58.7555 55.15L58.7796 55.1406L58.8001 55.1347L58.8267 55.13C58.8339 55.1288 58.8436 55.1277 58.8544 55.1277C58.8701 55.1277 58.8858 55.13 58.9015 55.1324C58.9292 55.1383 58.9533 55.1465 58.9751 55.1583L58.998 55.1736L59.0197 55.19L59.0402 55.2077C59.6084 55.7066 60.354 55.9843 61.1333 55.9843C61.8716 55.9843 62.5882 55.7313 63.1504 55.2712C63.7934 54.7441 64.1879 54.0051 64.2615 53.1897ZM46.4756 60.4944C46.8629 60.0449 47.0462 59.4742 46.9944 58.8894C46.9413 58.3035 46.659 57.7728 46.1982 57.3951C45.7928 57.0633 45.2777 56.8809 44.7493 56.8809C44.0858 56.8809 43.4584 57.1633 43.0302 57.6563L42.9904 57.7034C42.9807 57.7163 42.9711 57.7293 42.9602 57.741L39.3133 61.9794L39.3036 61.9923C38.9598 62.43 38.7969 62.9725 38.8464 63.5208C38.8983 64.1056 39.1818 64.6362 39.6426 65.014C40.0492 65.3458 40.5631 65.5293 41.0903 65.5293C41.1566 65.5293 41.2242 65.5258 41.2905 65.5199C41.8901 65.4693 42.4342 65.1928 42.8215 64.7433L43.2413 64.255L43.2811 64.1679C43.2968 64.135 43.3185 64.1068 43.345 64.0856C43.3523 64.0797 43.3583 64.075 43.3655 64.0703L43.4464 64.0162L46.4756 60.4944ZM42.6453 57.3692C43.5453 56.249 43.3752 54.6535 42.2581 53.7392C41.7743 53.3438 41.1603 53.125 40.5281 53.125C39.7295 53.125 38.9767 53.4674 38.464 54.0628L34.6023 58.5517C33.6481 59.6613 33.7964 61.3204 34.9341 62.2523C35.4178 62.6477 36.0319 62.8654 36.664 62.8654C37.4627 62.8654 38.2155 62.5241 38.7282 61.9276L38.9236 61.7017L38.9308 61.6911C38.955 61.6617 38.9743 61.6369 38.996 61.6122L42.6453 57.3692ZM37.5531 54.3899C38.6666 53.0944 38.4929 51.1564 37.1659 50.0704C36.6013 49.6091 35.8847 49.3538 35.1476 49.3538C34.2139 49.3538 33.3356 49.7527 32.7372 50.4481L29.1012 54.6747C28.5619 55.3018 28.3049 56.0961 28.3785 56.9127C28.4509 57.7281 28.8454 58.467 29.4884 58.9942C30.0542 59.4566 30.7708 59.7108 31.5055 59.7108C31.5972 59.7108 31.6913 59.7072 31.783 59.699C32.6202 59.6284 33.3778 59.2436 33.9171 58.6153L37.5531 54.3899ZM32.4839 50.0033C33.5986 48.709 33.4249 46.771 32.0966 45.6838C31.532 45.2214 30.8154 44.9672 30.0808 44.9672C29.9879 44.9672 29.895 44.9707 29.8021 44.979C28.966 45.0496 28.2084 45.4343 27.668 46.0627L23.4625 50.9517C22.349 52.246 22.5227 54.184 23.8497 55.27C24.4143 55.7325 25.1309 55.9866 25.868 55.9866C26.8018 55.9866 27.68 55.5877 28.2784 54.8923L32.4839 50.0033ZM14.4785 41.8832L24.506 26.9796L17.6018 22.5613L7.5755 37.466L14.4785 41.8832Z" fill="#161A1E"/>
<path d="M79.9603 37.4036C79.9952 37.4554 80.0085 37.5201 79.9952 37.5813C79.982 37.6425 79.9446 37.6955 79.8915 37.7296L72.5844 42.4068C72.5446 42.4315 72.4999 42.4445 72.4529 42.4445C72.3708 42.4445 72.2948 42.4056 72.2502 42.3386L71.2501 40.8513L63.2879 49.9421L63.9056 50.6469C64.5281 51.3706 64.8261 52.2896 64.7416 53.2297C64.6572 54.171 64.2024 55.0241 63.4604 55.6313C62.8126 56.1608 61.9862 56.4526 61.1333 56.4526C60.8172 56.4526 60.4999 56.4126 60.1911 56.3326L59.378 56.1208L59.2851 56.9362C59.1777 57.8763 58.7133 58.7259 57.9762 59.3283C57.3114 59.8731 56.4597 60.1732 55.5779 60.1732C55.1773 60.1732 54.778 60.1108 54.3944 59.9873L53.5945 59.7319L53.4546 60.5415C53.3195 61.3345 52.9033 62.0488 52.2856 62.5547C51.674 63.0548 50.891 63.3313 50.0815 63.3313C49.9187 63.3313 49.7474 63.3184 49.5712 63.2925L48.9017 63.1948L48.7569 63.8385C48.6218 64.4374 48.2973 64.961 47.8171 65.3528C47.3008 65.7764 46.6735 66 46.0027 66C45.9195 66 45.835 65.9965 45.7506 65.9894C45.0943 65.9329 44.4996 65.6682 44.0303 65.2246L43.5212 64.7421L43.0169 65.2293C42.5597 65.6717 41.977 65.9341 41.3316 65.9894C41.2507 65.9965 41.1675 66 41.0867 66C40.4388 66 39.8332 65.7835 39.3326 65.3752C38.8404 64.9716 38.5086 64.408 38.3976 63.7879L38.2625 63.0266L37.4964 63.2278C37.2238 63.2996 36.9427 63.3349 36.6616 63.3349C35.9173 63.3349 35.1934 63.0784 34.624 62.6124C34.0064 62.1076 33.6131 61.3969 33.5154 60.6133L33.4116 59.7743L32.584 60.0226C32.3355 60.0979 32.0809 60.1461 31.8252 60.1685C31.7178 60.1779 31.6093 60.1814 31.5019 60.1814C30.6441 60.1814 29.8407 59.8955 29.1784 59.3542C28.4364 58.7471 27.9816 57.894 27.8972 56.9538L27.8948 56.9138L27.826 56.029L26.9574 56.2937C26.6015 56.402 26.2348 56.4573 25.8668 56.4573C25.0163 56.4573 24.1899 56.1631 23.5397 55.6313C22.0076 54.3781 21.8073 52.1425 23.0921 50.6493L23.7544 49.8798L15.7922 40.7889L14.7499 42.3386C14.7053 42.4056 14.6293 42.4445 14.5472 42.4445C14.5002 42.4445 14.4556 42.4315 14.4157 42.4068L7.10863 37.7296C6.99764 37.659 6.96628 37.5131 7.03987 37.4036L17.3316 22.1071C17.3666 22.0541 17.4209 22.0176 17.4836 22.0059C17.4993 22.0024 17.5162 22 17.5331 22C17.5801 22 17.626 22.0141 17.6646 22.0388L24.9717 26.7149C25.026 26.7502 25.0622 26.8031 25.0754 26.8643C25.0887 26.9255 25.0766 26.989 25.0417 27.0408L24.2599 28.2045L43.0543 27.7527L43.222 27.6515C44.0266 27.1632 44.8977 26.9549 46.1318 26.9549C46.5673 26.9549 47.0185 26.9796 47.454 27.0043L47.5312 27.0079L62.5387 28.1433L61.9452 27.0185C61.8897 26.9126 61.9247 26.7819 62.0284 26.7149L69.3355 22.0388C69.3742 22.0141 69.42 22 69.467 22C69.4839 22 69.5008 22.0024 69.5165 22.0059C69.5792 22.0176 69.6335 22.0541 69.6685 22.1071L79.9603 37.4036ZM79.4246 37.466L69.3983 22.5613L62.4941 26.9796L71.3357 40.1206L71.46 40.2017C71.4685 40.2064 71.4781 40.2123 71.4853 40.2194C71.5408 40.2641 71.5601 40.3194 71.5662 40.3571L71.5927 40.5018L72.5216 41.8832L79.4246 37.466ZM70.9738 40.4406L63.043 28.654L47.495 27.4773L47.4275 27.4738C46.9751 27.4491 46.5492 27.4256 46.1366 27.4256C44.8747 27.4256 43.5308 27.6303 42.2484 29.1211L35.1971 37.3177C34.4901 38.1391 34.1535 39.1804 34.2488 40.2488C34.3453 41.316 34.8617 42.2844 35.7037 42.974C36.4433 43.5788 37.3818 43.9117 38.347 43.9117C39.569 43.9117 40.7187 43.3893 41.5029 42.4786L48.7822 34.0137L48.8233 33.929L48.8353 33.909L48.8486 33.8901L48.8582 33.8796L48.886 33.8631L48.9101 33.836L48.921 33.829L48.9427 33.8184L48.9644 33.8101L48.9861 33.8042L49.0103 33.8007H49.0344H49.0585L49.0826 33.8042L49.1044 33.809L49.1273 33.816L49.1478 33.8254L49.1671 33.836L49.1864 33.849L49.2045 33.8643L49.2322 33.8925L49.2588 33.9231L49.2636 33.929L62.9706 49.5809L70.9738 40.4406ZM64.2615 53.1897C64.3339 52.3731 64.0781 51.5789 63.5376 50.9517L49.0621 34.422L41.872 42.781C40.9974 43.7976 39.7114 44.3812 38.3457 44.3812C37.2672 44.3812 36.2189 44.0094 35.3937 43.334C33.4514 41.7443 33.1969 38.9098 34.8267 37.0153L42.3763 28.2398L23.9366 28.6822L16.0673 40.3794L24.0681 49.515L27.2988 45.7591C27.9213 45.0355 28.7959 44.5919 29.7611 44.5095C29.8684 44.5001 29.977 44.4954 30.0832 44.4954C30.9421 44.4954 31.7456 44.7825 32.4079 45.3237C33.2801 46.038 33.7506 47.0887 33.6963 48.2054L33.6529 49.0808L34.5396 48.9349C34.7398 48.902 34.9461 48.8855 35.15 48.8855C36.0005 48.8855 36.8257 49.1785 37.4759 49.7103C38.2179 50.3175 38.6727 51.1694 38.7571 52.1107L38.7595 52.1437L38.8271 52.9979L39.674 52.7696C39.9527 52.6943 40.241 52.6555 40.5305 52.6555C41.2749 52.6555 41.9987 52.9132 42.5681 53.378C43.2787 53.9604 43.6913 54.8158 43.6997 55.7254L43.707 56.4926L44.5008 56.4208H44.5176C44.5961 56.4126 44.6757 56.409 44.7541 56.409C45.4019 56.409 46.0075 56.6256 46.5082 57.035C47.068 57.4928 47.4118 58.1376 47.4757 58.8483C47.5397 59.559 47.3153 60.2508 46.846 60.7968L43.8276 64.3044L44.2438 64.7598C44.689 65.2481 45.3295 65.5282 46.0003 65.5282C46.5504 65.527 47.0861 65.3375 47.5071 64.9928C48.1706 64.4503 48.4698 63.5996 48.29 62.7701C48.29 62.763 48.284 62.7324 48.284 62.7324L48.2816 62.7171V62.6912V62.6759L48.2852 62.6559L48.2912 62.6312L48.3009 62.6065L48.3105 62.5865L48.3238 62.5665L48.3311 62.5571L48.3443 62.5406L48.3612 62.5253L48.3781 62.5112L48.3986 62.4983L48.4167 62.4888L48.4396 62.4794L48.4722 62.47L48.5048 62.4653H48.5277H48.5446L48.5687 62.4688L48.5904 62.4747L48.6158 62.483C48.6158 62.483 48.6507 62.5006 48.658 62.5041C49.0959 62.7395 49.5869 62.8618 50.0839 62.8618C50.7776 62.8618 51.4496 62.6253 51.9756 62.1947C52.9069 61.431 53.2628 60.1649 52.8586 59.0424C52.8502 59.0177 52.8454 58.9906 52.8466 58.9612V58.9365C52.8454 58.8977 52.8538 58.8259 52.9165 58.7647C52.9757 58.7082 53.0408 58.6965 53.0867 58.6965C53.1241 58.6965 53.1964 58.7059 53.258 58.7659C53.8708 59.3719 54.6948 59.7061 55.5766 59.7061C56.3427 59.7061 57.0846 59.4437 57.6661 58.9671C58.7036 58.1187 59.0933 56.7162 58.6385 55.4701L58.6361 55.4607L58.6288 55.4418L58.6216 55.4183L58.6168 55.3912C58.6143 55.3689 58.6143 55.3453 58.6204 55.3195C58.6252 55.2936 58.6336 55.27 58.6445 55.25L58.6614 55.2253L58.6759 55.2077L58.6928 55.19L58.7121 55.1747L58.7326 55.1618L58.7555 55.15L58.7796 55.1406L58.8001 55.1347L58.8267 55.13C58.8339 55.1288 58.8436 55.1277 58.8544 55.1277C58.8701 55.1277 58.8858 55.13 58.9015 55.1324C58.9292 55.1383 58.9533 55.1465 58.9751 55.1583L58.998 55.1736L59.0197 55.19L59.0402 55.2077C59.6084 55.7066 60.354 55.9843 61.1333 55.9843C61.8716 55.9843 62.5882 55.7313 63.1504 55.2712C63.7934 54.7441 64.1879 54.0051 64.2615 53.1897ZM46.4756 60.4944C46.8629 60.0449 47.0462 59.4742 46.9944 58.8894C46.9413 58.3035 46.659 57.7728 46.1982 57.3951C45.7928 57.0633 45.2777 56.8809 44.7493 56.8809C44.0858 56.8809 43.4584 57.1633 43.0302 57.6563L42.9904 57.7034C42.9807 57.7163 42.9711 57.7293 42.9602 57.741L39.3133 61.9794L39.3036 61.9923C38.9598 62.43 38.7969 62.9725 38.8464 63.5208C38.8983 64.1056 39.1818 64.6362 39.6426 65.014C40.0492 65.3458 40.5631 65.5293 41.0903 65.5293C41.1566 65.5293 41.2242 65.5258 41.2905 65.5199C41.8901 65.4693 42.4342 65.1928 42.8215 64.7433L43.2413 64.255L43.2811 64.1679C43.2968 64.135 43.3185 64.1068 43.345 64.0856C43.3523 64.0797 43.3583 64.075 43.3655 64.0703L43.4464 64.0162L46.4756 60.4944ZM42.6453 57.3692C43.5453 56.249 43.3752 54.6535 42.2581 53.7392C41.7743 53.3438 41.1603 53.125 40.5281 53.125C39.7295 53.125 38.9767 53.4674 38.464 54.0628L34.6023 58.5517C33.6481 59.6613 33.7964 61.3204 34.9341 62.2523C35.4178 62.6477 36.0319 62.8654 36.664 62.8654C37.4627 62.8654 38.2155 62.5241 38.7282 61.9276L38.9236 61.7017L38.9308 61.6911C38.955 61.6617 38.9743 61.6369 38.996 61.6122L42.6453 57.3692ZM37.5531 54.3899C38.6666 53.0944 38.4929 51.1564 37.1659 50.0704C36.6013 49.6091 35.8847 49.3538 35.1476 49.3538C34.2139 49.3538 33.3356 49.7527 32.7372 50.4481L29.1012 54.6747C28.5619 55.3018 28.3049 56.0961 28.3785 56.9127C28.4509 57.7281 28.8454 58.467 29.4884 58.9942C30.0542 59.4566 30.7708 59.7108 31.5055 59.7108C31.5972 59.7108 31.6913 59.7072 31.783 59.699C32.6202 59.6284 33.3778 59.2436 33.9171 58.6153L37.5531 54.3899ZM32.4839 50.0033C33.5986 48.709 33.4249 46.771 32.0966 45.6838C31.532 45.2214 30.8154 44.9672 30.0808 44.9672C29.9879 44.9672 29.895 44.9707 29.8021 44.979C28.966 45.0496 28.2084 45.4343 27.668 46.0627L23.4625 50.9517C22.349 52.246 22.5227 54.184 23.8497 55.27C24.4143 55.7325 25.1309 55.9866 25.868 55.9866C26.8018 55.9866 27.68 55.5877 28.2784 54.8923L32.4839 50.0033ZM14.4785 41.8832L24.506 26.9796L17.6018 22.5613L7.5755 37.466L14.4785 41.8832Z" stroke="black" stroke-width="0.1" mask="url(#path-3-outside-1_2014_6972)"/>
</g>
<defs>
<clipPath id="clip0_2014_6972">
<rect width="73" height="44" fill="white" transform="translate(7 22)"/>
</clipPath>
</defs>
</svg>
