<svg width="88" height="88" viewBox="0 0 88 88" fill="none" xmlns="http://www.w3.org/2000/svg">
<g clip-path="url(#clip0_2014_11492)">
<path d="M49 35.5H33L35 44.5H46.5L49 35.5Z" fill="#FDCECF"/>
<mask id="path-2-outside-1_2014_11492" maskUnits="userSpaceOnUse" x="17.001" y="9" width="54" height="71" fill="black">
<rect fill="white" x="17.001" y="9" width="54" height="71"/>
<path d="M69.7228 79C69.61 79 69.5073 78.9344 69.4612 78.8335L69.297 78.4853C68.6146 77.027 65.1821 69.6446 64.3766 67.2982C63.8071 65.643 64.0739 64.0283 64.3766 62.1562C64.6024 60.7988 64.8538 59.2648 64.8538 57.4028C64.8538 53.7797 64.0842 52.1095 63.3402 50.4897C62.7502 49.208 62.1396 47.8809 61.9652 45.6606C61.7291 42.6178 62.5244 39.5397 63.2325 36.8199C64.0534 33.661 64.6947 31.1683 63.2171 30.4013C62.9195 30.2448 62.586 30.1692 62.2268 30.1692C61.7958 30.1692 61.3443 30.2852 60.8928 30.5123C59.9437 30.9917 57.6553 32.7124 56.8652 38.3387V63.4833C56.8652 65.6885 55.0387 67.4798 52.7965 67.4798H33.2125L33.7051 68.0652C34.5978 69.1299 36.2499 70.6084 39.0513 71.6428C40.7598 72.2736 42.0733 72.6319 43.1251 72.9195C44.5412 73.308 45.3929 73.5401 45.8393 74.0952C46.0804 74.3929 48.1994 77.91 48.5893 78.561C48.6099 78.5913 48.6201 78.6316 48.6252 78.667C48.6406 78.778 48.5842 78.889 48.4867 78.9445C48.4405 78.9697 48.3944 78.9849 48.3431 78.9849C48.2404 78.9849 48.1481 78.9344 48.0968 78.8436L47.8556 78.4399C47.3015 77.5165 45.6186 74.7411 45.398 74.4484C45.0594 74.0296 44.2795 73.8177 42.9763 73.4594C41.9656 73.1819 40.5854 72.8085 38.8512 72.1676C34.998 70.7497 33.2484 68.5294 32.6738 67.6463L32.566 67.4798H30.524C28.2819 67.4798 26.4605 65.6885 26.4605 63.4833V61.1419L25.9987 61.1874C25.9012 61.1975 25.8037 61.2075 25.7011 61.2075C25.3163 61.2075 24.9007 61.152 24.48 61.036L24.362 61.0057C24.0439 60.9199 23.6899 60.8291 22.9767 60.597C21.5504 60.1428 20.6012 59.2244 20.3652 58.0891C20.1753 57.1757 20.4934 56.2321 21.2015 55.6266C21.3657 55.4853 21.5555 55.3692 21.7812 55.2582L22.3713 54.9756L21.812 54.6325C19.8572 53.4315 19.5904 51.7209 20.1856 50.5603C20.5088 49.9296 21.0886 49.4552 21.8172 49.2231L22.4944 49.0061L21.9198 48.5924C20.2677 47.4065 20.083 45.8069 20.6268 44.7422C20.9449 44.1215 21.5093 43.6523 22.2225 43.4201L22.9818 43.1678L22.2892 42.7692C21.5452 42.3453 20.7705 41.8962 20.0317 41.4471C17.9127 40.1856 17.6613 38.3085 18.3283 37.1025C18.8157 36.2244 19.7649 35.6996 20.868 35.6996C21.4837 35.6996 22.1301 35.8611 22.7971 36.174C23.9413 36.7139 24.7622 37.158 25.7165 37.6727L26.4656 38.0763V13.9965C26.4656 11.7914 28.287 10 30.5291 10H52.8119C55.0541 10 56.8755 11.7914 56.8755 13.9965V33.5097L56.8549 36.068L57.5681 33.656C58.3583 31.9 59.4203 30.6435 60.6414 30.0228C61.1648 29.7604 61.7189 29.6191 62.2422 29.6191C62.6937 29.6191 63.1144 29.7201 63.4941 29.9168C65.372 30.8907 64.6434 33.7115 63.7968 36.9713C63.1042 39.6457 62.3192 42.6784 62.5449 45.6303C62.7091 47.7547 63.2735 48.9759 63.8687 50.2677C64.6383 51.943 65.4335 53.6738 65.4335 57.4129C65.4335 59.3153 65.177 60.8745 64.9513 62.2521C64.6434 64.1242 64.3971 65.6027 64.9205 67.1215C65.7619 69.5689 69.5484 77.6729 69.9794 78.5913C69.9896 78.6114 69.9948 78.6569 69.9999 78.6821C70.0153 78.8082 69.9537 78.9243 69.846 78.9748C69.8101 78.9899 69.769 79 69.728 79H69.7228ZM30.524 10.5652C28.6 10.5652 27.0351 12.1042 27.0351 13.9965V44.6968L27.2044 44.8028C29.1695 46.0138 29.4312 47.7699 28.8411 48.8901C28.5282 49.4855 27.9433 49.9447 27.2403 50.1466L26.5015 50.3585L27.1429 50.7824C28.9694 51.9934 29.1952 53.6536 28.6154 54.7587C28.3537 55.2582 27.9022 55.6619 27.3481 55.8991L26.7837 56.1413L27.2711 56.5097C28.5538 57.4886 28.6769 58.7602 28.3896 59.5575C28.1947 60.0924 27.7842 60.5516 27.2301 60.8493L27.0402 60.9502V63.4934C27.0402 65.3857 28.6051 66.9247 30.5291 66.9247H52.8119C54.736 66.9247 56.3008 65.3857 56.3008 63.4934V13.9965C56.3008 12.1042 54.736 10.5652 52.8119 10.5652H30.524ZM23.0947 55.5358C22.5047 55.5358 21.9762 55.7174 21.576 56.0606C21.027 56.5298 20.7756 57.2666 20.9244 57.9831C21.1194 58.9166 21.93 59.6786 23.1511 60.0671C23.8592 60.2942 24.2029 60.385 24.5108 60.4658L24.6288 60.496C25.0033 60.597 25.3625 60.6474 25.7011 60.6474C26.9325 60.6474 27.6149 59.9864 27.8355 59.3657C28.169 58.4473 27.7329 57.1858 26.0141 56.439C25.3266 56.1413 24.8289 55.9344 24.3158 55.7527C23.8848 55.6014 23.4744 55.5257 23.0896 55.5257L23.0947 55.5358ZM22.833 49.6419C21.8839 49.6419 21.0886 50.086 20.7038 50.8278C20.1753 51.8521 20.5139 53.3458 22.4636 54.3651C23.0947 54.6931 23.3769 54.794 23.7001 54.905C23.9259 54.9807 24.1773 55.0715 24.5724 55.238C25.1111 55.4702 25.6344 55.5913 26.1218 55.5913C27.0095 55.5913 27.7483 55.1876 28.1023 54.5114C28.6 53.5627 28.3281 52.1448 26.599 51.1154C25.6498 50.5502 25.4241 50.4544 25.0854 50.3131C24.9418 50.2525 24.7827 50.1819 24.5467 50.0709C23.9567 49.7933 23.3769 49.647 22.8382 49.647L22.833 49.6419ZM23.2743 43.8238C22.3251 43.8238 21.5298 44.2679 21.145 45.0097C20.6166 46.034 20.9552 47.5276 22.9049 48.5469C23.5513 48.885 23.7514 48.9557 24.0234 49.0516C24.2081 49.1172 24.4236 49.1928 24.8032 49.3594C25.3471 49.5915 25.8653 49.7126 26.3527 49.7126C27.2403 49.7126 27.9792 49.3089 28.3332 48.6327C28.8309 47.6841 28.5589 46.2661 26.8299 45.2367L26.6708 45.1459L26.5426 45.1106C26.4964 45.1106 26.4605 45.0954 26.4348 45.0803C26.3476 45.0349 25.6703 44.6716 24.7006 44.1367C24.1722 43.9247 23.7053 43.8289 23.2692 43.8289L23.2743 43.8238ZM20.868 36.2648C19.9752 36.2648 19.2159 36.6786 18.8311 37.3749C18.2923 38.3539 18.5335 39.898 20.3395 40.9829C21.9454 41.9467 23.7104 42.9408 24.911 43.6018L24.9315 43.6119L24.9931 43.6371C25.0752 43.6724 25.1573 43.7027 25.2394 43.7431C25.4087 43.8238 25.5318 43.8793 25.6293 43.9247C25.7576 43.9803 25.8448 44.0206 25.9371 44.0711L26.4656 44.3385V38.7222L25.4446 38.1773C24.5005 37.6676 23.6796 37.2286 22.5457 36.6887C21.9608 36.4111 21.3964 36.2699 20.868 36.2699V36.2648Z"/>
</mask>
<path d="M69.7228 79C69.61 79 69.5073 78.9344 69.4612 78.8335L69.297 78.4853C68.6146 77.027 65.1821 69.6446 64.3766 67.2982C63.8071 65.643 64.0739 64.0283 64.3766 62.1562C64.6024 60.7988 64.8538 59.2648 64.8538 57.4028C64.8538 53.7797 64.0842 52.1095 63.3402 50.4897C62.7502 49.208 62.1396 47.8809 61.9652 45.6606C61.7291 42.6178 62.5244 39.5397 63.2325 36.8199C64.0534 33.661 64.6947 31.1683 63.2171 30.4013C62.9195 30.2448 62.586 30.1692 62.2268 30.1692C61.7958 30.1692 61.3443 30.2852 60.8928 30.5123C59.9437 30.9917 57.6553 32.7124 56.8652 38.3387V63.4833C56.8652 65.6885 55.0387 67.4798 52.7965 67.4798H33.2125L33.7051 68.0652C34.5978 69.1299 36.2499 70.6084 39.0513 71.6428C40.7598 72.2736 42.0733 72.6319 43.1251 72.9195C44.5412 73.308 45.3929 73.5401 45.8393 74.0952C46.0804 74.3929 48.1994 77.91 48.5893 78.561C48.6099 78.5913 48.6201 78.6316 48.6252 78.667C48.6406 78.778 48.5842 78.889 48.4867 78.9445C48.4405 78.9697 48.3944 78.9849 48.3431 78.9849C48.2404 78.9849 48.1481 78.9344 48.0968 78.8436L47.8556 78.4399C47.3015 77.5165 45.6186 74.7411 45.398 74.4484C45.0594 74.0296 44.2795 73.8177 42.9763 73.4594C41.9656 73.1819 40.5854 72.8085 38.8512 72.1676C34.998 70.7497 33.2484 68.5294 32.6738 67.6463L32.566 67.4798H30.524C28.2819 67.4798 26.4605 65.6885 26.4605 63.4833V61.1419L25.9987 61.1874C25.9012 61.1975 25.8037 61.2075 25.7011 61.2075C25.3163 61.2075 24.9007 61.152 24.48 61.036L24.362 61.0057C24.0439 60.9199 23.6899 60.8291 22.9767 60.597C21.5504 60.1428 20.6012 59.2244 20.3652 58.0891C20.1753 57.1757 20.4934 56.2321 21.2015 55.6266C21.3657 55.4853 21.5555 55.3692 21.7812 55.2582L22.3713 54.9756L21.812 54.6325C19.8572 53.4315 19.5904 51.7209 20.1856 50.5603C20.5088 49.9296 21.0886 49.4552 21.8172 49.2231L22.4944 49.0061L21.9198 48.5924C20.2677 47.4065 20.083 45.8069 20.6268 44.7422C20.9449 44.1215 21.5093 43.6523 22.2225 43.4201L22.9818 43.1678L22.2892 42.7692C21.5452 42.3453 20.7705 41.8962 20.0317 41.4471C17.9127 40.1856 17.6613 38.3085 18.3283 37.1025C18.8157 36.2244 19.7649 35.6996 20.868 35.6996C21.4837 35.6996 22.1301 35.8611 22.7971 36.174C23.9413 36.7139 24.7622 37.158 25.7165 37.6727L26.4656 38.0763V13.9965C26.4656 11.7914 28.287 10 30.5291 10H52.8119C55.0541 10 56.8755 11.7914 56.8755 13.9965V33.5097L56.8549 36.068L57.5681 33.656C58.3583 31.9 59.4203 30.6435 60.6414 30.0228C61.1648 29.7604 61.7189 29.6191 62.2422 29.6191C62.6937 29.6191 63.1144 29.7201 63.4941 29.9168C65.372 30.8907 64.6434 33.7115 63.7968 36.9713C63.1042 39.6457 62.3192 42.6784 62.5449 45.6303C62.7091 47.7547 63.2735 48.9759 63.8687 50.2677C64.6383 51.943 65.4335 53.6738 65.4335 57.4129C65.4335 59.3153 65.177 60.8745 64.9513 62.2521C64.6434 64.1242 64.3971 65.6027 64.9205 67.1215C65.7619 69.5689 69.5484 77.6729 69.9794 78.5913C69.9896 78.6114 69.9948 78.6569 69.9999 78.6821C70.0153 78.8082 69.9537 78.9243 69.846 78.9748C69.8101 78.9899 69.769 79 69.728 79H69.7228ZM30.524 10.5652C28.6 10.5652 27.0351 12.1042 27.0351 13.9965V44.6968L27.2044 44.8028C29.1695 46.0138 29.4312 47.7699 28.8411 48.8901C28.5282 49.4855 27.9433 49.9447 27.2403 50.1466L26.5015 50.3585L27.1429 50.7824C28.9694 51.9934 29.1952 53.6536 28.6154 54.7587C28.3537 55.2582 27.9022 55.6619 27.3481 55.8991L26.7837 56.1413L27.2711 56.5097C28.5538 57.4886 28.6769 58.7602 28.3896 59.5575C28.1947 60.0924 27.7842 60.5516 27.2301 60.8493L27.0402 60.9502V63.4934C27.0402 65.3857 28.6051 66.9247 30.5291 66.9247H52.8119C54.736 66.9247 56.3008 65.3857 56.3008 63.4934V13.9965C56.3008 12.1042 54.736 10.5652 52.8119 10.5652H30.524ZM23.0947 55.5358C22.5047 55.5358 21.9762 55.7174 21.576 56.0606C21.027 56.5298 20.7756 57.2666 20.9244 57.9831C21.1194 58.9166 21.93 59.6786 23.1511 60.0671C23.8592 60.2942 24.2029 60.385 24.5108 60.4658L24.6288 60.496C25.0033 60.597 25.3625 60.6474 25.7011 60.6474C26.9325 60.6474 27.6149 59.9864 27.8355 59.3657C28.169 58.4473 27.7329 57.1858 26.0141 56.439C25.3266 56.1413 24.8289 55.9344 24.3158 55.7527C23.8848 55.6014 23.4744 55.5257 23.0896 55.5257L23.0947 55.5358ZM22.833 49.6419C21.8839 49.6419 21.0886 50.086 20.7038 50.8278C20.1753 51.8521 20.5139 53.3458 22.4636 54.3651C23.0947 54.6931 23.3769 54.794 23.7001 54.905C23.9259 54.9807 24.1773 55.0715 24.5724 55.238C25.1111 55.4702 25.6344 55.5913 26.1218 55.5913C27.0095 55.5913 27.7483 55.1876 28.1023 54.5114C28.6 53.5627 28.3281 52.1448 26.599 51.1154C25.6498 50.5502 25.4241 50.4544 25.0854 50.3131C24.9418 50.2525 24.7827 50.1819 24.5467 50.0709C23.9567 49.7933 23.3769 49.647 22.8382 49.647L22.833 49.6419ZM23.2743 43.8238C22.3251 43.8238 21.5298 44.2679 21.145 45.0097C20.6166 46.034 20.9552 47.5276 22.9049 48.5469C23.5513 48.885 23.7514 48.9557 24.0234 49.0516C24.2081 49.1172 24.4236 49.1928 24.8032 49.3594C25.3471 49.5915 25.8653 49.7126 26.3527 49.7126C27.2403 49.7126 27.9792 49.3089 28.3332 48.6327C28.8309 47.6841 28.5589 46.2661 26.8299 45.2367L26.6708 45.1459L26.5426 45.1106C26.4964 45.1106 26.4605 45.0954 26.4348 45.0803C26.3476 45.0349 25.6703 44.6716 24.7006 44.1367C24.1722 43.9247 23.7053 43.8289 23.2692 43.8289L23.2743 43.8238ZM20.868 36.2648C19.9752 36.2648 19.2159 36.6786 18.8311 37.3749C18.2923 38.3539 18.5335 39.898 20.3395 40.9829C21.9454 41.9467 23.7104 42.9408 24.911 43.6018L24.9315 43.6119L24.9931 43.6371C25.0752 43.6724 25.1573 43.7027 25.2394 43.7431C25.4087 43.8238 25.5318 43.8793 25.6293 43.9247C25.7576 43.9803 25.8448 44.0206 25.9371 44.0711L26.4656 44.3385V38.7222L25.4446 38.1773C24.5005 37.6676 23.6796 37.2286 22.5457 36.6887C21.9608 36.4111 21.3964 36.2699 20.868 36.2699V36.2648Z" fill="#161A1E"/>
<path d="M69.7228 79C69.61 79 69.5073 78.9344 69.4612 78.8335L69.297 78.4853C68.6146 77.027 65.1821 69.6446 64.3766 67.2982C63.8071 65.643 64.0739 64.0283 64.3766 62.1562C64.6024 60.7988 64.8538 59.2648 64.8538 57.4028C64.8538 53.7797 64.0842 52.1095 63.3402 50.4897C62.7502 49.208 62.1396 47.8809 61.9652 45.6606C61.7291 42.6178 62.5244 39.5397 63.2325 36.8199C64.0534 33.661 64.6947 31.1683 63.2171 30.4013C62.9195 30.2448 62.586 30.1692 62.2268 30.1692C61.7958 30.1692 61.3443 30.2852 60.8928 30.5123C59.9437 30.9917 57.6553 32.7124 56.8652 38.3387V63.4833C56.8652 65.6885 55.0387 67.4798 52.7965 67.4798H33.2125L33.7051 68.0652C34.5978 69.1299 36.2499 70.6084 39.0513 71.6428C40.7598 72.2736 42.0733 72.6319 43.1251 72.9195C44.5412 73.308 45.3929 73.5401 45.8393 74.0952C46.0804 74.3929 48.1994 77.91 48.5893 78.561C48.6099 78.5913 48.6201 78.6316 48.6252 78.667C48.6406 78.778 48.5842 78.889 48.4867 78.9445C48.4405 78.9697 48.3944 78.9849 48.3431 78.9849C48.2404 78.9849 48.1481 78.9344 48.0968 78.8436L47.8556 78.4399C47.3015 77.5165 45.6186 74.7411 45.398 74.4484C45.0594 74.0296 44.2795 73.8177 42.9763 73.4594C41.9656 73.1819 40.5854 72.8085 38.8512 72.1676C34.998 70.7497 33.2484 68.5294 32.6738 67.6463L32.566 67.4798H30.524C28.2819 67.4798 26.4605 65.6885 26.4605 63.4833V61.1419L25.9987 61.1874C25.9012 61.1975 25.8037 61.2075 25.7011 61.2075C25.3163 61.2075 24.9007 61.152 24.48 61.036L24.362 61.0057C24.0439 60.9199 23.6899 60.8291 22.9767 60.597C21.5504 60.1428 20.6012 59.2244 20.3652 58.0891C20.1753 57.1757 20.4934 56.2321 21.2015 55.6266C21.3657 55.4853 21.5555 55.3692 21.7812 55.2582L22.3713 54.9756L21.812 54.6325C19.8572 53.4315 19.5904 51.7209 20.1856 50.5603C20.5088 49.9296 21.0886 49.4552 21.8172 49.2231L22.4944 49.0061L21.9198 48.5924C20.2677 47.4065 20.083 45.8069 20.6268 44.7422C20.9449 44.1215 21.5093 43.6523 22.2225 43.4201L22.9818 43.1678L22.2892 42.7692C21.5452 42.3453 20.7705 41.8962 20.0317 41.4471C17.9127 40.1856 17.6613 38.3085 18.3283 37.1025C18.8157 36.2244 19.7649 35.6996 20.868 35.6996C21.4837 35.6996 22.1301 35.8611 22.7971 36.174C23.9413 36.7139 24.7622 37.158 25.7165 37.6727L26.4656 38.0763V13.9965C26.4656 11.7914 28.287 10 30.5291 10H52.8119C55.0541 10 56.8755 11.7914 56.8755 13.9965V33.5097L56.8549 36.068L57.5681 33.656C58.3583 31.9 59.4203 30.6435 60.6414 30.0228C61.1648 29.7604 61.7189 29.6191 62.2422 29.6191C62.6937 29.6191 63.1144 29.7201 63.4941 29.9168C65.372 30.8907 64.6434 33.7115 63.7968 36.9713C63.1042 39.6457 62.3192 42.6784 62.5449 45.6303C62.7091 47.7547 63.2735 48.9759 63.8687 50.2677C64.6383 51.943 65.4335 53.6738 65.4335 57.4129C65.4335 59.3153 65.177 60.8745 64.9513 62.2521C64.6434 64.1242 64.3971 65.6027 64.9205 67.1215C65.7619 69.5689 69.5484 77.6729 69.9794 78.5913C69.9896 78.6114 69.9948 78.6569 69.9999 78.6821C70.0153 78.8082 69.9537 78.9243 69.846 78.9748C69.8101 78.9899 69.769 79 69.728 79H69.7228ZM30.524 10.5652C28.6 10.5652 27.0351 12.1042 27.0351 13.9965V44.6968L27.2044 44.8028C29.1695 46.0138 29.4312 47.7699 28.8411 48.8901C28.5282 49.4855 27.9433 49.9447 27.2403 50.1466L26.5015 50.3585L27.1429 50.7824C28.9694 51.9934 29.1952 53.6536 28.6154 54.7587C28.3537 55.2582 27.9022 55.6619 27.3481 55.8991L26.7837 56.1413L27.2711 56.5097C28.5538 57.4886 28.6769 58.7602 28.3896 59.5575C28.1947 60.0924 27.7842 60.5516 27.2301 60.8493L27.0402 60.9502V63.4934C27.0402 65.3857 28.6051 66.9247 30.5291 66.9247H52.8119C54.736 66.9247 56.3008 65.3857 56.3008 63.4934V13.9965C56.3008 12.1042 54.736 10.5652 52.8119 10.5652H30.524ZM23.0947 55.5358C22.5047 55.5358 21.9762 55.7174 21.576 56.0606C21.027 56.5298 20.7756 57.2666 20.9244 57.9831C21.1194 58.9166 21.93 59.6786 23.1511 60.0671C23.8592 60.2942 24.2029 60.385 24.5108 60.4658L24.6288 60.496C25.0033 60.597 25.3625 60.6474 25.7011 60.6474C26.9325 60.6474 27.6149 59.9864 27.8355 59.3657C28.169 58.4473 27.7329 57.1858 26.0141 56.439C25.3266 56.1413 24.8289 55.9344 24.3158 55.7527C23.8848 55.6014 23.4744 55.5257 23.0896 55.5257L23.0947 55.5358ZM22.833 49.6419C21.8839 49.6419 21.0886 50.086 20.7038 50.8278C20.1753 51.8521 20.5139 53.3458 22.4636 54.3651C23.0947 54.6931 23.3769 54.794 23.7001 54.905C23.9259 54.9807 24.1773 55.0715 24.5724 55.238C25.1111 55.4702 25.6344 55.5913 26.1218 55.5913C27.0095 55.5913 27.7483 55.1876 28.1023 54.5114C28.6 53.5627 28.3281 52.1448 26.599 51.1154C25.6498 50.5502 25.4241 50.4544 25.0854 50.3131C24.9418 50.2525 24.7827 50.1819 24.5467 50.0709C23.9567 49.7933 23.3769 49.647 22.8382 49.647L22.833 49.6419ZM23.2743 43.8238C22.3251 43.8238 21.5298 44.2679 21.145 45.0097C20.6166 46.034 20.9552 47.5276 22.9049 48.5469C23.5513 48.885 23.7514 48.9557 24.0234 49.0516C24.2081 49.1172 24.4236 49.1928 24.8032 49.3594C25.3471 49.5915 25.8653 49.7126 26.3527 49.7126C27.2403 49.7126 27.9792 49.3089 28.3332 48.6327C28.8309 47.6841 28.5589 46.2661 26.8299 45.2367L26.6708 45.1459L26.5426 45.1106C26.4964 45.1106 26.4605 45.0954 26.4348 45.0803C26.3476 45.0349 25.6703 44.6716 24.7006 44.1367C24.1722 43.9247 23.7053 43.8289 23.2692 43.8289L23.2743 43.8238ZM20.868 36.2648C19.9752 36.2648 19.2159 36.6786 18.8311 37.3749C18.2923 38.3539 18.5335 39.898 20.3395 40.9829C21.9454 41.9467 23.7104 42.9408 24.911 43.6018L24.9315 43.6119L24.9931 43.6371C25.0752 43.6724 25.1573 43.7027 25.2394 43.7431C25.4087 43.8238 25.5318 43.8793 25.6293 43.9247C25.7576 43.9803 25.8448 44.0206 25.9371 44.0711L26.4656 44.3385V38.7222L25.4446 38.1773C24.5005 37.6676 23.6796 37.2286 22.5457 36.6887C21.9608 36.4111 21.3964 36.2699 20.868 36.2699V36.2648Z" stroke="#161A1E" stroke-width="0.06" mask="url(#path-2-outside-1_2014_11492)"/>
<path d="M36.902 14.0167C36.902 14.1817 37.0372 14.3143 37.2043 14.3143H46.1318C46.2989 14.3143 46.4341 14.1817 46.4341 14.0167C46.4341 13.8518 46.2989 13.7191 46.1318 13.7191H37.2043C37.0372 13.7191 36.902 13.8518 36.902 14.0167Z" fill="#161A1E" stroke="#161A1E" stroke-width="0.03"/>
<path d="M32.4542 35.5921L32.4542 35.5921L32.4543 35.5923L34.8144 44.7911C34.8144 44.7911 34.8144 44.7912 34.8144 44.7912C34.8469 44.9244 34.9661 45.0145 35.106 45.0145H46.8041C46.939 45.0145 47.0577 44.9243 47.0955 44.7969L47.0956 44.7966L50.2325 33.4842H52.3607C52.5278 33.4842 52.663 33.3516 52.663 33.1866C52.663 33.0217 52.5278 32.8891 52.3607 32.8891H50.0005C49.8655 32.8891 49.7469 32.9793 49.7091 33.1067L49.709 33.1069L49.122 35.2203H32.7459C32.6539 35.2203 32.5676 35.2629 32.5084 35.337L32.5084 35.337L32.508 35.3375C32.4543 35.4114 32.4326 35.5016 32.4542 35.5921ZM47.7541 40.1501L46.572 44.4193H43.3627L43.8314 40.1501H47.7541ZM43.2266 40.1501L42.7579 44.4193H39.301L38.8271 40.1501H43.2266ZM34.248 40.1501H38.2223L38.6961 44.4193H35.3434L34.248 40.1501ZM48.9598 35.8105L47.9214 39.5549H43.9014L44.3137 35.8105H48.9598ZM43.7038 35.8105L43.2915 39.5549H38.7571L38.3448 35.8105H43.7038ZM33.1397 35.8105H37.7452L38.1574 39.5549H34.0966L33.1397 35.8105Z" fill="#161A1E" stroke="#161A1E" stroke-width="0.03"/>
<path d="M44.8034 47.997C44.8034 48.7271 45.4106 49.324 46.1523 49.324C46.8941 49.324 47.5013 48.7271 47.5013 47.997C47.5013 47.2669 46.8941 46.6701 46.1523 46.6701C45.4106 46.6701 44.8034 47.2669 44.8034 47.997Z" fill="#161A1E" stroke="#161A1E" stroke-width="0.03"/>
<path d="M34.5778 47.997C34.5778 48.7271 35.185 49.324 35.9268 49.324C36.6685 49.324 37.2758 48.7271 37.2758 47.997C37.2758 47.2669 36.6685 46.6701 35.9268 46.6701C35.185 46.6701 34.5778 47.2669 34.5778 47.997Z" fill="#161A1E" stroke="#161A1E" stroke-width="0.03"/>
</g>
<defs>
<clipPath id="clip0_2014_11492">
<rect width="52" height="69" fill="white" transform="translate(18 10)"/>
</clipPath>
</defs>
</svg>
