<svg width="88" height="88" viewBox="0 0 88 88" fill="none" xmlns="http://www.w3.org/2000/svg">
<g clip-path="url(#clip0_1939_18465)">
<path d="M44.2357 35.0283C47.913 35.0283 50.8899 38.0076 50.8899 41.685C50.8899 45.3623 47.913 48.3392 44.2357 48.3392C40.5583 48.3392 37.5814 45.3599 37.5814 41.685C37.5814 38.01 40.5607 35.0283 44.2357 35.0283Z" fill="#FDCECF"/>
<path d="M53.0576 68.5444C53.0576 68.5444 61.9079 64.4458 63.2354 53.9746L63.4034 53.9935L72.9352 66.4147L68.1693 73.0689L53.0576 68.5444Z" fill="#FDCECF"/>
<path d="M25.2361 53.9746C26.5636 64.4458 35.4162 68.5444 35.4162 68.5444L20.3021 73.0689L15.5363 66.4147L25.068 53.9935L25.2361 53.9746Z" fill="#FDCECF"/>
<path d="M57.0497 29.5885L56.9337 29.6453H31.5377L31.4218 29.5885C35.5274 21.1547 40.7382 14.1455 44.2357 14.1455C47.7332 14.1455 52.944 21.1547 57.0497 29.5885Z" fill="#FDCECF"/>
<path d="M63.4034 53.9927L72.9352 66.4138L68.1693 73.0681L53.0576 68.5436" stroke="#161A1E" stroke-width="0.7" stroke-linecap="round" stroke-linejoin="round"/>
<path d="M53.0575 68.5434C53.0575 68.5434 61.9078 64.4448 63.2354 53.9736C63.3442 53.1241 63.4034 52.2319 63.4034 51.2972C63.4034 45.4783 60.6513 36.9853 57.0496 29.588C52.944 21.1542 47.7332 14.145 44.2357 14.145C40.7382 14.145 35.5274 21.1542 31.4217 29.588C27.8201 36.9853 25.068 45.4783 25.068 51.2972C25.068 52.2319 25.1272 53.1241 25.236 53.9736C26.5635 64.4448 35.4162 68.5434 35.4162 68.5434" stroke="#161A1E" stroke-width="0.7" stroke-linecap="round" stroke-linejoin="round"/>
<path d="M45.5443 73.9843H53.0576V68.5439H45.5443" stroke="#161A1E" stroke-width="0.7" stroke-linecap="round" stroke-linejoin="round"/>
<path d="M42.9272 68.5439H35.4163V73.9843H42.9272" stroke="#161A1E" stroke-width="0.7" stroke-linecap="round" stroke-linejoin="round"/>
<path d="M37.5814 41.685C37.5814 45.3599 40.5607 48.3392 44.2357 48.3392C47.9107 48.3392 50.8899 45.3599 50.8899 41.685C50.8899 38.01 47.913 35.0283 44.2357 35.0283C40.5583 35.0283 37.5814 38.0076 37.5814 41.685Z" stroke="#161A1E" stroke-width="0.7" stroke-linecap="round" stroke-linejoin="round"/>
<path d="M31.5377 29.6455H56.9337" stroke="#161A1E" stroke-width="0.7" stroke-linecap="round" stroke-linejoin="round"/>
<path d="M25.068 53.9927L15.5363 66.4138L20.3021 73.0681L35.4162 68.5436" stroke="#161A1E" stroke-width="0.7" stroke-linecap="round" stroke-linejoin="round"/>
<path d="M42.9271 73.9839H45.5443V68.5436V53.9927H42.9271V68.5436V73.9839Z" stroke="#161A1E" stroke-width="0.7" stroke-linecap="round" stroke-linejoin="round"/>
</g>
<defs>
<clipPath id="clip0_1939_18465">
<rect width="59.5287" height="61.9684" fill="white" transform="translate(14.4713 13.0806)"/>
</clipPath>
</defs>
</svg>
