<svg width="88" height="88" viewBox="0 0 88 88" fill="none" xmlns="http://www.w3.org/2000/svg">
<g clip-path="url(#clip0_1939_18525)">
<path d="M54.0499 25.0214V48.0496H30.6794V16.4749H45.3763V24.784C45.3763 24.9146 45.4847 25.0214 45.6172 25.0214H54.0499ZM48.0266 33.3305C48.0266 33.1988 47.9181 33.0931 47.7856 33.0931H36.9437C36.8112 33.0931 36.7028 33.1988 36.7028 33.3305C36.7028 33.4623 36.8112 33.5679 36.9437 33.5679H47.7856C47.9181 33.5679 48.0266 33.4611 48.0266 33.3305ZM48.0266 39.7404C48.0266 39.6087 47.9181 39.503 47.7856 39.503H36.9437C36.8112 39.503 36.7028 39.6087 36.7028 39.7404C36.7028 39.8722 36.8112 39.9778 36.9437 39.9778H47.7856C47.9181 39.9778 48.0266 39.871 48.0266 39.7404ZM41.5214 26.9206C41.5214 26.7889 41.413 26.6832 41.2805 26.6832H36.9437C36.8112 26.6832 36.7028 26.7889 36.7028 26.9206C36.7028 27.0524 36.8112 27.158 36.9437 27.158H41.2805C41.413 27.158 41.5214 27.0512 41.5214 26.9206Z" fill="#FDCECF"/>
<path d="M66.0399 52.052C66.6844 52.6859 67.0253 53.5299 66.9988 54.4261C66.9723 55.3235 66.5832 56.1461 65.9038 56.7431L54.0162 67.1865C53.3753 67.7492 52.5501 68.059 51.6912 68.059H37.7075L32.3515 71.9536C32.3106 71.9845 32.2612 71.9999 32.2094 71.9999H21.2409C21.1084 71.9999 21 71.8931 21 71.7625V62.9904C21 62.9168 21.0361 62.8456 21.0952 62.8017L31.7046 54.8142C32.3106 54.3584 33.0635 54.1068 33.8248 54.1068H51.3045C52.8416 54.1068 54.1354 55.289 54.2475 56.7989L54.3559 58.24L61.5441 51.925C62.144 51.398 62.9186 51.1072 63.7233 51.1072C64.5991 51.1072 65.4219 51.4431 66.0399 52.052ZM66.5169 54.413C66.5386 53.6474 66.2495 52.9281 65.7002 52.388C65.1725 51.8681 64.4702 51.582 63.7233 51.582C63.0367 51.582 62.3765 51.8289 61.8645 52.2788L54.0162 59.1742C53.3753 59.7368 52.5501 60.0466 51.6912 60.0466H40.4673C40.3336 60.0466 40.2264 59.9398 40.2264 59.8092C40.2264 59.6786 40.3336 59.5718 40.4673 59.5718H51.1792C52.6103 59.5718 53.774 58.4251 53.774 57.015C53.774 55.6048 52.6657 54.5816 51.3045 54.5816H33.8248C33.1683 54.5816 32.519 54.7988 31.9974 55.1917L21.4819 63.1079V71.5251H32.1299L37.4846 67.6305C37.5268 67.5996 37.5761 67.5842 37.6279 67.5842H51.6912C52.4308 67.5842 53.1428 67.3171 53.6957 66.8316L65.5833 56.3894C66.1628 55.8802 66.494 55.1775 66.5169 54.413Z" fill="#161A1E"/>
<path d="M54.5318 24.7839V48.2869C54.5318 48.4175 54.4234 48.5243 54.2909 48.5243H30.4386C30.3061 48.5243 30.1976 48.4175 30.1976 48.2869V16.2374C30.1976 16.1056 30.3061 16 30.4386 16H45.6173C45.6257 16 45.633 16 45.6414 16.0012C45.6414 16.0012 45.6691 16.0059 45.6739 16.0059C45.6775 16.0071 45.6944 16.0119 45.6944 16.0119C45.7004 16.0142 45.7149 16.0202 45.7149 16.0202C45.7185 16.0226 45.7354 16.0309 45.7354 16.0309L45.7558 16.0427C45.7558 16.0427 45.7715 16.0558 45.7763 16.0594C45.7787 16.0605 45.7956 16.0772 45.7956 16.0772L45.8028 16.0831L54.4475 24.6023L54.4728 24.6273L54.4908 24.6534L54.5017 24.67C54.5017 24.67 54.5065 24.6771 54.5089 24.6819C54.5089 24.6819 54.5173 24.7032 54.5185 24.7068C54.5197 24.7092 54.5234 24.7234 54.5246 24.7282C54.5258 24.7317 54.5318 24.7661 54.5318 24.7661V24.7839ZM54.0499 48.0495V25.0213H45.6173C45.4848 25.0213 45.3764 24.9145 45.3764 24.7839V16.4748H30.6795V48.0495H54.0499ZM53.709 24.5465L45.8582 16.8095V24.5465H53.709Z" fill="#161A1E"/>
<path d="M47.7856 33.093C47.9182 33.093 48.0266 33.1987 48.0266 33.3304C48.0266 33.4622 47.9182 33.5678 47.7856 33.5678H36.9437C36.8112 33.5678 36.7028 33.461 36.7028 33.3304C36.7028 33.1998 36.8112 33.093 36.9437 33.093H47.7856Z" fill="#161A1E"/>
<path d="M47.7856 39.5029C47.9182 39.5029 48.0266 39.6086 48.0266 39.7403C48.0266 39.8721 47.9182 39.9777 47.7856 39.9777H36.9437C36.8112 39.9777 36.7028 39.8709 36.7028 39.7403C36.7028 39.6098 36.8112 39.5029 36.9437 39.5029H47.7856Z" fill="#161A1E"/>
<path d="M41.2805 26.6831C41.413 26.6831 41.5214 26.7888 41.5214 26.9205C41.5214 27.0523 41.413 27.1579 41.2805 27.1579H36.9437C36.8112 27.1579 36.7028 27.0511 36.7028 26.9205C36.7028 26.7899 36.8112 26.6831 36.9437 26.6831H41.2805Z" fill="#161A1E"/>
</g>
<defs>
<clipPath id="clip0_1939_18525">
<rect width="46" height="56" fill="white" transform="translate(21 16)"/>
</clipPath>
</defs>
</svg>
