<svg width="88" height="88" viewBox="0 0 88 88" fill="none" xmlns="http://www.w3.org/2000/svg">
<path d="M59.8559 29.4417C57.6513 22.6363 50.9282 17.8805 43.5 17.8805C43.2815 17.8805 43.1028 18.0596 43.1028 18.2785C43.1028 18.4974 43.2815 18.6765 43.5 18.6765C50.5905 18.6765 57.0058 23.2034 59.1012 29.6905C59.1508 29.8496 59.2998 29.969 59.4785 29.969C59.5182 29.969 59.558 29.9591 59.5977 29.9491C59.697 29.9093 59.7764 29.8397 59.8261 29.7501C59.8758 29.6507 59.8857 29.5412 59.8559 29.4417ZM43.5 15.0449C53.5499 15.0449 63.9573 22.4473 63.9573 34.8343C63.9573 42.7142 59.9254 46.107 56.3801 49.1018C54.0464 51.0817 52.0305 52.783 52.0305 55.3699V58.0264H34.9596V55.3699C34.9596 52.783 32.9436 51.0817 30.6099 49.1018C27.0647 46.107 23.0427 42.7142 23.0427 34.8343C23.0427 22.4473 33.4402 15.0449 43.5 15.0449Z" fill="#FDCECF"/>
<path d="M43.5 17.8804C50.9282 17.8804 57.6513 22.6362 59.8559 29.4416C59.8857 29.5411 59.8758 29.6505 59.8261 29.75C59.7765 29.8396 59.697 29.9092 59.5977 29.949C59.558 29.949 59.5183 29.9689 59.4785 29.9689C59.2998 29.9689 59.1508 29.8495 59.1012 29.6903C57.0058 23.2033 50.5905 18.6763 43.5 18.6763C43.2815 18.6763 43.1028 18.4972 43.1028 18.2783C43.1028 18.0595 43.2815 17.8804 43.5 17.8804Z" fill="#161A1E"/>
<path d="M52.4277 61.5083C52.6462 61.5083 52.825 61.6874 52.825 61.9063C52.825 62.1252 52.6462 62.3043 52.4277 62.3043H34.5624C34.3439 62.3043 34.1652 62.1252 34.1652 61.9063C34.1652 61.6874 34.3439 61.5083 34.5624 61.5083H52.4277Z" fill="#161A1E"/>
<path d="M52.4277 64.9907C52.6462 64.9907 52.825 65.1698 52.825 65.3887C52.825 65.6076 52.6462 65.7867 52.4277 65.7867H34.5624C34.3439 65.7867 34.1652 65.6076 34.1652 65.3887C34.1652 65.1698 34.3439 64.9907 34.5624 64.9907H52.4277Z" fill="#161A1E"/>
<path d="M52.4277 68.4731C52.6462 68.4731 52.825 68.6522 52.825 68.8711C52.825 69.09 52.6462 69.2691 52.4277 69.2691H34.5624C34.3439 69.2691 34.1652 69.09 34.1652 68.8711C34.1652 68.6522 34.3439 68.4731 34.5624 68.4731H52.4277Z" fill="#161A1E"/>
<path d="M50.6501 71.9551C50.8686 71.9551 51.0474 72.1342 51.0474 72.3531C51.0474 72.5719 50.8686 72.751 50.6501 72.751H36.34C36.1215 72.751 35.9427 72.5719 35.9427 72.3531C35.9427 72.1342 36.1215 71.9551 36.34 71.9551H50.6501Z" fill="#161A1E"/>
<path d="M43.5 14.2485C53.9471 14.2485 64.7518 21.9494 64.7518 34.8339C64.7518 43.0819 60.2035 46.9124 56.8866 49.7182C54.6224 51.6285 52.825 53.1507 52.825 55.3694V58.4239C52.825 58.6428 52.6462 58.8219 52.4277 58.8219H34.5624C34.3439 58.8219 34.1652 58.6428 34.1652 58.4239V55.3694C34.1652 53.1507 32.3776 51.6285 30.1035 49.7182C26.7866 46.9124 22.2483 43.0819 22.2483 34.8339C22.2483 21.9494 33.0529 14.2485 43.5 14.2485ZM63.9573 34.8339C63.9573 22.4468 53.5499 15.0445 43.5 15.0445C33.4501 15.0445 23.0427 22.4468 23.0427 34.8339C23.0427 42.7138 27.0647 46.1065 30.61 49.1013C32.9437 51.0812 34.9596 52.7826 34.9596 55.3694V58.0259H52.0305V55.3694C52.0305 52.7826 54.0464 51.0812 56.3802 49.1013C59.9254 46.1065 63.9573 42.7138 63.9573 34.8339Z" fill="#161A1E"/>
</svg>
