<svg width="88" height="88" viewBox="0 0 88 88" fill="none" xmlns="http://www.w3.org/2000/svg">
<g clip-path="url(#clip0_2014_15414)">
<ellipse cx="40" cy="28.5" rx="2" ry="2.5" fill="#FDCECF"/>
<ellipse cx="58" cy="17.5" rx="2" ry="2.5" fill="#FDCECF"/>
<path d="M50 58H39L32 65H57L50 58Z" fill="#FDCECF"/>
<g clip-path="url(#clip1_2014_15414)">
<path d="M31.1459 46.1036H31.1209C29.7251 46.1036 28.5873 44.9916 28.5873 43.625C28.5873 42.2585 29.7251 41.1465 31.1209 41.1465C31.2673 41.1465 31.4193 41.1602 31.5697 41.1864L31.5698 41.1864L32.1338 41.2856L38.4751 30.4005L38.0996 29.9765L38.0996 29.9765C37.7012 29.5263 37.4815 28.9506 37.4815 28.3569C37.4815 26.989 38.6193 25.8784 40.0151 25.8784C41.4109 25.8784 42.5486 26.989 42.5486 28.3569C42.5486 28.7288 42.4656 29.0869 42.3022 29.4216L42.3022 29.4216L42.0551 29.9274L49.5778 37.2689L50.0958 37.0255C50.0958 37.0255 50.0958 37.0255 50.0958 37.0254C50.3998 36.8823 50.7264 36.8011 51.0656 36.7859M31.1459 46.1036L51.0667 36.8109M31.1459 46.1036V46.1021V46.1036ZM51.0656 36.7859L51.0667 36.8109M51.0656 36.7859L51.0655 36.7859L51.0667 36.8109M51.0656 36.7859L51.6388 36.7595M51.0667 36.8109L51.6576 36.7836M51.6388 36.7595L51.6337 36.7763L51.6576 36.7836M51.6388 36.7595L51.6564 36.7587L51.6576 36.7836M51.6388 36.7595L51.6576 36.7836M49.8491 37.9113L49.8485 37.9119L49.8342 37.9246L49.8239 37.9359L49.8224 37.9376L49.8223 37.9376L49.8024 37.9557L49.795 37.9642L49.794 37.9653L49.794 37.9652C49.4529 38.3123 49.2618 38.7763 49.2618 39.2631C49.2618 40.3011 50.1253 41.1465 51.1879 41.1465C52.2505 41.1465 53.114 40.3011 53.114 39.2631C53.114 38.4308 52.5671 37.7084 51.7538 37.4633C51.7537 37.4633 51.7536 37.4633 51.7535 37.4632L51.7054 37.4498C51.536 37.404 51.3612 37.3798 51.1879 37.3798V37.3548L49.8491 37.9113ZM49.8491 37.9113C50.2109 37.5682 50.687 37.3798 51.1893 37.3798V37.3548M49.8491 37.9113L51.1893 37.3548M51.1893 37.3548C51.3645 37.3549 51.541 37.3794 51.7119 37.4257M51.1893 37.3548L51.7119 37.4257M51.7119 37.4257L51.7607 37.4393C52.5844 37.6874 53.139 38.4194 53.139 39.2631C53.139 40.3154 52.2638 41.1715 51.1879 41.1715C50.112 41.1715 49.2368 40.3154 49.2368 39.2631L51.7119 37.4257ZM31.1209 46.0786C31.1125 46.0786 31.1042 46.0786 31.0959 46.0785V46.0786H31.1209ZM56.8462 19.7833L56.8608 19.7938L56.8754 19.7735L56.8515 19.7662L56.8462 19.7833ZM56.3842 19.4517L56.3842 19.4517L56.3988 19.4313L56.3842 19.4517ZM57.4265 19.9544L57.4317 19.9376L57.4078 19.9302L57.4089 19.9552L57.4265 19.9544ZM52.2191 36.9306L52.2045 36.9201L52.19 36.9404L52.2139 36.9477L52.2191 36.9306ZM52.6811 37.2622L52.6666 37.2825L52.6812 37.2622C52.6812 37.2622 52.6811 37.2622 52.6811 37.2622ZM32.6518 41.5957L32.6609 41.5801L32.6489 41.5665L32.6302 41.5831L32.6518 41.5957ZM38.985 30.6934L39.0022 30.6964L39.011 30.6813L38.9894 30.6688L38.985 30.6934ZM41.0966 30.5706L41.1072 30.5932L41.1072 30.5932L41.0966 30.5706ZM49.1479 37.6913L49.1608 37.7039L49.1783 37.686L49.1558 37.675L49.1479 37.6913ZM31.1209 41.7417H31.1459V41.7405C31.4566 41.7445 31.764 41.8236 32.0374 41.9678L32.049 41.9457L32.0374 41.9678L32.0548 41.977L32.0875 41.997L32.0882 41.9974C32.6799 42.3352 33.047 42.9582 33.047 43.625C33.047 44.663 32.1835 45.5084 31.1209 45.5084C30.0583 45.5084 29.1948 44.663 29.1948 43.625C29.1948 42.5871 30.0583 41.7417 31.1209 41.7417ZM57.3478 19.2628L57.3477 19.2628L57.3049 19.2507C57.3049 19.2506 57.3048 19.2506 57.3047 19.2506C56.4956 19.0042 55.9527 18.2818 55.9527 17.4535C55.9527 16.4155 56.8162 15.5701 57.8788 15.5701C58.9414 15.5701 59.8049 16.4155 59.8049 17.4535C59.8049 18.4915 58.9414 19.3368 57.8788 19.3368C57.6985 19.3368 57.5141 19.3112 57.3478 19.2628ZM41.6303 30.3198L41.6129 30.3377L41.6253 30.3498L41.641 30.3424L41.6303 30.3198ZM38.0904 28.3583C38.0904 27.3203 38.9539 26.475 40.0165 26.475C41.0791 26.475 41.9426 27.3203 41.9426 28.3583C41.9426 29.3963 41.0791 30.2416 40.0165 30.2416C39.6973 30.2416 39.3809 30.1636 39.1017 30.0157C39.1016 30.0156 39.1015 30.0156 39.1014 30.0156L39.0825 30.005L39.0824 30.0049L39.0464 29.9846C39.0464 29.9846 39.0464 29.9846 39.0463 29.9846C38.4574 29.6467 38.0904 29.0238 38.0904 28.3583Z" fill="#161A1E" stroke="#161A1E" stroke-width="0.05"/>
<path d="M15.975 52.2808C15.975 52.445 16.1121 52.5784 16.2787 52.5784H72.7213C72.8879 52.5784 73.025 52.445 73.025 52.2808V19.1574C73.025 18.9931 72.8879 18.8598 72.7213 18.8598H65.4033C65.2367 18.8598 65.0995 18.9931 65.0995 19.1574C65.0995 19.3217 65.2367 19.455 65.4033 19.455H72.4175V51.9831H16.5825V19.455H50.3547C50.5213 19.455 50.6584 19.3217 50.6584 19.1574C50.6584 18.9931 50.5213 18.8598 50.3547 18.8598H16.2787C16.1121 18.8598 15.975 18.9931 15.975 19.1574V52.2808Z" fill="#161A1E" stroke="#161A1E" stroke-width="0.05"/>
<path d="M65.1955 73.0249H65.2568L65.2503 73.0185C65.3103 73.0076 65.3653 72.9792 65.4094 72.936C65.5282 72.8199 65.5282 72.6306 65.4094 72.5145L57.9437 65.2123L57.9441 65.212L57.9397 65.2092L57.8715 65.1656L57.827 65.1003L57.8274 65.1L57.8238 65.0965L50.8786 58.3034H68.9583C69.1249 58.3034 69.262 58.17 69.262 58.0058C69.262 57.8415 69.1249 57.7082 68.9583 57.7082H20.0414C19.8748 57.7082 19.7377 57.8415 19.7377 58.0058C19.7377 58.17 19.8748 58.3034 20.0414 58.3034H38.1226L23.5905 72.517C23.5905 72.517 23.5904 72.5171 23.5904 72.5171C23.5325 72.5723 23.5005 72.6469 23.5005 72.7273C23.5005 72.8079 23.5341 72.8838 23.5903 72.9387C23.6466 72.9938 23.7226 73.0249 23.8043 73.0249C23.886 73.0249 23.962 72.9937 24.0196 72.9373L31.4558 65.6641H57.5439L64.9815 72.9387C65.0378 72.9938 65.1152 73.0249 65.1955 73.0249ZM56.9353 65.0689H32.0644L38.9815 58.3034H50.0182L56.9353 65.0689Z" fill="#161A1E" stroke="#161A1E" stroke-width="0.05"/>
</g>
</g>
<defs>
<clipPath id="clip0_2014_15414">
<rect width="57" height="58" fill="white" transform="translate(16 15)"/>
</clipPath>
<clipPath id="clip1_2014_15414">
<rect width="57" height="58" fill="white" transform="translate(16 15)"/>
</clipPath>
</defs>
</svg>
