<svg width="88" height="88" viewBox="0 0 88 88" fill="none" xmlns="http://www.w3.org/2000/svg">
<g clip-path="url(#clip0_2014_15854)">
<path d="M42.0769 68.824C54.1687 68.824 63.9711 59.0728 63.9711 47.0441C63.9711 35.0154 54.1687 25.2642 42.0769 25.2642C29.985 25.2642 20.1826 35.0154 20.1826 47.0441C20.1826 59.0728 29.985 68.824 42.0769 68.824Z" fill="#FDCECF" stroke="#161A1E" stroke-width="0.7" stroke-linecap="round" stroke-linejoin="round"/>
<path d="M56.5486 50.4398C58.4351 42.4885 53.4848 34.5214 45.4918 32.6447C37.4988 30.768 29.4899 35.6925 27.6033 43.6437C25.7168 51.595 30.6671 59.5621 38.6601 61.4388C46.6531 63.3154 54.662 58.391 56.5486 50.4398Z" fill="white" stroke="#161A1E" stroke-width="0.7" stroke-linecap="round" stroke-linejoin="round"/>
<path d="M48.9893 48.161C49.6091 44.3627 47.0162 40.7837 43.198 40.1672C39.3798 39.5506 35.782 42.13 35.1623 45.9282C34.5425 49.7265 37.1353 53.3055 40.9536 53.922C44.7718 54.5386 48.3695 51.9593 48.9893 48.161Z" fill="#FDCECF" stroke="#161A1E" stroke-width="0.7" stroke-linecap="round" stroke-linejoin="round"/>
<path d="M51.1953 39.4499C51.6074 39.1076 51.9215 31.0297 51.9215 31.0297L65.6074 19.1765L66.7478 26.4962L73.8198 29.3122L60.456 40.9584L51.1953 39.4499Z" fill="white" stroke="#161A1E" stroke-width="0.7" stroke-linecap="round" stroke-linejoin="round"/>
<path d="M42.0762 47.0436L70.9204 23.0188" stroke="#161A1E" stroke-width="0.7" stroke-linecap="round" stroke-linejoin="round"/>
<path d="M61.0996 24.46V31.1985L68.1836 32.2513" stroke="#161A1E" stroke-width="0.7" stroke-linecap="round" stroke-linejoin="round"/>
<path d="M56.499 28.4746V35.2132L63.583 36.264" stroke="#161A1E" stroke-width="0.7" stroke-linecap="round" stroke-linejoin="round"/>
</g>
<defs>
<clipPath id="clip0_2014_15854">
<rect width="56" height="52" fill="white" transform="translate(19 18)"/>
</clipPath>
</defs>
</svg>
