<svg width="88" height="88" viewBox="0 0 88 88" fill="none" xmlns="http://www.w3.org/2000/svg">
<rect x="31" y="26.5" width="27" height="3.5" fill="#FDCECF"/>
<rect x="31" y="36" width="27" height="3.5" fill="#FDCECF"/>
<rect x="31" y="45" width="27" height="3.5" fill="#FDCECF"/>
<rect x="31" y="54.5" width="27" height="3.5" fill="#FDCECF"/>
<rect x="37" y="62.3999" width="6.5" height="8.6" fill="#FDCECF"/>
<rect x="46" y="62.3999" width="6" height="8.6" fill="#FDCECF"/>
<path d="M63.836 21.1397H58.3455V17.167C58.3455 17.0477 58.2508 16.95 58.1315 16.95H30.8697C30.7505 16.95 30.6557 17.0477 30.6557 17.167V21.1397H25.164C25.0447 21.1397 24.95 21.2374 24.95 21.3567V70.833C24.95 70.935 25.0193 71.0213 25.114 71.0441V71.0513H25.164H63.836C63.9553 71.0513 64.05 70.9536 64.05 70.8343V21.3567C64.05 21.2374 63.9553 21.1397 63.836 21.1397ZM25.3781 70.6161V21.5737H30.8685C30.9878 21.5737 31.0825 21.4759 31.0825 21.3567V17.3839H57.9175V21.3567C57.9175 21.4759 58.0122 21.5737 58.1315 21.5737H63.6219V70.6161H25.3781Z" fill="#161A1E" stroke="#161A1E" stroke-width="0.1"/>
<path d="M30.7179 57.9376C30.7179 58.0194 30.7837 58.0889 30.8683 58.0889H58.1301C58.2148 58.0889 58.2806 58.0194 58.2806 57.9376V54.2218C58.2806 54.14 58.2148 54.0704 58.1301 54.0704H30.8683C30.7837 54.0704 30.7179 54.14 30.7179 54.2218V57.9376ZM57.9796 54.3732V57.7862H31.0188V54.3732H57.9796Z" fill="#161A1E" stroke="#161A1E" stroke-width="0.2"/>
<path d="M30.7179 48.7054C30.7179 48.7872 30.7837 48.8568 30.8683 48.8568H58.1301C58.2148 48.8568 58.2806 48.7872 58.2806 48.7054V44.9896C58.2806 44.9078 58.2148 44.8382 58.1301 44.8382H30.8683C30.7837 44.8382 30.7179 44.9078 30.7179 44.9896V48.7054ZM57.9796 45.141V48.554H31.0188V45.141H57.9796Z" fill="#161A1E" stroke="#161A1E" stroke-width="0.2"/>
<path d="M30.7179 39.4732C30.7179 39.555 30.7837 39.6246 30.8683 39.6246H58.1301C58.2148 39.6246 58.2806 39.555 58.2806 39.4732V35.7574C58.2806 35.6756 58.2148 35.6061 58.1301 35.6061H30.8683C30.7837 35.6061 30.7179 35.6756 30.7179 35.7574V39.4732ZM57.9796 35.9101V39.3218H31.0188V35.9101H57.9796Z" fill="#161A1E" stroke="#161A1E" stroke-width="0.2"/>
<path d="M30.7179 30.2408C30.7179 30.3226 30.7837 30.3922 30.8683 30.3922H58.1301C58.2148 30.3922 58.2806 30.3226 58.2806 30.2408V26.525C58.2806 26.4432 58.2148 26.3736 58.1301 26.3736H30.8683C30.7837 26.3736 30.7179 26.4432 30.7179 26.525V30.2408ZM57.9796 26.6777V30.0894H31.0188V26.6777H57.9796Z" fill="#161A1E" stroke="#161A1E" stroke-width="0.2"/>
<path d="M36.878 70.833C36.878 70.9148 36.9438 70.9844 37.0285 70.9844H43.3411C43.4258 70.9844 43.4916 70.9148 43.4916 70.833V62.3329C43.4916 62.2511 43.4258 62.1815 43.3411 62.1815H37.0285C36.9438 62.1815 36.878 62.2511 36.878 62.3329V70.833ZM43.1907 62.4842V70.6817H37.179V62.4842H43.1907Z" fill="#161A1E" stroke="#161A1E" stroke-width="0.2"/>
<path d="M45.5084 70.833C45.5084 70.9148 45.5742 70.9844 45.6589 70.9844H51.9715C52.0561 70.9844 52.122 70.9148 52.122 70.833V62.3329C52.122 62.2511 52.0562 62.1815 51.9715 62.1815H45.6589C45.5742 62.1815 45.5084 62.2511 45.5084 62.3329V70.833ZM51.821 62.4842V70.6817H45.8093V62.4842H51.821Z" fill="#161A1E" stroke="#161A1E" stroke-width="0.2"/>
</svg>
