<svg width="88" height="88" viewBox="0 0 88 88" fill="none" xmlns="http://www.w3.org/2000/svg">
<g clip-path="url(#clip0_2014_15345)">
<path d="M71.8903 36.3927C71.8903 40.6853 70.686 44.9087 68.4049 48.6042C66.827 51.1616 65.9919 53.9397 65.9919 56.6355V75.5499C65.9919 75.736 65.8336 75.8918 65.6402 75.8918H40.3543C40.1873 75.8918 40.0423 75.7706 40.0115 75.6062L38.9698 69.7947H33.3087C27.7619 69.7947 23.2524 65.3506 23.2524 59.894V55.8739H18.1627C17.4814 55.8739 16.8441 55.5407 16.4617 54.9825C16.0793 54.42 16.0046 53.7146 16.2595 53.0915L21.0811 41.4036L21.0591 41.2911C20.7031 39.6597 20.5229 38.0111 20.5229 36.3927C20.5229 22.9998 32.0473 12.1082 46.2088 12.1082C60.3703 12.1082 71.8903 22.9998 71.8903 36.3927ZM67.8071 48.245C70.0223 44.6577 71.1915 40.5598 71.1915 36.3927C71.1915 23.3806 59.9835 12.7962 46.2088 12.7962C32.4341 12.7962 21.2218 23.3806 21.2218 36.3927C21.2218 38.0327 21.4151 39.703 21.7887 41.3604C21.8063 41.4253 21.7975 41.4988 21.7712 41.5637L16.91 53.3468C16.7342 53.7666 16.7825 54.2209 17.0419 54.5974C17.2968 54.9696 17.7055 55.1859 18.1627 55.1859H23.604C23.7974 55.1859 23.9512 55.3417 23.9512 55.5321V59.894C23.9512 64.9741 28.1487 69.1067 33.3087 69.1067H39.2643C39.4357 69.1067 39.5807 69.2235 39.6071 69.3879L40.6488 75.2038H65.293V56.6355C65.293 53.8142 66.1633 50.9106 67.8071 48.245Z" fill="#161A1E"/>
<path d="M71.8903 36.3927C71.8903 40.6853 70.686 44.9087 68.4049 48.6042C66.827 51.1616 65.9919 53.9397 65.9919 56.6355V75.5499C65.9919 75.736 65.8336 75.8918 65.6402 75.8918H40.3543C40.1873 75.8918 40.0423 75.7706 40.0115 75.6062L38.9698 69.7947H33.3087C27.7619 69.7947 23.2524 65.3506 23.2524 59.894V55.8739H18.1627C17.4814 55.8739 16.8441 55.5407 16.4617 54.9825C16.0793 54.42 16.0046 53.7146 16.2595 53.0915L21.0811 41.4036L21.0591 41.2911C20.7031 39.6597 20.5229 38.0111 20.5229 36.3927C20.5229 22.9998 32.0473 12.1082 46.2088 12.1082C60.3703 12.1082 71.8903 22.9998 71.8903 36.3927ZM67.8071 48.245C70.0223 44.6577 71.1915 40.5598 71.1915 36.3927C71.1915 23.3806 59.9835 12.7962 46.2088 12.7962C32.4341 12.7962 21.2218 23.3806 21.2218 36.3927C21.2218 38.0327 21.4151 39.703 21.7887 41.3604C21.8063 41.4253 21.7975 41.4988 21.7712 41.5637L16.91 53.3468C16.7342 53.7666 16.7825 54.2209 17.0419 54.5974C17.2968 54.9696 17.7055 55.1859 18.1627 55.1859H23.604C23.7974 55.1859 23.9512 55.3417 23.9512 55.5321V59.894C23.9512 64.9741 28.1487 69.1067 33.3087 69.1067H39.2643C39.4357 69.1067 39.5807 69.2235 39.6071 69.3879L40.6488 75.2038H65.293V56.6355C65.293 53.8142 66.1633 50.9106 67.8071 48.245Z" stroke="#161A1E"/>
<path d="M65.0731 42.2606C65.0731 42.9443 64.5105 43.5025 63.8161 43.5025C63.693 43.5025 63.5699 43.4808 63.4249 43.4332L63.1919 43.3554L59.8428 47.1547C59.7285 47.2845 59.5702 47.384 59.39 47.4403L59.3373 47.4576C59.2406 47.4835 59.1571 47.4965 59.0824 47.4965H54.4893L55.6892 51.2785C55.7596 51.5036 55.7156 51.7502 55.575 51.9363C55.4343 52.1267 55.2058 52.2435 54.9684 52.2435H51.3775L51.3028 52.5118C51.1489 53.0441 50.6523 53.4162 50.0985 53.4162C49.404 53.4162 48.837 52.858 48.837 52.1743C48.837 51.8108 48.9996 51.5425 49.1403 51.3824L49.3249 51.166L45.167 45.2983L44.9296 45.3459C44.8417 45.3589 44.7626 45.3675 44.6879 45.3675C44.178 45.3675 43.7209 45.0689 43.5275 44.6059L43.4309 44.3809H34.6623C34.4469 44.3809 34.236 44.3117 34.0646 44.1905L29.8539 41.1355L29.6385 41.261C29.4363 41.3778 29.221 41.4384 28.9968 41.4384C28.3024 41.4384 27.7398 40.8802 27.7398 40.1965C27.7398 39.7984 27.942 39.4176 28.276 39.1839L28.4386 39.0757V29.0278L28.2364 28.924C27.8145 28.7076 27.5508 28.2879 27.5508 27.8292C27.5508 27.1455 28.1178 26.5873 28.8122 26.5873C28.8913 26.5873 28.9704 26.5959 29.0452 26.6132L29.1858 26.6392L37.7126 21.4898C37.8533 21.4075 38.0115 21.3599 38.1785 21.3513H38.2313L53.3026 21.347L53.3993 21.1219C53.5927 20.6589 54.0498 20.3604 54.5597 20.3604C55.2541 20.3604 55.8167 20.9142 55.8167 21.5979L55.8079 21.6715L55.7991 21.8403L63.9611 29.876C64.1369 30.0491 64.238 30.2741 64.2468 30.5251L64.2556 30.5986V41.0879L64.4402 41.1917C64.8358 41.4167 65.0731 41.8192 65.0731 42.2606ZM63.7413 41.7283V30.9015L57.7814 32.3598L57.7462 32.6021C57.7198 32.7579 57.6671 32.9094 57.5792 33.0478L57.4517 33.2556L63.7413 41.7283ZM57.6583 31.8665L63.7413 30.3779L55.5969 22.3595L55.3112 22.5846C55.2893 22.6062 55.2673 22.6235 55.2409 22.6408L55.0299 22.7706L56.5419 31.1482L56.7836 31.2044C57.0693 31.265 57.3287 31.4338 57.5089 31.6718L57.6583 31.8665ZM63.0821 41.7023L57.0386 33.5585L56.7968 33.6147C56.7441 33.6277 56.687 33.632 56.6342 33.6364L56.3881 33.6623L54.8761 38.5218L63.0821 41.7023ZM62.8008 43.0265L62.6909 42.8058C62.6074 42.6414 62.5634 42.4639 62.559 42.2865V42.0442L55.1222 39.1622L59.39 46.8907L62.8008 43.0265ZM58.8582 46.9859L54.5684 39.2228L51.8522 44.6449L54.2432 46.9859H58.8582ZM56.0321 31.2391L54.5245 22.8615L54.2827 22.8052C54.1377 22.775 54.0058 22.7187 53.8828 22.6408L53.6938 22.524L46.1867 26.5397L55.5354 31.5939L55.7288 31.4424C55.7815 31.4035 55.7991 31.3862 55.8255 31.3689L56.0321 31.2391ZM54.3619 38.4396L55.8958 33.5109L55.7024 33.3551C55.5398 33.2209 55.4211 33.0652 55.3464 32.8877L55.2497 32.6627H44.5033L44.411 32.8877C44.3758 32.9656 44.3363 33.0392 44.2835 33.1128L44.1385 33.3161L47.9712 39.2272L54.3619 38.4396ZM55.2893 51.7329L53.9092 47.3754L51.7071 45.2161L50.6127 51.0232L50.8149 51.1574C50.9599 51.2569 51.0786 51.3911 51.1753 51.5512L51.2852 51.7329H55.2893ZM54.0454 32.1564L54.2256 31.4641L45.7779 26.8988L43.9539 31.3559L44.1341 31.529C44.2528 31.6458 44.3451 31.78 44.411 31.9314L44.5033 32.1564H54.0454ZM51.5005 44.1992L54.1157 38.9805L48.2964 39.6988L51.5005 44.1992ZM52.573 22.5456L52.3972 21.8533H39.0795L45.6593 26.2411L52.573 22.5456ZM50.0413 51.2872L51.2368 44.9261L45.9142 44.4848L45.7735 44.7487C45.7603 44.7704 45.7516 44.792 45.7384 44.8093L45.5977 45.017L50.0413 51.2872ZM51.0127 44.3982L47.8437 39.9455L45.5977 43.2428L45.7384 43.4462C45.7911 43.5284 45.8351 43.6236 45.879 43.7491L45.9537 43.9785L51.0127 44.3982ZM47.5316 39.4954L43.7034 33.5888L43.4572 33.6277C43.3913 33.6407 43.321 33.6493 43.2463 33.6493C43.1496 33.6493 43.0441 33.632 42.9166 33.6017L42.6749 33.5368L38.5917 38.643L43.7165 43.2861L43.9627 43.1174C44.178 42.9659 44.4286 42.888 44.6879 42.888C44.7626 42.888 44.8417 42.8967 44.9296 42.914L45.1714 42.9572L47.5316 39.4954ZM43.4748 31.1698L45.3296 26.6349L38.4027 22.0134L35.5018 33.5974L41.9628 32.3901L42.0156 32.1521C42.1386 31.5852 42.6353 31.1828 43.2287 31.1741H43.4748V31.1698ZM35.1326 43.8746H43.6023L38.2928 39.0627L35.1326 43.8746ZM38.2664 38.2319L42.6177 32.7839L35.5809 34.0994L38.2664 38.2319ZM37.9368 38.6689L35.115 34.3287L30.0561 39.4868L30.1572 39.7118C30.2231 39.8633 30.2583 40.0277 30.2583 40.1965C30.2583 40.2873 30.2451 40.3825 30.2187 40.4864L30.1616 40.7244L34.5129 43.8833L37.9368 38.6689ZM35.0139 33.4243L37.8752 21.9917L29.722 26.9118L29.9022 27.219C30.0165 27.4138 30.0737 27.6171 30.0737 27.8292C30.0737 27.9633 30.0473 28.0975 29.9901 28.2489L29.911 28.4696L35.0139 33.4243ZM29.6825 39.132L34.7942 33.9263L29.5682 28.8461L29.3353 28.9543C29.2957 28.9716 29.2605 28.9802 29.221 28.9932L28.9661 29.0754L28.9529 29.348V38.9242L29.2517 38.9848C29.3221 38.9978 29.388 39.0194 29.4539 39.0454L29.6825 39.132Z" fill="#161A1E"/>
<path d="M63.7418 30.9014V41.7281L57.4521 33.2554L57.5796 33.0477C57.6675 32.9092 57.7203 32.7578 57.7466 32.602L57.7818 32.3596L63.7418 30.9014Z" fill="#FDCECF"/>
<path d="M63.7418 30.9014V41.7281L57.4521 33.2554L57.5796 33.0477C57.6675 32.9092 57.7203 32.7578 57.7466 32.602L57.7818 32.3596L63.7418 30.9014Z" stroke="#161A1E"/>
<path d="M63.7417 30.3778L57.6586 31.8663L57.5092 31.6716C57.329 31.4336 57.0697 31.2649 56.784 31.2043L56.5422 31.148L55.0303 22.7705L55.2412 22.6406C55.2676 22.6233 55.2896 22.606 55.3116 22.5844L55.5973 22.3594L63.7417 30.3778Z" fill="#FDCECF"/>
<path d="M63.7417 30.3778L57.6586 31.8663L57.5092 31.6716C57.329 31.4336 57.0697 31.2649 56.784 31.2043L56.5422 31.148L55.0303 22.7705L55.2412 22.6406C55.2676 22.6233 55.2896 22.606 55.3116 22.5844L55.5973 22.3594L63.7417 30.3778Z" stroke="#161A1E"/>
<path d="M57.0384 33.5583L63.0819 41.7022L54.876 38.5217L56.3879 33.6622L56.6341 33.6362C56.6868 33.6362 56.744 33.6276 56.7967 33.6146L57.0384 33.5583Z" fill="#FDCECF"/>
<path d="M57.0384 33.5583L63.0819 41.7022L54.876 38.5217L56.3879 33.6622L56.6341 33.6362C56.6868 33.6362 56.744 33.6276 56.7967 33.6146L57.0384 33.5583Z" stroke="#161A1E"/>
<path d="M62.6907 42.8057L62.8006 43.0263L59.3899 46.8906L55.1221 39.1621L62.5545 42.0441V42.2864C62.5632 42.4638 62.6072 42.6412 62.6907 42.8057Z" fill="#FDCECF"/>
<path d="M62.6907 42.8057L62.8006 43.0263L59.3899 46.8906L55.1221 39.1621L62.5545 42.0441V42.2864C62.5632 42.4638 62.6072 42.6412 62.6907 42.8057Z" stroke="#161A1E"/>
<path d="M54.5688 39.2227L58.8586 46.9857H54.2436L51.8525 44.6447L54.5688 39.2227Z" fill="#FDCECF"/>
<path d="M54.5688 39.2227L58.8586 46.9857H54.2436L51.8525 44.6447L54.5688 39.2227Z" stroke="#161A1E"/>
<path d="M54.5243 22.8615L56.0319 31.239L55.8253 31.3688C55.8115 31.3779 55.8001 31.387 55.7847 31.3992C55.7708 31.4102 55.7537 31.4239 55.7286 31.4424L55.5352 31.5938L46.1865 26.5396L53.6936 22.5239L53.8826 22.6408C54.0057 22.7187 54.1375 22.7749 54.2826 22.8052L54.5243 22.8615Z" fill="#FDCECF"/>
<path d="M54.5243 22.8615L56.0319 31.239L55.8253 31.3688C55.8115 31.3779 55.8001 31.387 55.7847 31.3992C55.7708 31.4102 55.7537 31.4239 55.7286 31.4424L55.5352 31.5938L46.1865 26.5396L53.6936 22.5239L53.8826 22.6408C54.0057 22.7187 54.1375 22.7749 54.2826 22.8052L54.5243 22.8615Z" stroke="#161A1E"/>
<path d="M55.896 33.5107L54.362 38.4395L47.9713 39.227L44.1387 33.316L44.2837 33.1126C44.3365 33.0391 44.376 32.9655 44.4112 32.8876L44.5035 32.6626H55.2499L55.3466 32.8876C55.4213 33.065 55.54 33.2208 55.7026 33.355L55.896 33.5107Z" fill="#FDCECF"/>
<path d="M55.896 33.5107L54.362 38.4395L47.9713 39.227L44.1387 33.316L44.2837 33.1126C44.3365 33.0391 44.376 32.9655 44.4112 32.8876L44.5035 32.6626H55.2499L55.3466 32.8876C55.4213 33.065 55.54 33.2208 55.7026 33.355L55.896 33.5107Z" stroke="#161A1E"/>
<path d="M53.9087 47.3754L55.2889 51.7329H51.2848L51.1749 51.5512C51.0782 51.391 50.9595 51.2569 50.8145 51.1574L50.6123 51.0232L51.7067 45.2161L53.9087 47.3754Z" fill="#FDCECF"/>
<path d="M53.9087 47.3754L55.2889 51.7329H51.2848L51.1749 51.5512C51.0782 51.391 50.9595 51.2569 50.8145 51.1574L50.6123 51.0232L51.7067 45.2161L53.9087 47.3754Z" stroke="#161A1E"/>
<path d="M54.2258 31.4639L54.0456 32.1563H44.5035L44.4112 31.9313C44.3453 31.7798 44.253 31.6457 44.1343 31.5288L43.9541 31.3557L45.7781 26.8987L54.2258 31.4639Z" fill="#FDCECF"/>
<path d="M54.2258 31.4639L54.0456 32.1563H44.5035L44.4112 31.9313C44.3453 31.7798 44.253 31.6457 44.1343 31.5288L43.9541 31.3557L45.7781 26.8987L54.2258 31.4639Z" stroke="#161A1E"/>
<path d="M54.1152 38.9805L51.5 44.1991L48.2959 39.6988L54.1152 38.9805Z" fill="#FDCECF"/>
<path d="M54.1152 38.9805L51.5 44.1991L48.2959 39.6988L54.1152 38.9805Z" stroke="#161A1E"/>
<path d="M52.3967 21.853L52.5725 22.5454L45.6588 26.2409L39.0791 21.853H52.3967Z" fill="#FDCECF"/>
<path d="M52.3967 21.853L52.5725 22.5454L45.6588 26.2409L39.0791 21.853H52.3967Z" stroke="#161A1E"/>
<path d="M51.2368 44.926L50.0413 51.2871L45.5977 45.0169L45.7383 44.8092C45.7383 44.8092 45.7603 44.7702 45.7735 44.7486L45.9141 44.4846L51.2368 44.926Z" fill="#FDCECF"/>
<path d="M51.2368 44.926L50.0413 51.2871L45.5977 45.0169L45.7383 44.8092C45.7383 44.8092 45.7603 44.7702 45.7735 44.7486L45.9141 44.4846L51.2368 44.926Z" stroke="#161A1E"/>
<path d="M47.8436 39.9453L51.0126 44.3981L45.9537 43.9783L45.879 43.749C45.835 43.6235 45.7911 43.5283 45.7383 43.4461L45.5977 43.2427L47.8436 39.9453Z" fill="#FDCECF"/>
<path d="M47.8436 39.9453L51.0126 44.3981L45.9537 43.9783L45.879 43.749C45.835 43.6235 45.7911 43.5283 45.7383 43.4461L45.5977 43.2427L47.8436 39.9453Z" stroke="#161A1E"/>
<path d="M43.7035 33.5885L47.5318 39.4952L45.1715 42.957L44.9298 42.9138C44.8419 42.8965 44.7627 42.8878 44.688 42.8878C44.4287 42.8878 44.1782 42.9657 43.9628 43.1172L43.7167 43.2859L38.5918 38.6428L42.675 33.5366L42.9167 33.6015C43.0442 33.6318 43.1497 33.6491 43.2464 33.6491C43.3211 33.6491 43.3914 33.6405 43.4573 33.6275L43.7035 33.5885Z" fill="#FDCECF"/>
<path d="M43.7035 33.5885L47.5318 39.4952L45.1715 42.957L44.9298 42.9138C44.8419 42.8965 44.7627 42.8878 44.688 42.8878C44.4287 42.8878 44.1782 42.9657 43.9628 43.1172L43.7167 43.2859L38.5918 38.6428L42.675 33.5366L42.9167 33.6015C43.0442 33.6318 43.1497 33.6491 43.2464 33.6491C43.3211 33.6491 43.3914 33.6405 43.4573 33.6275L43.7035 33.5885Z" stroke="#161A1E"/>
<path d="M45.3298 26.6347L43.475 31.1696H43.2288C42.6355 31.1826 42.1388 31.5851 42.0157 32.1519L41.963 32.3899L35.502 33.5972L38.4028 22.0132L45.3298 26.6347Z" fill="#FDCECF"/>
<path d="M45.3298 26.6347L43.475 31.1696H43.2288C42.6355 31.1826 42.1388 31.5851 42.0157 32.1519L41.963 32.3899L35.502 33.5972L38.4028 22.0132L45.3298 26.6347Z" stroke="#161A1E"/>
<path d="M43.6025 43.8744H35.1328L38.293 39.0625L43.6025 43.8744Z" fill="#FDCECF"/>
<path d="M43.6025 43.8744H35.1328L38.293 39.0625L43.6025 43.8744Z" stroke="#161A1E"/>
<path d="M42.6179 32.7837L38.2666 38.2317L35.5811 34.0992L42.6179 32.7837Z" fill="#FDCECF"/>
<path d="M42.6179 32.7837L38.2666 38.2317L35.5811 34.0992L42.6179 32.7837Z" stroke="#161A1E"/>
<path d="M35.1146 34.3286L37.9364 38.6688L34.5125 43.8832L30.1612 40.7243L30.2183 40.4863C30.2447 40.3824 30.2578 40.2872 30.2578 40.1964C30.2578 40.0276 30.2227 39.8632 30.1568 39.7117L30.0557 39.4867L35.1146 34.3286Z" fill="#FDCECF"/>
<path d="M35.1146 34.3286L37.9364 38.6688L34.5125 43.8832L30.1612 40.7243L30.2183 40.4863C30.2447 40.3824 30.2578 40.2872 30.2578 40.1964C30.2578 40.0276 30.2227 39.8632 30.1568 39.7117L30.0557 39.4867L35.1146 34.3286Z" stroke="#161A1E"/>
<path d="M37.8749 21.9917L35.0136 33.4243L29.9107 28.4696L29.9898 28.2489C30.0469 28.0974 30.0733 27.9633 30.0733 27.8292C30.0733 27.6171 30.0162 27.4137 29.9019 27.219L29.7217 26.9118L37.8749 21.9917Z" fill="#FDCECF"/>
<path d="M37.8749 21.9917L35.0136 33.4243L29.9107 28.4696L29.9898 28.2489C30.0469 28.0974 30.0733 27.9633 30.0733 27.8292C30.0733 27.6171 30.0162 27.4137 29.9019 27.219L29.7217 26.9118L37.8749 21.9917Z" stroke="#161A1E"/>
<path d="M34.7944 33.9261L29.6827 39.1318L29.4542 39.0453C29.3883 39.0193 29.3223 38.9977 29.252 38.9847L28.9531 38.9241V29.3479L28.9663 29.0753L29.2212 28.9931C29.2327 28.9893 29.2438 28.9859 29.2547 28.9826C29.2815 28.9744 29.3074 28.9664 29.3355 28.9541L29.5685 28.8459L34.7944 33.9261Z" fill="#FDCECF"/>
<path d="M34.7944 33.9261L29.6827 39.1318L29.4542 39.0453C29.3883 39.0193 29.3223 38.9977 29.252 38.9847L28.9531 38.9241V29.3479L28.9663 29.0753L29.2212 28.9931C29.2327 28.9893 29.2438 28.9859 29.2547 28.9826C29.2815 28.9744 29.3074 28.9664 29.3355 28.9541L29.5685 28.8459L34.7944 33.9261Z" stroke="#161A1E"/>
</g>
<defs>
<clipPath id="clip0_2014_15345">
<rect width="56" height="64" fill="white" transform="translate(16 12)"/>
</clipPath>
</defs>
</svg>
