<svg width="88" height="88" viewBox="0 0 88 88" fill="none" xmlns="http://www.w3.org/2000/svg">
<g clip-path="url(#clip0_1939_19428)">
<path d="M42.0766 68.824C54.1685 68.824 63.9709 59.0728 63.9709 47.0441C63.9709 35.0154 54.1685 25.2642 42.0766 25.2642C29.9848 25.2642 20.1824 35.0154 20.1824 47.0441C20.1824 59.0728 29.9848 68.824 42.0766 68.824Z" fill="#FDCECF" stroke="#161A1E" stroke-width="0.7" stroke-linecap="round" stroke-linejoin="round"/>
<path d="M56.5482 50.4398C58.4347 42.4885 53.4844 34.5214 45.4914 32.6447C37.4984 30.768 29.4895 35.6925 27.603 43.6437C25.7165 51.595 30.6667 59.5621 38.6597 61.4388C46.6527 63.3154 54.6617 58.391 56.5482 50.4398Z" fill="white" stroke="#161A1E" stroke-width="0.7" stroke-linecap="round" stroke-linejoin="round"/>
<path d="M48.9895 48.161C49.6093 44.3627 47.0165 40.7837 43.1982 40.1672C39.38 39.5506 35.7823 42.13 35.1625 45.9282C34.5427 49.7265 37.1356 53.3055 40.9538 53.922C44.772 54.5386 48.3697 51.9593 48.9895 48.161Z" fill="#FDCECF" stroke="#161A1E" stroke-width="0.7" stroke-linecap="round" stroke-linejoin="round"/>
<path d="M51.1952 39.4499C51.6073 39.1076 51.9214 31.0297 51.9214 31.0297L65.6073 19.1765L66.7476 26.4962L73.8197 29.3122L60.4558 40.9584L51.1952 39.4499Z" fill="white" stroke="#161A1E" stroke-width="0.7" stroke-linecap="round" stroke-linejoin="round"/>
<path d="M42.0767 47.0436L70.9209 23.0188" stroke="#161A1E" stroke-width="0.7" stroke-linecap="round" stroke-linejoin="round"/>
<path d="M61.1 24.46V31.1985L68.184 32.2513" stroke="#161A1E" stroke-width="0.7" stroke-linecap="round" stroke-linejoin="round"/>
<path d="M56.4988 28.4746V35.2132L63.5828 36.264" stroke="#161A1E" stroke-width="0.7" stroke-linecap="round" stroke-linejoin="round"/>
</g>
<defs>
<clipPath id="clip0_1939_19428">
<rect width="56" height="52" fill="white" transform="translate(19 18)"/>
</clipPath>
</defs>
</svg>
