<svg width="43" height="59" viewBox="0 0 43 59" fill="none" xmlns="http://www.w3.org/2000/svg">
<g id="Group 135">
<path id="Vector" d="M37.8556 15.4417C35.651 8.63632 28.9279 3.8805 21.4998 3.8805C21.2813 3.8805 21.1025 4.05959 21.1025 4.27848C21.1025 4.49737 21.2813 4.67646 21.4998 4.67646C28.5903 4.67646 35.0055 9.20344 37.1009 15.6905C37.1506 15.8496 37.2995 15.969 37.4783 15.969C37.518 15.969 37.5577 15.9591 37.5974 15.9491C37.6968 15.9093 37.7762 15.8397 37.8259 15.7501C37.8755 15.6507 37.8854 15.5412 37.8556 15.4417ZM21.4998 1.04492C31.5496 1.04492 41.957 8.44728 41.957 20.8343C41.957 28.7142 37.9252 32.107 34.3799 35.1018C32.0462 37.0817 30.0302 38.783 30.0302 41.3699V44.0264H12.9593V41.3699C12.9593 38.783 10.9434 37.0817 8.60969 35.1018C5.06442 32.107 1.04248 28.7142 1.04248 20.8343C1.04248 8.44728 11.4399 1.04492 21.4998 1.04492Z" fill="#FDCECF"/>
<path id="Vector_2" d="M21.4998 3.88037C28.9279 3.88037 35.651 8.63619 37.8557 15.4416C37.8854 15.5411 37.8755 15.6505 37.8259 15.75C37.7762 15.8396 37.6968 15.9092 37.5975 15.949C37.5577 15.949 37.518 15.9689 37.4783 15.9689C37.2995 15.9689 37.1506 15.8495 37.1009 15.6903C35.0055 9.20331 28.5903 4.67632 21.4998 4.67632C21.2813 4.67632 21.1025 4.49723 21.1025 4.27835C21.1025 4.05946 21.2813 3.88037 21.4998 3.88037Z" fill="#161A1E"/>
<path id="Vector_3" d="M30.4276 47.5083C30.6461 47.5083 30.8249 47.6874 30.8249 47.9063C30.8249 48.1252 30.6461 48.3043 30.4276 48.3043H12.5623C12.3438 48.3043 12.165 48.1252 12.165 47.9063C12.165 47.6874 12.3438 47.5083 12.5623 47.5083H30.4276Z" fill="#161A1E"/>
<path id="Vector_4" d="M30.4276 50.9907C30.6461 50.9907 30.8249 51.1698 30.8249 51.3887C30.8249 51.6076 30.6461 51.7867 30.4276 51.7867H12.5623C12.3438 51.7867 12.165 51.6076 12.165 51.3887C12.165 51.1698 12.3438 50.9907 12.5623 50.9907H30.4276Z" fill="#161A1E"/>
<path id="Vector_5" d="M30.4276 54.4731C30.6461 54.4731 30.8249 54.6522 30.8249 54.8711C30.8249 55.09 30.6461 55.2691 30.4276 55.2691H12.5623C12.3438 55.2691 12.165 55.09 12.165 54.8711C12.165 54.6522 12.3438 54.4731 12.5623 54.4731H30.4276Z" fill="#161A1E"/>
<path id="Vector_6" d="M28.6498 57.9551C28.8682 57.9551 29.047 58.1342 29.047 58.3531C29.047 58.5719 28.8682 58.751 28.6498 58.751H14.3396C14.1211 58.751 13.9424 58.5719 13.9424 58.3531C13.9424 58.1342 14.1211 57.9551 14.3396 57.9551H28.6498Z" fill="#161A1E"/>
<path id="Vector_7" d="M21.4998 0.248535C31.9469 0.248535 42.7515 7.94938 42.7515 20.8339C42.7515 29.0819 38.2032 32.9124 34.8864 35.7182C32.6222 37.6285 30.8247 39.1507 30.8247 41.3694V44.4239C30.8247 44.6428 30.646 44.8219 30.4275 44.8219H12.5621C12.3437 44.8219 12.1649 44.6428 12.1649 44.4239V41.3694C12.1649 39.1507 10.3774 37.6285 8.10324 35.7182C4.78638 32.9124 0.248047 29.0819 0.248047 20.8339C0.248047 7.94938 11.0527 0.248535 21.4998 0.248535ZM41.9571 20.8339C41.9571 8.44685 31.5497 1.04449 21.4998 1.04449C11.4499 1.04449 1.0425 8.44685 1.0425 20.8339C1.0425 28.7138 5.06444 32.1065 8.60971 35.1013C10.9434 37.0812 12.9594 38.7826 12.9594 41.3694V44.0259H30.0303V41.3694C30.0303 38.7826 32.0462 37.0812 34.3799 35.1013C37.9252 32.1065 41.9571 28.7138 41.9571 20.8339Z" fill="#161A1E"/>
</g>
</svg>
