<svg width="88" height="88" viewBox="0 0 88 88" fill="none" xmlns="http://www.w3.org/2000/svg">
<path d="M48.233 35.2221L41.3715 30.2126H49.8251L52.4913 22.0071L55.1562 30.2126H63.6099L56.7483 35.2221L59.4211 43.4249L52.4913 38.3626L45.5603 43.4249L48.233 35.2221Z" fill="#FDCECF"/>
<path d="M41.3716 29.9628H40.6052L41.2242 30.4147L47.9393 35.3173L45.3227 43.3477L45.083 44.0835L45.7078 43.6271L52.4914 38.6724L59.2737 43.627L59.8987 44.0836L59.6589 43.3477L57.0423 35.3173L63.7574 30.4147L64.3764 29.9628H63.61H55.338L52.7292 21.9301L52.4915 21.1981L52.2537 21.9301L49.6436 29.9628H41.3716Z" stroke="#161A1E" stroke-width="0.5"/>
<g clip-path="url(#clip0_1939_18425)">
<path d="M14.8767 66.0001C14.7328 66.0001 14.61 65.8965 14.5849 65.753C14.5572 65.5909 14.6654 65.4355 14.8265 65.4063C19.0791 64.6571 27.5512 63.2743 30.0465 62.8691L30.3106 62.8266L27.6595 47.3792L27.3941 47.4323C25.4427 47.8202 18.7345 49.1539 14.3565 50.0346C14.3367 50.0385 14.3169 50.0399 14.2984 50.0399C14.1571 50.0399 14.0343 49.9389 14.0066 49.7994C13.9908 49.7211 14.0066 49.6414 14.0502 49.5749C14.0938 49.5085 14.1611 49.4634 14.239 49.4474C19.4144 48.406 27.7598 46.7495 27.8417 46.7336C27.8602 46.7296 27.88 46.7283 27.8998 46.7283C27.9605 46.7283 28.0186 46.7469 28.0674 46.7814C28.1335 46.8266 28.1783 46.8983 28.1915 46.9767L30.9456 63.0246C30.9588 63.1029 30.9403 63.1853 30.8941 63.2491C30.8479 63.3128 30.7779 63.358 30.7 63.3699L30.667 63.3752C29.5501 63.5572 19.6191 65.1712 14.9268 65.9974C14.9097 66.0001 14.8912 66.0014 14.8753 66.0014L14.8767 66.0001Z" fill="#161A1E"/>
<path d="M50.5542 59.4553C47.3948 59.4553 42.9732 58.8682 40.8595 58.5215C40.2324 58.4178 39.5419 58.366 38.8091 58.366C37.0373 58.366 35.2787 58.6729 34.1143 58.9306C34.0931 58.9346 34.072 58.9372 34.0509 58.9372C33.9928 58.9372 33.936 58.92 33.8872 58.8881C33.8212 58.8442 33.7736 58.7738 33.7591 58.6941L32.1761 50.4118C32.1523 50.291 32.2078 50.1661 32.3121 50.101C33.8964 49.118 35.8689 47.8946 37.102 47.5824C38.4236 47.249 39.8561 46.9408 41.385 46.9408C41.7507 46.9408 42.1217 46.9581 42.4861 46.994C43.3469 47.0777 44.2882 47.2012 45.1979 47.3221C46.3082 47.4695 47.3565 47.6077 48.1698 47.6608C48.3097 47.6701 48.5025 47.6741 48.7428 47.6741C50.3377 47.6741 53.773 47.4748 55.8247 47.3553C56.5271 47.3141 57.0723 47.2822 57.2849 47.2743C57.3681 47.2716 57.4499 47.2689 57.5292 47.2689C59.0554 47.2689 60.175 47.8441 60.8549 48.9785L60.9064 49.0649L61.0015 49.0954C61.2008 49.1592 61.4939 49.1897 61.8992 49.1897C62.4128 49.1897 63.106 49.1379 63.9588 49.0383C64.8355 48.9347 67.5407 48.0341 68.7224 46.5237C69.4908 45.5407 70.3819 44.9988 71.2309 44.9988C71.5121 44.9988 71.7867 45.0599 72.023 45.1755C72.7716 45.5407 73.1505 46.3909 72.9459 47.2424C72.8046 47.8308 68.1969 53.3794 66.7195 54.3743C65.3161 55.3188 56.4307 58.6344 52.8356 59.2959C52.2692 59.3995 51.5021 59.4526 50.5568 59.4526L50.5542 59.4553ZM38.8131 57.7696C39.5788 57.7696 40.2997 57.8241 40.9559 57.9317C43.7667 58.3926 47.8292 58.8589 50.5674 58.8589C51.4678 58.8589 52.194 58.8097 52.726 58.7114C56.3845 58.0366 65.1841 54.6891 66.3868 53.8802C67.7071 52.9915 71.9544 47.9105 72.3518 47.1295L72.3676 47.0976L72.3755 47.063C72.4944 46.4945 72.2475 45.9539 71.7616 45.7161C71.5992 45.6364 71.4183 45.5965 71.2229 45.5965C70.5655 45.5965 69.8419 46.0575 69.1871 46.8957C67.8814 48.5654 65.0045 49.5179 64.0249 49.6347C63.106 49.7437 62.463 49.7915 61.9402 49.7915C61.2774 49.7915 60.8179 49.7105 60.5341 49.5431C60.4892 49.5165 60.4522 49.4793 60.4258 49.4328C60.0126 48.7049 59.3102 47.8694 57.5371 47.8694C57.4618 47.8694 57.3839 47.8707 57.3047 47.8733C57.0987 47.8813 56.5548 47.9132 55.8683 47.953C53.2026 48.1085 50.2347 48.2732 48.7415 48.2732C48.4853 48.2732 48.2781 48.2679 48.1289 48.2586C47.2945 48.2041 46.2383 48.0633 45.1187 47.9159C44.2143 47.7963 43.2795 47.6728 42.428 47.5904C42.086 47.5572 41.7375 47.5413 41.3916 47.5413C39.9195 47.5413 38.5292 47.8401 37.2459 48.1643C36.2029 48.4273 34.4839 49.4594 32.9537 50.4065L32.798 50.5022L34.2846 58.281L34.5447 58.2292C36.0722 57.9237 37.5087 57.7696 38.8118 57.7696H38.8131Z" fill="#161A1E"/>
<path d="M30.4664 63.419C30.3238 63.419 30.201 63.3167 30.1746 63.1746C30.1601 63.0962 30.1773 63.0165 30.2222 62.9501C30.2671 62.8837 30.3344 62.8398 30.4123 62.8252L33.6694 62.2128C33.8014 62.1903 33.9163 62.1172 33.9915 62.0083C34.0668 61.8994 34.0932 61.7678 34.0681 61.6377L31.6322 49.2308C31.6071 49.1006 31.5319 48.989 31.421 48.9173C31.3655 48.8815 31.2757 48.8389 31.1582 48.8389C31.1213 48.8389 31.0856 48.8429 31.0487 48.8509L28.4609 49.3517C28.4424 49.3557 28.4226 49.357 28.4042 49.357C28.2629 49.357 28.1401 49.2547 28.1124 49.1139C28.082 48.9519 28.1876 48.7951 28.3487 48.7632L30.9153 48.2664C31.0011 48.2478 31.0817 48.2385 31.1609 48.2385C31.3655 48.2385 31.5675 48.2983 31.7431 48.4125C31.99 48.5733 32.159 48.8217 32.2158 49.1139L34.6517 61.5208C34.7084 61.8104 34.6477 62.1039 34.4813 62.347C34.315 62.5901 34.0641 62.7508 33.775 62.8013L30.5219 63.4137C30.5034 63.4177 30.4849 63.419 30.4664 63.419Z" fill="#161A1E"/>
<path d="M47.4938 53.1334C47.342 53.1334 47.2139 53.0179 47.1981 52.8651C47.1902 52.7854 47.2126 52.707 47.2628 52.6459C47.313 52.5835 47.3842 52.545 47.4635 52.537C50.6598 52.2036 59.3274 50.9191 60.0878 50.6972L60.1142 50.6893L60.138 50.676C60.5671 50.4475 60.6938 50.0955 60.5143 49.6292C60.4549 49.4752 60.5314 49.3011 60.6833 49.2414C60.7176 49.2281 60.7546 49.2214 60.7902 49.2214C60.9117 49.2214 61.0239 49.2985 61.0675 49.4127C61.5071 50.5524 60.6463 51.0904 60.3717 51.2273C59.8053 51.4836 50.2505 52.8465 47.5242 53.1308C47.5136 53.1308 47.5031 53.1321 47.4925 53.1321L47.4938 53.1334Z" fill="#161A1E"/>
</g>
<defs>
<clipPath id="clip0_1939_18425">
<rect width="59" height="21" fill="white" transform="translate(14 45)"/>
</clipPath>
</defs>
</svg>
